<?xml version="1.0" encoding="utf-8" standalone="no"?>
<!DOCTYPE svg PUBLIC "-//W3C//DTD SVG 1.1//EN"
  "http://www.w3.org/Graphics/SVG/1.1/DTD/svg11.dtd">
<svg height="425.19685pt" version="1.1" viewBox="0 0 566.929134 425.19685" width="566.929134pt" xmlns="http://www.w3.org/2000/svg" xmlns:xlink="http://www.w3.org/1999/xlink">
 <metadata>
  <rdf:RDF xmlns:cc="http://creativecommons.org/ns#" xmlns:dc="http://purl.org/dc/elements/1.1/" xmlns:rdf="http://www.w3.org/1999/02/22-rdf-syntax-ns#">
   <cc:Work>
    <dc:type rdf:resource="http://purl.org/dc/dcmitype/StillImage"/>
    <dc:date>2023-06-05T02:41:08.522405</dc:date>
    <dc:format>image/svg+xml</dc:format>
    <dc:creator>
     <cc:Agent>
      <dc:title>Matplotlib v3.4.3, https://matplotlib.org/</dc:title>
     </cc:Agent>
    </dc:creator>
   </cc:Work>
  </rdf:RDF>
 </metadata>
 <defs>
  <style type="text/css">*{stroke-linecap:butt;stroke-linejoin:round;}</style>
 </defs>
 <g id="figure_1">
  <g id="patch_1">
   <path d="M 0 425.19685 
L 566.929134 425.19685 
L 566.929134 0 
L 0 0 
z
" style="fill:none;"/>
  </g>
  <g id="axes_1">
   <g id="patch_2">
    <path d="M 70.866142 372.047244 
L 510.23622 372.047244 
L 510.23622 51.023622 
L 70.866142 51.023622 
z
" style="fill:none;"/>
   </g>
   <g id="matplotlib.axis_1">
    <g id="xtick_1">
     <g id="line2d_1">
      <path clip-path="url(#pfcfecc6d12)" d="M 90.837509 372.047244 
L 90.837509 51.023622 
" style="fill:none;stroke:#b0b0b0;stroke-linecap:square;stroke-width:0.8;"/>
     </g>
     <g id="line2d_2">
      <defs>
       <path d="M 0 0 
L 0 3.5 
" id="m461e2a7472" style="stroke:#000000;stroke-width:0.8;"/>
      </defs>
      <g>
       <use style="stroke:#000000;stroke-width:0.8;" x="90.837509" xlink:href="#m461e2a7472" y="372.047244"/>
      </g>
     </g>
     <g id="text_1">
      <!-- 0 -->
      <g transform="translate(83.838759 395.763807)scale(0.22 -0.22)">
       <defs>
        <path d="M 2034 4250 
Q 1547 4250 1301 3770 
Q 1056 3291 1056 2328 
Q 1056 1369 1301 889 
Q 1547 409 2034 409 
Q 2525 409 2770 889 
Q 3016 1369 3016 2328 
Q 3016 3291 2770 3770 
Q 2525 4250 2034 4250 
z
M 2034 4750 
Q 2819 4750 3233 4129 
Q 3647 3509 3647 2328 
Q 3647 1150 3233 529 
Q 2819 -91 2034 -91 
Q 1250 -91 836 529 
Q 422 1150 422 2328 
Q 422 3509 836 4129 
Q 1250 4750 2034 4750 
z
" id="DejaVuSans-30" transform="scale(0.015625)"/>
       </defs>
       <use xlink:href="#DejaVuSans-30"/>
      </g>
     </g>
    </g>
    <g id="xtick_2">
     <g id="line2d_3">
      <path clip-path="url(#pfcfecc6d12)" d="M 190.694345 372.047244 
L 190.694345 51.023622 
" style="fill:none;stroke:#b0b0b0;stroke-linecap:square;stroke-width:0.8;"/>
     </g>
     <g id="line2d_4">
      <g>
       <use style="stroke:#000000;stroke-width:0.8;" x="190.694345" xlink:href="#m461e2a7472" y="372.047244"/>
      </g>
     </g>
     <g id="text_2">
      <!-- 10 -->
      <g transform="translate(176.696845 395.763807)scale(0.22 -0.22)">
       <defs>
        <path d="M 794 531 
L 1825 531 
L 1825 4091 
L 703 3866 
L 703 4441 
L 1819 4666 
L 2450 4666 
L 2450 531 
L 3481 531 
L 3481 0 
L 794 0 
L 794 531 
z
" id="DejaVuSans-31" transform="scale(0.015625)"/>
       </defs>
       <use xlink:href="#DejaVuSans-31"/>
       <use x="63.623047" xlink:href="#DejaVuSans-30"/>
      </g>
     </g>
    </g>
    <g id="xtick_3">
     <g id="line2d_5">
      <path clip-path="url(#pfcfecc6d12)" d="M 290.551181 372.047244 
L 290.551181 51.023622 
" style="fill:none;stroke:#b0b0b0;stroke-linecap:square;stroke-width:0.8;"/>
     </g>
     <g id="line2d_6">
      <g>
       <use style="stroke:#000000;stroke-width:0.8;" x="290.551181" xlink:href="#m461e2a7472" y="372.047244"/>
      </g>
     </g>
     <g id="text_3">
      <!-- 20 -->
      <g transform="translate(276.553681 395.763807)scale(0.22 -0.22)">
       <defs>
        <path d="M 1228 531 
L 3431 531 
L 3431 0 
L 469 0 
L 469 531 
Q 828 903 1448 1529 
Q 2069 2156 2228 2338 
Q 2531 2678 2651 2914 
Q 2772 3150 2772 3378 
Q 2772 3750 2511 3984 
Q 2250 4219 1831 4219 
Q 1534 4219 1204 4116 
Q 875 4013 500 3803 
L 500 4441 
Q 881 4594 1212 4672 
Q 1544 4750 1819 4750 
Q 2544 4750 2975 4387 
Q 3406 4025 3406 3419 
Q 3406 3131 3298 2873 
Q 3191 2616 2906 2266 
Q 2828 2175 2409 1742 
Q 1991 1309 1228 531 
z
" id="DejaVuSans-32" transform="scale(0.015625)"/>
       </defs>
       <use xlink:href="#DejaVuSans-32"/>
       <use x="63.623047" xlink:href="#DejaVuSans-30"/>
      </g>
     </g>
    </g>
    <g id="xtick_4">
     <g id="line2d_7">
      <path clip-path="url(#pfcfecc6d12)" d="M 390.408017 372.047244 
L 390.408017 51.023622 
" style="fill:none;stroke:#b0b0b0;stroke-linecap:square;stroke-width:0.8;"/>
     </g>
     <g id="line2d_8">
      <g>
       <use style="stroke:#000000;stroke-width:0.8;" x="390.408017" xlink:href="#m461e2a7472" y="372.047244"/>
      </g>
     </g>
     <g id="text_4">
      <!-- 30 -->
      <g transform="translate(376.410517 395.763807)scale(0.22 -0.22)">
       <defs>
        <path d="M 2597 2516 
Q 3050 2419 3304 2112 
Q 3559 1806 3559 1356 
Q 3559 666 3084 287 
Q 2609 -91 1734 -91 
Q 1441 -91 1130 -33 
Q 819 25 488 141 
L 488 750 
Q 750 597 1062 519 
Q 1375 441 1716 441 
Q 2309 441 2620 675 
Q 2931 909 2931 1356 
Q 2931 1769 2642 2001 
Q 2353 2234 1838 2234 
L 1294 2234 
L 1294 2753 
L 1863 2753 
Q 2328 2753 2575 2939 
Q 2822 3125 2822 3475 
Q 2822 3834 2567 4026 
Q 2313 4219 1838 4219 
Q 1578 4219 1281 4162 
Q 984 4106 628 3988 
L 628 4550 
Q 988 4650 1302 4700 
Q 1616 4750 1894 4750 
Q 2613 4750 3031 4423 
Q 3450 4097 3450 3541 
Q 3450 3153 3228 2886 
Q 3006 2619 2597 2516 
z
" id="DejaVuSans-33" transform="scale(0.015625)"/>
       </defs>
       <use xlink:href="#DejaVuSans-33"/>
       <use x="63.623047" xlink:href="#DejaVuSans-30"/>
      </g>
     </g>
    </g>
    <g id="xtick_5">
     <g id="line2d_9">
      <path clip-path="url(#pfcfecc6d12)" d="M 490.264853 372.047244 
L 490.264853 51.023622 
" style="fill:none;stroke:#b0b0b0;stroke-linecap:square;stroke-width:0.8;"/>
     </g>
     <g id="line2d_10">
      <g>
       <use style="stroke:#000000;stroke-width:0.8;" x="490.264853" xlink:href="#m461e2a7472" y="372.047244"/>
      </g>
     </g>
     <g id="text_5">
      <!-- 40 -->
      <g transform="translate(476.267353 395.763807)scale(0.22 -0.22)">
       <defs>
        <path d="M 2419 4116 
L 825 1625 
L 2419 1625 
L 2419 4116 
z
M 2253 4666 
L 3047 4666 
L 3047 1625 
L 3713 1625 
L 3713 1100 
L 3047 1100 
L 3047 0 
L 2419 0 
L 2419 1100 
L 313 1100 
L 313 1709 
L 2253 4666 
z
" id="DejaVuSans-34" transform="scale(0.015625)"/>
       </defs>
       <use xlink:href="#DejaVuSans-34"/>
       <use x="63.623047" xlink:href="#DejaVuSans-30"/>
      </g>
     </g>
    </g>
    <g id="text_6">
     <!-- Depth in Diamond (nm) -->
     <g transform="translate(160.594775 421.055682)scale(0.22 -0.22)">
      <defs>
       <path d="M 1259 4147 
L 1259 519 
L 2022 519 
Q 2988 519 3436 956 
Q 3884 1394 3884 2338 
Q 3884 3275 3436 3711 
Q 2988 4147 2022 4147 
L 1259 4147 
z
M 628 4666 
L 1925 4666 
Q 3281 4666 3915 4102 
Q 4550 3538 4550 2338 
Q 4550 1131 3912 565 
Q 3275 0 1925 0 
L 628 0 
L 628 4666 
z
" id="DejaVuSans-44" transform="scale(0.015625)"/>
       <path d="M 3597 1894 
L 3597 1613 
L 953 1613 
Q 991 1019 1311 708 
Q 1631 397 2203 397 
Q 2534 397 2845 478 
Q 3156 559 3463 722 
L 3463 178 
Q 3153 47 2828 -22 
Q 2503 -91 2169 -91 
Q 1331 -91 842 396 
Q 353 884 353 1716 
Q 353 2575 817 3079 
Q 1281 3584 2069 3584 
Q 2775 3584 3186 3129 
Q 3597 2675 3597 1894 
z
M 3022 2063 
Q 3016 2534 2758 2815 
Q 2500 3097 2075 3097 
Q 1594 3097 1305 2825 
Q 1016 2553 972 2059 
L 3022 2063 
z
" id="DejaVuSans-65" transform="scale(0.015625)"/>
       <path d="M 1159 525 
L 1159 -1331 
L 581 -1331 
L 581 3500 
L 1159 3500 
L 1159 2969 
Q 1341 3281 1617 3432 
Q 1894 3584 2278 3584 
Q 2916 3584 3314 3078 
Q 3713 2572 3713 1747 
Q 3713 922 3314 415 
Q 2916 -91 2278 -91 
Q 1894 -91 1617 61 
Q 1341 213 1159 525 
z
M 3116 1747 
Q 3116 2381 2855 2742 
Q 2594 3103 2138 3103 
Q 1681 3103 1420 2742 
Q 1159 2381 1159 1747 
Q 1159 1113 1420 752 
Q 1681 391 2138 391 
Q 2594 391 2855 752 
Q 3116 1113 3116 1747 
z
" id="DejaVuSans-70" transform="scale(0.015625)"/>
       <path d="M 1172 4494 
L 1172 3500 
L 2356 3500 
L 2356 3053 
L 1172 3053 
L 1172 1153 
Q 1172 725 1289 603 
Q 1406 481 1766 481 
L 2356 481 
L 2356 0 
L 1766 0 
Q 1100 0 847 248 
Q 594 497 594 1153 
L 594 3053 
L 172 3053 
L 172 3500 
L 594 3500 
L 594 4494 
L 1172 4494 
z
" id="DejaVuSans-74" transform="scale(0.015625)"/>
       <path d="M 3513 2113 
L 3513 0 
L 2938 0 
L 2938 2094 
Q 2938 2591 2744 2837 
Q 2550 3084 2163 3084 
Q 1697 3084 1428 2787 
Q 1159 2491 1159 1978 
L 1159 0 
L 581 0 
L 581 4863 
L 1159 4863 
L 1159 2956 
Q 1366 3272 1645 3428 
Q 1925 3584 2291 3584 
Q 2894 3584 3203 3211 
Q 3513 2838 3513 2113 
z
" id="DejaVuSans-68" transform="scale(0.015625)"/>
       <path id="DejaVuSans-20" transform="scale(0.015625)"/>
       <path d="M 603 3500 
L 1178 3500 
L 1178 0 
L 603 0 
L 603 3500 
z
M 603 4863 
L 1178 4863 
L 1178 4134 
L 603 4134 
L 603 4863 
z
" id="DejaVuSans-69" transform="scale(0.015625)"/>
       <path d="M 3513 2113 
L 3513 0 
L 2938 0 
L 2938 2094 
Q 2938 2591 2744 2837 
Q 2550 3084 2163 3084 
Q 1697 3084 1428 2787 
Q 1159 2491 1159 1978 
L 1159 0 
L 581 0 
L 581 3500 
L 1159 3500 
L 1159 2956 
Q 1366 3272 1645 3428 
Q 1925 3584 2291 3584 
Q 2894 3584 3203 3211 
Q 3513 2838 3513 2113 
z
" id="DejaVuSans-6e" transform="scale(0.015625)"/>
       <path d="M 2194 1759 
Q 1497 1759 1228 1600 
Q 959 1441 959 1056 
Q 959 750 1161 570 
Q 1363 391 1709 391 
Q 2188 391 2477 730 
Q 2766 1069 2766 1631 
L 2766 1759 
L 2194 1759 
z
M 3341 1997 
L 3341 0 
L 2766 0 
L 2766 531 
Q 2569 213 2275 61 
Q 1981 -91 1556 -91 
Q 1019 -91 701 211 
Q 384 513 384 1019 
Q 384 1609 779 1909 
Q 1175 2209 1959 2209 
L 2766 2209 
L 2766 2266 
Q 2766 2663 2505 2880 
Q 2244 3097 1772 3097 
Q 1472 3097 1187 3025 
Q 903 2953 641 2809 
L 641 3341 
Q 956 3463 1253 3523 
Q 1550 3584 1831 3584 
Q 2591 3584 2966 3190 
Q 3341 2797 3341 1997 
z
" id="DejaVuSans-61" transform="scale(0.015625)"/>
       <path d="M 3328 2828 
Q 3544 3216 3844 3400 
Q 4144 3584 4550 3584 
Q 5097 3584 5394 3201 
Q 5691 2819 5691 2113 
L 5691 0 
L 5113 0 
L 5113 2094 
Q 5113 2597 4934 2840 
Q 4756 3084 4391 3084 
Q 3944 3084 3684 2787 
Q 3425 2491 3425 1978 
L 3425 0 
L 2847 0 
L 2847 2094 
Q 2847 2600 2669 2842 
Q 2491 3084 2119 3084 
Q 1678 3084 1418 2786 
Q 1159 2488 1159 1978 
L 1159 0 
L 581 0 
L 581 3500 
L 1159 3500 
L 1159 2956 
Q 1356 3278 1631 3431 
Q 1906 3584 2284 3584 
Q 2666 3584 2933 3390 
Q 3200 3197 3328 2828 
z
" id="DejaVuSans-6d" transform="scale(0.015625)"/>
       <path d="M 1959 3097 
Q 1497 3097 1228 2736 
Q 959 2375 959 1747 
Q 959 1119 1226 758 
Q 1494 397 1959 397 
Q 2419 397 2687 759 
Q 2956 1122 2956 1747 
Q 2956 2369 2687 2733 
Q 2419 3097 1959 3097 
z
M 1959 3584 
Q 2709 3584 3137 3096 
Q 3566 2609 3566 1747 
Q 3566 888 3137 398 
Q 2709 -91 1959 -91 
Q 1206 -91 779 398 
Q 353 888 353 1747 
Q 353 2609 779 3096 
Q 1206 3584 1959 3584 
z
" id="DejaVuSans-6f" transform="scale(0.015625)"/>
       <path d="M 2906 2969 
L 2906 4863 
L 3481 4863 
L 3481 0 
L 2906 0 
L 2906 525 
Q 2725 213 2448 61 
Q 2172 -91 1784 -91 
Q 1150 -91 751 415 
Q 353 922 353 1747 
Q 353 2572 751 3078 
Q 1150 3584 1784 3584 
Q 2172 3584 2448 3432 
Q 2725 3281 2906 2969 
z
M 947 1747 
Q 947 1113 1208 752 
Q 1469 391 1925 391 
Q 2381 391 2643 752 
Q 2906 1113 2906 1747 
Q 2906 2381 2643 2742 
Q 2381 3103 1925 3103 
Q 1469 3103 1208 2742 
Q 947 2381 947 1747 
z
" id="DejaVuSans-64" transform="scale(0.015625)"/>
       <path d="M 1984 4856 
Q 1566 4138 1362 3434 
Q 1159 2731 1159 2009 
Q 1159 1288 1364 580 
Q 1569 -128 1984 -844 
L 1484 -844 
Q 1016 -109 783 600 
Q 550 1309 550 2009 
Q 550 2706 781 3412 
Q 1013 4119 1484 4856 
L 1984 4856 
z
" id="DejaVuSans-28" transform="scale(0.015625)"/>
       <path d="M 513 4856 
L 1013 4856 
Q 1481 4119 1714 3412 
Q 1947 2706 1947 2009 
Q 1947 1309 1714 600 
Q 1481 -109 1013 -844 
L 513 -844 
Q 928 -128 1133 580 
Q 1338 1288 1338 2009 
Q 1338 2731 1133 3434 
Q 928 4138 513 4856 
z
" id="DejaVuSans-29" transform="scale(0.015625)"/>
      </defs>
      <use xlink:href="#DejaVuSans-44"/>
      <use x="77.001953" xlink:href="#DejaVuSans-65"/>
      <use x="138.525391" xlink:href="#DejaVuSans-70"/>
      <use x="202.001953" xlink:href="#DejaVuSans-74"/>
      <use x="241.210938" xlink:href="#DejaVuSans-68"/>
      <use x="304.589844" xlink:href="#DejaVuSans-20"/>
      <use x="336.376953" xlink:href="#DejaVuSans-69"/>
      <use x="364.160156" xlink:href="#DejaVuSans-6e"/>
      <use x="427.539062" xlink:href="#DejaVuSans-20"/>
      <use x="459.326172" xlink:href="#DejaVuSans-44"/>
      <use x="536.328125" xlink:href="#DejaVuSans-69"/>
      <use x="564.111328" xlink:href="#DejaVuSans-61"/>
      <use x="625.390625" xlink:href="#DejaVuSans-6d"/>
      <use x="722.802734" xlink:href="#DejaVuSans-6f"/>
      <use x="783.984375" xlink:href="#DejaVuSans-6e"/>
      <use x="847.363281" xlink:href="#DejaVuSans-64"/>
      <use x="910.839844" xlink:href="#DejaVuSans-20"/>
      <use x="942.626953" xlink:href="#DejaVuSans-28"/>
      <use x="981.640625" xlink:href="#DejaVuSans-6e"/>
      <use x="1045.019531" xlink:href="#DejaVuSans-6d"/>
      <use x="1142.431641" xlink:href="#DejaVuSans-29"/>
     </g>
    </g>
   </g>
   <g id="matplotlib.axis_2">
    <g id="ytick_1">
     <g id="line2d_11">
      <path clip-path="url(#pfcfecc6d12)" d="M 70.866142 357.455261 
L 510.23622 357.455261 
" style="fill:none;stroke:#b0b0b0;stroke-linecap:square;stroke-width:0.8;"/>
     </g>
     <g id="line2d_12">
      <defs>
       <path d="M 0 0 
L -3.5 0 
" id="m6315f892ae" style="stroke:#000000;stroke-width:0.8;"/>
      </defs>
      <g>
       <use style="stroke:#000000;stroke-width:0.8;" x="70.866142" xlink:href="#m6315f892ae" y="357.455261"/>
      </g>
     </g>
     <g id="text_7">
      <!-- 0.0 -->
      <g transform="translate(28.879267 365.813543)scale(0.22 -0.22)">
       <defs>
        <path d="M 684 794 
L 1344 794 
L 1344 0 
L 684 0 
L 684 794 
z
" id="DejaVuSans-2e" transform="scale(0.015625)"/>
       </defs>
       <use xlink:href="#DejaVuSans-30"/>
       <use x="63.623047" xlink:href="#DejaVuSans-2e"/>
       <use x="95.410156" xlink:href="#DejaVuSans-30"/>
      </g>
     </g>
    </g>
    <g id="ytick_2">
     <g id="line2d_13">
      <path clip-path="url(#pfcfecc6d12)" d="M 70.866142 294.286504 
L 510.23622 294.286504 
" style="fill:none;stroke:#b0b0b0;stroke-linecap:square;stroke-width:0.8;"/>
     </g>
     <g id="line2d_14">
      <g>
       <use style="stroke:#000000;stroke-width:0.8;" x="70.866142" xlink:href="#m6315f892ae" y="294.286504"/>
      </g>
     </g>
     <g id="text_8">
      <!-- 0.5 -->
      <g transform="translate(28.879267 302.644786)scale(0.22 -0.22)">
       <defs>
        <path d="M 691 4666 
L 3169 4666 
L 3169 4134 
L 1269 4134 
L 1269 2991 
Q 1406 3038 1543 3061 
Q 1681 3084 1819 3084 
Q 2600 3084 3056 2656 
Q 3513 2228 3513 1497 
Q 3513 744 3044 326 
Q 2575 -91 1722 -91 
Q 1428 -91 1123 -41 
Q 819 9 494 109 
L 494 744 
Q 775 591 1075 516 
Q 1375 441 1709 441 
Q 2250 441 2565 725 
Q 2881 1009 2881 1497 
Q 2881 1984 2565 2268 
Q 2250 2553 1709 2553 
Q 1456 2553 1204 2497 
Q 953 2441 691 2322 
L 691 4666 
z
" id="DejaVuSans-35" transform="scale(0.015625)"/>
       </defs>
       <use xlink:href="#DejaVuSans-30"/>
       <use x="63.623047" xlink:href="#DejaVuSans-2e"/>
       <use x="95.410156" xlink:href="#DejaVuSans-35"/>
      </g>
     </g>
    </g>
    <g id="ytick_3">
     <g id="line2d_15">
      <path clip-path="url(#pfcfecc6d12)" d="M 70.866142 231.117748 
L 510.23622 231.117748 
" style="fill:none;stroke:#b0b0b0;stroke-linecap:square;stroke-width:0.8;"/>
     </g>
     <g id="line2d_16">
      <g>
       <use style="stroke:#000000;stroke-width:0.8;" x="70.866142" xlink:href="#m6315f892ae" y="231.117748"/>
      </g>
     </g>
     <g id="text_9">
      <!-- 1.0 -->
      <g transform="translate(28.879267 239.476029)scale(0.22 -0.22)">
       <use xlink:href="#DejaVuSans-31"/>
       <use x="63.623047" xlink:href="#DejaVuSans-2e"/>
       <use x="95.410156" xlink:href="#DejaVuSans-30"/>
      </g>
     </g>
    </g>
    <g id="ytick_4">
     <g id="line2d_17">
      <path clip-path="url(#pfcfecc6d12)" d="M 70.866142 167.948991 
L 510.23622 167.948991 
" style="fill:none;stroke:#b0b0b0;stroke-linecap:square;stroke-width:0.8;"/>
     </g>
     <g id="line2d_18">
      <g>
       <use style="stroke:#000000;stroke-width:0.8;" x="70.866142" xlink:href="#m6315f892ae" y="167.948991"/>
      </g>
     </g>
     <g id="text_10">
      <!-- 1.5 -->
      <g transform="translate(28.879267 176.307272)scale(0.22 -0.22)">
       <use xlink:href="#DejaVuSans-31"/>
       <use x="63.623047" xlink:href="#DejaVuSans-2e"/>
       <use x="95.410156" xlink:href="#DejaVuSans-35"/>
      </g>
     </g>
    </g>
    <g id="ytick_5">
     <g id="line2d_19">
      <path clip-path="url(#pfcfecc6d12)" d="M 70.866142 104.780234 
L 510.23622 104.780234 
" style="fill:none;stroke:#b0b0b0;stroke-linecap:square;stroke-width:0.8;"/>
     </g>
     <g id="line2d_20">
      <g>
       <use style="stroke:#000000;stroke-width:0.8;" x="70.866142" xlink:href="#m6315f892ae" y="104.780234"/>
      </g>
     </g>
     <g id="text_11">
      <!-- 2.0 -->
      <g transform="translate(28.879267 113.138515)scale(0.22 -0.22)">
       <use xlink:href="#DejaVuSans-32"/>
       <use x="63.623047" xlink:href="#DejaVuSans-2e"/>
       <use x="95.410156" xlink:href="#DejaVuSans-30"/>
      </g>
     </g>
    </g>
    <g id="text_12">
     <!-- 1e8 -->
     <g transform="translate(70.866142 48.023622)scale(0.22 -0.22)">
      <defs>
       <path d="M 2034 2216 
Q 1584 2216 1326 1975 
Q 1069 1734 1069 1313 
Q 1069 891 1326 650 
Q 1584 409 2034 409 
Q 2484 409 2743 651 
Q 3003 894 3003 1313 
Q 3003 1734 2745 1975 
Q 2488 2216 2034 2216 
z
M 1403 2484 
Q 997 2584 770 2862 
Q 544 3141 544 3541 
Q 544 4100 942 4425 
Q 1341 4750 2034 4750 
Q 2731 4750 3128 4425 
Q 3525 4100 3525 3541 
Q 3525 3141 3298 2862 
Q 3072 2584 2669 2484 
Q 3125 2378 3379 2068 
Q 3634 1759 3634 1313 
Q 3634 634 3220 271 
Q 2806 -91 2034 -91 
Q 1263 -91 848 271 
Q 434 634 434 1313 
Q 434 1759 690 2068 
Q 947 2378 1403 2484 
z
M 1172 3481 
Q 1172 3119 1398 2916 
Q 1625 2713 2034 2713 
Q 2441 2713 2670 2916 
Q 2900 3119 2900 3481 
Q 2900 3844 2670 4047 
Q 2441 4250 2034 4250 
Q 1625 4250 1398 4047 
Q 1172 3844 1172 3481 
z
" id="DejaVuSans-38" transform="scale(0.015625)"/>
      </defs>
      <use xlink:href="#DejaVuSans-31"/>
      <use x="63.623047" xlink:href="#DejaVuSans-65"/>
      <use x="125.146484" xlink:href="#DejaVuSans-38"/>
     </g>
    </g>
   </g>
   <g id="line2d_21">
    <path clip-path="url(#pfcfecc6d12)" d="M 90.847495 357.447176 
L 95.840336 357.438332 
L 100.823193 357.43151 
L 105.816034 357.415844 
L 110.808876 357.398915 
L 115.801718 357.370362 
L 120.79456 357.342821 
L 125.787402 357.3125 
L 130.780243 357.263228 
L 135.773085 357.235434 
L 140.765927 357.176055 
L 145.758769 357.109096 
L 150.751611 357.059825 
L 155.744452 356.977705 
L 160.737294 356.898113 
L 165.730136 356.776829 
L 170.722978 356.70608 
L 175.71582 356.603746 
L 180.708661 356.516574 
L 185.701503 356.423084 
L 190.694345 356.339701 
L 195.687187 356.284113 
L 200.680029 356.247475 
L 205.67287 356.220944 
L 210.665712 356.236104 
L 215.658554 356.224734 
L 220.651396 356.234841 
L 225.644238 356.315697 
L 230.637079 356.381392 
L 235.629921 356.454668 
L 240.622763 356.549421 
L 245.615605 356.60122 
L 250.608447 356.694709 
L 255.601288 356.794516 
L 260.59413 356.882952 
L 265.586972 356.948648 
L 270.579814 357.021924 
L 275.572656 357.096463 
L 280.565497 357.160895 
L 285.558339 357.20385 
L 290.551181 357.263228 
L 295.544023 357.306183 
L 300.536865 357.329429 
L 305.529707 357.354949 
L 310.522548 357.380975 
L 315.51539 357.400936 
L 320.508232 357.409527 
L 325.501074 357.428225 
L 330.493916 357.436816 
L 335.486757 357.437827 
L 340.479599 357.443891 
L 345.472441 357.447176 
L 350.465283 357.45046 
L 355.458125 357.451218 
L 360.450966 357.452482 
L 365.443808 357.452482 
L 370.43665 357.453745 
L 375.429492 357.454756 
L 380.422334 357.454503 
L 385.415175 357.455261 
L 390.408017 357.455009 
L 395.400859 357.455261 
L 400.393701 357.455261 
L 405.386543 357.455261 
L 410.379384 357.455261 
L 415.372226 357.455261 
L 420.365068 357.455261 
L 425.35791 357.455261 
L 430.350752 357.455261 
L 435.343593 357.455261 
L 440.336435 357.455261 
L 445.329277 357.455261 
L 450.322119 357.455261 
L 455.314961 357.455261 
L 460.307802 357.455261 
L 465.300644 357.455261 
L 470.293486 357.455261 
L 475.286328 357.455261 
L 480.27917 357.455261 
L 485.272011 357.455261 
L 490.264853 357.455261 
" style="fill:none;stroke:#000000;stroke-dasharray:5.55,2.4;stroke-dashoffset:0;stroke-width:1.5;"/>
   </g>
   <g id="line2d_22">
    <defs>
     <path d="M 0 3 
C 0.795609 3 1.55874 2.683901 2.12132 2.12132 
C 2.683901 1.55874 3 0.795609 3 0 
C 3 -0.795609 2.683901 -1.55874 2.12132 -2.12132 
C 1.55874 -2.683901 0.795609 -3 0 -3 
C -0.795609 -3 -1.55874 -2.683901 -2.12132 -2.12132 
C -2.683901 -1.55874 -3 -0.795609 -3 0 
C -3 0.795609 -2.683901 1.55874 -2.12132 2.12132 
C -1.55874 2.683901 -0.795609 3 0 3 
z
" id="mb202f456eb" style="stroke:#0000ff;"/>
    </defs>
    <g clip-path="url(#pfcfecc6d12)">
     <use style="fill:#0000ff;stroke:#0000ff;" x="95.840336" xlink:href="#mb202f456eb" y="116.15061"/>
     <use style="fill:#0000ff;stroke:#0000ff;" x="100.823193" xlink:href="#mb202f456eb" y="112.360485"/>
     <use style="fill:#0000ff;stroke:#0000ff;" x="105.816034" xlink:href="#mb202f456eb" y="106.043609"/>
     <use style="fill:#0000ff;stroke:#0000ff;" x="110.808876" xlink:href="#mb202f456eb" y="98.463358"/>
     <use style="fill:#0000ff;stroke:#0000ff;" x="115.801718" xlink:href="#mb202f456eb" y="92.146483"/>
     <use style="fill:#0000ff;stroke:#0000ff;" x="120.79456" xlink:href="#mb202f456eb" y="85.829607"/>
     <use style="fill:#0000ff;stroke:#0000ff;" x="125.787402" xlink:href="#mb202f456eb" y="80.776106"/>
     <use style="fill:#0000ff;stroke:#0000ff;" x="130.780243" xlink:href="#mb202f456eb" y="74.459231"/>
     <use style="fill:#0000ff;stroke:#0000ff;" x="135.773085" xlink:href="#mb202f456eb" y="70.669105"/>
     <use style="fill:#0000ff;stroke:#0000ff;" x="140.765927" xlink:href="#mb202f456eb" y="66.87898"/>
     <use style="fill:#0000ff;stroke:#0000ff;" x="145.758769" xlink:href="#mb202f456eb" y="65.615605"/>
     <use style="fill:#0000ff;stroke:#0000ff;" x="150.751611" xlink:href="#mb202f456eb" y="65.615605"/>
     <use style="fill:#0000ff;stroke:#0000ff;" x="155.744452" xlink:href="#mb202f456eb" y="65.615605"/>
     <use style="fill:#0000ff;stroke:#0000ff;" x="160.737294" xlink:href="#mb202f456eb" y="69.40573"/>
     <use style="fill:#0000ff;stroke:#0000ff;" x="165.730136" xlink:href="#mb202f456eb" y="73.195856"/>
     <use style="fill:#0000ff;stroke:#0000ff;" x="170.722978" xlink:href="#mb202f456eb" y="79.512731"/>
     <use style="fill:#0000ff;stroke:#0000ff;" x="175.71582" xlink:href="#mb202f456eb" y="87.092982"/>
     <use style="fill:#0000ff;stroke:#0000ff;" x="180.708661" xlink:href="#mb202f456eb" y="95.936608"/>
     <use style="fill:#0000ff;stroke:#0000ff;" x="185.701503" xlink:href="#mb202f456eb" y="108.570359"/>
     <use style="fill:#0000ff;stroke:#0000ff;" x="190.694345" xlink:href="#mb202f456eb" y="121.204111"/>
     <use style="fill:#0000ff;stroke:#0000ff;" x="195.687187" xlink:href="#mb202f456eb" y="135.101237"/>
     <use style="fill:#0000ff;stroke:#0000ff;" x="200.680029" xlink:href="#mb202f456eb" y="150.261739"/>
     <use style="fill:#0000ff;stroke:#0000ff;" x="205.67287" xlink:href="#mb202f456eb" y="166.685616"/>
     <use style="fill:#0000ff;stroke:#0000ff;" x="210.665712" xlink:href="#mb202f456eb" y="181.846117"/>
     <use style="fill:#0000ff;stroke:#0000ff;" x="215.658554" xlink:href="#mb202f456eb" y="197.006619"/>
     <use style="fill:#0000ff;stroke:#0000ff;" x="220.651396" xlink:href="#mb202f456eb" y="212.167121"/>
     <use style="fill:#0000ff;stroke:#0000ff;" x="225.644238" xlink:href="#mb202f456eb" y="227.327622"/>
     <use style="fill:#0000ff;stroke:#0000ff;" x="230.637079" xlink:href="#mb202f456eb" y="242.235449"/>
     <use style="fill:#0000ff;stroke:#0000ff;" x="235.629921" xlink:href="#mb202f456eb" y="255.627225"/>
     <use style="fill:#0000ff;stroke:#0000ff;" x="240.622763" xlink:href="#mb202f456eb" y="268.766327"/>
     <use style="fill:#0000ff;stroke:#0000ff;" x="245.615605" xlink:href="#mb202f456eb" y="280.010365"/>
     <use style="fill:#0000ff;stroke:#0000ff;" x="250.608447" xlink:href="#mb202f456eb" y="290.370042"/>
     <use style="fill:#0000ff;stroke:#0000ff;" x="255.601288" xlink:href="#mb202f456eb" y="299.59268"/>
     <use style="fill:#0000ff;stroke:#0000ff;" x="260.59413" xlink:href="#mb202f456eb" y="308.183631"/>
     <use style="fill:#0000ff;stroke:#0000ff;" x="265.586972" xlink:href="#mb202f456eb" y="315.258532"/>
     <use style="fill:#0000ff;stroke:#0000ff;" x="270.579814" xlink:href="#mb202f456eb" y="321.828082"/>
     <use style="fill:#0000ff;stroke:#0000ff;" x="275.572656" xlink:href="#mb202f456eb" y="327.260596"/>
     <use style="fill:#0000ff;stroke:#0000ff;" x="280.565497" xlink:href="#mb202f456eb" y="331.935084"/>
     <use style="fill:#0000ff;stroke:#0000ff;" x="285.558339" xlink:href="#mb202f456eb" y="335.977884"/>
     <use style="fill:#0000ff;stroke:#0000ff;" x="290.551181" xlink:href="#mb202f456eb" y="339.515334"/>
     <use style="fill:#0000ff;stroke:#0000ff;" x="295.544023" xlink:href="#mb202f456eb" y="342.168422"/>
     <use style="fill:#0000ff;stroke:#0000ff;" x="300.536865" xlink:href="#mb202f456eb" y="344.82151"/>
     <use style="fill:#0000ff;stroke:#0000ff;" x="305.529707" xlink:href="#mb202f456eb" y="346.805009"/>
     <use style="fill:#0000ff;stroke:#0000ff;" x="310.522548" xlink:href="#mb202f456eb" y="348.548467"/>
     <use style="fill:#0000ff;stroke:#0000ff;" x="315.51539" xlink:href="#mb202f456eb" y="349.988714"/>
     <use style="fill:#0000ff;stroke:#0000ff;" x="320.508232" xlink:href="#mb202f456eb" y="351.151019"/>
     <use style="fill:#0000ff;stroke:#0000ff;" x="325.501074" xlink:href="#mb202f456eb" y="352.111184"/>
     <use style="fill:#0000ff;stroke:#0000ff;" x="330.493916" xlink:href="#mb202f456eb" y="352.881843"/>
     <use style="fill:#0000ff;stroke:#0000ff;" x="335.486757" xlink:href="#mb202f456eb" y="353.703037"/>
     <use style="fill:#0000ff;stroke:#0000ff;" x="340.479599" xlink:href="#mb202f456eb" y="354.233655"/>
     <use style="fill:#0000ff;stroke:#0000ff;" x="345.472441" xlink:href="#mb202f456eb" y="354.68847"/>
     <use style="fill:#0000ff;stroke:#0000ff;" x="350.465283" xlink:href="#mb202f456eb" y="355.105384"/>
     <use style="fill:#0000ff;stroke:#0000ff;" x="355.458125" xlink:href="#mb202f456eb" y="355.433861"/>
     <use style="fill:#0000ff;stroke:#0000ff;" x="360.450966" xlink:href="#mb202f456eb" y="355.762339"/>
     <use style="fill:#0000ff;stroke:#0000ff;" x="365.443808" xlink:href="#mb202f456eb" y="356.027647"/>
     <use style="fill:#0000ff;stroke:#0000ff;" x="370.43665" xlink:href="#mb202f456eb" y="356.270215"/>
     <use style="fill:#0000ff;stroke:#0000ff;" x="375.429492" xlink:href="#mb202f456eb" y="356.440771"/>
     <use style="fill:#0000ff;stroke:#0000ff;" x="380.422334" xlink:href="#mb202f456eb" y="356.607537"/>
     <use style="fill:#0000ff;stroke:#0000ff;" x="385.415175" xlink:href="#mb202f456eb" y="356.731347"/>
     <use style="fill:#0000ff;stroke:#0000ff;" x="390.408017" xlink:href="#mb202f456eb" y="356.853895"/>
     <use style="fill:#0000ff;stroke:#0000ff;" x="395.400859" xlink:href="#mb202f456eb" y="356.952438"/>
     <use style="fill:#0000ff;stroke:#0000ff;" x="400.393701" xlink:href="#mb202f456eb" y="356.990339"/>
     <use style="fill:#0000ff;stroke:#0000ff;" x="405.386543" xlink:href="#mb202f456eb" y="357.109096"/>
     <use style="fill:#0000ff;stroke:#0000ff;" x="410.379384" xlink:href="#mb202f456eb" y="357.171002"/>
     <use style="fill:#0000ff;stroke:#0000ff;" x="415.372226" xlink:href="#mb202f456eb" y="357.241751"/>
     <use style="fill:#0000ff;stroke:#0000ff;" x="420.365068" xlink:href="#mb202f456eb" y="357.268282"/>
     <use style="fill:#0000ff;stroke:#0000ff;" x="425.35791" xlink:href="#mb202f456eb" y="357.30871"/>
     <use style="fill:#0000ff;stroke:#0000ff;" x="430.350752" xlink:href="#mb202f456eb" y="357.325134"/>
     <use style="fill:#0000ff;stroke:#0000ff;" x="435.343593" xlink:href="#mb202f456eb" y="357.353181"/>
     <use style="fill:#0000ff;stroke:#0000ff;" x="440.336435" xlink:href="#mb202f456eb" y="357.36354"/>
     <use style="fill:#0000ff;stroke:#0000ff;" x="445.329277" xlink:href="#mb202f456eb" y="357.383249"/>
     <use style="fill:#0000ff;stroke:#0000ff;" x="450.322119" xlink:href="#mb202f456eb" y="357.400936"/>
     <use style="fill:#0000ff;stroke:#0000ff;" x="455.314961" xlink:href="#mb202f456eb" y="357.41079"/>
     <use style="fill:#0000ff;stroke:#0000ff;" x="460.307802" xlink:href="#mb202f456eb" y="357.423677"/>
     <use style="fill:#0000ff;stroke:#0000ff;" x="465.300644" xlink:href="#mb202f456eb" y="357.434037"/>
     <use style="fill:#0000ff;stroke:#0000ff;" x="470.293486" xlink:href="#mb202f456eb" y="357.437321"/>
     <use style="fill:#0000ff;stroke:#0000ff;" x="475.286328" xlink:href="#mb202f456eb" y="357.447681"/>
     <use style="fill:#0000ff;stroke:#0000ff;" x="480.27917" xlink:href="#mb202f456eb" y="357.448439"/>
     <use style="fill:#0000ff;stroke:#0000ff;" x="485.272011" xlink:href="#mb202f456eb" y="357.448439"/>
     <use style="fill:#0000ff;stroke:#0000ff;" x="490.264853" xlink:href="#mb202f456eb" y="357.451976"/>
    </g>
   </g>
   <g id="line2d_23">
    <path clip-path="url(#pfcfecc6d12)" d="M 90.837509 291.128067 
L 92.834646 327.639608 
L 94.831782 345.314226 
L 96.828919 351.555299 
L 98.826056 353.930445 
L 100.823193 354.928511 
L 102.820329 355.623367 
L 104.817466 355.977112 
L 106.814603 356.233578 
L 108.811739 356.41045 
L 110.808876 356.577216 
L 112.806013 356.677022 
L 114.80315 356.751561 
L 116.800286 356.815993 
L 118.797423 356.933487 
L 120.79456 356.961282 
L 122.791696 356.977705 
L 124.788833 357.038347 
L 126.78597 357.078775 
L 128.783107 357.086356 
L 130.780243 357.133101 
L 132.77738 357.153315 
L 134.774517 357.164685 
L 136.771654 357.188689 
L 138.76879 357.200059 
L 140.765927 357.187426 
L 142.763064 357.216483 
L 144.7602 357.22659 
L 146.757337 357.244278 
L 148.754474 357.255648 
L 150.751611 357.285969 
L 152.748747 357.278389 
L 154.745884 357.302393 
L 156.743021 357.297339 
L 158.740157 357.296076 
L 160.737294 357.32008 
L 162.734431 357.315027 
L 164.731568 357.325134 
L 166.728704 357.32008 
L 168.725841 357.345348 
L 170.722978 357.344084 
L 172.720115 357.351665 
L 174.717251 357.335241 
L 176.714388 357.355455 
L 178.711525 357.360508 
L 180.708661 357.356718 
L 182.705798 357.363035 
L 184.702935 357.369983 
L 186.700072 357.360508 
L 188.697208 357.373142 
L 190.694345 357.374405 
L 192.691482 357.378195 
L 194.688618 357.387671 
L 196.685755 357.389566 
L 198.682892 357.392724 
L 200.680029 357.393356 
L 202.677165 357.393356 
L 204.674302 357.400304 
L 206.671439 357.404726 
L 208.668576 357.411675 
L 210.665712 357.407253 
L 212.662849 357.407253 
L 214.659986 357.405358 
L 216.657122 357.411043 
L 218.654259 357.401568 
L 220.651396 357.412938 
L 222.648533 357.411675 
L 224.645669 357.422414 
L 226.642806 357.420518 
L 228.639943 357.419887 
L 230.637079 357.421782 
L 232.634216 357.42873 
L 234.631353 357.42494 
L 236.62849 357.428099 
L 238.625626 357.426204 
" style="fill:none;stroke:#ff0000;stroke-linecap:square;stroke-width:1.5;"/>
   </g>
   <g id="line2d_24">
    <path clip-path="url(#pfcfecc6d12)" d="M 90.837509 303.382805 
L 92.834646 327.00792 
L 94.831782 343.052785 
L 96.828919 350.051883 
L 98.826056 352.843942 
L 100.823193 354.170486 
L 102.820329 354.928511 
L 104.817466 355.459129 
L 106.814603 355.850775 
L 108.811739 356.052915 
L 110.808876 356.260108 
L 112.806013 356.442034 
L 114.80315 356.546895 
L 116.800286 356.677022 
L 118.797423 356.684602 
L 120.79456 356.808413 
L 122.791696 356.856421 
L 124.788833 356.898113 
L 126.78597 356.946121 
L 128.783107 356.965072 
L 130.780243 357.01687 
L 132.77738 356.995393 
L 134.774517 357.085092 
L 136.771654 357.098989 
L 138.76879 357.095199 
L 140.765927 357.122994 
L 142.763064 357.159631 
L 144.7602 357.168475 
L 146.757337 357.167212 
L 148.754474 357.189952 
L 150.751611 357.187426 
L 152.748747 357.202586 
L 154.745884 357.217747 
L 156.743021 357.234171 
L 158.740157 357.236697 
L 160.737294 357.267018 
L 162.734431 357.250595 
L 164.731568 357.275862 
L 166.728704 357.280916 
L 168.725841 357.285969 
L 170.722978 357.285969 
L 172.720115 357.297339 
L 174.717251 357.303656 
L 176.714388 357.298603 
L 178.711525 357.292286 
L 180.708661 357.32766 
L 182.705798 357.334609 
L 184.702935 357.32387 
L 186.700072 357.330819 
L 188.697208 357.332714 
L 190.694345 357.345979 
L 192.691482 357.349769 
L 194.688618 357.347243 
L 196.685755 357.344084 
L 198.682892 357.36493 
L 200.680029 357.349769 
L 202.677165 357.339031 
L 204.674302 357.359245 
L 206.671439 357.3763 
L 208.668576 357.356086 
L 210.665712 357.373142 
L 212.662849 357.369352 
L 214.659986 357.381986 
L 216.657122 357.374405 
L 218.654259 357.383249 
L 220.651396 357.385144 
L 222.648533 357.395883 
L 224.645669 357.369983 
L 226.642806 357.398409 
L 228.639943 357.387671 
L 230.637079 357.389566 
L 232.634216 357.391461 
L 234.631353 357.404726 
L 236.62849 357.391461 
L 238.625626 357.419255 
" style="fill:none;stroke:#008000;stroke-linecap:square;stroke-width:1.5;"/>
   </g>
   <g id="patch_3">
    <path d="M 70.866142 372.047244 
L 70.866142 51.023622 
" style="fill:none;stroke:#000000;stroke-linecap:square;stroke-linejoin:miter;stroke-width:0.8;"/>
   </g>
   <g id="patch_4">
    <path d="M 510.23622 372.047244 
L 510.23622 51.023622 
" style="fill:none;stroke:#000000;stroke-linecap:square;stroke-linejoin:miter;stroke-width:0.8;"/>
   </g>
   <g id="patch_5">
    <path d="M 70.866142 372.047244 
L 510.23622 372.047244 
" style="fill:none;stroke:#000000;stroke-linecap:square;stroke-linejoin:miter;stroke-width:0.8;"/>
   </g>
   <g id="patch_6">
    <path d="M 70.866142 51.023622 
L 510.23622 51.023622 
" style="fill:none;stroke:#000000;stroke-linecap:square;stroke-linejoin:miter;stroke-width:0.8;"/>
   </g>
   <g id="text_13">
    <!-- Sample B -->
    <g transform="translate(227.803744 45.023622)scale(0.264 -0.264)">
     <defs>
      <path d="M 3425 4513 
L 3425 3897 
Q 3066 4069 2747 4153 
Q 2428 4238 2131 4238 
Q 1616 4238 1336 4038 
Q 1056 3838 1056 3469 
Q 1056 3159 1242 3001 
Q 1428 2844 1947 2747 
L 2328 2669 
Q 3034 2534 3370 2195 
Q 3706 1856 3706 1288 
Q 3706 609 3251 259 
Q 2797 -91 1919 -91 
Q 1588 -91 1214 -16 
Q 841 59 441 206 
L 441 856 
Q 825 641 1194 531 
Q 1563 422 1919 422 
Q 2459 422 2753 634 
Q 3047 847 3047 1241 
Q 3047 1584 2836 1778 
Q 2625 1972 2144 2069 
L 1759 2144 
Q 1053 2284 737 2584 
Q 422 2884 422 3419 
Q 422 4038 858 4394 
Q 1294 4750 2059 4750 
Q 2388 4750 2728 4690 
Q 3069 4631 3425 4513 
z
" id="DejaVuSans-53" transform="scale(0.015625)"/>
      <path d="M 603 4863 
L 1178 4863 
L 1178 0 
L 603 0 
L 603 4863 
z
" id="DejaVuSans-6c" transform="scale(0.015625)"/>
      <path d="M 1259 2228 
L 1259 519 
L 2272 519 
Q 2781 519 3026 730 
Q 3272 941 3272 1375 
Q 3272 1813 3026 2020 
Q 2781 2228 2272 2228 
L 1259 2228 
z
M 1259 4147 
L 1259 2741 
L 2194 2741 
Q 2656 2741 2882 2914 
Q 3109 3088 3109 3444 
Q 3109 3797 2882 3972 
Q 2656 4147 2194 4147 
L 1259 4147 
z
M 628 4666 
L 2241 4666 
Q 2963 4666 3353 4366 
Q 3744 4066 3744 3513 
Q 3744 3084 3544 2831 
Q 3344 2578 2956 2516 
Q 3422 2416 3680 2098 
Q 3938 1781 3938 1306 
Q 3938 681 3513 340 
Q 3088 0 2303 0 
L 628 0 
L 628 4666 
z
" id="DejaVuSans-42" transform="scale(0.015625)"/>
     </defs>
     <use xlink:href="#DejaVuSans-53"/>
     <use x="63.476562" xlink:href="#DejaVuSans-61"/>
     <use x="124.755859" xlink:href="#DejaVuSans-6d"/>
     <use x="222.167969" xlink:href="#DejaVuSans-70"/>
     <use x="285.644531" xlink:href="#DejaVuSans-6c"/>
     <use x="313.427734" xlink:href="#DejaVuSans-65"/>
     <use x="374.951172" xlink:href="#DejaVuSans-20"/>
     <use x="406.738281" xlink:href="#DejaVuSans-42"/>
    </g>
   </g>
   <g id="legend_1">
    <g id="patch_7">
     <path d="M 332.97122 197.791122 
L 494.83622 197.791122 
Q 499.23622 197.791122 499.23622 193.391122 
L 499.23622 66.423622 
Q 499.23622 62.023622 494.83622 62.023622 
L 332.97122 62.023622 
Q 328.57122 62.023622 328.57122 66.423622 
L 328.57122 193.391122 
Q 328.57122 197.791122 332.97122 197.791122 
z
" style="fill:#ffffff;opacity:0.8;stroke:#cccccc;stroke-linejoin:miter;"/>
    </g>
    <g id="line2d_25">
     <path d="M 337.37122 79.840185 
L 381.37122 79.840185 
" style="fill:none;stroke:#000000;stroke-dasharray:5.55,2.4;stroke-dashoffset:0;stroke-width:1.5;"/>
    </g>
    <g id="line2d_26"/>
    <g id="text_14">
     <!-- Ga -->
     <g transform="translate(398.97122 87.540185)scale(0.22 -0.22)">
      <defs>
       <path d="M 3809 666 
L 3809 1919 
L 2778 1919 
L 2778 2438 
L 4434 2438 
L 4434 434 
Q 4069 175 3628 42 
Q 3188 -91 2688 -91 
Q 1594 -91 976 548 
Q 359 1188 359 2328 
Q 359 3472 976 4111 
Q 1594 4750 2688 4750 
Q 3144 4750 3555 4637 
Q 3966 4525 4313 4306 
L 4313 3634 
Q 3963 3931 3569 4081 
Q 3175 4231 2741 4231 
Q 1884 4231 1454 3753 
Q 1025 3275 1025 2328 
Q 1025 1384 1454 906 
Q 1884 428 2741 428 
Q 3075 428 3337 486 
Q 3600 544 3809 666 
z
" id="DejaVuSans-47" transform="scale(0.015625)"/>
      </defs>
      <use xlink:href="#DejaVuSans-47"/>
      <use x="77.490234" xlink:href="#DejaVuSans-61"/>
     </g>
    </g>
    <g id="line2d_27"/>
    <g id="line2d_28">
     <g>
      <use style="fill:#0000ff;stroke:#0000ff;" x="359.37122" xlink:href="#mb202f456eb" y="112.13206"/>
     </g>
    </g>
    <g id="text_15">
     <!-- Vacancy -->
     <g transform="translate(398.97122 119.83206)scale(0.22 -0.22)">
      <defs>
       <path d="M 1831 0 
L 50 4666 
L 709 4666 
L 2188 738 
L 3669 4666 
L 4325 4666 
L 2547 0 
L 1831 0 
z
" id="DejaVuSans-56" transform="scale(0.015625)"/>
       <path d="M 3122 3366 
L 3122 2828 
Q 2878 2963 2633 3030 
Q 2388 3097 2138 3097 
Q 1578 3097 1268 2742 
Q 959 2388 959 1747 
Q 959 1106 1268 751 
Q 1578 397 2138 397 
Q 2388 397 2633 464 
Q 2878 531 3122 666 
L 3122 134 
Q 2881 22 2623 -34 
Q 2366 -91 2075 -91 
Q 1284 -91 818 406 
Q 353 903 353 1747 
Q 353 2603 823 3093 
Q 1294 3584 2113 3584 
Q 2378 3584 2631 3529 
Q 2884 3475 3122 3366 
z
" id="DejaVuSans-63" transform="scale(0.015625)"/>
       <path d="M 2059 -325 
Q 1816 -950 1584 -1140 
Q 1353 -1331 966 -1331 
L 506 -1331 
L 506 -850 
L 844 -850 
Q 1081 -850 1212 -737 
Q 1344 -625 1503 -206 
L 1606 56 
L 191 3500 
L 800 3500 
L 1894 763 
L 2988 3500 
L 3597 3500 
L 2059 -325 
z
" id="DejaVuSans-79" transform="scale(0.015625)"/>
      </defs>
      <use xlink:href="#DejaVuSans-56"/>
      <use x="60.658203" xlink:href="#DejaVuSans-61"/>
      <use x="121.9375" xlink:href="#DejaVuSans-63"/>
      <use x="176.917969" xlink:href="#DejaVuSans-61"/>
      <use x="238.197266" xlink:href="#DejaVuSans-6e"/>
      <use x="301.576172" xlink:href="#DejaVuSans-63"/>
      <use x="356.556641" xlink:href="#DejaVuSans-79"/>
     </g>
    </g>
    <g id="line2d_29">
     <path d="M 337.37122 144.423935 
L 381.37122 144.423935 
" style="fill:none;stroke:#ff0000;stroke-linecap:square;stroke-width:1.5;"/>
    </g>
    <g id="line2d_30"/>
    <g id="text_16">
     <!-- Si -->
     <g transform="translate(398.97122 152.123935)scale(0.22 -0.22)">
      <use xlink:href="#DejaVuSans-53"/>
      <use x="63.476562" xlink:href="#DejaVuSans-69"/>
     </g>
    </g>
    <g id="line2d_31">
     <path d="M 337.37122 176.71581 
L 381.37122 176.71581 
" style="fill:none;stroke:#008000;stroke-linecap:square;stroke-width:1.5;"/>
    </g>
    <g id="line2d_32"/>
    <g id="text_17">
     <!-- N -->
     <g transform="translate(398.97122 184.41581)scale(0.22 -0.22)">
      <defs>
       <path d="M 628 4666 
L 1478 4666 
L 3547 763 
L 3547 4666 
L 4159 4666 
L 4159 0 
L 3309 0 
L 1241 3903 
L 1241 0 
L 628 0 
L 628 4666 
z
" id="DejaVuSans-4e" transform="scale(0.015625)"/>
      </defs>
      <use xlink:href="#DejaVuSans-4e"/>
     </g>
    </g>
   </g>
  </g>
  <g id="axes_2">
   <g id="patch_8">
    <path d="M 283.464567 297.637795 
L 481.889764 297.637795 
L 481.889764 127.559055 
L 283.464567 127.559055 
z
" style="fill:none;"/>
   </g>
   <g id="matplotlib.axis_3">
    <g id="xtick_6">
     <g id="line2d_33">
      <g>
       <use style="stroke:#000000;stroke-width:0.8;" x="283.464567" xlink:href="#m461e2a7472" y="297.637795"/>
      </g>
     </g>
     <g id="text_18">
      <!-- 0 -->
      <g transform="translate(276.465817 321.354358)scale(0.22 -0.22)">
       <use xlink:href="#DejaVuSans-30"/>
      </g>
     </g>
    </g>
    <g id="xtick_7">
     <g id="line2d_34">
      <g>
       <use style="stroke:#000000;stroke-width:0.8;" x="362.834646" xlink:href="#m461e2a7472" y="297.637795"/>
      </g>
     </g>
     <g id="text_19">
      <!-- 10 -->
      <g transform="translate(348.837146 321.354358)scale(0.22 -0.22)">
       <use xlink:href="#DejaVuSans-31"/>
       <use x="63.623047" xlink:href="#DejaVuSans-30"/>
      </g>
     </g>
    </g>
    <g id="xtick_8">
     <g id="line2d_35">
      <g>
       <use style="stroke:#000000;stroke-width:0.8;" x="442.204724" xlink:href="#m461e2a7472" y="297.637795"/>
      </g>
     </g>
     <g id="text_20">
      <!-- 20 -->
      <g transform="translate(428.207224 321.354358)scale(0.22 -0.22)">
       <use xlink:href="#DejaVuSans-32"/>
       <use x="63.623047" xlink:href="#DejaVuSans-30"/>
      </g>
     </g>
    </g>
   </g>
   <g id="matplotlib.axis_4">
    <g id="ytick_6">
     <g id="line2d_36">
      <g>
       <use style="stroke:#000000;stroke-width:0.8;" x="283.464567" xlink:href="#m6315f892ae" y="297.637795"/>
      </g>
     </g>
     <g id="text_21">
      <!-- 0 -->
      <g transform="translate(262.467067 305.996077)scale(0.22 -0.22)">
       <use xlink:href="#DejaVuSans-30"/>
      </g>
     </g>
    </g>
    <g id="ytick_7">
     <g id="line2d_37">
      <g>
       <use style="stroke:#000000;stroke-width:0.8;" x="283.464567" xlink:href="#m6315f892ae" y="240.944882"/>
      </g>
     </g>
     <g id="text_22">
      <!-- 2 -->
      <g transform="translate(262.467067 249.303163)scale(0.22 -0.22)">
       <use xlink:href="#DejaVuSans-32"/>
      </g>
     </g>
    </g>
    <g id="ytick_8">
     <g id="line2d_38">
      <g>
       <use style="stroke:#000000;stroke-width:0.8;" x="283.464567" xlink:href="#m6315f892ae" y="184.251969"/>
      </g>
     </g>
     <g id="text_23">
      <!-- 4 -->
      <g transform="translate(262.467067 192.61025)scale(0.22 -0.22)">
       <use xlink:href="#DejaVuSans-34"/>
      </g>
     </g>
    </g>
    <g id="ytick_9">
     <g id="line2d_39">
      <g>
       <use style="stroke:#000000;stroke-width:0.8;" x="283.464567" xlink:href="#m6315f892ae" y="127.559055"/>
      </g>
     </g>
     <g id="text_24">
      <!-- 6 -->
      <g transform="translate(262.467067 135.917336)scale(0.22 -0.22)">
       <defs>
        <path d="M 2113 2584 
Q 1688 2584 1439 2293 
Q 1191 2003 1191 1497 
Q 1191 994 1439 701 
Q 1688 409 2113 409 
Q 2538 409 2786 701 
Q 3034 994 3034 1497 
Q 3034 2003 2786 2293 
Q 2538 2584 2113 2584 
z
M 3366 4563 
L 3366 3988 
Q 3128 4100 2886 4159 
Q 2644 4219 2406 4219 
Q 1781 4219 1451 3797 
Q 1122 3375 1075 2522 
Q 1259 2794 1537 2939 
Q 1816 3084 2150 3084 
Q 2853 3084 3261 2657 
Q 3669 2231 3669 1497 
Q 3669 778 3244 343 
Q 2819 -91 2113 -91 
Q 1303 -91 875 529 
Q 447 1150 447 2328 
Q 447 3434 972 4092 
Q 1497 4750 2381 4750 
Q 2619 4750 2861 4703 
Q 3103 4656 3366 4563 
z
" id="DejaVuSans-36" transform="scale(0.015625)"/>
       </defs>
       <use xlink:href="#DejaVuSans-36"/>
      </g>
     </g>
    </g>
    <g id="text_25">
     <!-- 1e6 -->
     <g transform="translate(283.464567 124.559055)scale(0.22 -0.22)">
      <use xlink:href="#DejaVuSans-31"/>
      <use x="63.623047" xlink:href="#DejaVuSans-65"/>
      <use x="125.146484" xlink:href="#DejaVuSans-36"/>
     </g>
    </g>
   </g>
   <g id="line2d_40">
    <path clip-path="url(#p1ea1ddbaf8)" d="M 283.472504 297.456378 
L 287.441008 297.257953 
L 291.401575 297.104882 
L 295.370079 296.753386 
L 299.338583 296.373543 
L 303.307087 295.732913 
L 307.275591 295.114961 
L 311.244094 294.434646 
L 315.212598 293.329134 
L 319.181102 292.705512 
L 323.149606 291.373228 
L 327.11811 289.870866 
L 331.086614 288.765354 
L 335.055118 286.922835 
L 339.023622 285.137008 
L 342.992126 282.415748 
L 346.96063 280.828346 
L 350.929134 278.532283 
L 354.897638 276.576378 
L 358.866142 274.47874 
L 362.834646 272.607874 
L 366.80315 271.36063 
L 370.771654 270.538583 
L 374.740157 269.943307 
L 378.708661 270.283465 
L 382.677165 270.028346 
L 386.645669 270.255118 
L 390.614173 272.069291 
L 394.582677 273.543307 
L 398.551181 275.187402 
L 402.519685 277.313386 
L 406.488189 278.475591 
L 410.456693 280.573228 
L 414.425197 282.812598 
L 418.393701 284.79685 
L 422.362205 286.270866 
L 426.330709 287.914961 
L 430.299213 289.587402 
L 434.267717 291.033071 
L 438.23622 291.99685 
L 442.204724 293.329134 
L 446.173228 294.292913 
L 450.141732 294.814488 
L 454.110236 295.387087 
L 458.07874 295.971024 
L 462.047244 296.418898 
L 466.015748 296.611654 
L 469.984252 297.031181 
L 473.952756 297.223937 
L 477.92126 297.246614 
L 481.889764 297.382677 
L 485.858268 297.456378 
L 489.826772 297.530079 
L 493.795276 297.547087 
L 497.76378 297.575433 
L 501.732283 297.575433 
L 505.700787 297.60378 
L 509.669291 297.626457 
L 513.637795 297.620787 
L 517.606299 297.637795 
L 521.574803 297.632126 
L 525.543307 297.637795 
L 529.511811 297.637795 
L 533.480315 297.637795 
L 537.448819 297.637795 
L 541.417323 297.637795 
L 545.385827 297.637795 
L 549.354331 297.637795 
L 553.322835 297.637795 
L 557.291339 297.637795 
L 561.259843 297.637795 
L 565.228346 297.637795 
L 567.929134 297.637795 
" style="fill:none;stroke:#000000;stroke-dasharray:5.55,2.4;stroke-dashoffset:0;stroke-width:1.5;"/>
   </g>
   <g id="line2d_41">
    <path clip-path="url(#p1ea1ddbaf8)" d="M 286.534382 -1 
L 286.63937 25.228346 
L 288.226772 165.259843 
L 289.814173 218.551181 
L 291.401575 240.944882 
L 292.988976 256.535433 
L 294.576378 264.472441 
L 296.16378 270.226772 
L 297.751181 274.195276 
L 299.338583 277.937008 
L 300.925984 280.176378 
L 302.513386 281.848819 
L 304.100787 283.294488 
L 305.688189 285.930709 
L 307.275591 286.554331 
L 308.862992 286.922835 
L 310.450394 288.283465 
L 312.037795 289.190551 
L 313.625197 289.36063 
L 315.212598 290.409449 
L 316.8 290.862992 
L 318.387402 291.11811 
L 319.974803 291.656693 
L 321.562205 291.911811 
L 323.149606 291.628346 
L 324.737008 292.280315 
L 326.324409 292.507087 
L 327.911811 292.903937 
L 329.499213 293.159055 
L 331.086614 293.83937 
L 332.674016 293.669291 
L 334.261417 294.207874 
L 335.848819 294.094488 
L 337.43622 294.066142 
L 339.023622 294.604724 
L 340.611024 294.491339 
L 342.198425 294.71811 
L 343.785827 294.604724 
L 345.373228 295.171654 
L 346.96063 295.143307 
L 348.548031 295.313386 
L 350.135433 294.944882 
L 351.722835 295.398425 
L 353.310236 295.511811 
L 354.897638 295.426772 
L 356.485039 295.568504 
L 358.072441 295.724409 
L 359.659843 295.511811 
L 361.247244 295.795276 
L 362.834646 295.823622 
L 364.422047 295.908661 
L 366.009449 296.12126 
L 367.59685 296.16378 
L 369.184252 296.234646 
L 370.771654 296.248819 
L 372.359055 296.248819 
L 373.946457 296.404724 
L 375.533858 296.503937 
L 377.12126 296.659843 
L 378.708661 296.56063 
L 380.296063 296.56063 
L 381.883465 296.51811 
L 383.470866 296.645669 
L 385.058268 296.433071 
L 386.645669 296.688189 
L 388.233071 296.659843 
L 389.820472 296.900787 
L 391.407874 296.858268 
L 392.995276 296.844094 
L 394.582677 296.886614 
L 396.170079 297.04252 
L 397.75748 296.95748 
L 399.344882 297.028346 
L 400.932283 296.985827 
" style="fill:none;stroke:#ff0000;stroke-linecap:square;stroke-width:1.5;"/>
   </g>
   <g id="line2d_42">
    <path clip-path="url(#p1ea1ddbaf8)" d="M 286.887143 -1 
L 288.226772 131.527559 
L 289.814173 194.173228 
L 291.401575 223.937008 
L 292.988976 240.944882 
L 294.576378 252.850394 
L 296.16378 261.637795 
L 297.751181 266.173228 
L 299.338583 270.822047 
L 300.925984 274.903937 
L 302.513386 277.256693 
L 304.100787 280.176378 
L 305.688189 280.346457 
L 307.275591 283.124409 
L 308.862992 284.201575 
L 310.450394 285.137008 
L 312.037795 286.214173 
L 313.625197 286.63937 
L 315.212598 287.801575 
L 316.8 287.319685 
L 318.387402 289.332283 
L 319.974803 289.644094 
L 321.562205 289.559055 
L 323.149606 290.182677 
L 324.737008 291.004724 
L 326.324409 291.20315 
L 327.911811 291.174803 
L 329.499213 291.685039 
L 331.086614 291.628346 
L 332.674016 291.968504 
L 334.261417 292.308661 
L 335.848819 292.677165 
L 337.43622 292.733858 
L 339.023622 293.414173 
L 340.611024 293.045669 
L 342.198425 293.612598 
L 343.785827 293.725984 
L 345.373228 293.83937 
L 346.96063 293.83937 
L 348.548031 294.094488 
L 350.135433 294.23622 
L 351.722835 294.122835 
L 353.310236 293.981102 
L 354.897638 294.774803 
L 356.485039 294.930709 
L 358.072441 294.689764 
L 359.659843 294.845669 
L 361.247244 294.888189 
L 362.834646 295.185827 
L 364.422047 295.270866 
L 366.009449 295.214173 
L 367.59685 295.143307 
L 369.184252 295.611024 
L 370.771654 295.270866 
L 372.359055 295.029921 
L 373.946457 295.483465 
L 375.533858 295.866142 
L 377.12126 295.412598 
L 378.708661 295.795276 
L 380.296063 295.710236 
L 381.883465 295.993701 
L 383.470866 295.823622 
L 385.058268 296.022047 
L 386.645669 296.064567 
L 388.233071 296.305512 
L 389.820472 295.724409 
L 391.407874 296.362205 
L 392.995276 296.12126 
L 394.582677 296.16378 
L 396.170079 296.206299 
L 397.75748 296.503937 
L 399.344882 296.206299 
L 400.932283 296.829921 
" style="fill:none;stroke:#008000;stroke-linecap:square;stroke-width:1.5;"/>
   </g>
   <g id="patch_9">
    <path d="M 283.464567 297.637795 
L 283.464567 127.559055 
" style="fill:none;stroke:#000000;stroke-linecap:square;stroke-linejoin:miter;stroke-width:0.8;"/>
   </g>
   <g id="patch_10">
    <path d="M 481.889764 297.637795 
L 481.889764 127.559055 
" style="fill:none;stroke:#000000;stroke-linecap:square;stroke-linejoin:miter;stroke-width:0.8;"/>
   </g>
   <g id="patch_11">
    <path d="M 283.464567 297.637795 
L 481.889764 297.637795 
" style="fill:none;stroke:#000000;stroke-linecap:square;stroke-linejoin:miter;stroke-width:0.8;"/>
   </g>
   <g id="patch_12">
    <path d="M 283.464567 127.559055 
L 481.889764 127.559055 
" style="fill:none;stroke:#000000;stroke-linecap:square;stroke-linejoin:miter;stroke-width:0.8;"/>
   </g>
  </g>
 </g>
 <defs>
  <clipPath id="pfcfecc6d12">
   <rect height="321.023622" width="439.370079" x="70.866142" y="51.023622"/>
  </clipPath>
  <clipPath id="p1ea1ddbaf8">
   <rect height="170.07874" width="198.425197" x="283.464567" y="127.559055"/>
  </clipPath>
 </defs>
</svg>
