<?xml version="1.0" encoding="utf-8" standalone="no"?>
<!DOCTYPE svg PUBLIC "-//W3C//DTD SVG 1.1//EN"
  "http://www.w3.org/Graphics/SVG/1.1/DTD/svg11.dtd">
<svg height="566.929134pt" version="1.1" viewBox="0 0 566.929134 566.929134" width="566.929134pt" xmlns="http://www.w3.org/2000/svg" xmlns:xlink="http://www.w3.org/1999/xlink">
 <metadata>
  <rdf:RDF xmlns:cc="http://creativecommons.org/ns#" xmlns:dc="http://purl.org/dc/elements/1.1/" xmlns:rdf="http://www.w3.org/1999/02/22-rdf-syntax-ns#">
   <cc:Work>
    <dc:type rdf:resource="http://purl.org/dc/dcmitype/StillImage"/>
    <dc:date>2023-12-10T20:23:07.306633</dc:date>
    <dc:format>image/svg+xml</dc:format>
    <dc:creator>
     <cc:Agent>
      <dc:title>Matplotlib v3.4.3, https://matplotlib.org/</dc:title>
     </cc:Agent>
    </dc:creator>
   </cc:Work>
  </rdf:RDF>
 </metadata>
 <defs>
  <style type="text/css">*{stroke-linecap:butt;stroke-linejoin:round;}</style>
 </defs>
 <g id="figure_1">
  <g id="patch_1">
   <path d="M 0 566.929134 
L 566.929134 566.929134 
L 566.929134 0 
L 0 0 
z
" style="fill:none;"/>
  </g>
  <g id="patch_2">
   <path d="M 76.535433 496.062992 
L 504.566929 496.062992 
L 504.566929 68.031496 
L 76.535433 68.031496 
z
" style="fill:none;"/>
  </g>
  <g id="pane3d_1">
   <g id="patch_3">
    <path d="M 342.510946 306.232329 
L 485.447657 391.162178 
L 491.436737 193.484843 
L 343.839789 124.15858 
" style="fill:#f2f2f2;opacity:0.5;stroke:#f2f2f2;stroke-linejoin:miter;"/>
   </g>
  </g>
  <g id="pane3d_2">
   <g id="patch_4">
    <path d="M 342.510946 306.232329 
L 114.699409 353.3281 
L 109.181417 162.553693 
L 343.839789 124.15858 
" style="fill:#e6e6e6;opacity:0.5;stroke:#e6e6e6;stroke-linejoin:miter;"/>
   </g>
  </g>
  <g id="pane3d_3">
   <g id="patch_5">
    <path d="M 342.510946 306.232329 
L 114.699409 353.3281 
L 242.644022 448.177564 
L 485.447657 391.162178 
" style="fill:#ececec;opacity:0.5;stroke:#ececec;stroke-linejoin:miter;"/>
   </g>
  </g>
  <g id="axis3d_1">
   <g id="line2d_1">
    <path d="M 485.447657 391.162178 
L 242.644022 448.177564 
" style="fill:none;stroke:#000000;stroke-linecap:square;stroke-width:0.8;"/>
   </g>
   <g id="Line3DCollection_1">
    <path d="M 480.859466 392.239582 
L 338.183728 307.126901 
L 339.389313 124.886773 
" style="fill:none;stroke:#b0b0b0;stroke-width:0.8;"/>
    <path d="M 406.017648 409.81401 
L 267.720738 321.693805 
L 266.882236 136.750477 
" style="fill:none;stroke:#b0b0b0;stroke-width:0.8;"/>
    <path d="M 328.378846 428.045229 
L 194.866282 336.7551 
L 191.840948 149.028831 
" style="fill:none;stroke:#b0b0b0;stroke-width:0.8;"/>
    <path d="M 247.783279 446.970759 
L 119.496513 352.336389 
L 114.130226 161.743963 
" style="fill:none;stroke:#b0b0b0;stroke-width:0.8;"/>
   </g>
   <g id="xtick_1">
    <g id="line2d_2">
     <path d="M 479.607752 391.492877 
L 483.368759 393.736492 
" style="fill:none;stroke:#000000;stroke-linecap:square;stroke-width:0.8;"/>
    </g>
    <g id="text_1">
     <!-- 0 -->
     <g transform="translate(480.718217 425.998699)scale(0.25 -0.25)">
      <defs>
       <path d="M 2034 4250 
Q 1547 4250 1301 3770 
Q 1056 3291 1056 2328 
Q 1056 1369 1301 889 
Q 1547 409 2034 409 
Q 2525 409 2770 889 
Q 3016 1369 3016 2328 
Q 3016 3291 2770 3770 
Q 2525 4250 2034 4250 
z
M 2034 4750 
Q 2819 4750 3233 4129 
Q 3647 3509 3647 2328 
Q 3647 1150 3233 529 
Q 2819 -91 2034 -91 
Q 1250 -91 836 529 
Q 422 1150 422 2328 
Q 422 3509 836 4129 
Q 1250 4750 2034 4750 
z
" id="DejaVuSans-30" transform="scale(0.015625)"/>
      </defs>
      <use xlink:href="#DejaVuSans-30"/>
     </g>
    </g>
   </g>
   <g id="xtick_2">
    <g id="line2d_3">
     <path d="M 404.802391 409.039671 
L 408.453963 411.366384 
" style="fill:none;stroke:#000000;stroke-linecap:square;stroke-width:0.8;"/>
    </g>
    <g id="text_2">
     <!-- 10 -->
     <g transform="translate(397.803661 443.906737)scale(0.25 -0.25)">
      <defs>
       <path d="M 794 531 
L 1825 531 
L 1825 4091 
L 703 3866 
L 703 4441 
L 1819 4666 
L 2450 4666 
L 2450 531 
L 3481 531 
L 3481 0 
L 794 0 
L 794 531 
z
" id="DejaVuSans-31" transform="scale(0.015625)"/>
      </defs>
      <use xlink:href="#DejaVuSans-31"/>
      <use x="63.623047" xlink:href="#DejaVuSans-30"/>
     </g>
    </g>
   </g>
   <g id="xtick_3">
    <g id="line2d_4">
     <path d="M 327.203668 427.241693 
L 330.734917 429.656209 
" style="fill:none;stroke:#000000;stroke-linecap:square;stroke-width:0.8;"/>
    </g>
    <g id="text_3">
     <!-- 20 -->
     <g transform="translate(320.030728 462.486433)scale(0.25 -0.25)">
      <defs>
       <path d="M 1228 531 
L 3431 531 
L 3431 0 
L 469 0 
L 469 531 
Q 828 903 1448 1529 
Q 2069 2156 2228 2338 
Q 2531 2678 2651 2914 
Q 2772 3150 2772 3378 
Q 2772 3750 2511 3984 
Q 2250 4219 1831 4219 
Q 1534 4219 1204 4116 
Q 875 4013 500 3803 
L 500 4441 
Q 881 4594 1212 4672 
Q 1544 4750 1819 4750 
Q 2544 4750 2975 4387 
Q 3406 4025 3406 3419 
Q 3406 3131 3298 2873 
Q 3191 2616 2906 2266 
Q 2828 2175 2409 1742 
Q 1991 1309 1228 531 
z
" id="DejaVuSans-32" transform="scale(0.015625)"/>
      </defs>
      <use xlink:href="#DejaVuSans-32"/>
      <use x="63.623047" xlink:href="#DejaVuSans-30"/>
     </g>
    </g>
   </g>
   <g id="xtick_4">
    <g id="line2d_5">
     <path d="M 246.652141 446.136342 
L 250.051161 448.643726 
" style="fill:none;stroke:#000000;stroke-linecap:square;stroke-width:0.8;"/>
    </g>
    <g id="text_4">
     <!-- 30 -->
     <g transform="translate(239.2851 481.776296)scale(0.25 -0.25)">
      <defs>
       <path d="M 2597 2516 
Q 3050 2419 3304 2112 
Q 3559 1806 3559 1356 
Q 3559 666 3084 287 
Q 2609 -91 1734 -91 
Q 1441 -91 1130 -33 
Q 819 25 488 141 
L 488 750 
Q 750 597 1062 519 
Q 1375 441 1716 441 
Q 2309 441 2620 675 
Q 2931 909 2931 1356 
Q 2931 1769 2642 2001 
Q 2353 2234 1838 2234 
L 1294 2234 
L 1294 2753 
L 1863 2753 
Q 2328 2753 2575 2939 
Q 2822 3125 2822 3475 
Q 2822 3834 2567 4026 
Q 2313 4219 1838 4219 
Q 1578 4219 1281 4162 
Q 984 4106 628 3988 
L 628 4550 
Q 988 4650 1302 4700 
Q 1616 4750 1894 4750 
Q 2613 4750 3031 4423 
Q 3450 4097 3450 3541 
Q 3450 3153 3228 2886 
Q 3006 2619 2597 2516 
z
" id="DejaVuSans-33" transform="scale(0.015625)"/>
      </defs>
      <use xlink:href="#DejaVuSans-33"/>
      <use x="63.623047" xlink:href="#DejaVuSans-30"/>
     </g>
    </g>
   </g>
  </g>
  <g id="axis3d_2">
   <g id="line2d_6">
    <path d="M 114.699409 353.3281 
L 242.644022 448.177564 
" style="fill:none;stroke:#000000;stroke-linecap:square;stroke-width:0.8;"/>
   </g>
   <g id="Line3DCollection_2">
    <path d="M 346.527127 125.420822 
L 345.120614 307.782937 
L 117.023297 355.050873 
" style="fill:none;stroke:#b0b0b0;stroke-width:0.8;"/>
    <path d="M 384.399596 143.209515 
L 381.87011 329.618679 
L 149.795874 379.346241 
" style="fill:none;stroke:#b0b0b0;stroke-width:0.8;"/>
    <path d="M 424.27272 161.937915 
L 420.503749 352.573937 
L 184.344535 404.958276 
" style="fill:none;stroke:#b0b0b0;stroke-width:0.8;"/>
    <path d="M 466.309331 181.682504 
L 461.170241 376.737072 
L 220.817679 431.996993 
" style="fill:none;stroke:#b0b0b0;stroke-width:0.8;"/>
   </g>
   <g id="xtick_5">
    <g id="line2d_7">
     <path d="M 118.945973 354.652442 
L 113.172947 355.848769 
" style="fill:none;stroke:#000000;stroke-linecap:square;stroke-width:0.8;"/>
    </g>
    <g id="text_5">
     <!-- 0 -->
     <g transform="translate(96.924991 386.198827)scale(0.25 -0.25)">
      <use xlink:href="#DejaVuSans-30"/>
     </g>
    </g>
   </g>
   <g id="xtick_6">
    <g id="line2d_8">
     <path d="M 151.754699 378.926515 
L 145.872999 380.186812 
" style="fill:none;stroke:#000000;stroke-linecap:square;stroke-width:0.8;"/>
    </g>
    <g id="text_6">
     <!-- 10 -->
     <g transform="translate(121.466292 410.846846)scale(0.25 -0.25)">
      <use xlink:href="#DejaVuSans-31"/>
      <use x="63.623047" xlink:href="#DejaVuSans-30"/>
     </g>
    </g>
   </g>
   <g id="xtick_7">
    <g id="line2d_9">
     <path d="M 186.340657 404.5155 
L 180.346821 405.84504 
" style="fill:none;stroke:#000000;stroke-linecap:square;stroke-width:0.8;"/>
    </g>
    <g id="text_7">
     <!-- 20 -->
     <g transform="translate(155.724082 436.832432)scale(0.25 -0.25)">
      <use xlink:href="#DejaVuSans-32"/>
      <use x="63.623047" xlink:href="#DejaVuSans-30"/>
     </g>
    </g>
   </g>
   <g id="xtick_8">
    <g id="line2d_10">
     <path d="M 222.852272 431.529215 
L 216.742762 432.933865 
" style="fill:none;stroke:#000000;stroke-linecap:square;stroke-width:0.8;"/>
    </g>
    <g id="text_8">
     <!-- 30 -->
     <g transform="translate(191.892777 464.267498)scale(0.25 -0.25)">
      <use xlink:href="#DejaVuSans-33"/>
      <use x="63.623047" xlink:href="#DejaVuSans-30"/>
     </g>
    </g>
   </g>
  </g>
  <g id="axis3d_3">
   <g id="line2d_11">
    <path d="M 114.699409 353.3281 
L 109.181417 162.553693 
" style="fill:none;stroke:#000000;stroke-linecap:square;stroke-width:0.8;"/>
   </g>
   <g id="text_9">
    <!-- 1e6 -->
    <g transform="translate(59.987886 112.265324)rotate(-271.656771)scale(0.25 -0.25)">
     <defs>
      <path d="M 3597 1894 
L 3597 1613 
L 953 1613 
Q 991 1019 1311 708 
Q 1631 397 2203 397 
Q 2534 397 2845 478 
Q 3156 559 3463 722 
L 3463 178 
Q 3153 47 2828 -22 
Q 2503 -91 2169 -91 
Q 1331 -91 842 396 
Q 353 884 353 1716 
Q 353 2575 817 3079 
Q 1281 3584 2069 3584 
Q 2775 3584 3186 3129 
Q 3597 2675 3597 1894 
z
M 3022 2063 
Q 3016 2534 2758 2815 
Q 2500 3097 2075 3097 
Q 1594 3097 1305 2825 
Q 1016 2553 972 2059 
L 3022 2063 
z
" id="DejaVuSans-65" transform="scale(0.015625)"/>
      <path d="M 2113 2584 
Q 1688 2584 1439 2293 
Q 1191 2003 1191 1497 
Q 1191 994 1439 701 
Q 1688 409 2113 409 
Q 2538 409 2786 701 
Q 3034 994 3034 1497 
Q 3034 2003 2786 2293 
Q 2538 2584 2113 2584 
z
M 3366 4563 
L 3366 3988 
Q 3128 4100 2886 4159 
Q 2644 4219 2406 4219 
Q 1781 4219 1451 3797 
Q 1122 3375 1075 2522 
Q 1259 2794 1537 2939 
Q 1816 3084 2150 3084 
Q 2853 3084 3261 2657 
Q 3669 2231 3669 1497 
Q 3669 778 3244 343 
Q 2819 -91 2113 -91 
Q 1303 -91 875 529 
Q 447 1150 447 2328 
Q 447 3434 972 4092 
Q 1497 4750 2381 4750 
Q 2619 4750 2861 4703 
Q 3103 4656 3366 4563 
z
" id="DejaVuSans-36" transform="scale(0.015625)"/>
     </defs>
     <use xlink:href="#DejaVuSans-31"/>
     <use x="63.623047" xlink:href="#DejaVuSans-65"/>
     <use x="125.146484" xlink:href="#DejaVuSans-36"/>
    </g>
   </g>
   <g id="Line3DCollection_3">
    <path d="M 114.59224 349.622922 
L 342.536794 302.690736 
L 485.563833 387.32764 
" style="fill:none;stroke:#b0b0b0;stroke-width:0.8;"/>
    <path d="M 113.296275 304.817314 
L 342.849241 259.880258 
L 486.969161 340.942977 
" style="fill:none;stroke:#b0b0b0;stroke-width:0.8;"/>
    <path d="M 111.981694 259.368121 
L 343.165943 216.486806 
L 488.395518 293.864197 
" style="fill:none;stroke:#b0b0b0;stroke-width:0.8;"/>
    <path d="M 110.648095 213.261376 
L 343.486987 172.498392 
L 489.843382 246.075601 
" style="fill:none;stroke:#b0b0b0;stroke-width:0.8;"/>
    <path d="M 109.29506 166.482706 
L 343.812463 127.902695 
L 491.31324 197.561015 
" style="fill:none;stroke:#b0b0b0;stroke-width:0.8;"/>
   </g>
   <g id="xtick_9">
    <g id="line2d_12">
     <path d="M 116.513503 349.227347 
L 110.744726 350.415098 
" style="fill:none;stroke:#000000;stroke-linecap:square;stroke-width:0.8;"/>
    </g>
    <g id="text_10">
     <!-- 0.0 -->
     <g transform="translate(76.37118 366.75476)scale(0.25 -0.25)">
      <defs>
       <path d="M 684 794 
L 1344 794 
L 1344 0 
L 684 0 
L 684 794 
z
" id="DejaVuSans-2e" transform="scale(0.015625)"/>
      </defs>
      <use xlink:href="#DejaVuSans-30"/>
      <use x="63.623047" xlink:href="#DejaVuSans-2e"/>
      <use x="95.410156" xlink:href="#DejaVuSans-30"/>
     </g>
    </g>
   </g>
   <g id="xtick_10">
    <g id="line2d_13">
     <path d="M 115.231796 304.438418 
L 109.420172 305.576095 
" style="fill:none;stroke:#000000;stroke-linecap:square;stroke-width:0.8;"/>
    </g>
    <g id="text_11">
     <!-- 0.5 -->
     <g transform="translate(74.947347 322.027777)scale(0.25 -0.25)">
      <defs>
       <path d="M 691 4666 
L 3169 4666 
L 3169 4134 
L 1269 4134 
L 1269 2991 
Q 1406 3038 1543 3061 
Q 1681 3084 1819 3084 
Q 2600 3084 3056 2656 
Q 3513 2228 3513 1497 
Q 3513 744 3044 326 
Q 2575 -91 1722 -91 
Q 1428 -91 1123 -41 
Q 819 9 494 109 
L 494 744 
Q 775 591 1075 516 
Q 1375 441 1709 441 
Q 2250 441 2565 725 
Q 2881 1009 2881 1497 
Q 2881 1984 2565 2268 
Q 2250 2553 1709 2553 
Q 1456 2553 1204 2497 
Q 953 2441 691 2322 
L 691 4666 
z
" id="DejaVuSans-35" transform="scale(0.015625)"/>
      </defs>
      <use xlink:href="#DejaVuSans-30"/>
      <use x="63.623047" xlink:href="#DejaVuSans-2e"/>
      <use x="95.410156" xlink:href="#DejaVuSans-35"/>
     </g>
    </g>
   </g>
   <g id="xtick_11">
    <g id="line2d_14">
     <path d="M 113.931686 259.006425 
L 108.076575 260.092463 
" style="fill:none;stroke:#000000;stroke-linecap:square;stroke-width:0.8;"/>
    </g>
    <g id="text_12">
     <!-- 1.0 -->
     <g transform="translate(73.503105 276.659665)scale(0.25 -0.25)">
      <use xlink:href="#DejaVuSans-31"/>
      <use x="63.623047" xlink:href="#DejaVuSans-2e"/>
      <use x="95.410156" xlink:href="#DejaVuSans-30"/>
     </g>
    </g>
   </g>
   <g id="xtick_12">
    <g id="line2d_15">
     <path d="M 112.612775 212.917421 
L 106.713522 213.9502 
" style="fill:none;stroke:#000000;stroke-linecap:square;stroke-width:0.8;"/>
    </g>
    <g id="text_13">
     <!-- 1.5 -->
     <g transform="translate(72.038011 230.63654)scale(0.25 -0.25)">
      <use xlink:href="#DejaVuSans-31"/>
      <use x="63.623047" xlink:href="#DejaVuSans-2e"/>
      <use x="95.410156" xlink:href="#DejaVuSans-35"/>
     </g>
    </g>
   </g>
   <g id="xtick_13">
    <g id="line2d_16">
     <path d="M 111.274652 166.157047 
L 105.330587 167.134894 
" style="fill:none;stroke:#000000;stroke-linecap:square;stroke-width:0.8;"/>
    </g>
    <g id="text_14">
     <!-- 2.0 -->
     <g transform="translate(70.551611 183.944114)scale(0.25 -0.25)">
      <use xlink:href="#DejaVuSans-32"/>
      <use x="63.623047" xlink:href="#DejaVuSans-2e"/>
      <use x="95.410156" xlink:href="#DejaVuSans-30"/>
     </g>
    </g>
   </g>
  </g>
  <g id="axes_1">
   <g id="line2d_17">
    <path clip-path="url(#p3e30b46109)" d="M 344.127029 -1 
L 343.261833 78.414854 
L 340.876607 214.414449 
L 339.216822 251.197632 
L 337.682474 271.009496 
L 336.202469 283.388828 
L 334.775078 287.810267 
L 333.338552 293.950346 
L 331.921105 296.988675 
L 330.511835 298.564892 
L 329.101314 300.313467 
L 327.692638 301.632567 
L 326.280233 303.63978 
L 324.874247 304.186138 
L 323.458966 306.709834 
L 322.055274 306.397635 
L 320.644765 307.547043 
L 319.235726 308.138022 
L 317.826178 308.64333 
L 316.415653 309.191953 
L 315.004686 309.611829 
L 313.592017 310.333189 
L 312.180866 310.15104 
L 310.766402 310.916083 
L 309.351297 311.638459 
L 307.936629 311.715141 
L 306.519326 312.782827 
L 305.102801 312.859974 
L 303.685537 312.678515 
L 302.266225 313.445646 
L 300.845933 314.558145 
L 299.425591 314.592905 
L 298.00399 315.361172 
L 296.58168 315.482567 
L 295.158383 315.819895 
L 293.733976 315.725621 
L 292.309049 316.581594 
L 290.88279 316.703592 
L 289.455875 317.171415 
L 288.028027 317.5963 
L 286.59935 318.064688 
L 285.169337 318.273879 
L 283.738845 318.742782 
L 282.307474 319.211973 
L 280.875011 319.594893 
L 279.44128 319.848181 
L 278.007071 320.274863 
L 276.56979 320.008699 
L 275.134491 320.695748 
L 273.697784 321.209813 
L 272.257897 321.117221 
L 270.819846 321.761875 
L 269.378209 321.756207 
L 267.937612 322.2279 
L 266.49469 322.396043 
L 265.052245 322.868247 
L 263.608009 323.167026 
L 262.163507 323.596331 
L 260.717602 323.939003 
L 259.269978 324.151502 
L 257.824259 324.842403 
L 256.372788 324.750921 
L 254.9233 325.137941 
L 253.472875 325.525212 
L 252.019677 325.651564 
L 250.569527 326.344042 
L 249.115318 326.601427 
L 247.661452 327.03324 
L 246.203548 327.073153 
L 244.747034 327.418238 
L 243.28919 327.719949 
L 241.830361 328.021865 
L 240.37132 328.411237 
L 238.908153 328.451743 
L 237.449176 329.059791 
" style="fill:none;stroke:#00ffff;stroke-linecap:square;stroke-width:2;"/>
   </g>
   <g id="line2d_18">
    <path clip-path="url(#p3e30b46109)" d="M 357.329886 -1 
L 355.196172 110.408344 
L 353.185556 174.427836 
L 351.471993 207.011314 
L 349.816543 234.243831 
L 348.271283 249.28703 
L 346.771769 259.258331 
L 345.269046 270.083677 
L 343.81278 275.189095 
L 342.369158 278.714251 
L 340.902086 285.649295 
L 339.467964 288.033723 
L 338.029232 291.116922 
L 336.591909 294.02491 
L 335.143052 298.85115 
L 333.707635 301.582931 
L 332.280769 302.833339 
L 330.857655 303.299825 
L 329.424089 305.596957 
L 327.997444 306.500195 
L 326.57178 307.055241 
L 325.138129 309.179454 
L 323.708115 310.432638 
L 322.279717 311.163439 
L 320.85123 311.720304 
L 319.422217 312.190313 
L 317.991424 312.922223 
L 316.562656 312.782272 
L 315.124942 315.259366 
L 313.691804 316.079801 
L 312.257276 317.162316 
L 310.824039 317.416588 
L 309.388191 318.456367 
L 307.952594 319.016675 
L 306.517696 318.617039 
L 305.078728 320.225588 
L 303.639133 322.052772 
L 302.202183 320.737152 
L 300.762269 321.211641 
L 299.321089 322.472876 
L 297.879554 322.991836 
L 296.437134 324.166628 
L 294.993932 324.380405 
L 293.549656 324.463157 
L 292.104594 324.98336 
L 290.658457 325.285144 
L 289.211833 326.024716 
L 287.763776 326.283268 
L 286.314786 326.585781 
L 284.867202 328.202049 
L 283.416279 328.373986 
L 281.964011 328.41463 
L 280.509976 328.192354 
L 279.057954 329.153536 
L 277.604468 329.852156 
L 276.149192 330.244232 
L 274.691009 330.066319 
L 273.237241 331.423978 
L 271.779892 331.992435 
L 270.319861 332.122348 
L 268.857031 331.857172 
L 267.401009 333.348596 
L 265.936279 333.127722 
L 264.472529 333.346119 
L 263.007507 333.520714 
L 261.546524 334.618713 
L 260.080104 334.881816 
L 258.610291 334.749202 
L 257.14502 335.540567 
L 255.677838 336.15633 
L 254.206852 336.332274 
L 252.737239 336.860612 
" style="fill:none;stroke:#00ffff;stroke-linecap:square;stroke-width:2;"/>
   </g>
   <g id="line2d_19">
    <path clip-path="url(#p3e30b46109)" d="M 375.31338 -1 
L 373.169345 96.986272 
L 370.247017 160.486539 
L 368.311361 203.692362 
L 365.90564 225.815122 
L 364.309466 240.493378 
L 361.984532 256.777107 
L 360.415421 270.003781 
L 358.200836 276.488004 
L 356.720738 281.311254 
L 354.489237 290.002821 
L 353.016986 294.283989 
L 350.839509 297.293655 
L 349.366351 301.837346 
L 347.191813 304.493414 
L 345.741498 306.29408 
L 343.56117 309.570315 
L 342.108314 311.636898 
L 339.940885 312.97029 
L 338.481281 315.92135 
L 336.314099 316.903356 
L 334.858038 319.236979 
L 332.690875 319.779106 
L 331.226173 323.526855 
L 329.054269 324.512852 
L 327.605298 325.170653 
L 325.428249 326.59977 
L 323.976918 327.346943 
L 321.798976 328.335909 
L 320.347995 328.465311 
L 318.163993 330.251303 
L 316.710114 330.558371 
L 314.522014 332.894395 
L 313.066919 332.884125 
L 310.882986 332.49696 
L 309.421481 334.150845 
L 307.23176 334.755999 
L 305.768978 336.340384 
L 303.576395 336.663581 
L 302.11269 337.611592 
L 299.916347 338.077521 
L 298.450716 338.813879 
L 296.250745 339.564539 
L 294.783014 340.337331 
L 292.579364 340.556964 
L 291.109364 341.259673 
L 288.902408 341.977166 
L 287.428943 341.757289 
L 285.219482 343.186354 
L 283.744402 343.535518 
L 281.529863 344.04193 
L 280.052734 344.569505 
L 277.835524 345.432634 
L 276.355884 345.88988 
L 274.13526 346.754285 
L 272.652868 347.1055 
L 270.428195 347.828679 
" style="fill:none;stroke:#00ffff;stroke-linecap:square;stroke-width:2;"/>
   </g>
   <g id="line2d_20">
    <path clip-path="url(#p3e30b46109)" d="M 395.296447 -1 
L 395.069354 9.375194 
L 391.079267 129.585932 
L 388.068356 186.005179 
L 385.346779 224.166943 
L 382.8385 248.312208 
L 380.450029 264.437807 
L 378.123017 276.442633 
L 375.802034 288.416355 
L 373.560321 294.345393 
L 371.326532 299.73193 
L 369.060938 307.982928 
L 366.837478 312.734381 
L 364.636004 315.516934 
L 362.429187 318.747433 
L 360.219303 322.246566 
L 358.010129 325.656635 
L 355.81589 327.459577 
L 353.60732 330.692563 
L 351.416348 331.872652 
L 349.2131 334.304035 
L 347.01828 335.575625 
L 344.824491 336.490887 
L 342.628074 337.496334 
L 340.421609 339.664448 
L 338.221176 340.76134 
L 336.020582 341.590956 
L 333.811712 343.46754 
L 331.604085 344.889249 
L 329.394634 346.347783 
L 327.186645 347.181235 
L 324.977828 347.746986 
L 322.765488 348.61771 
L 320.550701 349.596695 
L 318.331821 351.185601 
L 316.116232 351.243645 
L 313.896675 351.785896 
L 311.673767 352.768137 
L 309.448551 353.912705 
L 307.222005 354.753179 
L 304.993306 355.648289 
L 302.7632 355.924666 
L 300.530152 356.884101 
L 298.29535 357.044609 
L 296.058005 357.978561 
L 293.818498 358.5806 
L 291.57679 359.273225 
L 289.332813 359.912526 
" style="fill:none;stroke:#00ffff;stroke-linecap:square;stroke-width:2;"/>
   </g>
   <g id="line2d_21">
    <path clip-path="url(#p3e30b46109)" d="M 416.772715 -1 
L 416.611964 6.169771 
L 410.72799 168.246063 
L 406.667782 232.397719 
L 403.171471 266.163587 
L 399.874216 289.344473 
L 396.768366 301.507392 
L 393.670872 313.552453 
L 390.647756 321.051146 
L 387.670171 325.562126 
L 384.664233 332.060839 
L 381.695149 335.94039 
L 378.72261 340.001786 
L 375.759395 343.252889 
L 372.793397 346.596005 
L 369.853216 347.596483 
L 366.885947 350.673275 
L 363.937202 351.857798 
L 360.974141 354.081664 
L 358.013553 355.784072 
L 355.049716 357.497328 
L 352.093393 358.011105 
L 349.128598 359.022783 
L 346.153147 360.894724 
L 343.183649 361.565716 
L 340.203459 363.169781 
L 337.222153 364.440712 
L 334.240676 365.142621 
L 331.254525 365.936137 
L 328.26188 367.202217 
L 325.268474 367.843959 
L 322.269535 368.795222 
L 319.265032 370.183598 
L 316.26035 370.510725 
L 313.250616 371.011105 
L 310.234777 372.267267 
L 307.21581 373.188272 
" style="fill:none;stroke:#00ffff;stroke-linecap:square;stroke-width:2;"/>
   </g>
   <g id="line2d_22">
    <path clip-path="url(#p3e30b46109)" d="M 438.979834 -1 
L 432.408508 197.827514 
L 427.137305 273.826592 
L 422.829919 305.629428 
L 418.819267 323.660151 
L 414.955635 334.601137 
L 411.129193 343.795085 
L 407.364079 349.70426 
L 403.63107 353.703072 
L 399.899746 357.431849 
L 396.179763 360.253567 
L 392.45277 363.260569 
L 388.734651 365.396662 
L 385.007104 367.845379 
L 381.293158 368.948417 
L 377.570093 370.272224 
L 373.833307 372.218694 
L 370.105181 372.981075 
L 366.357237 374.914353 
L 362.612053 376.08264 
L 358.856372 377.673629 
L 355.102793 378.42511 
L 351.337556 379.727525 
L 347.569887 380.573833 
L 343.793518 381.67848 
L 340.012099 382.583092 
L 336.223256 383.599535 
L 332.428127 384.562601 
L 328.626784 385.435377 
L 324.818455 386.346541 
" style="fill:none;stroke:#00ffff;stroke-linecap:square;stroke-width:2;"/>
   </g>
   <g id="line2d_23">
    <path clip-path="url(#p3e30b46109)" d="M 462.688649 -1 
L 460.221929 89.181231 
L 451.777097 279.433389 
L 447.000147 324.73349 
L 442.861293 344.589182 
L 438.946616 355.265238 
L 435.116478 362.34515 
L 431.350426 366.485288 
L 427.602783 369.618077 
L 423.833211 373.63602 
L 420.095592 375.893605 
L 416.367067 377.418916 
L 412.616925 379.792678 
L 408.881418 381.084063 
L 405.127223 383.095599 
L 401.393058 383.599561 
L 397.63112 385.376635 
L 393.873302 386.529303 
L 390.106289 387.868516 
L 386.337311 388.914438 
L 382.564041 389.795839 
L 378.779325 391.03027 
L 374.992637 391.915121 
L 371.197553 392.931236 
L 367.39471 394.041827 
L 363.587456 394.950305 
L 359.772574 395.934679 
L 355.951068 396.90223 
L 352.123217 397.81574 
L 348.289368 398.61927 
L 344.448004 399.480146 
" style="fill:none;stroke:#00ffff;stroke-linecap:square;stroke-width:2;"/>
   </g>
   <g id="line2d_24">
    <path clip-path="url(#p3e30b46109)" d="M 344.403 307.211842 
L 332.887716 309.395575 
L 326.159597 310.456909 
L 321.099823 311.037264 
L 317.085741 311.287609 
L 313.487715 311.291572 
L 310.307707 311.070566 
L 307.5475 310.668774 
L 304.783163 310.034508 
L 302.227559 309.210284 
L 299.88139 308.226967 
L 297.531589 307.002235 
L 295.177876 305.514455 
L 292.819939 303.744157 
L 290.457439 301.675109 
L 288.090018 299.295463 
L 285.717309 296.598941 
L 283.12244 293.296628 
L 280.520399 289.629192 
L 277.692973 285.272085 
L 274.419031 279.811507 
L 270.253871 272.394168 
L 259.867725 253.642646 
L 256.977507 248.962692 
L 254.527744 245.375958 
L 252.298205 242.487336 
L 250.290273 240.241005 
L 248.504875 238.558215 
L 246.719392 237.196208 
L 245.157361 236.283984 
L 243.595877 235.644748 
L 242.258106 235.320994 
L 240.921101 235.208597 
L 239.585019 235.31024 
L 238.250004 235.627118 
L 236.916187 236.158922 
L 235.583685 236.903839 
L 234.030896 238.037791 
L 232.480165 239.449581 
L 230.710548 241.390024 
L 228.943838 243.660845 
L 226.959802 246.582003 
L 224.759618 250.238975 
L 222.344404 254.695539 
L 219.496175 260.438783 
L 215.998221 268.014899 
L 209.23522 283.351047 
L 204.218944 294.453744 
L 200.506058 302.137775 
L 197.223383 308.408119 
L 194.371879 313.400236 
L 191.513298 317.956295 
L 188.867692 321.768456 
L 186.215034 325.207948 
L 183.555083 328.288288 
L 180.887742 331.029586 
L 178.213035 333.456759 
L 175.531091 335.597864 
L 172.617728 337.629045 
L 169.696454 339.397576 
L 166.542069 341.051048 
L 163.153279 342.581937 
L 159.302062 344.075521 
L 154.757941 345.5829 
L 149.515977 347.080426 
L 142.654905 348.795246 
L 132.777995 351.012969 
L 124.934937 352.683249 
L 124.934937 352.683249 
" style="fill:none;stroke:#000000;stroke-linecap:square;"/>
   </g>
   <g id="line2d_25">
    <path clip-path="url(#p3e30b46109)" d="M 358.950317 314.57808 
L 354.748294 314.791651 
L 351.171101 314.760357 
L 347.799786 314.5051 
L 344.846258 314.065029 
L 342.100615 313.444989 
L 339.351908 312.593484 
L 336.811801 311.578735 
L 334.268811 310.323664 
L 331.722738 308.810034 
L 329.17334 307.022494 
L 326.620328 304.949646 
L 324.063372 302.585133 
L 321.288463 299.694352 
L 318.507996 296.470373 
L 315.506838 292.649459 
L 312.067491 287.892613 
L 307.969007 281.824924 
L 295.134004 262.509947 
L 292.064379 258.481115 
L 289.426613 255.399225 
L 287.224176 253.150965 
L 285.238965 251.412257 
L 283.251207 249.971076 
L 281.482438 248.95885 
L 279.71216 248.214294 
L 278.162127 247.791415 
L 276.611303 247.588141 
L 275.059861 247.608651 
L 273.507971 247.855349 
L 271.955799 248.328832 
L 270.403504 249.027884 
L 268.851237 249.949489 
L 267.077431 251.269066 
L 265.304032 252.863214 
L 263.30965 254.969126 
L 261.094751 257.671523 
L 258.881178 260.721847 
L 256.226806 264.786137 
L 253.353652 269.60474 
L 249.820706 275.984055 
L 244.747028 285.661278 
L 236.148042 302.083844 
L 232.17613 309.180353 
L 228.641371 315.060471 
L 225.322642 320.146086 
L 222.219958 324.491353 
L 219.333762 328.170202 
L 216.442158 331.508337 
L 213.544803 334.51605 
L 210.641457 337.210027 
L 207.73198 339.611728 
L 204.816314 341.745858 
L 201.669467 343.775407 
L 198.290017 345.678367 
L 194.676559 347.443764 
L 190.827734 349.071789 
L 186.514971 350.65054 
L 181.507272 352.238248 
L 175.570789 353.88145 
L 167.779511 355.794232 
L 156.266963 358.368996 
L 137.94976 362.264756 
L 137.94976 362.264756 
" style="fill:none;stroke:#000000;stroke-linecap:square;"/>
   </g>
   <g id="line2d_26">
    <path clip-path="url(#p3e30b46109)" d="M 377.639256 317.272974 
L 374.901722 316.05279 
L 372.16184 314.594153 
L 369.419405 312.886829 
L 366.674146 310.924712 
L 363.714167 308.525608 
L 360.750019 305.836172 
L 357.568861 302.650071 
L 353.955956 298.698005 
L 349.693531 293.674404 
L 343.056673 285.440466 
L 337.025684 278.08741 
L 333.345518 273.947691 
L 330.30393 270.856072 
L 327.689026 268.503166 
L 325.285774 266.632602 
L 323.095937 265.200617 
L 321.121103 264.151041 
L 319.142656 263.343955 
L 317.160775 262.792254 
L 315.396386 262.524657 
L 313.629602 262.47246 
L 311.860591 262.639282 
L 310.089531 263.026883 
L 308.316602 263.635142 
L 306.541991 264.462057 
L 304.543775 265.648832 
L 302.543925 267.099222 
L 300.320264 269.006578 
L 298.09523 271.207222 
L 295.646468 273.940258 
L 292.974037 277.256546 
L 289.855316 281.504242 
L 286.29047 286.756967 
L 281.611322 294.089366 
L 266.901564 317.476909 
L 262.66255 323.621596 
L 258.866258 328.725901 
L 255.289379 333.15167 
L 251.931934 336.951842 
L 248.569919 340.411667 
L 245.427476 343.339931 
L 242.280275 345.989723 
L 238.902679 348.538467 
L 235.519042 350.810673 
L 231.902962 352.959901 
L 228.279662 354.859241 
L 224.194747 356.739612 
L 219.872903 358.479029 
L 215.084301 360.166834 
L 209.596652 361.865938 
L 202.944919 363.688151 
L 194.195273 365.837948 
L 181.233548 368.765875 
L 154.603775 374.504357 
L 154.603775 374.504357 
" style="fill:none;stroke:#000000;stroke-linecap:square;"/>
   </g>
   <g id="line2d_27">
    <path clip-path="url(#p3e30b46109)" d="M 397.052423 307.545249 
L 392.623677 303.0922 
L 385.634696 295.685941 
L 379.455287 289.25736 
L 375.598896 285.564002 
L 372.371852 282.784338 
L 369.564795 280.661302 
L 366.964996 278.982484 
L 364.574481 277.711906 
L 362.395196 276.800901 
L 360.210189 276.138822 
L 358.23889 275.766758 
L 356.263179 275.61466 
L 354.283205 275.68807 
L 352.299146 275.990389 
L 350.311204 276.522813 
L 348.319599 277.28432 
L 346.324568 278.271684 
L 344.104154 279.627036 
L 341.880175 281.24418 
L 339.430112 283.309465 
L 336.753458 285.880126 
L 333.849891 289.002276 
L 330.719297 292.704847 
L 327.13784 297.28924 
L 322.657089 303.40399 
L 315.033715 314.262428 
L 307.854574 324.349444 
L 303.141133 330.608072 
L 298.874547 335.905192 
L 295.054813 340.300704 
L 291.457243 344.117915 
L 287.856661 347.616627 
L 284.252513 350.798748 
L 280.64427 353.674496 
L 277.031444 356.260631 
L 273.413602 358.57869 
L 269.563731 360.775519 
L 265.480357 362.837192 
L 261.161904 364.759542 
L 256.378704 366.631784 
L 251.127407 368.439264 
L 245.175117 370.250804 
L 237.825695 372.244427 
L 228.371304 374.565183 
L 213.993792 377.839128 
L 181.880404 384.859659 
L 171.702773 387.070225 
L 171.702773 387.070225 
" style="fill:none;stroke:#000000;stroke-linecap:square;"/>
   </g>
   <g id="line2d_28">
    <path clip-path="url(#p3e30b46109)" d="M 416.941989 305.752464 
L 412.689553 301.926775 
L 409.271494 299.141837 
L 406.482767 297.13374 
L 403.89883 295.530184 
L 401.521727 294.303739 
L 399.353534 293.413283 
L 397.178435 292.754165 
L 394.996442 292.340662 
L 393.026816 292.187944 
L 391.051767 292.249467 
L 389.071436 292.529105 
L 387.086 293.028467 
L 385.09567 293.746872 
L 382.878751 294.798325 
L 380.656464 296.109209 
L 378.206231 297.838184 
L 375.750561 299.850103 
L 373.066144 302.341541 
L 370.152418 305.352148 
L 366.784412 309.168006 
L 362.73619 314.124483 
L 357.330844 321.141971 
L 344.70304 337.670712 
L 340.191376 343.151594 
L 336.130345 347.753019 
L 332.294122 351.7699 
L 328.682398 355.240789 
L 325.069032 358.406974 
L 321.453468 361.274024 
L 317.835134 363.855326 
L 314.213469 366.170158 
L 310.361211 368.363832 
L 306.27697 370.421683 
L 301.959185 372.33934 
L 297.178282 374.206106 
L 291.930983 376.00828 
L 285.755572 377.881786 
L 278.18419 379.928641 
L 268.278376 382.359611 
L 252.519263 385.968714 
L 209.527125 395.497928 
L 189.264821 399.97457 
L 189.264821 399.97457 
" style="fill:none;stroke:#000000;stroke-linecap:square;"/>
   </g>
   <g id="line2d_29">
    <path clip-path="url(#p3e30b46109)" d="M 437.065281 320.588913 
L 434.265181 319.318291 
L 431.67009 318.398495 
L 429.282191 317.795637 
L 427.103711 317.464337 
L 424.917898 317.35189 
L 422.724795 317.467161 
L 420.524527 317.815719 
L 418.31729 318.399693 
L 416.103352 319.217721 
L 413.883042 320.264982 
L 411.433805 321.671902 
L 408.977902 323.331038 
L 406.291866 325.405817 
L 403.374873 327.931332 
L 400.001318 331.148881 
L 395.944274 335.340442 
L 390.298307 341.525868 
L 379.440187 353.463885 
L 374.687319 358.319905 
L 370.61312 362.182888 
L 366.76489 365.54122 
L 362.915919 368.602724 
L 359.292192 371.212341 
L 355.440114 373.706355 
L 351.585413 375.932031 
L 347.500312 378.02409 
L 343.183309 379.974072 
L 338.632678 381.785021 
L 333.390228 383.621108 
L 327.450854 385.456442 
L 320.120175 387.474557 
L 310.461943 389.885281 
L 294.964865 393.492707 
L 250.160881 403.595886 
L 207.309024 413.232842 
L 207.309024 413.232842 
" style="fill:none;stroke:#000000;stroke-linecap:square;"/>
   </g>
   <g id="line2d_30">
    <path clip-path="url(#p3e30b46109)" d="M 457.413165 346.999335 
L 454.79681 346.725413 
L 452.170596 346.684028 
L 449.754452 346.865182 
L 447.329939 347.264725 
L 444.897219 347.886185 
L 442.456579 348.72802 
L 439.7855 349.889898 
L 437.106121 351.291218 
L 434.194976 353.055042 
L 430.826357 355.364736 
L 426.998221 358.264822 
L 421.805653 362.5011 
L 408.901124 373.162912 
L 404.141141 376.73711 
L 399.833126 379.693308 
L 395.750479 382.228571 
L 391.665985 384.504702 
L 387.578925 386.535038 
L 383.261111 388.437196 
L 378.483206 390.292194 
L 373.242109 392.082581 
L 367.076822 393.943709 
L 359.52047 395.983019 
L 348.945192 398.590895 
L 329.266332 403.173149 
L 225.855524 426.860176 
L 225.855524 426.860176 
" style="fill:none;stroke:#000000;stroke-linecap:square;"/>
   </g>
  </g>
 </g>
 <defs>
  <clipPath id="p3e30b46109">
   <rect height="428.031496" width="428.031496" x="76.535433" y="68.031496"/>
  </clipPath>
 </defs>
</svg>
