<?xml version="1.0" encoding="utf-8" standalone="no"?>
<!DOCTYPE svg PUBLIC "-//W3C//DTD SVG 1.1//EN"
  "http://www.w3.org/Graphics/SVG/1.1/DTD/svg11.dtd">
<svg height="566.929134pt" version="1.1" viewBox="0 0 566.929134 566.929134" width="566.929134pt" xmlns="http://www.w3.org/2000/svg" xmlns:xlink="http://www.w3.org/1999/xlink">
 <metadata>
  <rdf:RDF xmlns:cc="http://creativecommons.org/ns#" xmlns:dc="http://purl.org/dc/elements/1.1/" xmlns:rdf="http://www.w3.org/1999/02/22-rdf-syntax-ns#">
   <cc:Work>
    <dc:type rdf:resource="http://purl.org/dc/dcmitype/StillImage"/>
    <dc:date>2023-12-10T22:32:58.390102</dc:date>
    <dc:format>image/svg+xml</dc:format>
    <dc:creator>
     <cc:Agent>
      <dc:title>Matplotlib v3.4.3, https://matplotlib.org/</dc:title>
     </cc:Agent>
    </dc:creator>
   </cc:Work>
  </rdf:RDF>
 </metadata>
 <defs>
  <style type="text/css">*{stroke-linecap:butt;stroke-linejoin:round;}</style>
 </defs>
 <g id="figure_1">
  <g id="patch_1">
   <path d="M 0 566.929134 
L 566.929134 566.929134 
L 566.929134 0 
L 0 0 
z
" style="fill:none;"/>
  </g>
  <g id="patch_2">
   <path d="M 76.535433 496.062992 
L 504.566929 496.062992 
L 504.566929 68.031496 
L 76.535433 68.031496 
z
" style="fill:none;"/>
  </g>
  <g id="pane3d_1">
   <g id="patch_3">
    <path d="M 129.86861 399.209234 
L 192.368389 350.791191 
L 191.151982 159.05044 
L 127.681926 184.572411 
" style="fill:#f2f2f2;opacity:0.5;stroke:#f2f2f2;stroke-linejoin:miter;"/>
   </g>
  </g>
  <g id="pane3d_2">
   <g id="patch_4">
    <path d="M 192.368389 350.791191 
L 447.699428 358.554039 
L 449.505183 163.137499 
L 191.151982 159.05044 
" style="fill:#e6e6e6;opacity:0.5;stroke:#e6e6e6;stroke-linejoin:miter;"/>
   </g>
  </g>
  <g id="pane3d_3">
   <g id="patch_5">
    <path d="M 129.86861 399.209234 
L 415.440751 408.98975 
L 447.699428 358.554039 
L 192.368389 350.791191 
" style="fill:#ececec;opacity:0.5;stroke:#ececec;stroke-linejoin:miter;"/>
   </g>
  </g>
  <g id="axis3d_1">
   <g id="line2d_1">
    <path d="M 129.86861 399.209234 
L 415.440751 408.98975 
" style="fill:none;stroke:#000000;stroke-linecap:square;stroke-width:0.8;"/>
   </g>
   <g id="Line3DCollection_1">
    <path d="M 135.460446 399.400748 
L 197.379629 350.943548 
L 196.221406 159.130637 
" style="fill:none;stroke:#b0b0b0;stroke-width:0.8;"/>
    <path d="M 202.937218 401.711749 
L 257.813863 352.780934 
L 257.360893 160.097842 
" style="fill:none;stroke:#b0b0b0;stroke-width:0.8;"/>
    <path d="M 271.113278 404.046701 
L 318.806077 354.635285 
L 319.071541 161.074083 
" style="fill:none;stroke:#b0b0b0;stroke-width:0.8;"/>
    <path d="M 339.999552 406.405976 
L 380.364037 356.506836 
L 381.361392 162.059487 
" style="fill:none;stroke:#b0b0b0;stroke-width:0.8;"/>
    <path d="M 409.607197 408.789958 
L 442.495648 358.395829 
L 444.238638 163.054184 
" style="fill:none;stroke:#b0b0b0;stroke-width:0.8;"/>
   </g>
   <g id="xtick_1">
    <g id="line2d_2">
     <path d="M 136.015293 398.966531 
L 134.347518 400.271711 
" style="fill:none;stroke:#000000;stroke-linecap:square;stroke-width:0.8;"/>
    </g>
    <g id="text_1">
     <!-- 0 -->
     <g transform="translate(124.014274 432.209572)scale(0.25 -0.25)">
      <defs>
       <path d="M 2034 4250 
Q 1547 4250 1301 3770 
Q 1056 3291 1056 2328 
Q 1056 1369 1301 889 
Q 1547 409 2034 409 
Q 2525 409 2770 889 
Q 3016 1369 3016 2328 
Q 3016 3291 2770 3770 
Q 2525 4250 2034 4250 
z
M 2034 4750 
Q 2819 4750 3233 4129 
Q 3647 3509 3647 2328 
Q 3647 1150 3233 529 
Q 2819 -91 2034 -91 
Q 1250 -91 836 529 
Q 422 1150 422 2328 
Q 422 3509 836 4129 
Q 1250 4750 2034 4750 
z
" id="DejaVuSans-30" transform="scale(0.015625)"/>
      </defs>
      <use xlink:href="#DejaVuSans-30"/>
     </g>
    </g>
   </g>
   <g id="xtick_2">
    <g id="line2d_3">
     <path d="M 203.42923 401.273047 
L 201.950313 402.591725 
" style="fill:none;stroke:#000000;stroke-linecap:square;stroke-width:0.8;"/>
    </g>
    <g id="text_2">
     <!-- 20 -->
     <g transform="translate(183.900576 434.60522)scale(0.25 -0.25)">
      <defs>
       <path d="M 1228 531 
L 3431 531 
L 3431 0 
L 469 0 
L 469 531 
Q 828 903 1448 1529 
Q 2069 2156 2228 2338 
Q 2531 2678 2651 2914 
Q 2772 3150 2772 3378 
Q 2772 3750 2511 3984 
Q 2250 4219 1831 4219 
Q 1534 4219 1204 4116 
Q 875 4013 500 3803 
L 500 4441 
Q 881 4594 1212 4672 
Q 1544 4750 1819 4750 
Q 2544 4750 2975 4387 
Q 3406 4025 3406 3419 
Q 3406 3131 3298 2873 
Q 3191 2616 2906 2266 
Q 2828 2175 2409 1742 
Q 1991 1309 1228 531 
z
" id="DejaVuSans-32" transform="scale(0.015625)"/>
      </defs>
      <use xlink:href="#DejaVuSans-32"/>
      <use x="63.623047" xlink:href="#DejaVuSans-30"/>
     </g>
    </g>
   </g>
   <g id="xtick_3">
    <g id="line2d_4">
     <path d="M 271.541119 403.603442 
L 270.255076 404.935828 
" style="fill:none;stroke:#000000;stroke-linecap:square;stroke-width:0.8;"/>
    </g>
    <g id="text_3">
     <!-- 40 -->
     <g transform="translate(252.447036 437.025837)scale(0.25 -0.25)">
      <defs>
       <path d="M 2419 4116 
L 825 1625 
L 2419 1625 
L 2419 4116 
z
M 2253 4666 
L 3047 4666 
L 3047 1625 
L 3713 1625 
L 3713 1100 
L 3047 1100 
L 3047 0 
L 2419 0 
L 2419 1100 
L 313 1100 
L 313 1709 
L 2253 4666 
z
" id="DejaVuSans-34" transform="scale(0.015625)"/>
      </defs>
      <use xlink:href="#DejaVuSans-34"/>
      <use x="63.623047" xlink:href="#DejaVuSans-30"/>
     </g>
    </g>
   </g>
   <g id="xtick_4">
    <g id="line2d_5">
     <path d="M 340.361857 405.95809 
L 339.272798 407.304399 
" style="fill:none;stroke:#000000;stroke-linecap:square;stroke-width:0.8;"/>
    </g>
    <g id="text_4">
     <!-- 60 -->
     <g transform="translate(321.711641 439.471813)scale(0.25 -0.25)">
      <defs>
       <path d="M 2113 2584 
Q 1688 2584 1439 2293 
Q 1191 2003 1191 1497 
Q 1191 994 1439 701 
Q 1688 409 2113 409 
Q 2538 409 2786 701 
Q 3034 994 3034 1497 
Q 3034 2003 2786 2293 
Q 2538 2584 2113 2584 
z
M 3366 4563 
L 3366 3988 
Q 3128 4100 2886 4159 
Q 2644 4219 2406 4219 
Q 1781 4219 1451 3797 
Q 1122 3375 1075 2522 
Q 1259 2794 1537 2939 
Q 1816 3084 2150 3084 
Q 2853 3084 3261 2657 
Q 3669 2231 3669 1497 
Q 3669 778 3244 343 
Q 2819 -91 2113 -91 
Q 1303 -91 875 529 
Q 447 1150 447 2328 
Q 447 3434 972 4092 
Q 1497 4750 2381 4750 
Q 2619 4750 2861 4703 
Q 3103 4656 3366 4563 
z
" id="DejaVuSans-36" transform="scale(0.015625)"/>
      </defs>
      <use xlink:href="#DejaVuSans-36"/>
      <use x="63.623047" xlink:href="#DejaVuSans-30"/>
     </g>
    </g>
   </g>
   <g id="xtick_5">
    <g id="line2d_6">
     <path d="M 409.902566 408.337372 
L 409.014702 409.697823 
" style="fill:none;stroke:#000000;stroke-linecap:square;stroke-width:0.8;"/>
    </g>
    <g id="text_5">
     <!-- 80 -->
     <g transform="translate(391.705737 441.943551)scale(0.25 -0.25)">
      <defs>
       <path d="M 2034 2216 
Q 1584 2216 1326 1975 
Q 1069 1734 1069 1313 
Q 1069 891 1326 650 
Q 1584 409 2034 409 
Q 2484 409 2743 651 
Q 3003 894 3003 1313 
Q 3003 1734 2745 1975 
Q 2488 2216 2034 2216 
z
M 1403 2484 
Q 997 2584 770 2862 
Q 544 3141 544 3541 
Q 544 4100 942 4425 
Q 1341 4750 2034 4750 
Q 2731 4750 3128 4425 
Q 3525 4100 3525 3541 
Q 3525 3141 3298 2862 
Q 3072 2584 2669 2484 
Q 3125 2378 3379 2068 
Q 3634 1759 3634 1313 
Q 3634 634 3220 271 
Q 2806 -91 2034 -91 
Q 1263 -91 848 271 
Q 434 634 434 1313 
Q 434 1759 690 2068 
Q 947 2378 1403 2484 
z
M 1172 3481 
Q 1172 3119 1398 2916 
Q 1625 2713 2034 2713 
Q 2441 2713 2670 2916 
Q 2900 3119 2900 3481 
Q 2900 3844 2670 4047 
Q 2441 4250 2034 4250 
Q 1625 4250 1398 4047 
Q 1172 3844 1172 3481 
z
" id="DejaVuSans-38" transform="scale(0.015625)"/>
      </defs>
      <use xlink:href="#DejaVuSans-38"/>
      <use x="63.623047" xlink:href="#DejaVuSans-30"/>
     </g>
    </g>
   </g>
  </g>
  <g id="axis3d_2">
   <g id="line2d_7">
    <path d="M 447.699428 358.554039 
L 415.440751 408.98975 
" style="fill:none;stroke:#000000;stroke-linecap:square;stroke-width:0.8;"/>
   </g>
  </g>
  <g id="axis3d_3">
   <g id="line2d_8">
    <path d="M 447.699428 358.554039 
L 449.505183 163.137499 
" style="fill:none;stroke:#000000;stroke-linecap:square;stroke-width:0.8;"/>
   </g>
   <g id="text_6">
    <!-- 1e6 -->
    <g transform="translate(488.409592 208.233728)rotate(-89.470571)scale(0.25 -0.25)">
     <defs>
      <path d="M 794 531 
L 1825 531 
L 1825 4091 
L 703 3866 
L 703 4441 
L 1819 4666 
L 2450 4666 
L 2450 531 
L 3481 531 
L 3481 0 
L 794 0 
L 794 531 
z
" id="DejaVuSans-31" transform="scale(0.015625)"/>
      <path d="M 3597 1894 
L 3597 1613 
L 953 1613 
Q 991 1019 1311 708 
Q 1631 397 2203 397 
Q 2534 397 2845 478 
Q 3156 559 3463 722 
L 3463 178 
Q 3153 47 2828 -22 
Q 2503 -91 2169 -91 
Q 1331 -91 842 396 
Q 353 884 353 1716 
Q 353 2575 817 3079 
Q 1281 3584 2069 3584 
Q 2775 3584 3186 3129 
Q 3597 2675 3597 1894 
z
M 3022 2063 
Q 3016 2534 2758 2815 
Q 2500 3097 2075 3097 
Q 1594 3097 1305 2825 
Q 1016 2553 972 2059 
L 3022 2063 
z
" id="DejaVuSans-65" transform="scale(0.015625)"/>
     </defs>
     <use xlink:href="#DejaVuSans-31"/>
     <use x="63.623047" xlink:href="#DejaVuSans-65"/>
     <use x="125.146484" xlink:href="#DejaVuSans-36"/>
    </g>
   </g>
   <g id="Line3DCollection_2">
    <path d="M 447.735126 354.690874 
L 192.344337 346.999847 
L 129.825432 394.971056 
" style="fill:none;stroke:#b0b0b0;stroke-width:0.8;"/>
    <path d="M 448.164816 308.190355 
L 192.054838 301.366512 
L 129.305545 343.940897 
" style="fill:none;stroke:#b0b0b0;stroke-width:0.8;"/>
    <path d="M 448.596952 261.425137 
L 191.763723 255.478392 
L 128.782402 292.591083 
" style="fill:none;stroke:#b0b0b0;stroke-width:0.8;"/>
    <path d="M 449.031555 214.392954 
L 191.470978 209.333348 
L 128.255972 240.918598 
" style="fill:none;stroke:#b0b0b0;stroke-width:0.8;"/>
    <path d="M 449.468646 167.091512 
L 191.176589 162.929215 
L 127.726223 188.920394 
" style="fill:none;stroke:#b0b0b0;stroke-width:0.8;"/>
   </g>
   <g id="xtick_6">
    <g id="line2d_9">
     <path d="M 445.652632 354.62816 
L 451.902055 354.81636 
" style="fill:none;stroke:#000000;stroke-linecap:square;stroke-width:0.8;"/>
    </g>
    <g id="text_7">
     <!-- 0.0 -->
     <g transform="translate(442.697923 371.806476)scale(0.25 -0.25)">
      <defs>
       <path d="M 684 794 
L 1344 794 
L 1344 0 
L 684 0 
L 684 794 
z
" id="DejaVuSans-2e" transform="scale(0.015625)"/>
      </defs>
      <use xlink:href="#DejaVuSans-30"/>
      <use x="63.623047" xlink:href="#DejaVuSans-2e"/>
      <use x="95.410156" xlink:href="#DejaVuSans-30"/>
     </g>
    </g>
   </g>
   <g id="xtick_7">
    <g id="line2d_10">
     <path d="M 446.076346 308.13471 
L 452.343709 308.301698 
" style="fill:none;stroke:#000000;stroke-linecap:square;stroke-width:0.8;"/>
    </g>
    <g id="text_8">
     <!-- 0.5 -->
     <g transform="translate(443.167531 325.51792)scale(0.25 -0.25)">
      <defs>
       <path d="M 691 4666 
L 3169 4666 
L 3169 4134 
L 1269 4134 
L 1269 2991 
Q 1406 3038 1543 3061 
Q 1681 3084 1819 3084 
Q 2600 3084 3056 2656 
Q 3513 2228 3513 1497 
Q 3513 744 3044 326 
Q 2575 -91 1722 -91 
Q 1428 -91 1123 -41 
Q 819 9 494 109 
L 494 744 
Q 775 591 1075 516 
Q 1375 441 1709 441 
Q 2250 441 2565 725 
Q 2881 1009 2881 1497 
Q 2881 1984 2565 2268 
Q 2250 2553 1709 2553 
Q 1456 2553 1204 2497 
Q 953 2441 691 2322 
L 691 4666 
z
" id="DejaVuSans-35" transform="scale(0.015625)"/>
      </defs>
      <use xlink:href="#DejaVuSans-30"/>
      <use x="63.623047" xlink:href="#DejaVuSans-2e"/>
      <use x="95.410156" xlink:href="#DejaVuSans-35"/>
     </g>
    </g>
   </g>
   <g id="xtick_8">
    <g id="line2d_11">
     <path d="M 446.502471 261.376641 
L 452.787878 261.522174 
" style="fill:none;stroke:#000000;stroke-linecap:square;stroke-width:0.8;"/>
    </g>
    <g id="text_9">
     <!-- 1.0 -->
     <g transform="translate(443.6398 278.967105)scale(0.25 -0.25)">
      <use xlink:href="#DejaVuSans-31"/>
      <use x="63.623047" xlink:href="#DejaVuSans-2e"/>
      <use x="95.410156" xlink:href="#DejaVuSans-30"/>
     </g>
    </g>
   </g>
   <g id="xtick_9">
    <g id="line2d_12">
     <path d="M 446.931029 214.35169 
L 453.234583 214.475519 
" style="fill:none;stroke:#000000;stroke-linecap:square;stroke-width:0.8;"/>
    </g>
    <g id="text_10">
     <!-- 1.5 -->
     <g transform="translate(444.114752 232.151798)scale(0.25 -0.25)">
      <use xlink:href="#DejaVuSans-31"/>
      <use x="63.623047" xlink:href="#DejaVuSans-2e"/>
      <use x="95.410156" xlink:href="#DejaVuSans-35"/>
     </g>
    </g>
   </g>
   <g id="xtick_10">
    <g id="line2d_13">
     <path d="M 447.362039 167.057565 
L 453.683847 167.159439 
" style="fill:none;stroke:#000000;stroke-linecap:square;stroke-width:0.8;"/>
    </g>
    <g id="text_11">
     <!-- 2.0 -->
     <g transform="translate(444.59241 185.069737)scale(0.25 -0.25)">
      <use xlink:href="#DejaVuSans-32"/>
      <use x="63.623047" xlink:href="#DejaVuSans-2e"/>
      <use x="95.410156" xlink:href="#DejaVuSans-30"/>
     </g>
    </g>
   </g>
  </g>
  <g id="axes_1">
   <g id="line2d_14">
    <path clip-path="url(#pc29af21351)" d="M 142.636731 -1 
L 143.93339 89.442457 
L 145.373299 173.391303 
L 146.436839 216.597859 
L 147.430408 252.437496 
L 148.291647 273.875103 
L 149.111616 290.888477 
L 149.922744 307.056704 
L 150.694622 318.939803 
L 151.447593 328.782794 
L 152.182855 336.693798 
L 152.899805 342.577025 
L 153.583771 344.719017 
L 154.323639 353.32333 
L 155.021913 357.178723 
L 155.708674 359.721487 
L 156.413387 364.381193 
L 157.104059 367.426308 
L 157.785165 369.362236 
L 158.478909 372.809006 
L 159.151328 373.736959 
L 159.830462 375.470609 
L 160.509523 377.204072 
L 161.186015 378.635315 
L 161.875285 381.626654 
L 162.542149 381.900106 
L 163.213156 382.676822 
L 163.884985 383.554186 
L 164.551135 383.727073 
L 165.223795 384.705107 
L 165.892833 385.23028 
L 166.567886 386.510195 
L 167.225426 385.576226 
L 167.89971 386.755606 
L 168.569642 387.381494 
L 169.242722 388.409898 
L 169.902559 387.727645 
L 170.570649 388.102018 
L 171.240318 388.677685 
L 171.905797 388.699871 
L 172.572486 388.873025 
L 173.23923 389.046194 
L 173.904899 389.068402 
L 174.57251 389.342248 
L 175.238304 389.364473 
L 175.906761 389.739012 
L 176.571201 389.559929 
L 177.238291 389.733173 
L 177.905802 389.956767 
L 178.572276 390.029366 
L 179.237732 389.95095 
L 179.905056 390.124242 
L 180.57101 390.096169 
L 181.23739 390.118442 
L 181.903837 390.140716 
L 182.571053 390.263698 
L 183.237632 390.285982 
L 183.903585 390.207553 
L 184.571336 390.380917 
L 185.237774 390.352848 
L 185.904283 390.324776 
L 186.571878 390.447803 
L 187.238525 390.419734 
L 187.905577 390.442034 
L 188.572697 390.464336 
L 189.240215 390.537017 
L 189.907469 390.559327 
L 190.57479 390.581638 
L 191.242179 390.603952 
L 191.909636 390.626268 
L 192.577161 390.648586 
" style="fill:none;stroke:#00ffff;stroke-linecap:square;stroke-width:2;"/>
   </g>
   <g id="line2d_15">
    <path clip-path="url(#pc29af21351)" d="M 154.805175 -1 
L 156.686657 148.134386 
L 157.934338 218.56977 
L 158.889395 254.57142 
L 159.7934 284.756865 
L 160.58287 301.355639 
L 161.324434 312.277723 
L 162.073179 324.175762 
L 162.768629 329.63385 
L 163.449278 333.310132 
L 164.16074 340.837041 
L 164.83046 343.22599 
L 165.506355 346.404015 
L 166.180489 349.383823 
L 166.871589 354.532307 
L 167.543729 357.312737 
L 168.202603 358.417125 
L 168.854553 358.634445 
L 169.522576 360.921421 
L 170.178337 361.63153 
L 170.831087 361.947501 
L 171.4974 364.037032 
L 172.156139 365.141191 
L 172.810397 365.654275 
L 173.463203 365.97036 
L 174.115314 366.187951 
L 174.769669 366.701102 
L 175.416773 366.229101 
L 176.08569 368.712502 
L 176.740801 369.324197 
L 177.398077 370.231383 
L 178.048586 370.20291 
L 178.705534 371.060891 
L 179.358608 371.377186 
L 180.004023 370.610014 
L 180.665576 372.108329 
L 181.328805 373.852716 
L 181.967187 372.051569 
L 182.619806 372.269452 
L 183.278598 373.373873 
L 183.931618 373.64106 
L 184.589728 374.646987 
L 185.240469 374.569489 
L 185.890285 374.344225 
L 186.54349 374.611484 
L 187.195097 374.632485 
L 187.850034 375.146057 
L 188.501427 375.117828 
L 189.15321 375.138856 
L 189.814679 376.637639 
L 190.465577 376.510972 
L 191.115602 376.236509 
L 191.763825 375.666409 
L 192.420608 376.426481 
L 193.075531 376.890976 
L 193.728321 377.010632 
L 194.377177 376.489782 
L 195.036817 377.693396 
L 195.690972 378.010174 
L 196.342158 377.834269 
L 196.990731 377.214852 
L 197.651309 378.56646 
L 198.30033 377.996351 
L 198.952397 377.918972 
L 199.604244 377.792301 
L 200.262246 378.700595 
L 200.91478 378.672531 
L 201.564814 378.20087 
L 202.220906 378.764264 
L 202.875893 379.130522 
L 203.528122 379.003892 
L 204.182648 379.271603 
" style="fill:none;stroke:#00ffff;stroke-linecap:square;stroke-width:2;"/>
   </g>
   <g id="line2d_16">
    <path clip-path="url(#pc29af21351)" d="M 167.068902 -1 
L 167.728046 67.310314 
L 169.354378 194.972394 
L 170.451883 254.673488 
L 171.312448 283.790124 
L 172.084374 301.471058 
L 172.824153 315.051212 
L 173.517216 322.51942 
L 174.196051 328.145343 
L 174.880925 334.637264 
L 175.54613 338.518467 
L 176.210379 342.301717 
L 176.864545 344.733006 
L 177.519981 347.356723 
L 178.159975 347.858203 
L 178.820048 351.156285 
L 179.464108 352.236248 
L 180.113618 354.087353 
L 180.754886 354.781635 
L 181.401572 356.246977 
L 182.044174 357.133996 
L 182.690781 358.59918 
L 183.324705 358.233465 
L 183.975248 360.276763 
L 184.610578 360.103883 
L 185.254807 361.231767 
L 185.893163 361.492516 
L 186.532855 361.945982 
L 187.16808 361.725008 
L 187.803703 361.552187 
L 188.450513 363.06563 
L 189.088118 363.181949 
L 189.720132 362.431029 
L 190.369415 364.329982 
L 190.997851 363.000955 
L 191.639082 363.647328 
L 192.280633 364.341895 
L 192.925845 365.614608 
L 193.56588 366.068298 
L 194.197829 365.221159 
L 194.836777 365.482161 
L 195.470721 364.923993 
L 196.11893 366.678795 
L 196.752999 366.120712 
L 197.387756 365.658922 
L 198.033608 367.028377 
L 198.670505 366.903977 
L 199.306333 366.586786 
L 199.945086 366.751525 
L 200.582481 366.675287 
L 201.223585 367.225638 
L 201.862763 367.43862 
L 202.504474 368.085409 
L 203.139065 367.47901 
L 203.777853 367.59562 
L 204.417238 367.808653 
L 205.048874 366.623559 
L 205.693745 367.800875 
L 206.335408 368.399637 
L 206.97314 368.275244 
L 207.611729 368.295486 
L 208.252197 368.653249 
L 208.893215 369.107463 
L 209.527102 368.211555 
L 210.16899 368.810485 
L 210.806109 368.493179 
L 211.447067 368.899258 
L 212.085327 368.774849 
L 212.726616 369.229198 
L 213.365244 369.15303 
L 214.007096 369.703886 
L 214.642469 368.952432 
L 215.28083 368.779754 
" style="fill:none;stroke:#00ffff;stroke-linecap:square;stroke-width:2;"/>
   </g>
   <g id="line2d_17">
    <path clip-path="url(#pc29af21351)" d="M 178.838013 -1 
L 179.874579 111.463062 
L 181.257752 219.417434 
L 182.189322 263.36258 
L 183.004945 290.955318 
L 183.730968 305.769 
L 184.419642 315.257886 
L 185.096694 323.129042 
L 185.757242 328.630739 
L 186.424373 335.168301 
L 187.055185 336.319894 
L 187.708484 340.870311 
L 188.34284 342.587782 
L 188.964765 342.417577 
L 189.603352 344.795527 
L 190.247922 348.116359 
L 190.875302 348.795484 
L 191.485796 346.833175 
L 192.125891 349.493505 
L 192.755112 350.455646 
L 193.384912 351.512081 
L 194.007626 351.436747 
L 194.643283 353.436254 
L 195.259361 352.276446 
L 195.895244 354.323132 
L 196.512359 353.304854 
L 197.136179 353.371084 
L 197.768281 354.804878 
L 198.389623 354.446768 
L 199.019176 355.45619 
L 199.643146 355.52252 
L 200.264407 355.117263 
L 200.898122 356.834108 
L 201.51621 355.863029 
L 202.144736 356.683959 
L 202.769758 356.891835 
L 203.391615 356.533778 
L 204.014888 356.411508 
L 204.646151 357.704201 
L 205.268462 357.393332 
L 205.895024 357.837107 
L 206.52032 358.04507 
L 207.148742 358.819042 
L 207.76671 357.659131 
L 208.393184 358.055816 
L 209.016922 357.933596 
L 209.641979 358.047256 
L 210.270806 358.868592 
L 210.892249 358.274605 
L 211.520149 358.907291 
L 212.148305 359.587168 
L 212.773099 359.606552 
L 213.395325 359.106911 
L 214.021918 359.456585 
L 214.645721 359.240021 
L 215.268668 358.834656 
L 215.894486 358.995599 
L 216.522194 359.534121 
L 217.149008 359.883882 
L 217.774725 359.997682 
L 218.402291 360.48907 
L 219.023419 359.611687 
L 219.650642 360.008721 
L 220.275045 359.792104 
L 220.903222 360.378002 
L 221.527535 360.114182 
L 222.154494 360.416873 
L 222.779583 360.294672 
L 223.404531 360.12524 
L 224.030805 360.239104 
L 224.657337 360.400197 
L 225.282484 360.230749 
L 225.909938 360.580752 
" style="fill:none;stroke:#00ffff;stroke-linecap:square;stroke-width:2;"/>
   </g>
   <g id="line2d_18">
    <path clip-path="url(#pc29af21351)" d="M 190.132489 -1 
L 191.342117 138.371588 
L 192.509587 225.907576 
L 193.380978 267.105326 
L 194.125291 288.333439 
L 194.849437 306.542406 
L 195.525456 317.122712 
L 196.159455 320.935824 
L 196.797709 325.487717 
L 197.431211 329.297704 
L 198.064479 333.106284 
L 198.682659 334.418168 
L 199.296425 334.99056 
L 199.91401 336.209937 
L 200.5348 337.983698 
L 201.15337 339.387677 
L 201.77509 341.345825 
L 202.38984 342.102944 
L 203.004591 342.860065 
L 203.6183 343.432458 
L 204.233841 344.328132 
L 204.850661 345.454677 
L 205.456447 344.595549 
L 206.067696 344.706181 
L 206.685561 346.017571 
L 207.294607 345.712623 
L 207.909713 346.516051 
L 208.521353 346.672952 
L 209.138691 347.892015 
L 209.756239 349.157186 
L 210.363579 348.483012 
L 210.97752 349.055607 
L 211.586223 348.61227 
L 212.197151 348.584538 
L 212.805786 348.094922 
L 213.424562 349.591352 
L 214.03308 349.055609 
L 214.6463 349.443602 
L 215.255893 349.092564 
L 215.868973 349.434401 
L 216.483211 350.007219 
L 217.09121 349.286605 
L 217.708186 350.413828 
L 218.320519 350.570958 
L 218.928971 349.896519 
L 219.545108 350.839057 
L 220.155219 350.488012 
L 220.76648 350.367948 
L 221.379922 350.709939 
L 221.993396 351.051948 
L 222.604201 350.793274 
L 223.216732 350.904265 
L 223.8287 350.876625 
L 224.441337 350.987629 
L 225.052415 350.728901 
L 225.665564 350.93235 
L 226.279151 351.228254 
L 226.890425 350.969508 
L 227.505853 351.681451 
L 228.114166 350.683071 
L 228.730431 351.580002 
L 229.343853 351.783529 
L 229.956569 351.802151 
L 230.569156 351.774543 
L 231.18162 351.700697 
L 231.793419 351.44189 
L 232.407461 351.737941 
L 233.019931 351.61784 
L 233.632291 351.451481 
L 234.246649 351.79382 
L 234.861388 352.228669 
L 235.476667 352.802271 
L 236.088902 352.543465 
" style="fill:none;stroke:#00ffff;stroke-linecap:square;stroke-width:2;"/>
   </g>
   <g id="line2d_19">
    <path clip-path="url(#pc29af21351)" d="M 143.100335 360.955437 
L 144.078016 351.799698 
L 145.039464 340.736514 
L 146.219152 324.240634 
L 147.607707 301.022416 
L 151.999677 223.195264 
L 152.972176 211.564886 
L 153.722139 205.1004 
L 154.232983 202.008236 
L 154.75296 199.954361 
L 155.282275 198.974504 
L 155.550454 198.893479 
L 155.82097 199.085972 
L 156.093804 199.551186 
L 156.646293 201.29067 
L 157.207566 204.082165 
L 158.064811 210.1334 
L 158.938438 218.213159 
L 160.123962 231.62308 
L 161.628611 251.438766 
L 167.047602 326.15762 
L 168.511696 342.545036 
L 169.950439 355.956208 
L 171.08383 364.563151 
L 172.203077 371.429649 
L 173.310058 376.760192 
L 174.406831 380.790523 
L 175.495426 383.760994 
L 176.307632 385.429987 
L 177.116983 386.715954 
L 178.192705 387.963807 
L 179.265591 388.813485 
L 180.336551 389.382257 
L 181.673554 389.830462 
L 183.543725 390.171236 
L 186.214444 390.395883 
L 193.161214 390.667673 
L 413.864313 398.047172 
L 413.864313 398.047172 
" style="fill:none;stroke:#000000;stroke-linecap:square;"/>
   </g>
   <g id="line2d_20">
    <path clip-path="url(#pc29af21351)" d="M 156.025373 377.673254 
L 157.836997 377.031018 
L 159.388581 376.270088 
L 160.93868 375.266188 
L 162.486942 373.967829 
L 163.775497 372.621216 
L 165.062319 370.999075 
L 166.34722 369.069111 
L 167.886333 366.304356 
L 169.422234 363.007779 
L 170.954823 359.14675 
L 172.48415 354.706182 
L 174.264549 348.804507 
L 176.29514 341.185976 
L 178.57629 331.723902 
L 185.690475 301.456958 
L 187.227032 296.099485 
L 188.512766 292.274607 
L 189.803854 289.141051 
L 190.840845 287.190736 
L 191.621082 286.076546 
L 192.403493 285.274238 
L 193.188084 284.792277 
L 193.974844 284.635877 
L 194.763736 284.806914 
L 195.554704 285.303888 
L 196.347672 286.121954 
L 197.142546 287.253004 
L 198.205145 289.228095 
L 199.270622 291.704673 
L 200.605986 295.439683 
L 202.212603 300.727338 
L 204.091048 307.760868 
L 206.778109 318.796452 
L 211.877702 339.948857 
L 214.284751 348.88791 
L 216.151861 355.052199 
L 218.01443 360.446102 
L 219.607431 364.441583 
L 221.197452 367.871261 
L 222.784801 370.766921 
L 224.369825 373.17307 
L 225.952892 375.142119 
L 227.534365 376.730145 
L 229.114583 377.993396 
L 230.693857 378.985611 
L 232.53551 379.86619 
L 234.639594 380.590601 
L 237.006347 381.146044 
L 239.899162 381.579183 
L 243.844969 381.923798 
L 250.425609 382.241673 
L 274.43347 383.043863 
L 420.604001 387.816709 
L 420.604001 387.816709 
" style="fill:none;stroke:#000000;stroke-linecap:square;"/>
   </g>
   <g id="line2d_21">
    <path clip-path="url(#pc29af21351)" d="M 168.154009 369.339603 
L 172.218339 369.057643 
L 175.520999 368.609565 
L 178.31544 368.00943 
L 180.855444 367.231755 
L 183.140895 366.296796 
L 185.171807 365.24346 
L 187.202027 363.949644 
L 189.231457 362.386439 
L 191.26003 360.527864 
L 193.287726 358.352936 
L 195.31458 355.847932 
L 197.340689 353.008706 
L 199.619389 349.425131 
L 202.15087 344.998605 
L 205.189003 339.180769 
L 210.257313 328.844711 
L 214.066512 321.30152 
L 216.611607 316.763898 
L 218.651584 313.586882 
L 220.439687 311.225083 
L 221.974783 309.55979 
L 223.255789 308.450259 
L 224.538401 307.610117 
L 225.822609 307.0512 
L 226.851103 306.812134 
L 227.880573 306.760692 
L 228.910986 306.897608 
L 229.942305 307.221973 
L 231.232655 307.887008 
L 232.524247 308.832402 
L 233.816969 310.046015 
L 235.369555 311.834273 
L 236.923372 313.953546 
L 238.737411 316.793467 
L 240.81181 320.440615 
L 243.665316 325.962301 
L 249.11301 337.173615 
L 253.001745 344.90708 
L 255.851454 350.0988 
L 258.440529 354.345508 
L 260.769501 357.736987 
L 262.838867 360.396915 
L 264.907589 362.726122 
L 266.975815 364.737722 
L 269.0437 366.452252 
L 271.111396 367.895406 
L 273.437506 369.230448 
L 275.763742 370.301169 
L 278.348791 371.231966 
L 281.192967 372.003045 
L 284.29666 372.613838 
L 288.17793 373.13845 
L 293.097154 373.563956 
L 300.352966 373.948215 
L 316.187694 374.505379 
L 427.042057 378.044105 
L 427.042057 378.044105 
" style="fill:none;stroke:#000000;stroke-linecap:square;"/>
   </g>
   <g id="line2d_22">
    <path clip-path="url(#pc29af21351)" d="M 179.75513 360.639388 
L 187.473583 360.603909 
L 192.955518 360.366215 
L 197.443009 359.950112 
L 201.183895 359.38534 
L 204.426804 358.687303 
L 207.420823 357.833128 
L 210.415319 356.743016 
L 213.160665 355.509061 
L 215.906392 354.028222 
L 218.652549 352.283797 
L 221.399224 350.266212 
L 224.146555 347.975206 
L 227.144613 345.177454 
L 230.393995 341.832248 
L 234.396019 337.366714 
L 245.927098 324.223694 
L 248.691619 321.514636 
L 251.207502 319.362128 
L 253.474008 317.732707 
L 255.490424 316.563865 
L 257.256103 315.776901 
L 259.022966 315.223495 
L 260.790957 314.912979 
L 262.56001 314.850996 
L 264.330049 315.039361 
L 266.100989 315.476007 
L 267.87274 316.155043 
L 269.645207 317.066907 
L 271.67164 318.377322 
L 273.698746 319.950464 
L 275.979879 321.998294 
L 278.515061 324.564327 
L 281.811403 328.246903 
L 286.629728 334.029011 
L 293.73076 342.535076 
L 297.535086 346.720669 
L 300.8325 350.010374 
L 303.876732 352.726119 
L 306.66783 354.930261 
L 309.459601 356.860995 
L 312.252176 358.527485 
L 315.045672 359.946134 
L 318.094288 361.236408 
L 321.144222 362.289245 
L 324.44989 363.200786 
L 328.266238 364.00981 
L 332.594236 364.683291 
L 337.689846 365.239089 
L 344.320325 365.720264 
L 354.023406 366.176652 
L 375.010685 366.882536 
L 433.198288 368.699296 
L 433.198288 368.699296 
" style="fill:none;stroke:#000000;stroke-linecap:square;"/>
   </g>
   <g id="line2d_23">
    <path clip-path="url(#pc29af21351)" d="M 190.866727 352.089624 
L 201.848624 352.191509 
L 209.179115 352.043671 
L 214.803857 351.71646 
L 219.698081 351.208275 
L 223.860387 350.559902 
L 227.779681 349.725315 
L 231.455638 348.711233 
L 234.887989 347.536961 
L 238.321822 346.123679 
L 241.75725 344.459479 
L 245.194425 342.541514 
L 248.879263 340.214903 
L 252.812504 337.454459 
L 257.487386 333.882924 
L 272.038435 322.518554 
L 275.252236 320.403126 
L 278.221271 318.715114 
L 280.944873 317.436625 
L 283.422438 316.527553 
L 285.653439 315.933715 
L 287.885486 315.564537 
L 290.118491 315.427756 
L 292.35236 315.527018 
L 294.586998 315.861766 
L 296.822309 316.427255 
L 299.0582 317.214699 
L 301.543099 318.334541 
L 304.277066 319.838246 
L 307.26013 321.762583 
L 310.492308 324.121669 
L 314.470995 327.311055 
L 321.18654 333.039629 
L 327.904544 338.672966 
L 332.385174 342.132564 
L 336.120601 344.750306 
L 339.857725 347.091665 
L 343.347441 349.01499 
L 346.838997 350.686103 
L 350.332521 352.115403 
L 354.077871 353.398423 
L 357.825664 354.45139 
L 362.07616 355.405303 
L 366.580164 356.186457 
L 371.839311 356.86651 
L 378.10635 357.442957 
L 386.137621 357.947627 
L 398.203731 358.461242 
L 425.686549 359.344835 
L 439.090803 359.754686 
L 439.090803 359.754686 
" style="fill:none;stroke:#000000;stroke-linecap:square;"/>
   </g>
  </g>
 </g>
 <defs>
  <clipPath id="pc29af21351">
   <rect height="428.031496" width="428.031496" x="76.535433" y="68.031496"/>
  </clipPath>
 </defs>
</svg>
