<?xml version="1.0" encoding="utf-8" standalone="no"?>
<!DOCTYPE svg PUBLIC "-//W3C//DTD SVG 1.1//EN"
  "http://www.w3.org/Graphics/SVG/1.1/DTD/svg11.dtd">
<svg height="648pt" version="1.1" viewBox="0 0 864 648" width="864pt" xmlns="http://www.w3.org/2000/svg" xmlns:xlink="http://www.w3.org/1999/xlink">
 <metadata>
  <rdf:RDF xmlns:cc="http://creativecommons.org/ns#" xmlns:dc="http://purl.org/dc/elements/1.1/" xmlns:rdf="http://www.w3.org/1999/02/22-rdf-syntax-ns#">
   <cc:Work>
    <dc:type rdf:resource="http://purl.org/dc/dcmitype/StillImage"/>
    <dc:date>2023-12-11T16:48:17.902007</dc:date>
    <dc:format>image/svg+xml</dc:format>
    <dc:creator>
     <cc:Agent>
      <dc:title>Matplotlib v3.4.3, https://matplotlib.org/</dc:title>
     </cc:Agent>
    </dc:creator>
   </cc:Work>
  </rdf:RDF>
 </metadata>
 <defs>
  <style type="text/css">*{stroke-linecap:butt;stroke-linejoin:round;}</style>
 </defs>
 <g id="figure_1">
  <g id="patch_1">
   <path d="M 0 648 
L 864 648 
L 864 0 
L 0 0 
z
" style="fill:none;"/>
  </g>
  <g id="patch_2">
   <path d="M 198.18 567 
L 687.42 567 
L 687.42 77.76 
L 198.18 77.76 
z
" style="fill:none;"/>
  </g>
  <g id="pane3d_1">
   <g id="patch_3">
    <path d="M 597.981045 427.195919 
L 616.787335 441.300637 
L 616.787335 190.236661 
L 597.981045 204.341378 
" style="fill:#f2f2f2;opacity:0.5;stroke:#f2f2f2;stroke-linejoin:miter;"/>
   </g>
  </g>
  <g id="pane3d_2">
   <g id="patch_4">
    <path d="M 597.981045 427.195919 
L 300.841658 427.195919 
L 300.841658 204.341378 
L 597.981045 204.341378 
" style="fill:#e6e6e6;opacity:0.5;stroke:#e6e6e6;stroke-linejoin:miter;"/>
   </g>
  </g>
  <g id="pane3d_3">
   <g id="patch_5">
    <path d="M 597.981045 427.195919 
L 300.841658 427.195919 
L 282.035367 441.300637 
L 616.787335 441.300637 
" style="fill:#ececec;opacity:0.5;stroke:#ececec;stroke-linejoin:miter;"/>
   </g>
  </g>
  <g id="axis3d_1">
   <g id="line2d_1">
    <path d="M 616.787335 441.300637 
L 282.035367 441.300637 
" style="fill:none;stroke:#000000;stroke-linecap:square;stroke-width:0.8;"/>
   </g>
   <g id="text_1">
    <!-- Depth in Diamond (nm) -->
    <g transform="translate(390.340258 470.580604)scale(0.1 -0.1)">
     <defs>
      <path d="M 1259 4147 
L 1259 519 
L 2022 519 
Q 2988 519 3436 956 
Q 3884 1394 3884 2338 
Q 3884 3275 3436 3711 
Q 2988 4147 2022 4147 
L 1259 4147 
z
M 628 4666 
L 1925 4666 
Q 3281 4666 3915 4102 
Q 4550 3538 4550 2338 
Q 4550 1131 3912 565 
Q 3275 0 1925 0 
L 628 0 
L 628 4666 
z
" id="DejaVuSans-44" transform="scale(0.015625)"/>
      <path d="M 3597 1894 
L 3597 1613 
L 953 1613 
Q 991 1019 1311 708 
Q 1631 397 2203 397 
Q 2534 397 2845 478 
Q 3156 559 3463 722 
L 3463 178 
Q 3153 47 2828 -22 
Q 2503 -91 2169 -91 
Q 1331 -91 842 396 
Q 353 884 353 1716 
Q 353 2575 817 3079 
Q 1281 3584 2069 3584 
Q 2775 3584 3186 3129 
Q 3597 2675 3597 1894 
z
M 3022 2063 
Q 3016 2534 2758 2815 
Q 2500 3097 2075 3097 
Q 1594 3097 1305 2825 
Q 1016 2553 972 2059 
L 3022 2063 
z
" id="DejaVuSans-65" transform="scale(0.015625)"/>
      <path d="M 1159 525 
L 1159 -1331 
L 581 -1331 
L 581 3500 
L 1159 3500 
L 1159 2969 
Q 1341 3281 1617 3432 
Q 1894 3584 2278 3584 
Q 2916 3584 3314 3078 
Q 3713 2572 3713 1747 
Q 3713 922 3314 415 
Q 2916 -91 2278 -91 
Q 1894 -91 1617 61 
Q 1341 213 1159 525 
z
M 3116 1747 
Q 3116 2381 2855 2742 
Q 2594 3103 2138 3103 
Q 1681 3103 1420 2742 
Q 1159 2381 1159 1747 
Q 1159 1113 1420 752 
Q 1681 391 2138 391 
Q 2594 391 2855 752 
Q 3116 1113 3116 1747 
z
" id="DejaVuSans-70" transform="scale(0.015625)"/>
      <path d="M 1172 4494 
L 1172 3500 
L 2356 3500 
L 2356 3053 
L 1172 3053 
L 1172 1153 
Q 1172 725 1289 603 
Q 1406 481 1766 481 
L 2356 481 
L 2356 0 
L 1766 0 
Q 1100 0 847 248 
Q 594 497 594 1153 
L 594 3053 
L 172 3053 
L 172 3500 
L 594 3500 
L 594 4494 
L 1172 4494 
z
" id="DejaVuSans-74" transform="scale(0.015625)"/>
      <path d="M 3513 2113 
L 3513 0 
L 2938 0 
L 2938 2094 
Q 2938 2591 2744 2837 
Q 2550 3084 2163 3084 
Q 1697 3084 1428 2787 
Q 1159 2491 1159 1978 
L 1159 0 
L 581 0 
L 581 4863 
L 1159 4863 
L 1159 2956 
Q 1366 3272 1645 3428 
Q 1925 3584 2291 3584 
Q 2894 3584 3203 3211 
Q 3513 2838 3513 2113 
z
" id="DejaVuSans-68" transform="scale(0.015625)"/>
      <path id="DejaVuSans-20" transform="scale(0.015625)"/>
      <path d="M 603 3500 
L 1178 3500 
L 1178 0 
L 603 0 
L 603 3500 
z
M 603 4863 
L 1178 4863 
L 1178 4134 
L 603 4134 
L 603 4863 
z
" id="DejaVuSans-69" transform="scale(0.015625)"/>
      <path d="M 3513 2113 
L 3513 0 
L 2938 0 
L 2938 2094 
Q 2938 2591 2744 2837 
Q 2550 3084 2163 3084 
Q 1697 3084 1428 2787 
Q 1159 2491 1159 1978 
L 1159 0 
L 581 0 
L 581 3500 
L 1159 3500 
L 1159 2956 
Q 1366 3272 1645 3428 
Q 1925 3584 2291 3584 
Q 2894 3584 3203 3211 
Q 3513 2838 3513 2113 
z
" id="DejaVuSans-6e" transform="scale(0.015625)"/>
      <path d="M 2194 1759 
Q 1497 1759 1228 1600 
Q 959 1441 959 1056 
Q 959 750 1161 570 
Q 1363 391 1709 391 
Q 2188 391 2477 730 
Q 2766 1069 2766 1631 
L 2766 1759 
L 2194 1759 
z
M 3341 1997 
L 3341 0 
L 2766 0 
L 2766 531 
Q 2569 213 2275 61 
Q 1981 -91 1556 -91 
Q 1019 -91 701 211 
Q 384 513 384 1019 
Q 384 1609 779 1909 
Q 1175 2209 1959 2209 
L 2766 2209 
L 2766 2266 
Q 2766 2663 2505 2880 
Q 2244 3097 1772 3097 
Q 1472 3097 1187 3025 
Q 903 2953 641 2809 
L 641 3341 
Q 956 3463 1253 3523 
Q 1550 3584 1831 3584 
Q 2591 3584 2966 3190 
Q 3341 2797 3341 1997 
z
" id="DejaVuSans-61" transform="scale(0.015625)"/>
      <path d="M 3328 2828 
Q 3544 3216 3844 3400 
Q 4144 3584 4550 3584 
Q 5097 3584 5394 3201 
Q 5691 2819 5691 2113 
L 5691 0 
L 5113 0 
L 5113 2094 
Q 5113 2597 4934 2840 
Q 4756 3084 4391 3084 
Q 3944 3084 3684 2787 
Q 3425 2491 3425 1978 
L 3425 0 
L 2847 0 
L 2847 2094 
Q 2847 2600 2669 2842 
Q 2491 3084 2119 3084 
Q 1678 3084 1418 2786 
Q 1159 2488 1159 1978 
L 1159 0 
L 581 0 
L 581 3500 
L 1159 3500 
L 1159 2956 
Q 1356 3278 1631 3431 
Q 1906 3584 2284 3584 
Q 2666 3584 2933 3390 
Q 3200 3197 3328 2828 
z
" id="DejaVuSans-6d" transform="scale(0.015625)"/>
      <path d="M 1959 3097 
Q 1497 3097 1228 2736 
Q 959 2375 959 1747 
Q 959 1119 1226 758 
Q 1494 397 1959 397 
Q 2419 397 2687 759 
Q 2956 1122 2956 1747 
Q 2956 2369 2687 2733 
Q 2419 3097 1959 3097 
z
M 1959 3584 
Q 2709 3584 3137 3096 
Q 3566 2609 3566 1747 
Q 3566 888 3137 398 
Q 2709 -91 1959 -91 
Q 1206 -91 779 398 
Q 353 888 353 1747 
Q 353 2609 779 3096 
Q 1206 3584 1959 3584 
z
" id="DejaVuSans-6f" transform="scale(0.015625)"/>
      <path d="M 2906 2969 
L 2906 4863 
L 3481 4863 
L 3481 0 
L 2906 0 
L 2906 525 
Q 2725 213 2448 61 
Q 2172 -91 1784 -91 
Q 1150 -91 751 415 
Q 353 922 353 1747 
Q 353 2572 751 3078 
Q 1150 3584 1784 3584 
Q 2172 3584 2448 3432 
Q 2725 3281 2906 2969 
z
M 947 1747 
Q 947 1113 1208 752 
Q 1469 391 1925 391 
Q 2381 391 2643 752 
Q 2906 1113 2906 1747 
Q 2906 2381 2643 2742 
Q 2381 3103 1925 3103 
Q 1469 3103 1208 2742 
Q 947 2381 947 1747 
z
" id="DejaVuSans-64" transform="scale(0.015625)"/>
      <path d="M 1984 4856 
Q 1566 4138 1362 3434 
Q 1159 2731 1159 2009 
Q 1159 1288 1364 580 
Q 1569 -128 1984 -844 
L 1484 -844 
Q 1016 -109 783 600 
Q 550 1309 550 2009 
Q 550 2706 781 3412 
Q 1013 4119 1484 4856 
L 1984 4856 
z
" id="DejaVuSans-28" transform="scale(0.015625)"/>
      <path d="M 513 4856 
L 1013 4856 
Q 1481 4119 1714 3412 
Q 1947 2706 1947 2009 
Q 1947 1309 1714 600 
Q 1481 -109 1013 -844 
L 513 -844 
Q 928 -128 1133 580 
Q 1338 1288 1338 2009 
Q 1338 2731 1133 3434 
Q 928 4138 513 4856 
z
" id="DejaVuSans-29" transform="scale(0.015625)"/>
     </defs>
     <use xlink:href="#DejaVuSans-44"/>
     <use x="77.001953" xlink:href="#DejaVuSans-65"/>
     <use x="138.525391" xlink:href="#DejaVuSans-70"/>
     <use x="202.001953" xlink:href="#DejaVuSans-74"/>
     <use x="241.210938" xlink:href="#DejaVuSans-68"/>
     <use x="304.589844" xlink:href="#DejaVuSans-20"/>
     <use x="336.376953" xlink:href="#DejaVuSans-69"/>
     <use x="364.160156" xlink:href="#DejaVuSans-6e"/>
     <use x="427.539062" xlink:href="#DejaVuSans-20"/>
     <use x="459.326172" xlink:href="#DejaVuSans-44"/>
     <use x="536.328125" xlink:href="#DejaVuSans-69"/>
     <use x="564.111328" xlink:href="#DejaVuSans-61"/>
     <use x="625.390625" xlink:href="#DejaVuSans-6d"/>
     <use x="722.802734" xlink:href="#DejaVuSans-6f"/>
     <use x="783.984375" xlink:href="#DejaVuSans-6e"/>
     <use x="847.363281" xlink:href="#DejaVuSans-64"/>
     <use x="910.839844" xlink:href="#DejaVuSans-20"/>
     <use x="942.626953" xlink:href="#DejaVuSans-28"/>
     <use x="981.640625" xlink:href="#DejaVuSans-6e"/>
     <use x="1045.019531" xlink:href="#DejaVuSans-6d"/>
     <use x="1142.431641" xlink:href="#DejaVuSans-29"/>
    </g>
   </g>
   <g id="Line3DCollection_1">
    <path d="M 610.092296 441.300637 
L 592.038257 427.195919 
L 592.038257 204.341378 
" style="fill:none;stroke:#b0b0b0;stroke-width:0.8;"/>
    <path d="M 568.626246 441.300637 
L 555.231314 427.195919 
L 555.231314 204.341378 
" style="fill:none;stroke:#b0b0b0;stroke-width:0.8;"/>
    <path d="M 527.160196 441.300637 
L 518.42437 427.195919 
L 518.42437 204.341378 
" style="fill:none;stroke:#b0b0b0;stroke-width:0.8;"/>
    <path d="M 485.694145 441.300637 
L 481.617427 427.195919 
L 481.617427 204.341378 
" style="fill:none;stroke:#b0b0b0;stroke-width:0.8;"/>
    <path d="M 444.228095 441.300637 
L 444.810483 427.195919 
L 444.810483 204.341378 
" style="fill:none;stroke:#b0b0b0;stroke-width:0.8;"/>
    <path d="M 402.762045 441.300637 
L 408.00354 427.195919 
L 408.00354 204.341378 
" style="fill:none;stroke:#b0b0b0;stroke-width:0.8;"/>
    <path d="M 361.295995 441.300637 
L 371.196597 427.195919 
L 371.196597 204.341378 
" style="fill:none;stroke:#b0b0b0;stroke-width:0.8;"/>
    <path d="M 319.829944 441.300637 
L 334.389653 427.195919 
L 334.389653 204.341378 
" style="fill:none;stroke:#b0b0b0;stroke-width:0.8;"/>
   </g>
   <g id="xtick_1">
    <g id="line2d_2">
     <path d="M 609.929746 441.173644 
L 610.418386 441.555395 
" style="fill:none;stroke:#000000;stroke-linecap:square;stroke-width:0.8;"/>
    </g>
    <g id="text_2">
     <!-- 0 -->
     <g transform="translate(607.83426 461.016263)scale(0.1 -0.1)">
      <defs>
       <path d="M 2034 4250 
Q 1547 4250 1301 3770 
Q 1056 3291 1056 2328 
Q 1056 1369 1301 889 
Q 1547 409 2034 409 
Q 2525 409 2770 889 
Q 3016 1369 3016 2328 
Q 3016 3291 2770 3770 
Q 2525 4250 2034 4250 
z
M 2034 4750 
Q 2819 4750 3233 4129 
Q 3647 3509 3647 2328 
Q 3647 1150 3233 529 
Q 2819 -91 2034 -91 
Q 1250 -91 836 529 
Q 422 1150 422 2328 
Q 422 3509 836 4129 
Q 1250 4750 2034 4750 
z
" id="DejaVuSans-30" transform="scale(0.015625)"/>
      </defs>
      <use xlink:href="#DejaVuSans-30"/>
     </g>
    </g>
   </g>
   <g id="xtick_2">
    <g id="line2d_3">
     <path d="M 568.505644 441.173644 
L 568.868184 441.555395 
" style="fill:none;stroke:#000000;stroke-linecap:square;stroke-width:0.8;"/>
    </g>
    <g id="text_3">
     <!-- 200 -->
     <g transform="translate(559.767461 461.016263)scale(0.1 -0.1)">
      <defs>
       <path d="M 1228 531 
L 3431 531 
L 3431 0 
L 469 0 
L 469 531 
Q 828 903 1448 1529 
Q 2069 2156 2228 2338 
Q 2531 2678 2651 2914 
Q 2772 3150 2772 3378 
Q 2772 3750 2511 3984 
Q 2250 4219 1831 4219 
Q 1534 4219 1204 4116 
Q 875 4013 500 3803 
L 500 4441 
Q 881 4594 1212 4672 
Q 1544 4750 1819 4750 
Q 2544 4750 2975 4387 
Q 3406 4025 3406 3419 
Q 3406 3131 3298 2873 
Q 3191 2616 2906 2266 
Q 2828 2175 2409 1742 
Q 1991 1309 1228 531 
z
" id="DejaVuSans-32" transform="scale(0.015625)"/>
      </defs>
      <use xlink:href="#DejaVuSans-32"/>
      <use x="63.623047" xlink:href="#DejaVuSans-30"/>
      <use x="127.246094" xlink:href="#DejaVuSans-30"/>
     </g>
    </g>
   </g>
   <g id="xtick_3">
    <g id="line2d_4">
     <path d="M 527.081542 441.173644 
L 527.317981 441.555395 
" style="fill:none;stroke:#000000;stroke-linecap:square;stroke-width:0.8;"/>
    </g>
    <g id="text_4">
     <!-- 400 -->
     <g transform="translate(518.063162 461.016263)scale(0.1 -0.1)">
      <defs>
       <path d="M 2419 4116 
L 825 1625 
L 2419 1625 
L 2419 4116 
z
M 2253 4666 
L 3047 4666 
L 3047 1625 
L 3713 1625 
L 3713 1100 
L 3047 1100 
L 3047 0 
L 2419 0 
L 2419 1100 
L 313 1100 
L 313 1709 
L 2253 4666 
z
" id="DejaVuSans-34" transform="scale(0.015625)"/>
      </defs>
      <use xlink:href="#DejaVuSans-34"/>
      <use x="63.623047" xlink:href="#DejaVuSans-30"/>
      <use x="127.246094" xlink:href="#DejaVuSans-30"/>
     </g>
    </g>
   </g>
   <g id="xtick_4">
    <g id="line2d_5">
     <path d="M 485.65744 441.173644 
L 485.767779 441.555395 
" style="fill:none;stroke:#000000;stroke-linecap:square;stroke-width:0.8;"/>
    </g>
    <g id="text_5">
     <!-- 600 -->
     <g transform="translate(476.358863 461.016263)scale(0.1 -0.1)">
      <defs>
       <path d="M 2113 2584 
Q 1688 2584 1439 2293 
Q 1191 2003 1191 1497 
Q 1191 994 1439 701 
Q 1688 409 2113 409 
Q 2538 409 2786 701 
Q 3034 994 3034 1497 
Q 3034 2003 2786 2293 
Q 2538 2584 2113 2584 
z
M 3366 4563 
L 3366 3988 
Q 3128 4100 2886 4159 
Q 2644 4219 2406 4219 
Q 1781 4219 1451 3797 
Q 1122 3375 1075 2522 
Q 1259 2794 1537 2939 
Q 1816 3084 2150 3084 
Q 2853 3084 3261 2657 
Q 3669 2231 3669 1497 
Q 3669 778 3244 343 
Q 2819 -91 2113 -91 
Q 1303 -91 875 529 
Q 447 1150 447 2328 
Q 447 3434 972 4092 
Q 1497 4750 2381 4750 
Q 2619 4750 2861 4703 
Q 3103 4656 3366 4563 
z
" id="DejaVuSans-36" transform="scale(0.015625)"/>
      </defs>
      <use xlink:href="#DejaVuSans-36"/>
      <use x="63.623047" xlink:href="#DejaVuSans-30"/>
      <use x="127.246094" xlink:href="#DejaVuSans-30"/>
     </g>
    </g>
   </g>
   <g id="xtick_5">
    <g id="line2d_6">
     <path d="M 444.233339 441.173644 
L 444.217576 441.555395 
" style="fill:none;stroke:#000000;stroke-linecap:square;stroke-width:0.8;"/>
    </g>
    <g id="text_6">
     <!-- 800 -->
     <g transform="translate(434.654564 461.016263)scale(0.1 -0.1)">
      <defs>
       <path d="M 2034 2216 
Q 1584 2216 1326 1975 
Q 1069 1734 1069 1313 
Q 1069 891 1326 650 
Q 1584 409 2034 409 
Q 2484 409 2743 651 
Q 3003 894 3003 1313 
Q 3003 1734 2745 1975 
Q 2488 2216 2034 2216 
z
M 1403 2484 
Q 997 2584 770 2862 
Q 544 3141 544 3541 
Q 544 4100 942 4425 
Q 1341 4750 2034 4750 
Q 2731 4750 3128 4425 
Q 3525 4100 3525 3541 
Q 3525 3141 3298 2862 
Q 3072 2584 2669 2484 
Q 3125 2378 3379 2068 
Q 3634 1759 3634 1313 
Q 3634 634 3220 271 
Q 2806 -91 2034 -91 
Q 1263 -91 848 271 
Q 434 634 434 1313 
Q 434 1759 690 2068 
Q 947 2378 1403 2484 
z
M 1172 3481 
Q 1172 3119 1398 2916 
Q 1625 2713 2034 2713 
Q 2441 2713 2670 2916 
Q 2900 3119 2900 3481 
Q 2900 3844 2670 4047 
Q 2441 4250 2034 4250 
Q 1625 4250 1398 4047 
Q 1172 3844 1172 3481 
z
" id="DejaVuSans-38" transform="scale(0.015625)"/>
      </defs>
      <use xlink:href="#DejaVuSans-38"/>
      <use x="63.623047" xlink:href="#DejaVuSans-30"/>
      <use x="127.246094" xlink:href="#DejaVuSans-30"/>
     </g>
    </g>
   </g>
   <g id="xtick_6">
    <g id="line2d_7">
     <path d="M 402.809237 441.173644 
L 402.667373 441.555395 
" style="fill:none;stroke:#000000;stroke-linecap:square;stroke-width:0.8;"/>
    </g>
    <g id="text_7">
     <!-- 1000 -->
     <g transform="translate(389.769015 461.016263)scale(0.1 -0.1)">
      <defs>
       <path d="M 794 531 
L 1825 531 
L 1825 4091 
L 703 3866 
L 703 4441 
L 1819 4666 
L 2450 4666 
L 2450 531 
L 3481 531 
L 3481 0 
L 794 0 
L 794 531 
z
" id="DejaVuSans-31" transform="scale(0.015625)"/>
      </defs>
      <use xlink:href="#DejaVuSans-31"/>
      <use x="63.623047" xlink:href="#DejaVuSans-30"/>
      <use x="127.246094" xlink:href="#DejaVuSans-30"/>
      <use x="190.869141" xlink:href="#DejaVuSans-30"/>
     </g>
    </g>
   </g>
   <g id="xtick_7">
    <g id="line2d_8">
     <path d="M 361.385135 441.173644 
L 361.117171 441.555395 
" style="fill:none;stroke:#000000;stroke-linecap:square;stroke-width:0.8;"/>
    </g>
    <g id="text_8">
     <!-- 1200 -->
     <g transform="translate(348.064716 461.016263)scale(0.1 -0.1)">
      <use xlink:href="#DejaVuSans-31"/>
      <use x="63.623047" xlink:href="#DejaVuSans-32"/>
      <use x="127.246094" xlink:href="#DejaVuSans-30"/>
      <use x="190.869141" xlink:href="#DejaVuSans-30"/>
     </g>
    </g>
   </g>
   <g id="xtick_8">
    <g id="line2d_9">
     <path d="M 319.961033 441.173644 
L 319.566968 441.555395 
" style="fill:none;stroke:#000000;stroke-linecap:square;stroke-width:0.8;"/>
    </g>
    <g id="text_9">
     <!-- 1400 -->
     <g transform="translate(306.360417 461.016263)scale(0.1 -0.1)">
      <use xlink:href="#DejaVuSans-31"/>
      <use x="63.623047" xlink:href="#DejaVuSans-34"/>
      <use x="127.246094" xlink:href="#DejaVuSans-30"/>
      <use x="190.869141" xlink:href="#DejaVuSans-30"/>
     </g>
    </g>
   </g>
  </g>
  <g id="axis3d_2">
   <g id="line2d_10">
    <path d="M 300.841658 427.195919 
L 282.035367 441.300637 
" style="fill:none;stroke:#000000;stroke-linecap:square;stroke-width:0.8;"/>
   </g>
   <g id="text_10">
    <!-- Focused-ion-beam Energy (keV) -->
    <g transform="translate(198.978318 507.042643)rotate(-36.869898)scale(0.1 -0.1)">
     <defs>
      <path d="M 628 4666 
L 3309 4666 
L 3309 4134 
L 1259 4134 
L 1259 2759 
L 3109 2759 
L 3109 2228 
L 1259 2228 
L 1259 0 
L 628 0 
L 628 4666 
z
" id="DejaVuSans-46" transform="scale(0.015625)"/>
      <path d="M 3122 3366 
L 3122 2828 
Q 2878 2963 2633 3030 
Q 2388 3097 2138 3097 
Q 1578 3097 1268 2742 
Q 959 2388 959 1747 
Q 959 1106 1268 751 
Q 1578 397 2138 397 
Q 2388 397 2633 464 
Q 2878 531 3122 666 
L 3122 134 
Q 2881 22 2623 -34 
Q 2366 -91 2075 -91 
Q 1284 -91 818 406 
Q 353 903 353 1747 
Q 353 2603 823 3093 
Q 1294 3584 2113 3584 
Q 2378 3584 2631 3529 
Q 2884 3475 3122 3366 
z
" id="DejaVuSans-63" transform="scale(0.015625)"/>
      <path d="M 544 1381 
L 544 3500 
L 1119 3500 
L 1119 1403 
Q 1119 906 1312 657 
Q 1506 409 1894 409 
Q 2359 409 2629 706 
Q 2900 1003 2900 1516 
L 2900 3500 
L 3475 3500 
L 3475 0 
L 2900 0 
L 2900 538 
Q 2691 219 2414 64 
Q 2138 -91 1772 -91 
Q 1169 -91 856 284 
Q 544 659 544 1381 
z
M 1991 3584 
L 1991 3584 
z
" id="DejaVuSans-75" transform="scale(0.015625)"/>
      <path d="M 2834 3397 
L 2834 2853 
Q 2591 2978 2328 3040 
Q 2066 3103 1784 3103 
Q 1356 3103 1142 2972 
Q 928 2841 928 2578 
Q 928 2378 1081 2264 
Q 1234 2150 1697 2047 
L 1894 2003 
Q 2506 1872 2764 1633 
Q 3022 1394 3022 966 
Q 3022 478 2636 193 
Q 2250 -91 1575 -91 
Q 1294 -91 989 -36 
Q 684 19 347 128 
L 347 722 
Q 666 556 975 473 
Q 1284 391 1588 391 
Q 1994 391 2212 530 
Q 2431 669 2431 922 
Q 2431 1156 2273 1281 
Q 2116 1406 1581 1522 
L 1381 1569 
Q 847 1681 609 1914 
Q 372 2147 372 2553 
Q 372 3047 722 3315 
Q 1072 3584 1716 3584 
Q 2034 3584 2315 3537 
Q 2597 3491 2834 3397 
z
" id="DejaVuSans-73" transform="scale(0.015625)"/>
      <path d="M 313 2009 
L 1997 2009 
L 1997 1497 
L 313 1497 
L 313 2009 
z
" id="DejaVuSans-2d" transform="scale(0.015625)"/>
      <path d="M 3116 1747 
Q 3116 2381 2855 2742 
Q 2594 3103 2138 3103 
Q 1681 3103 1420 2742 
Q 1159 2381 1159 1747 
Q 1159 1113 1420 752 
Q 1681 391 2138 391 
Q 2594 391 2855 752 
Q 3116 1113 3116 1747 
z
M 1159 2969 
Q 1341 3281 1617 3432 
Q 1894 3584 2278 3584 
Q 2916 3584 3314 3078 
Q 3713 2572 3713 1747 
Q 3713 922 3314 415 
Q 2916 -91 2278 -91 
Q 1894 -91 1617 61 
Q 1341 213 1159 525 
L 1159 0 
L 581 0 
L 581 4863 
L 1159 4863 
L 1159 2969 
z
" id="DejaVuSans-62" transform="scale(0.015625)"/>
      <path d="M 628 4666 
L 3578 4666 
L 3578 4134 
L 1259 4134 
L 1259 2753 
L 3481 2753 
L 3481 2222 
L 1259 2222 
L 1259 531 
L 3634 531 
L 3634 0 
L 628 0 
L 628 4666 
z
" id="DejaVuSans-45" transform="scale(0.015625)"/>
      <path d="M 2631 2963 
Q 2534 3019 2420 3045 
Q 2306 3072 2169 3072 
Q 1681 3072 1420 2755 
Q 1159 2438 1159 1844 
L 1159 0 
L 581 0 
L 581 3500 
L 1159 3500 
L 1159 2956 
Q 1341 3275 1631 3429 
Q 1922 3584 2338 3584 
Q 2397 3584 2469 3576 
Q 2541 3569 2628 3553 
L 2631 2963 
z
" id="DejaVuSans-72" transform="scale(0.015625)"/>
      <path d="M 2906 1791 
Q 2906 2416 2648 2759 
Q 2391 3103 1925 3103 
Q 1463 3103 1205 2759 
Q 947 2416 947 1791 
Q 947 1169 1205 825 
Q 1463 481 1925 481 
Q 2391 481 2648 825 
Q 2906 1169 2906 1791 
z
M 3481 434 
Q 3481 -459 3084 -895 
Q 2688 -1331 1869 -1331 
Q 1566 -1331 1297 -1286 
Q 1028 -1241 775 -1147 
L 775 -588 
Q 1028 -725 1275 -790 
Q 1522 -856 1778 -856 
Q 2344 -856 2625 -561 
Q 2906 -266 2906 331 
L 2906 616 
Q 2728 306 2450 153 
Q 2172 0 1784 0 
Q 1141 0 747 490 
Q 353 981 353 1791 
Q 353 2603 747 3093 
Q 1141 3584 1784 3584 
Q 2172 3584 2450 3431 
Q 2728 3278 2906 2969 
L 2906 3500 
L 3481 3500 
L 3481 434 
z
" id="DejaVuSans-67" transform="scale(0.015625)"/>
      <path d="M 2059 -325 
Q 1816 -950 1584 -1140 
Q 1353 -1331 966 -1331 
L 506 -1331 
L 506 -850 
L 844 -850 
Q 1081 -850 1212 -737 
Q 1344 -625 1503 -206 
L 1606 56 
L 191 3500 
L 800 3500 
L 1894 763 
L 2988 3500 
L 3597 3500 
L 2059 -325 
z
" id="DejaVuSans-79" transform="scale(0.015625)"/>
      <path d="M 581 4863 
L 1159 4863 
L 1159 1991 
L 2875 3500 
L 3609 3500 
L 1753 1863 
L 3688 0 
L 2938 0 
L 1159 1709 
L 1159 0 
L 581 0 
L 581 4863 
z
" id="DejaVuSans-6b" transform="scale(0.015625)"/>
      <path d="M 1831 0 
L 50 4666 
L 709 4666 
L 2188 738 
L 3669 4666 
L 4325 4666 
L 2547 0 
L 1831 0 
z
" id="DejaVuSans-56" transform="scale(0.015625)"/>
     </defs>
     <use xlink:href="#DejaVuSans-46"/>
     <use x="53.894531" xlink:href="#DejaVuSans-6f"/>
     <use x="115.076172" xlink:href="#DejaVuSans-63"/>
     <use x="170.056641" xlink:href="#DejaVuSans-75"/>
     <use x="233.435547" xlink:href="#DejaVuSans-73"/>
     <use x="285.535156" xlink:href="#DejaVuSans-65"/>
     <use x="347.058594" xlink:href="#DejaVuSans-64"/>
     <use x="410.535156" xlink:href="#DejaVuSans-2d"/>
     <use x="446.619141" xlink:href="#DejaVuSans-69"/>
     <use x="474.402344" xlink:href="#DejaVuSans-6f"/>
     <use x="535.583984" xlink:href="#DejaVuSans-6e"/>
     <use x="598.962891" xlink:href="#DejaVuSans-2d"/>
     <use x="635.046875" xlink:href="#DejaVuSans-62"/>
     <use x="698.523438" xlink:href="#DejaVuSans-65"/>
     <use x="760.046875" xlink:href="#DejaVuSans-61"/>
     <use x="821.326172" xlink:href="#DejaVuSans-6d"/>
     <use x="918.738281" xlink:href="#DejaVuSans-20"/>
     <use x="950.525391" xlink:href="#DejaVuSans-45"/>
     <use x="1013.708984" xlink:href="#DejaVuSans-6e"/>
     <use x="1077.087891" xlink:href="#DejaVuSans-65"/>
     <use x="1138.611328" xlink:href="#DejaVuSans-72"/>
     <use x="1177.974609" xlink:href="#DejaVuSans-67"/>
     <use x="1241.451172" xlink:href="#DejaVuSans-79"/>
     <use x="1300.630859" xlink:href="#DejaVuSans-20"/>
     <use x="1332.417969" xlink:href="#DejaVuSans-28"/>
     <use x="1371.431641" xlink:href="#DejaVuSans-6b"/>
     <use x="1425.716797" xlink:href="#DejaVuSans-65"/>
     <use x="1487.240234" xlink:href="#DejaVuSans-56"/>
     <use x="1555.648438" xlink:href="#DejaVuSans-29"/>
    </g>
   </g>
   <g id="Line3DCollection_2">
    <path d="M 598.315661 204.090416 
L 598.315661 427.446881 
L 300.507041 427.446881 
" style="fill:none;stroke:#b0b0b0;stroke-width:0.8;"/>
    <path d="M 601.606364 201.622389 
L 601.606364 429.914908 
L 297.216338 429.914908 
" style="fill:none;stroke:#b0b0b0;stroke-width:0.8;"/>
    <path d="M 605.0458 199.042812 
L 605.0458 432.494485 
L 293.776903 432.494485 
" style="fill:none;stroke:#b0b0b0;stroke-width:0.8;"/>
    <path d="M 608.644284 196.343949 
L 608.644284 435.193348 
L 290.178419 435.193348 
" style="fill:none;stroke:#b0b0b0;stroke-width:0.8;"/>
    <path d="M 612.413111 193.517329 
L 612.413111 438.019968 
L 286.409592 438.019968 
" style="fill:none;stroke:#b0b0b0;stroke-width:0.8;"/>
    <path d="M 616.364669 190.553661 
L 616.364669 440.983637 
L 282.458034 440.983637 
" style="fill:none;stroke:#b0b0b0;stroke-width:0.8;"/>
   </g>
   <g id="xtick_9">
    <g id="line2d_11">
     <path d="M 302.88951 427.446881 
L 295.742103 427.446881 
" style="fill:none;stroke:#000000;stroke-linecap:square;stroke-width:0.8;"/>
    </g>
    <g id="text_11">
     <!-- 0 -->
     <g transform="translate(283.885324 445.125669)scale(0.1 -0.1)">
      <use xlink:href="#DejaVuSans-30"/>
     </g>
    </g>
   </g>
   <g id="xtick_10">
    <g id="line2d_12">
     <path d="M 299.651459 429.914908 
L 292.346098 429.914908 
" style="fill:none;stroke:#000000;stroke-linecap:square;stroke-width:0.8;"/>
    </g>
    <g id="text_12">
     <!-- 20 -->
     <g transform="translate(277.116344 447.816467)scale(0.1 -0.1)">
      <use xlink:href="#DejaVuSans-32"/>
      <use x="63.623047" xlink:href="#DejaVuSans-30"/>
     </g>
    </g>
   </g>
   <g id="xtick_11">
    <g id="line2d_13">
     <path d="M 296.267054 432.494485 
L 288.796601 432.494485 
" style="fill:none;stroke:#000000;stroke-linecap:square;stroke-width:0.8;"/>
    </g>
    <g id="text_13">
     <!-- 40 -->
     <g transform="translate(273.366457 450.628882)scale(0.1 -0.1)">
      <use xlink:href="#DejaVuSans-34"/>
      <use x="63.623047" xlink:href="#DejaVuSans-30"/>
     </g>
    </g>
   </g>
   <g id="xtick_12">
    <g id="line2d_14">
     <path d="M 292.726146 435.193348 
L 285.082965 435.193348 
" style="fill:none;stroke:#000000;stroke-linecap:square;stroke-width:0.8;"/>
    </g>
    <g id="text_14">
     <!-- 60 -->
     <g transform="translate(269.443164 453.571351)scale(0.1 -0.1)">
      <use xlink:href="#DejaVuSans-36"/>
      <use x="63.623047" xlink:href="#DejaVuSans-30"/>
     </g>
    </g>
   </g>
   <g id="xtick_13">
    <g id="line2d_15">
     <path d="M 289.01762 438.019968 
L 281.193535 438.019968 
" style="fill:none;stroke:#000000;stroke-linecap:square;stroke-width:0.8;"/>
    </g>
    <g id="text_15">
     <!-- 80 -->
     <g transform="translate(265.334154 456.653109)scale(0.1 -0.1)">
      <use xlink:href="#DejaVuSans-38"/>
      <use x="63.623047" xlink:href="#DejaVuSans-30"/>
     </g>
    </g>
   </g>
   <g id="xtick_14">
    <g id="line2d_16">
     <path d="M 285.129287 440.983637 
L 277.115528 440.983637 
" style="fill:none;stroke:#000000;stroke-linecap:square;stroke-width:0.8;"/>
    </g>
    <g id="text_16">
     <!-- 100 -->
     <g transform="translate(257.844669 459.884286)scale(0.1 -0.1)">
      <use xlink:href="#DejaVuSans-31"/>
      <use x="63.623047" xlink:href="#DejaVuSans-30"/>
      <use x="127.246094" xlink:href="#DejaVuSans-30"/>
     </g>
    </g>
   </g>
  </g>
  <g id="axis3d_3">
   <g id="line2d_17">
    <path d="M 300.841658 427.195919 
L 300.841658 204.341378 
" style="fill:none;stroke:#000000;stroke-linecap:square;stroke-width:0.8;"/>
   </g>
   <g id="text_17">
    <!-- Density per Dose (cm$^{-3}$/cm$^{-2}$) -->
    <g transform="translate(277.126715 391.968649)rotate(-90)scale(0.1 -0.1)">
     <defs>
      <path d="M 678 2272 
L 4684 2272 
L 4684 1741 
L 678 1741 
L 678 2272 
z
" id="DejaVuSans-2212" transform="scale(0.015625)"/>
      <path d="M 2597 2516 
Q 3050 2419 3304 2112 
Q 3559 1806 3559 1356 
Q 3559 666 3084 287 
Q 2609 -91 1734 -91 
Q 1441 -91 1130 -33 
Q 819 25 488 141 
L 488 750 
Q 750 597 1062 519 
Q 1375 441 1716 441 
Q 2309 441 2620 675 
Q 2931 909 2931 1356 
Q 2931 1769 2642 2001 
Q 2353 2234 1838 2234 
L 1294 2234 
L 1294 2753 
L 1863 2753 
Q 2328 2753 2575 2939 
Q 2822 3125 2822 3475 
Q 2822 3834 2567 4026 
Q 2313 4219 1838 4219 
Q 1578 4219 1281 4162 
Q 984 4106 628 3988 
L 628 4550 
Q 988 4650 1302 4700 
Q 1616 4750 1894 4750 
Q 2613 4750 3031 4423 
Q 3450 4097 3450 3541 
Q 3450 3153 3228 2886 
Q 3006 2619 2597 2516 
z
" id="DejaVuSans-33" transform="scale(0.015625)"/>
      <path d="M 1625 4666 
L 2156 4666 
L 531 -594 
L 0 -594 
L 1625 4666 
z
" id="DejaVuSans-2f" transform="scale(0.015625)"/>
     </defs>
     <use transform="translate(0 0.765625)" xlink:href="#DejaVuSans-44"/>
     <use transform="translate(77.001953 0.765625)" xlink:href="#DejaVuSans-65"/>
     <use transform="translate(138.525391 0.765625)" xlink:href="#DejaVuSans-6e"/>
     <use transform="translate(201.904297 0.765625)" xlink:href="#DejaVuSans-73"/>
     <use transform="translate(254.003906 0.765625)" xlink:href="#DejaVuSans-69"/>
     <use transform="translate(281.787109 0.765625)" xlink:href="#DejaVuSans-74"/>
     <use transform="translate(320.996094 0.765625)" xlink:href="#DejaVuSans-79"/>
     <use transform="translate(380.175781 0.765625)" xlink:href="#DejaVuSans-20"/>
     <use transform="translate(411.962891 0.765625)" xlink:href="#DejaVuSans-70"/>
     <use transform="translate(475.439453 0.765625)" xlink:href="#DejaVuSans-65"/>
     <use transform="translate(536.962891 0.765625)" xlink:href="#DejaVuSans-72"/>
     <use transform="translate(578.076172 0.765625)" xlink:href="#DejaVuSans-20"/>
     <use transform="translate(609.863281 0.765625)" xlink:href="#DejaVuSans-44"/>
     <use transform="translate(686.865234 0.765625)" xlink:href="#DejaVuSans-6f"/>
     <use transform="translate(748.046875 0.765625)" xlink:href="#DejaVuSans-73"/>
     <use transform="translate(800.146484 0.765625)" xlink:href="#DejaVuSans-65"/>
     <use transform="translate(861.669922 0.765625)" xlink:href="#DejaVuSans-20"/>
     <use transform="translate(893.457031 0.765625)" xlink:href="#DejaVuSans-28"/>
     <use transform="translate(932.470703 0.765625)" xlink:href="#DejaVuSans-63"/>
     <use transform="translate(987.451172 0.765625)" xlink:href="#DejaVuSans-6d"/>
     <use transform="translate(1085.820312 39.046875)scale(0.7)" xlink:href="#DejaVuSans-2212"/>
     <use transform="translate(1144.472656 39.046875)scale(0.7)" xlink:href="#DejaVuSans-33"/>
     <use transform="translate(1191.743164 0.765625)" xlink:href="#DejaVuSans-2f"/>
     <use transform="translate(1225.43457 0.765625)" xlink:href="#DejaVuSans-63"/>
     <use transform="translate(1280.415039 0.765625)" xlink:href="#DejaVuSans-6d"/>
     <use transform="translate(1378.78418 39.046875)scale(0.7)" xlink:href="#DejaVuSans-2212"/>
     <use transform="translate(1437.436523 39.046875)scale(0.7)" xlink:href="#DejaVuSans-32"/>
     <use transform="translate(1484.707031 0.765625)" xlink:href="#DejaVuSans-29"/>
    </g>
   </g>
   <g id="text_18">
    <!-- 1e8 -->
    <g transform="translate(276.38609 224.434456)rotate(-90)scale(0.1 -0.1)">
     <use xlink:href="#DejaVuSans-31"/>
     <use x="63.623047" xlink:href="#DejaVuSans-65"/>
     <use x="125.146484" xlink:href="#DejaVuSans-38"/>
    </g>
   </g>
   <g id="Line3DCollection_3">
    <path d="M 300.841658 422.738828 
L 597.981045 422.738828 
L 616.787335 436.279357 
" style="fill:none;stroke:#b0b0b0;stroke-width:0.8;"/>
    <path d="M 300.841658 384.535193 
L 597.981045 384.535193 
L 616.787335 393.239818 
" style="fill:none;stroke:#b0b0b0;stroke-width:0.8;"/>
    <path d="M 300.841658 346.331557 
L 597.981045 346.331557 
L 616.787335 350.20028 
" style="fill:none;stroke:#b0b0b0;stroke-width:0.8;"/>
    <path d="M 300.841658 308.127922 
L 597.981045 308.127922 
L 616.787335 307.160741 
" style="fill:none;stroke:#b0b0b0;stroke-width:0.8;"/>
    <path d="M 300.841658 269.924286 
L 597.981045 269.924286 
L 616.787335 264.121202 
" style="fill:none;stroke:#b0b0b0;stroke-width:0.8;"/>
    <path d="M 300.841658 231.720651 
L 597.981045 231.720651 
L 616.787335 221.081663 
" style="fill:none;stroke:#b0b0b0;stroke-width:0.8;"/>
   </g>
   <g id="xtick_15">
    <g id="line2d_18">
     <path d="M 303.218773 422.738828 
L 296.087428 422.738828 
" style="fill:none;stroke:#000000;stroke-linecap:square;stroke-width:0.8;"/>
    </g>
    <g id="text_19">
     <!-- 0.0 -->
     <g transform="translate(280.297075 429.797565)scale(0.1 -0.1)">
      <defs>
       <path d="M 684 794 
L 1344 794 
L 1344 0 
L 684 0 
L 684 794 
z
" id="DejaVuSans-2e" transform="scale(0.015625)"/>
      </defs>
      <use xlink:href="#DejaVuSans-30"/>
      <use x="63.623047" xlink:href="#DejaVuSans-2e"/>
      <use x="95.410156" xlink:href="#DejaVuSans-30"/>
     </g>
    </g>
   </g>
   <g id="xtick_16">
    <g id="line2d_19">
     <path d="M 303.218773 384.535193 
L 296.087428 384.535193 
" style="fill:none;stroke:#000000;stroke-linecap:square;stroke-width:0.8;"/>
    </g>
    <g id="text_20">
     <!-- 0.5 -->
     <g transform="translate(280.297075 391.786679)scale(0.1 -0.1)">
      <defs>
       <path d="M 691 4666 
L 3169 4666 
L 3169 4134 
L 1269 4134 
L 1269 2991 
Q 1406 3038 1543 3061 
Q 1681 3084 1819 3084 
Q 2600 3084 3056 2656 
Q 3513 2228 3513 1497 
Q 3513 744 3044 326 
Q 2575 -91 1722 -91 
Q 1428 -91 1123 -41 
Q 819 9 494 109 
L 494 744 
Q 775 591 1075 516 
Q 1375 441 1709 441 
Q 2250 441 2565 725 
Q 2881 1009 2881 1497 
Q 2881 1984 2565 2268 
Q 2250 2553 1709 2553 
Q 1456 2553 1204 2497 
Q 953 2441 691 2322 
L 691 4666 
z
" id="DejaVuSans-35" transform="scale(0.015625)"/>
      </defs>
      <use xlink:href="#DejaVuSans-30"/>
      <use x="63.623047" xlink:href="#DejaVuSans-2e"/>
      <use x="95.410156" xlink:href="#DejaVuSans-35"/>
     </g>
    </g>
   </g>
   <g id="xtick_17">
    <g id="line2d_20">
     <path d="M 303.218773 346.331557 
L 296.087428 346.331557 
" style="fill:none;stroke:#000000;stroke-linecap:square;stroke-width:0.8;"/>
    </g>
    <g id="text_21">
     <!-- 1.0 -->
     <g transform="translate(280.297075 353.775794)scale(0.1 -0.1)">
      <use xlink:href="#DejaVuSans-31"/>
      <use x="63.623047" xlink:href="#DejaVuSans-2e"/>
      <use x="95.410156" xlink:href="#DejaVuSans-30"/>
     </g>
    </g>
   </g>
   <g id="xtick_18">
    <g id="line2d_21">
     <path d="M 303.218773 308.127922 
L 296.087428 308.127922 
" style="fill:none;stroke:#000000;stroke-linecap:square;stroke-width:0.8;"/>
    </g>
    <g id="text_22">
     <!-- 1.5 -->
     <g transform="translate(280.297075 315.764909)scale(0.1 -0.1)">
      <use xlink:href="#DejaVuSans-31"/>
      <use x="63.623047" xlink:href="#DejaVuSans-2e"/>
      <use x="95.410156" xlink:href="#DejaVuSans-35"/>
     </g>
    </g>
   </g>
   <g id="xtick_19">
    <g id="line2d_22">
     <path d="M 303.218773 269.924286 
L 296.087428 269.924286 
" style="fill:none;stroke:#000000;stroke-linecap:square;stroke-width:0.8;"/>
    </g>
    <g id="text_23">
     <!-- 2.0 -->
     <g transform="translate(280.297075 277.754024)scale(0.1 -0.1)">
      <use xlink:href="#DejaVuSans-32"/>
      <use x="63.623047" xlink:href="#DejaVuSans-2e"/>
      <use x="95.410156" xlink:href="#DejaVuSans-30"/>
     </g>
    </g>
   </g>
   <g id="xtick_20">
    <g id="line2d_23">
     <path d="M 303.218773 231.720651 
L 296.087428 231.720651 
" style="fill:none;stroke:#000000;stroke-linecap:square;stroke-width:0.8;"/>
    </g>
    <g id="text_24">
     <!-- 2.5 -->
     <g transform="translate(280.297075 239.743139)scale(0.1 -0.1)">
      <use xlink:href="#DejaVuSans-32"/>
      <use x="63.623047" xlink:href="#DejaVuSans-2e"/>
      <use x="95.410156" xlink:href="#DejaVuSans-35"/>
     </g>
    </g>
   </g>
  </g>
  <g id="axes_1">
   <g id="line2d_24">
    <path clip-path="url(#pe5cf84b2ca)" d="M 593.174039 424.151264 
L 592.428179 424.150103 
L 591.684183 424.147587 
L 590.938323 424.141549 
L 590.192463 424.126065 
L 589.446603 424.096492 
L 588.700742 424.055462 
L 587.954882 424.005915 
L 587.209022 423.947079 
L 586.463162 423.883598 
L 585.717302 423.806955 
L 584.971441 423.731087 
L 584.225581 423.647478 
L 583.479721 423.563868 
L 582.733861 423.484904 
L 581.988001 423.416003 
L 581.24214 423.338587 
L 580.49628 423.261171 
L 579.75042 423.245687 
L 579.00456 423.206979 
L 578.2587 423.199238 
L 577.512839 423.160529 
L 576.766979 423.199238 
L 576.021119 423.199238 
L 575.275259 423.214721 
L 574.529399 423.268912 
L 573.783539 423.330845 
L 573.037678 423.369553 
L 572.291818 423.443873 
L 571.545958 423.538321 
L 570.800098 423.601028 
L 570.054238 423.666832 
L 569.308377 423.729539 
L 568.562517 423.808504 
L 567.816657 423.859599 
L 567.070797 423.903726 
L 566.324937 423.958691 
L 565.579076 424.002044 
L 564.833216 424.030689 
L 564.087356 424.054688 
L 563.341496 424.082712 
L 562.595636 424.100518 
L 561.849775 424.109653 
L 561.103915 424.120878 
L 560.358055 424.130168 
L 559.612195 424.139071 
L 558.866335 424.143097 
L 558.120474 424.14391 
L 557.374614 424.146813 
L 556.628754 424.149716 
L 555.882894 424.149135 
L 555.137034 424.149523 
L 554.391174 424.150684 
L 553.645313 424.151458 
L 552.899453 424.151071 
L 552.153593 424.151264 
L 551.407733 424.151458 
L 550.661873 424.151458 
L 549.916012 424.151458 
L 549.170152 424.151458 
L 548.424292 424.151458 
L 547.678432 424.151458 
L 546.932572 424.151458 
L 546.186711 424.151458 
L 545.440851 424.151458 
L 544.694991 424.151458 
L 543.949131 424.151458 
L 543.203271 424.151458 
L 542.45741 424.151458 
L 541.71155 424.151458 
L 540.96569 424.151458 
L 540.21983 424.151458 
L 539.47397 424.151458 
L 538.728109 424.151458 
L 537.982249 424.151458 
L 537.236389 424.151458 
L 536.490529 424.151458 
L 535.744669 424.151458 
L 534.998808 424.151458 
L 534.252948 424.151458 
L 533.507088 424.151458 
L 532.761228 424.151458 
L 532.015368 424.151458 
L 531.269508 424.151458 
L 530.523647 424.151458 
L 529.777787 424.151458 
L 529.031927 424.151458 
L 528.286067 424.151458 
L 527.540207 424.151458 
L 526.794346 424.151458 
L 526.048486 424.151458 
L 525.302626 424.151458 
L 524.556766 424.151458 
L 523.810906 424.151458 
L 523.065045 424.151458 
L 522.319185 424.151458 
L 521.573325 424.151458 
L 520.827465 424.151458 
L 520.081605 424.151458 
L 519.335744 424.151458 
" style="fill:none;stroke:#ff0000;stroke-linecap:square;"/>
   </g>
   <g id="line2d_25">
    <path clip-path="url(#pe5cf84b2ca)" d="M 595.624085 426.57342 
L 594.100937 426.57342 
L 592.575882 426.572728 
L 591.050827 426.571046 
L 589.525772 426.569067 
L 588.000717 426.564397 
L 586.475662 426.558541 
L 584.950607 426.546194 
L 583.425552 426.538596 
L 581.900497 426.523954 
L 580.375443 426.505434 
L 578.850388 426.484776 
L 577.325333 426.46499 
L 575.800278 426.445995 
L 574.275223 426.424625 
L 572.750168 426.402464 
L 571.225113 426.372389 
L 569.700058 426.343105 
L 568.175003 426.325692 
L 566.649948 426.293242 
L 565.124893 426.263167 
L 563.599838 426.233091 
L 562.074784 426.20539 
L 560.549729 426.193518 
L 559.024674 426.172149 
L 557.499619 426.161068 
L 555.974564 426.134158 
L 554.449509 426.138116 
L 552.924454 426.127035 
L 551.399399 426.151571 
L 549.874344 426.147613 
L 548.349289 426.16186 
L 546.824234 426.183229 
L 545.299179 426.195101 
L 543.774125 426.218845 
L 542.24907 426.253669 
L 540.724015 426.267916 
L 539.19896 426.306697 
L 537.673905 426.341522 
L 536.14885 426.37318 
L 534.623795 426.400881 
L 533.09874 426.430957 
L 531.573685 426.451535 
L 530.04863 426.472904 
L 528.523575 426.493482 
L 526.99852 426.513348 
L 525.473465 426.528623 
L 523.948411 426.539704 
L 522.423356 426.544611 
L 520.898301 426.554583 
L 519.373246 426.560124 
L 517.848191 426.564081 
L 516.323136 426.566297 
L 514.798081 426.570349 
L 513.273026 426.569954 
L 511.747971 426.572328 
L 510.222916 426.572431 
L 508.697861 426.572728 
L 507.172806 426.573222 
L 505.647752 426.573321 
L 504.122697 426.573222 
L 502.597642 426.573321 
L 501.072587 426.57342 
L 499.547532 426.573321 
L 498.022477 426.57342 
L 496.497422 426.57342 
L 494.972367 426.573321 
L 493.447312 426.57342 
L 491.922257 426.57342 
L 490.397202 426.57342 
L 488.872147 426.57342 
L 487.347092 426.57342 
L 485.822038 426.57342 
L 484.296983 426.57342 
L 482.771928 426.57342 
L 481.246873 426.57342 
L 479.721818 426.57342 
L 478.196763 426.57342 
L 476.671708 426.57342 
L 475.146653 426.57342 
L 473.621598 426.57342 
L 472.096543 426.57342 
L 470.571488 426.57342 
L 469.046433 426.57342 
L 467.521379 426.57342 
L 465.996324 426.57342 
L 464.471269 426.57342 
L 462.946214 426.57342 
L 461.421159 426.57342 
L 459.896104 426.57342 
L 458.371049 426.57342 
L 456.845994 426.57342 
L 455.320939 426.57342 
L 453.795884 426.57342 
L 452.270829 426.57342 
L 450.745774 426.57342 
L 449.220719 426.57342 
L 447.695665 426.57342 
L 446.17061 426.57342 
L 444.645555 426.57342 
" style="fill:none;stroke:#ff0000;stroke-linecap:square;"/>
   </g>
   <g id="line2d_26">
    <path clip-path="url(#pe5cf84b2ca)" d="M 598.578062 429.10602 
L 596.628171 429.106101 
L 594.678279 429.106101 
L 592.728387 429.105696 
L 590.778496 429.105048 
L 588.828604 429.103834 
L 586.878712 429.101324 
L 584.928821 429.100434 
L 582.978929 429.09671 
L 581.029038 429.092338 
L 579.079146 429.088371 
L 577.129254 429.082786 
L 575.179363 429.076309 
L 573.229471 429.069428 
L 571.279579 429.063032 
L 569.329688 429.053965 
L 567.379796 429.043927 
L 565.429904 429.033646 
L 563.480013 429.017859 
L 561.530121 429.008954 
L 559.580229 429.000049 
L 557.630338 428.982239 
L 555.680446 428.967667 
L 553.730554 428.949857 
L 551.780663 428.936904 
L 549.830771 428.920713 
L 547.88088 428.902093 
L 545.930988 428.892379 
L 543.981096 428.864044 
L 542.031205 428.855139 
L 540.081313 428.845425 
L 538.131421 428.829233 
L 536.18153 428.808995 
L 534.231638 428.79847 
L 532.281746 428.805756 
L 530.331855 428.79928 
L 528.381963 428.796042 
L 526.432071 428.791184 
L 524.48218 428.795232 
L 522.532288 428.8179 
L 520.582396 428.808995 
L 518.632505 428.826805 
L 516.682613 428.833281 
L 514.732722 428.861616 
L 512.78283 428.870521 
L 510.832938 428.890759 
L 508.883047 428.910998 
L 506.933155 428.936904 
L 504.983263 428.946619 
L 503.033372 428.976572 
L 501.08348 428.990335 
L 499.133588 429.009764 
L 497.183697 429.025307 
L 495.233805 429.037612 
L 493.283913 429.052184 
L 491.334022 429.064894 
L 489.38413 429.072666 
L 487.434238 429.080924 
L 485.484347 429.086348 
L 483.534455 429.092095 
L 481.584564 429.097681 
L 479.634672 429.0993 
L 477.68478 429.102701 
L 475.734889 429.103672 
L 473.784997 429.104077 
L 471.835105 429.105048 
L 469.885214 429.105534 
L 467.935322 429.10521 
L 465.98543 429.105696 
L 464.035539 429.10602 
L 462.085647 429.10602 
L 460.135755 429.10602 
L 458.185864 429.106101 
L 456.235972 429.10602 
L 454.28608 429.106101 
L 452.336189 429.106101 
L 450.386297 429.106101 
L 448.436406 429.106101 
L 446.486514 429.106101 
L 444.536622 429.106101 
L 442.586731 429.106101 
L 440.636839 429.106101 
L 438.686947 429.106101 
L 436.737056 429.106101 
L 434.787164 429.106101 
L 432.837272 429.106101 
L 430.887381 429.106101 
L 428.937489 429.106101 
L 426.987597 429.106101 
L 425.037706 429.106101 
L 423.087814 429.106101 
L 421.137922 429.106101 
L 419.188031 429.106101 
L 417.238139 429.106101 
L 415.288248 429.106101 
L 413.338356 429.106101 
L 411.388464 429.106101 
L 409.438573 429.106101 
L 407.488681 429.106101 
L 405.538789 429.106101 
" style="fill:none;stroke:#ff0000;stroke-linecap:square;"/>
   </g>
   <g id="line2d_27">
    <path clip-path="url(#pe5cf84b2ca)" d="M 601.468691 431.757269 
L 598.874537 431.757269 
L 596.280383 431.757205 
L 593.686229 431.75695 
L 591.092075 431.75676 
L 588.497921 431.756126 
L 585.903767 431.755165 
L 583.309613 431.75306 
L 580.715458 431.752613 
L 578.121304 431.75026 
L 575.52715 431.746582 
L 572.932996 431.744262 
L 570.338842 431.740037 
L 567.744688 431.737882 
L 565.150534 431.734237 
L 562.55638 431.727361 
L 559.962226 431.724461 
L 557.368072 431.714436 
L 554.773918 431.709879 
L 552.179763 431.701677 
L 549.585609 431.691156 
L 546.991455 431.683865 
L 544.397301 431.671106 
L 541.803147 431.662821 
L 539.208993 431.652879 
L 536.614839 431.638795 
L 534.020685 431.631339 
L 531.426531 431.613112 
L 528.832377 431.598199 
L 526.238223 431.587429 
L 523.644068 431.573344 
L 521.049914 431.560917 
L 518.45576 431.547661 
L 515.861606 431.539376 
L 513.267452 431.525292 
L 510.673298 431.516178 
L 508.079144 431.50458 
L 505.48499 431.508722 
L 502.890836 431.502923 
L 500.296682 431.497952 
L 497.702528 431.502094 
L 495.108373 431.512036 
L 492.514219 431.51535 
L 489.920065 431.531091 
L 487.325911 431.539376 
L 484.731757 431.555118 
L 482.137603 431.563402 
L 479.543449 431.5866 
L 476.949295 431.602341 
L 474.355141 431.61974 
L 471.760987 431.645423 
L 469.166833 431.657022 
L 466.572678 431.672763 
L 463.978524 431.687593 
L 461.38437 431.70524 
L 458.790216 431.714022 
L 456.196062 431.725538 
L 453.601908 431.729763 
L 451.007754 431.739208 
L 448.4136 431.743848 
L 445.819446 431.748321 
L 443.225292 431.750898 
L 440.631137 431.753002 
L 438.036983 431.754659 
L 435.442829 431.756441 
L 432.848675 431.756126 
L 430.254521 431.756374 
L 427.660367 431.757014 
L 425.066213 431.757142 
L 422.472059 431.757142 
L 419.877905 431.757205 
L 417.283751 431.757269 
L 414.689597 431.757269 
L 412.095442 431.757205 
L 409.501288 431.757269 
L 406.907134 431.757269 
L 404.512531 431.757269 
L 402.517027 431.757269 
L 398.526021 431.757269 
L 396.530518 431.757269 
L 394.535015 431.757269 
L 390.544008 431.757269 
L 388.548505 431.757269 
L 386.553002 431.757269 
L 382.561996 431.757269 
L 380.566493 431.757269 
L 378.57099 431.757269 
L 376.575486 431.757269 
L 372.58448 431.757269 
L 370.588977 431.757269 
L 368.593474 431.757269 
L 364.602468 431.757269 
L 362.606964 431.757269 
L 360.611461 431.757269 
L 356.620455 431.757269 
L 354.624952 431.757269 
L 352.629449 431.757269 
L 350.633946 431.757269 
L 346.642939 431.757269 
L 344.647436 431.757269 
" style="fill:none;stroke:#ff0000;stroke-linecap:square;"/>
   </g>
   <g id="line2d_28">
    <path clip-path="url(#pe5cf84b2ca)" d="M 604.497793 434.535387 
L 601.228514 434.53544 
L 597.959235 434.535387 
L 594.689955 434.535387 
L 591.420676 434.535068 
L 588.151396 434.534856 
L 584.882117 434.533743 
L 581.612837 434.533582 
L 578.343558 434.531673 
L 575.074279 434.530613 
L 571.804999 434.528653 
L 568.53572 434.527058 
L 565.26644 434.523054 
L 561.997161 434.522375 
L 558.727882 434.518812 
L 555.458602 434.516522 
L 552.189323 434.512195 
L 548.920043 434.507445 
L 545.650764 434.50227 
L 542.381485 434.497774 
L 539.112205 434.492005 
L 535.842926 434.484879 
L 532.573646 434.476396 
L 529.304367 434.470203 
L 526.035088 434.466894 
L 522.765808 434.453575 
L 519.496529 434.442971 
L 516.227249 434.437881 
L 512.95797 434.42346 
L 509.68869 434.409886 
L 506.419411 434.402251 
L 503.150132 434.390375 
L 499.880852 434.370863 
L 496.611573 434.368318 
L 493.342293 434.353048 
L 490.073014 434.339474 
L 486.803735 434.328446 
L 483.534455 434.319114 
L 480.265176 434.320811 
L 476.995896 434.314873 
L 473.726617 434.319963 
L 470.457338 434.314873 
L 467.188058 434.318266 
L 463.918779 434.325053 
L 460.649499 434.336081 
L 457.38022 434.342868 
L 454.110941 434.354744 
L 450.841661 434.364925 
L 447.572382 434.385285 
L 444.303102 434.405645 
L 441.033823 434.420915 
L 437.764543 434.439578 
L 434.495264 434.451624 
L 431.225985 434.467743 
L 427.956705 434.48174 
L 424.687426 434.493447 
L 421.418146 434.506342 
L 418.148867 434.511856 
L 414.879588 434.519237 
L 411.610308 434.523054 
L 408.341029 434.527482 
L 405.071749 434.530138 
L 401.39381 434.53242 
L 399.35051 434.533209 
L 395.263911 434.534269 
L 391.177312 434.53475 
L 389.134012 434.535068 
L 385.047413 434.535122 
L 383.004113 434.535334 
L 378.917514 434.535334 
L 374.830915 434.53544 
L 372.787615 434.53544 
L 368.701016 434.535334 
L 366.657716 434.535387 
L 362.571117 434.535387 
L 358.484518 434.53544 
L 356.441218 434.53544 
L 352.354619 434.53544 
L 350.311319 434.53544 
L 346.22472 434.53544 
L 342.138121 434.53544 
L 340.094821 434.53544 
L 336.008222 434.53544 
L 333.964922 434.53544 
L 329.878323 434.53544 
L 325.791724 434.53544 
L 323.748424 434.53544 
L 319.661825 434.53544 
L 317.618525 434.53544 
L 313.531926 434.53544 
L 309.445327 434.53544 
L 307.402027 434.53544 
L 303.315428 434.53544 
L 301.272128 434.53544 
L 297.185529 434.53544 
L 293.09893 434.53544 
L 291.05563 434.53544 
L 286.969031 434.53544 
L 284.925731 434.53544 
L 280.839132 434.53544 
" style="fill:none;stroke:#ff0000;stroke-linecap:square;"/>
   </g>
   <g id="line2d_29">
    <path clip-path="url(#pe5cf84b2ca)" d="M 593.174039 394.501018 
L 592.428179 386.604556 
L 591.684183 378.088764 
L 590.938323 371.430963 
L 590.192463 365.315076 
L 589.446603 360.515266 
L 588.700742 355.715455 
L 587.954882 351.689808 
L 587.209022 348.206075 
L 586.463162 344.412677 
L 585.717302 342.090188 
L 584.971441 339.767699 
L 584.225581 338.219373 
L 583.479721 337.445211 
L 582.733861 337.445211 
L 581.988001 338.219373 
L 581.24214 339.767699 
L 580.49628 342.090188 
L 579.75042 344.412677 
L 579.00456 347.89641 
L 578.2587 352.309139 
L 577.512839 356.644451 
L 576.766979 361.444261 
L 576.021119 366.321488 
L 575.275259 371.121298 
L 574.529399 376.540438 
L 573.783539 381.882162 
L 573.037678 386.759389 
L 572.291818 391.404366 
L 571.545958 395.739679 
L 570.800098 399.842742 
L 570.054238 403.713557 
L 569.308377 406.887625 
L 568.562517 409.829444 
L 567.816657 412.384181 
L 567.070797 414.474421 
L 566.324937 416.254996 
L 565.579076 417.803322 
L 564.833216 419.072949 
L 564.087356 420.048394 
L 563.341496 420.876749 
L 562.595636 421.542529 
L 561.849775 422.107668 
L 561.103915 422.548941 
L 560.358055 422.881831 
L 559.612195 423.145046 
L 558.866335 423.315362 
L 558.120474 423.508129 
L 557.374614 423.648252 
L 556.628754 423.741152 
L 555.882894 423.794569 
L 555.137034 423.873533 
L 554.391174 423.937015 
L 553.645313 423.995077 
L 552.899453 424.034559 
L 552.153593 424.065526 
L 551.407733 424.074429 
L 550.661873 424.088751 
L 549.916012 424.106169 
L 549.170152 424.120878 
L 548.424292 424.125136 
L 547.678432 424.126452 
L 546.932572 424.135588 
L 546.186711 424.140387 
L 545.440851 424.14449 
L 544.694991 424.146619 
L 543.949131 424.145845 
L 543.203271 424.146039 
L 542.45741 424.15049 
L 541.71155 424.151264 
L 540.96569 424.151458 
L 540.21983 424.151458 
L 539.47397 424.151458 
L 538.728109 424.151458 
L 537.982249 424.151458 
L 537.236389 424.151458 
L 536.490529 424.151458 
L 535.744669 424.151458 
L 534.998808 424.151458 
L 534.252948 424.151458 
L 533.507088 424.151458 
L 532.761228 424.151458 
L 532.015368 424.151458 
L 531.269508 424.151458 
L 530.523647 424.151458 
L 529.777787 424.151458 
L 529.031927 424.151458 
L 528.286067 424.151458 
L 527.540207 424.151458 
L 526.794346 424.151458 
L 526.048486 424.151458 
L 525.302626 424.151458 
L 524.556766 424.151458 
L 523.810906 424.151458 
L 523.065045 424.151458 
L 522.319185 424.151458 
L 521.573325 424.151458 
L 520.827465 424.151458 
L 520.081605 424.151458 
L 519.335744 424.151458 
" style="fill:none;stroke:#0000ff;stroke-linecap:square;stroke-width:1.5;"/>
   </g>
   <g id="line2d_30">
    <path clip-path="url(#pe5cf84b2ca)" d="M 595.624085 399.980275 
L 594.100937 390.878454 
L 592.575882 384.705046 
L 591.050827 379.718831 
L 589.525772 375.603225 
L 588.000717 371.962497 
L 586.475662 368.796646 
L 584.950607 365.630796 
L 583.425552 362.623238 
L 581.900497 359.694826 
L 580.375443 357.003853 
L 578.850388 354.550319 
L 577.325333 352.255077 
L 575.800278 350.118128 
L 574.275223 347.822886 
L 572.750168 345.844229 
L 571.225113 345.052767 
L 569.700058 343.469842 
L 568.175003 343.469842 
L 566.649948 342.678379 
L 565.124893 343.469842 
L 563.599838 344.261304 
L 562.074784 345.052767 
L 560.549729 347.427155 
L 559.024674 349.168373 
L 557.499619 352.096784 
L 555.974564 355.420928 
L 554.449509 358.824217 
L 552.924454 362.544091 
L 551.399399 366.659697 
L 549.874344 371.408473 
L 548.349289 375.682372 
L 546.824234 380.114562 
L 545.299179 384.6259 
L 543.774125 389.295529 
L 542.24907 393.490281 
L 540.724015 397.76418 
L 539.19896 401.5632 
L 537.673905 405.124782 
L 536.14885 408.607218 
L 534.623795 411.377337 
L 533.09874 413.910018 
L 531.573685 416.126113 
L 530.04863 418.025623 
L 528.523575 419.632293 
L 526.99852 420.938206 
L 525.473465 422.077912 
L 523.948411 423.106814 
L 522.423356 423.803301 
L 520.898301 424.396898 
L 519.373246 424.895519 
L 517.848191 425.20419 
L 516.323136 425.504946 
L 514.798081 425.742384 
L 513.273026 425.943416 
L 511.747971 426.04868 
L 510.222916 426.163443 
L 508.697861 426.22676 
L 507.172806 426.294825 
L 505.647752 426.34073 
L 504.122697 426.385844 
L 502.597642 426.437289 
L 501.072587 426.462615 
L 499.547532 426.483985 
L 498.022477 426.513586 
L 496.497422 426.525932 
L 494.972367 426.541524 
L 493.447312 426.548647 
L 491.922257 426.555296 
L 490.397202 426.560836 
L 488.872147 426.563685 
L 487.347092 426.564239 
L 485.822038 426.569265 
L 484.296983 426.569162 
L 482.771928 426.568869 
L 481.246873 426.56936 
L 479.721818 426.569954 
L 478.196763 426.56936 
L 476.671708 426.572728 
L 475.146653 426.572925 
L 473.621598 426.572925 
L 472.096543 426.573222 
L 470.571488 426.57342 
L 469.046433 426.57342 
L 467.521379 426.57342 
L 465.996324 426.57342 
L 464.471269 426.57342 
L 462.946214 426.57342 
L 461.421159 426.57342 
L 459.896104 426.57342 
L 458.371049 426.57342 
L 456.845994 426.57342 
L 455.320939 426.57342 
L 453.795884 426.57342 
L 452.270829 426.57342 
L 450.745774 426.57342 
L 449.220719 426.57342 
L 447.695665 426.57342 
L 446.17061 426.57342 
L 444.645555 426.57342 
" style="fill:none;stroke:#0000ff;stroke-linecap:square;stroke-width:1.5;"/>
   </g>
   <g id="line2d_31">
    <path clip-path="url(#pe5cf84b2ca)" d="M 598.578062 405.467146 
L 596.628171 397.047793 
L 594.678279 392.028563 
L 592.728387 388.385573 
L 590.778496 385.552137 
L 588.828604 382.799656 
L 586.878712 380.290041 
L 584.928821 377.780426 
L 582.978929 375.675588 
L 581.029038 373.89457 
L 579.079146 371.789732 
L 577.129254 369.199162 
L 575.179363 367.580055 
L 573.229471 365.232351 
L 571.279579 362.965602 
L 569.329688 361.103629 
L 567.379796 359.079746 
L 565.429904 357.784461 
L 563.480013 356.408221 
L 561.530121 354.708159 
L 559.580229 353.170008 
L 557.630338 351.874723 
L 555.680446 350.984214 
L 553.730554 350.093706 
L 551.780663 349.284152 
L 549.830771 349.122242 
L 547.88088 349.203197 
L 545.930988 349.203197 
L 543.981096 349.365108 
L 542.031205 350.660393 
L 540.081313 352.360455 
L 538.131421 353.65574 
L 536.18153 355.598667 
L 534.231638 357.865417 
L 532.281746 360.779808 
L 530.331855 364.179932 
L 528.381963 366.770502 
L 526.432071 370.251581 
L 524.48218 374.299347 
L 522.532288 378.428069 
L 520.582396 382.232969 
L 518.632505 386.037869 
L 516.682613 390.247546 
L 514.732722 394.133401 
L 512.78283 398.100212 
L 510.832938 401.743202 
L 508.883047 404.981414 
L 506.933155 408.300583 
L 504.983263 411.214974 
L 503.033372 414.048411 
L 501.08348 416.31516 
L 499.133588 418.419998 
L 497.183697 420.28197 
L 495.233805 421.763453 
L 493.283913 423.139693 
L 491.334022 424.313546 
L 489.38413 425.268818 
L 487.434238 426.13504 
L 485.484347 426.693632 
L 483.534455 427.203651 
L 481.584564 427.616523 
L 479.634672 427.980822 
L 477.68478 428.167019 
L 475.734889 428.359693 
L 473.784997 428.529699 
L 471.835105 428.613083 
L 469.885214 428.697276 
L 467.935322 428.757183 
L 465.98543 428.848663 
L 464.035539 428.906951 
L 462.085647 428.933666 
L 460.135755 428.969286 
L 458.185864 428.992763 
L 456.235972 429.022717 
L 454.28608 429.029193 
L 452.336189 429.059713 
L 450.386297 429.066109 
L 448.436406 429.07388 
L 446.486514 429.078657 
L 444.536622 429.086024 
L 442.586731 429.088129 
L 440.636839 429.0925 
L 438.686947 429.099705 
L 436.737056 429.100839 
L 434.787164 429.100272 
L 432.837272 429.101324 
L 430.887381 429.101162 
L 428.937489 429.104643 
L 426.987597 429.103429 
L 425.037706 429.105129 
L 423.087814 429.105939 
L 421.137922 429.105615 
L 419.188031 429.105615 
L 417.238139 429.105777 
L 415.288248 429.105777 
L 413.338356 429.10602 
L 411.388464 429.106101 
L 409.438573 429.106101 
L 407.488681 429.106101 
L 405.538789 429.106101 
" style="fill:none;stroke:#0000ff;stroke-linecap:square;stroke-width:1.5;"/>
   </g>
   <g id="line2d_32">
    <path clip-path="url(#pe5cf84b2ca)" d="M 601.468691 409.305186 
L 598.874537 401.848775 
L 596.280383 397.20923 
L 593.686229 394.226666 
L 591.092075 391.658346 
L 588.497921 389.090027 
L 585.903767 387.267348 
L 583.309613 385.527519 
L 580.715458 383.456294 
L 578.121304 381.882162 
L 575.52715 380.142333 
L 572.932996 378.402504 
L 570.338842 376.414127 
L 567.744688 374.757147 
L 565.150534 372.934469 
L 562.55638 371.277488 
L 559.962226 369.537659 
L 557.368072 367.549283 
L 554.773918 366.223699 
L 552.179763 364.40102 
L 549.585609 362.909738 
L 546.991455 361.335607 
L 544.397301 359.927173 
L 541.803147 358.601589 
L 539.208993 357.110307 
L 536.614839 356.364666 
L 534.020685 355.701874 
L 531.426531 355.370478 
L 528.832377 354.624837 
L 526.238223 354.873384 
L 523.644068 355.20478 
L 521.049914 355.619025 
L 518.45576 356.696062 
L 515.861606 358.104495 
L 513.267452 360.092871 
L 510.673298 362.412644 
L 508.079144 365.063812 
L 505.48499 368.129226 
L 502.890836 371.11179 
L 500.296682 374.757147 
L 497.702528 378.485353 
L 495.108373 382.462105 
L 492.514219 386.687405 
L 489.920065 390.829856 
L 487.325911 394.806609 
L 484.731757 398.700512 
L 482.137603 402.760114 
L 479.543449 406.48832 
L 476.949295 409.885129 
L 474.355141 413.281939 
L 471.760987 416.098805 
L 469.166833 418.667125 
L 466.572678 421.069746 
L 463.978524 422.975274 
L 461.38437 424.739958 
L 458.790216 426.123536 
L 456.196062 427.324847 
L 453.601908 428.252756 
L 451.007754 429.031537 
L 448.4136 429.686044 
L 445.819446 430.174853 
L 443.225292 430.489679 
L 440.631137 430.804505 
L 438.036983 431.019913 
L 435.442829 431.138387 
L 432.848675 431.246091 
L 430.254521 431.361251 
L 427.660367 431.437472 
L 425.066213 431.49878 
L 422.472059 431.555118 
L 419.877905 431.597371 
L 417.283751 431.615597 
L 414.689597 431.643766 
L 412.095442 431.671935 
L 409.501288 431.690824 
L 406.907134 431.70466 
L 404.512531 431.714933 
L 402.517027 431.730923 
L 398.526021 431.740534 
L 396.530518 431.743848 
L 394.535015 431.745256 
L 390.544008 431.748653 
L 388.548505 431.754336 
L 386.553002 431.755927 
L 382.561996 431.75485 
L 380.566493 431.755612 
L 378.57099 431.75676 
L 376.575486 431.757269 
L 372.58448 431.757269 
L 370.588977 431.757269 
L 368.593474 431.757269 
L 364.602468 431.757269 
L 362.606964 431.757269 
L 360.611461 431.757269 
L 356.620455 431.757269 
L 354.624952 431.757269 
L 352.629449 431.757269 
L 350.633946 431.757269 
L 346.642939 431.757269 
L 344.647436 431.757269 
" style="fill:none;stroke:#0000ff;stroke-linecap:square;stroke-width:1.5;"/>
   </g>
   <g id="line2d_33">
    <path clip-path="url(#pe5cf84b2ca)" d="M 604.497793 413.072584 
L 601.228514 405.522409 
L 597.959235 401.789739 
L 594.689955 399.159903 
L 591.420676 397.039067 
L 588.151396 394.918232 
L 584.882117 393.306397 
L 581.612837 391.779395 
L 578.343558 390.42206 
L 575.074279 388.470891 
L 571.804999 386.859056 
L 568.53572 385.162388 
L 565.26644 383.805053 
L 561.997161 382.447718 
L 558.727882 380.835883 
L 555.458602 379.224048 
L 552.189323 377.52738 
L 548.920043 375.830712 
L 545.650764 374.218877 
L 542.381485 372.437375 
L 539.112205 370.995206 
L 535.842926 369.468205 
L 532.573646 368.195704 
L 529.304367 367.177702 
L 526.035088 365.650701 
L 522.765808 364.3782 
L 519.496529 363.275365 
L 516.227249 362.427031 
L 512.95797 361.493863 
L 509.68869 360.900029 
L 506.419411 360.560696 
L 503.150132 360.815196 
L 499.880852 361.239363 
L 496.611573 362.002864 
L 493.342293 363.020865 
L 490.073014 364.547866 
L 486.803735 366.329368 
L 483.534455 368.874371 
L 480.265176 371.419374 
L 476.995896 374.55821 
L 473.726617 377.78188 
L 470.457338 381.344884 
L 467.188058 385.247221 
L 463.918779 389.404059 
L 460.649499 393.815397 
L 457.38022 397.887401 
L 454.110941 402.213906 
L 450.841661 406.28591 
L 447.572382 410.188248 
L 444.303102 413.836085 
L 441.033823 417.144588 
L 437.764543 420.113758 
L 434.495264 422.828427 
L 431.225985 425.203763 
L 427.956705 427.154932 
L 424.687426 428.843117 
L 421.418146 430.098652 
L 418.148867 431.125136 
L 414.879588 431.87167 
L 411.610308 432.541854 
L 408.341029 433.042371 
L 405.071749 433.398672 
L 401.39381 433.661655 
L 399.35051 433.874587 
L 395.263911 434.034074 
L 391.177312 434.144358 
L 389.134012 434.213921 
L 385.047413 434.280091 
L 383.004113 434.335233 
L 378.917514 434.383588 
L 374.830915 434.420915 
L 372.787615 434.451879 
L 368.701016 434.463162 
L 366.657716 434.489714 
L 362.571117 434.498452 
L 358.484518 434.509905 
L 356.441218 434.518812 
L 352.354619 434.521103 
L 350.311319 434.523987 
L 346.22472 434.52727 
L 342.138121 434.52727 
L 340.094821 434.52934 
L 336.008222 434.531885 
L 333.964922 434.534481 
L 329.878323 434.535068 
L 325.791724 434.53528 
L 323.748424 434.53454 
L 319.661825 434.53528 
L 317.618525 434.53544 
L 313.531926 434.53544 
L 309.445327 434.53544 
L 307.402027 434.53544 
L 303.315428 434.53544 
L 301.272128 434.53544 
L 297.185529 434.53544 
L 293.09893 434.53544 
L 291.05563 434.53544 
L 286.969031 434.53544 
L 284.925731 434.53544 
L 280.839132 434.53544 
" style="fill:none;stroke:#0000ff;stroke-linecap:square;stroke-width:1.5;"/>
   </g>
   <g id="legend_1">
    <g id="patch_6">
     <path d="M 506.124688 115.11625 
L 680.42 115.11625 
Q 682.42 115.11625 682.42 113.11625 
L 682.42 84.76 
Q 682.42 82.76 680.42 82.76 
L 506.124688 82.76 
Q 504.124688 82.76 504.124688 84.76 
L 504.124688 113.11625 
Q 504.124688 115.11625 506.124688 115.11625 
z
" style="fill:#ffffff;opacity:0.8;stroke:#cccccc;stroke-linejoin:miter;"/>
    </g>
    <g id="line2d_34">
     <path d="M 508.124688 90.858438 
L 528.124688 90.858438 
" style="fill:none;stroke:#ff0000;stroke-linecap:square;"/>
    </g>
    <g id="line2d_35"/>
    <g id="text_25">
     <!-- Silicon Ion Distribution -->
     <g transform="translate(536.124688 94.358438)scale(0.1 -0.1)">
      <defs>
       <path d="M 3425 4513 
L 3425 3897 
Q 3066 4069 2747 4153 
Q 2428 4238 2131 4238 
Q 1616 4238 1336 4038 
Q 1056 3838 1056 3469 
Q 1056 3159 1242 3001 
Q 1428 2844 1947 2747 
L 2328 2669 
Q 3034 2534 3370 2195 
Q 3706 1856 3706 1288 
Q 3706 609 3251 259 
Q 2797 -91 1919 -91 
Q 1588 -91 1214 -16 
Q 841 59 441 206 
L 441 856 
Q 825 641 1194 531 
Q 1563 422 1919 422 
Q 2459 422 2753 634 
Q 3047 847 3047 1241 
Q 3047 1584 2836 1778 
Q 2625 1972 2144 2069 
L 1759 2144 
Q 1053 2284 737 2584 
Q 422 2884 422 3419 
Q 422 4038 858 4394 
Q 1294 4750 2059 4750 
Q 2388 4750 2728 4690 
Q 3069 4631 3425 4513 
z
" id="DejaVuSans-53" transform="scale(0.015625)"/>
       <path d="M 603 4863 
L 1178 4863 
L 1178 0 
L 603 0 
L 603 4863 
z
" id="DejaVuSans-6c" transform="scale(0.015625)"/>
       <path d="M 628 4666 
L 1259 4666 
L 1259 0 
L 628 0 
L 628 4666 
z
" id="DejaVuSans-49" transform="scale(0.015625)"/>
      </defs>
      <use xlink:href="#DejaVuSans-53"/>
      <use x="63.476562" xlink:href="#DejaVuSans-69"/>
      <use x="91.259766" xlink:href="#DejaVuSans-6c"/>
      <use x="119.042969" xlink:href="#DejaVuSans-69"/>
      <use x="146.826172" xlink:href="#DejaVuSans-63"/>
      <use x="201.806641" xlink:href="#DejaVuSans-6f"/>
      <use x="262.988281" xlink:href="#DejaVuSans-6e"/>
      <use x="326.367188" xlink:href="#DejaVuSans-20"/>
      <use x="358.154297" xlink:href="#DejaVuSans-49"/>
      <use x="387.646484" xlink:href="#DejaVuSans-6f"/>
      <use x="448.828125" xlink:href="#DejaVuSans-6e"/>
      <use x="512.207031" xlink:href="#DejaVuSans-20"/>
      <use x="543.994141" xlink:href="#DejaVuSans-44"/>
      <use x="620.996094" xlink:href="#DejaVuSans-69"/>
      <use x="648.779297" xlink:href="#DejaVuSans-73"/>
      <use x="700.878906" xlink:href="#DejaVuSans-74"/>
      <use x="740.087891" xlink:href="#DejaVuSans-72"/>
      <use x="781.201172" xlink:href="#DejaVuSans-69"/>
      <use x="808.984375" xlink:href="#DejaVuSans-62"/>
      <use x="872.460938" xlink:href="#DejaVuSans-75"/>
      <use x="935.839844" xlink:href="#DejaVuSans-74"/>
      <use x="975.048828" xlink:href="#DejaVuSans-69"/>
      <use x="1002.832031" xlink:href="#DejaVuSans-6f"/>
      <use x="1064.013672" xlink:href="#DejaVuSans-6e"/>
     </g>
    </g>
    <g id="line2d_36">
     <path d="M 508.124688 105.536563 
L 528.124688 105.536563 
" style="fill:none;stroke:#0000ff;stroke-linecap:square;stroke-width:1.5;"/>
    </g>
    <g id="line2d_37"/>
    <g id="text_26">
     <!-- Carbon Vacancy Distribution -->
     <g transform="translate(536.124688 109.036563)scale(0.1 -0.1)">
      <defs>
       <path d="M 4122 4306 
L 4122 3641 
Q 3803 3938 3442 4084 
Q 3081 4231 2675 4231 
Q 1875 4231 1450 3742 
Q 1025 3253 1025 2328 
Q 1025 1406 1450 917 
Q 1875 428 2675 428 
Q 3081 428 3442 575 
Q 3803 722 4122 1019 
L 4122 359 
Q 3791 134 3420 21 
Q 3050 -91 2638 -91 
Q 1578 -91 968 557 
Q 359 1206 359 2328 
Q 359 3453 968 4101 
Q 1578 4750 2638 4750 
Q 3056 4750 3426 4639 
Q 3797 4528 4122 4306 
z
" id="DejaVuSans-43" transform="scale(0.015625)"/>
      </defs>
      <use xlink:href="#DejaVuSans-43"/>
      <use x="69.824219" xlink:href="#DejaVuSans-61"/>
      <use x="131.103516" xlink:href="#DejaVuSans-72"/>
      <use x="172.216797" xlink:href="#DejaVuSans-62"/>
      <use x="235.693359" xlink:href="#DejaVuSans-6f"/>
      <use x="296.875" xlink:href="#DejaVuSans-6e"/>
      <use x="360.253906" xlink:href="#DejaVuSans-20"/>
      <use x="392.041016" xlink:href="#DejaVuSans-56"/>
      <use x="452.699219" xlink:href="#DejaVuSans-61"/>
      <use x="513.978516" xlink:href="#DejaVuSans-63"/>
      <use x="568.958984" xlink:href="#DejaVuSans-61"/>
      <use x="630.238281" xlink:href="#DejaVuSans-6e"/>
      <use x="693.617188" xlink:href="#DejaVuSans-63"/>
      <use x="748.597656" xlink:href="#DejaVuSans-79"/>
      <use x="807.777344" xlink:href="#DejaVuSans-20"/>
      <use x="839.564453" xlink:href="#DejaVuSans-44"/>
      <use x="916.566406" xlink:href="#DejaVuSans-69"/>
      <use x="944.349609" xlink:href="#DejaVuSans-73"/>
      <use x="996.449219" xlink:href="#DejaVuSans-74"/>
      <use x="1035.658203" xlink:href="#DejaVuSans-72"/>
      <use x="1076.771484" xlink:href="#DejaVuSans-69"/>
      <use x="1104.554688" xlink:href="#DejaVuSans-62"/>
      <use x="1168.03125" xlink:href="#DejaVuSans-75"/>
      <use x="1231.410156" xlink:href="#DejaVuSans-74"/>
      <use x="1270.619141" xlink:href="#DejaVuSans-69"/>
      <use x="1298.402344" xlink:href="#DejaVuSans-6f"/>
      <use x="1359.583984" xlink:href="#DejaVuSans-6e"/>
     </g>
    </g>
   </g>
  </g>
 </g>
 <defs>
  <clipPath id="pe5cf84b2ca">
   <rect height="489.24" width="489.24" x="198.18" y="77.76"/>
  </clipPath>
 </defs>
</svg>
