<?xml version="1.0" encoding="utf-8" standalone="no"?>
<!DOCTYPE svg PUBLIC "-//W3C//DTD SVG 1.1//EN"
  "http://www.w3.org/Graphics/SVG/1.1/DTD/svg11.dtd">
<svg height="648pt" version="1.1" viewBox="0 0 864 648" width="864pt" xmlns="http://www.w3.org/2000/svg" xmlns:xlink="http://www.w3.org/1999/xlink">
 <metadata>
  <rdf:RDF xmlns:cc="http://creativecommons.org/ns#" xmlns:dc="http://purl.org/dc/elements/1.1/" xmlns:rdf="http://www.w3.org/1999/02/22-rdf-syntax-ns#">
   <cc:Work>
    <dc:type rdf:resource="http://purl.org/dc/dcmitype/StillImage"/>
    <dc:date>2023-12-11T16:48:18.120487</dc:date>
    <dc:format>image/svg+xml</dc:format>
    <dc:creator>
     <cc:Agent>
      <dc:title>Matplotlib v3.4.3, https://matplotlib.org/</dc:title>
     </cc:Agent>
    </dc:creator>
   </cc:Work>
  </rdf:RDF>
 </metadata>
 <defs>
  <style type="text/css">*{stroke-linecap:butt;stroke-linejoin:round;}</style>
 </defs>
 <g id="figure_1">
  <g id="patch_1">
   <path d="M 0 648 
L 864 648 
L 864 0 
L 0 0 
z
" style="fill:none;"/>
  </g>
  <g id="patch_2">
   <path d="M 198.18 567 
L 687.42 567 
L 687.42 77.76 
L 198.18 77.76 
z
" style="fill:none;"/>
  </g>
  <g id="pane3d_1">
   <g id="patch_3">
    <path d="M 230.513112 439.740015 
L 414.049209 348.661627 
L 413.032985 140.804708 
L 223.628827 215.131124 
" style="fill:#f2f2f2;opacity:0.5;stroke:#f2f2f2;stroke-linejoin:miter;"/>
   </g>
  </g>
  <g id="pane3d_2">
   <g id="patch_4">
    <path d="M 414.049209 348.661627 
L 662.465504 410.732786 
L 668.981635 191.416675 
L 413.032985 140.804708 
" style="fill:#e6e6e6;opacity:0.5;stroke:#e6e6e6;stroke-linejoin:miter;"/>
   </g>
  </g>
  <g id="pane3d_3">
   <g id="patch_5">
    <path d="M 230.513112 439.740015 
L 490.651114 514.11377 
L 662.465504 410.732786 
L 414.049209 348.661627 
" style="fill:#ececec;opacity:0.5;stroke:#ececec;stroke-linejoin:miter;"/>
   </g>
  </g>
  <g id="axis3d_1">
   <g id="line2d_1">
    <path d="M 230.513112 439.740015 
L 490.651114 514.11377 
" style="fill:none;stroke:#000000;stroke-linecap:square;stroke-width:0.8;"/>
   </g>
  </g>
  <g id="axis3d_2">
   <g id="line2d_2">
    <path d="M 662.465504 410.732786 
L 490.651114 514.11377 
" style="fill:none;stroke:#000000;stroke-linecap:square;stroke-width:0.8;"/>
   </g>
  </g>
  <g id="axis3d_3">
   <g id="line2d_3">
    <path d="M 662.465504 410.732786 
L 668.981635 191.416675 
" style="fill:none;stroke:#000000;stroke-linecap:square;stroke-width:0.8;"/>
   </g>
   <g id="text_1">
    <!-- 1e6 -->
    <g transform="translate(713.556708 208.111872)rotate(-88.298178)scale(0.1 -0.1)">
     <defs>
      <path d="M 794 531 
L 1825 531 
L 1825 4091 
L 703 3866 
L 703 4441 
L 1819 4666 
L 2450 4666 
L 2450 531 
L 3481 531 
L 3481 0 
L 794 0 
L 794 531 
z
" id="DejaVuSans-31" transform="scale(0.015625)"/>
      <path d="M 3597 1894 
L 3597 1613 
L 953 1613 
Q 991 1019 1311 708 
Q 1631 397 2203 397 
Q 2534 397 2845 478 
Q 3156 559 3463 722 
L 3463 178 
Q 3153 47 2828 -22 
Q 2503 -91 2169 -91 
Q 1331 -91 842 396 
Q 353 884 353 1716 
Q 353 2575 817 3079 
Q 1281 3584 2069 3584 
Q 2775 3584 3186 3129 
Q 3597 2675 3597 1894 
z
M 3022 2063 
Q 3016 2534 2758 2815 
Q 2500 3097 2075 3097 
Q 1594 3097 1305 2825 
Q 1016 2553 972 2059 
L 3022 2063 
z
" id="DejaVuSans-65" transform="scale(0.015625)"/>
      <path d="M 2113 2584 
Q 1688 2584 1439 2293 
Q 1191 2003 1191 1497 
Q 1191 994 1439 701 
Q 1688 409 2113 409 
Q 2538 409 2786 701 
Q 3034 994 3034 1497 
Q 3034 2003 2786 2293 
Q 2538 2584 2113 2584 
z
M 3366 4563 
L 3366 3988 
Q 3128 4100 2886 4159 
Q 2644 4219 2406 4219 
Q 1781 4219 1451 3797 
Q 1122 3375 1075 2522 
Q 1259 2794 1537 2939 
Q 1816 3084 2150 3084 
Q 2853 3084 3261 2657 
Q 3669 2231 3669 1497 
Q 3669 778 3244 343 
Q 2819 -91 2113 -91 
Q 1303 -91 875 529 
Q 447 1150 447 2328 
Q 447 3434 972 4092 
Q 1497 4750 2381 4750 
Q 2619 4750 2861 4703 
Q 3103 4656 3366 4563 
z
" id="DejaVuSans-36" transform="scale(0.015625)"/>
     </defs>
     <use xlink:href="#DejaVuSans-31"/>
     <use x="63.623047" xlink:href="#DejaVuSans-65"/>
     <use x="125.146484" xlink:href="#DejaVuSans-36"/>
    </g>
   </g>
   <g id="Line3DCollection_1">
    <path d="M 662.592034 406.474108 
L 414.029441 344.618358 
L 230.379543 435.38215 
" style="fill:none;stroke:#b0b0b0;stroke-width:0.8;"/>
    <path d="M 663.609712 372.221713 
L 413.8705 312.108744 
L 229.305094 400.326832 
" style="fill:none;stroke:#b0b0b0;stroke-width:0.8;"/>
    <path d="M 664.637152 337.640722 
L 413.710124 279.305735 
L 228.220052 364.925894 
" style="fill:none;stroke:#b0b0b0;stroke-width:0.8;"/>
    <path d="M 665.674497 302.726385 
L 413.548295 246.205342 
L 227.124259 329.174201 
" style="fill:none;stroke:#b0b0b0;stroke-width:0.8;"/>
    <path d="M 666.72189 267.473858 
L 413.384991 212.803501 
L 226.017555 293.066512 
" style="fill:none;stroke:#b0b0b0;stroke-width:0.8;"/>
    <path d="M 667.779477 231.878203 
L 413.220194 179.096077 
L 224.899775 256.597484 
" style="fill:none;stroke:#b0b0b0;stroke-width:0.8;"/>
    <path d="M 668.847409 195.934386 
L 413.053882 145.078856 
L 223.770754 219.761667 
" style="fill:none;stroke:#b0b0b0;stroke-width:0.8;"/>
   </g>
   <g id="xtick_1">
    <g id="line2d_4">
     <path d="M 660.480518 405.948649 
L 666.821396 407.526601 
" style="fill:none;stroke:#000000;stroke-linecap:square;stroke-width:0.8;"/>
    </g>
    <g id="text_2">
     <!-- 0.0 -->
     <g transform="translate(673.602806 412.804271)scale(0.1 -0.1)">
      <defs>
       <path d="M 2034 4250 
Q 1547 4250 1301 3770 
Q 1056 3291 1056 2328 
Q 1056 1369 1301 889 
Q 1547 409 2034 409 
Q 2525 409 2770 889 
Q 3016 1369 3016 2328 
Q 3016 3291 2770 3770 
Q 2525 4250 2034 4250 
z
M 2034 4750 
Q 2819 4750 3233 4129 
Q 3647 3509 3647 2328 
Q 3647 1150 3233 529 
Q 2819 -91 2034 -91 
Q 1250 -91 836 529 
Q 422 1150 422 2328 
Q 422 3509 836 4129 
Q 1250 4750 2034 4750 
z
" id="DejaVuSans-30" transform="scale(0.015625)"/>
       <path d="M 684 794 
L 1344 794 
L 1344 0 
L 684 0 
L 684 794 
z
" id="DejaVuSans-2e" transform="scale(0.015625)"/>
      </defs>
      <use xlink:href="#DejaVuSans-30"/>
      <use x="63.623047" xlink:href="#DejaVuSans-2e"/>
      <use x="95.410156" xlink:href="#DejaVuSans-30"/>
     </g>
    </g>
   </g>
   <g id="xtick_2">
    <g id="line2d_5">
     <path d="M 661.487611 371.710917 
L 667.860306 373.244843 
" style="fill:none;stroke:#000000;stroke-linecap:square;stroke-width:0.8;"/>
    </g>
    <g id="text_3">
     <!-- 0.2 -->
     <g transform="translate(674.709665 378.587271)scale(0.1 -0.1)">
      <defs>
       <path d="M 1228 531 
L 3431 531 
L 3431 0 
L 469 0 
L 469 531 
Q 828 903 1448 1529 
Q 2069 2156 2228 2338 
Q 2531 2678 2651 2914 
Q 2772 3150 2772 3378 
Q 2772 3750 2511 3984 
Q 2250 4219 1831 4219 
Q 1534 4219 1204 4116 
Q 875 4013 500 3803 
L 500 4441 
Q 881 4594 1212 4672 
Q 1544 4750 1819 4750 
Q 2544 4750 2975 4387 
Q 3406 4025 3406 3419 
Q 3406 3131 3298 2873 
Q 3191 2616 2906 2266 
Q 2828 2175 2409 1742 
Q 1991 1309 1228 531 
z
" id="DejaVuSans-32" transform="scale(0.015625)"/>
      </defs>
      <use xlink:href="#DejaVuSans-30"/>
      <use x="63.623047" xlink:href="#DejaVuSans-2e"/>
      <use x="95.410156" xlink:href="#DejaVuSans-32"/>
     </g>
    </g>
   </g>
   <g id="xtick_3">
    <g id="line2d_6">
     <path d="M 662.50436 337.144895 
L 668.909192 338.633877 
" style="fill:none;stroke:#000000;stroke-linecap:square;stroke-width:0.8;"/>
    </g>
    <g id="text_4">
     <!-- 0.4 -->
     <g transform="translate(675.827129 344.042414)scale(0.1 -0.1)">
      <defs>
       <path d="M 2419 4116 
L 825 1625 
L 2419 1625 
L 2419 4116 
z
M 2253 4666 
L 3047 4666 
L 3047 1625 
L 3713 1625 
L 3713 1100 
L 3047 1100 
L 3047 0 
L 2419 0 
L 2419 1100 
L 313 1100 
L 313 1709 
L 2253 4666 
z
" id="DejaVuSans-34" transform="scale(0.015625)"/>
      </defs>
      <use xlink:href="#DejaVuSans-30"/>
      <use x="63.623047" xlink:href="#DejaVuSans-2e"/>
      <use x="95.410156" xlink:href="#DejaVuSans-34"/>
     </g>
    </g>
   </g>
   <g id="xtick_4">
    <g id="line2d_7">
     <path d="M 663.530905 302.24584 
L 669.9682 303.688937 
" style="fill:none;stroke:#000000;stroke-linecap:square;stroke-width:0.8;"/>
    </g>
    <g id="text_5">
     <!-- 0.6 -->
     <g transform="translate(676.955353 309.164966)scale(0.1 -0.1)">
      <use xlink:href="#DejaVuSans-30"/>
      <use x="63.623047" xlink:href="#DejaVuSans-2e"/>
      <use x="95.410156" xlink:href="#DejaVuSans-36"/>
     </g>
    </g>
   </g>
   <g id="xtick_5">
    <g id="line2d_8">
     <path d="M 664.567389 267.008914 
L 671.037476 268.405166 
" style="fill:none;stroke:#000000;stroke-linecap:square;stroke-width:0.8;"/>
    </g>
    <g id="text_6">
     <!-- 0.8 -->
     <g transform="translate(678.094491 273.950099)scale(0.1 -0.1)">
      <defs>
       <path d="M 2034 2216 
Q 1584 2216 1326 1975 
Q 1069 1734 1069 1313 
Q 1069 891 1326 650 
Q 1584 409 2034 409 
Q 2484 409 2743 651 
Q 3003 894 3003 1313 
Q 3003 1734 2745 1975 
Q 2488 2216 2034 2216 
z
M 1403 2484 
Q 997 2584 770 2862 
Q 544 3141 544 3541 
Q 544 4100 942 4425 
Q 1341 4750 2034 4750 
Q 2731 4750 3128 4425 
Q 3525 4100 3525 3541 
Q 3525 3141 3298 2862 
Q 3072 2584 2669 2484 
Q 3125 2378 3379 2068 
Q 3634 1759 3634 1313 
Q 3634 634 3220 271 
Q 2806 -91 2034 -91 
Q 1263 -91 848 271 
Q 434 634 434 1313 
Q 434 1759 690 2068 
Q 947 2378 1403 2484 
z
M 1172 3481 
Q 1172 3119 1398 2916 
Q 1625 2713 2034 2713 
Q 2441 2713 2670 2916 
Q 2900 3119 2900 3481 
Q 2900 3844 2670 4047 
Q 2441 4250 2034 4250 
Q 1625 4250 1398 4047 
Q 1172 3844 1172 3481 
z
" id="DejaVuSans-38" transform="scale(0.015625)"/>
      </defs>
      <use xlink:href="#DejaVuSans-30"/>
      <use x="63.623047" xlink:href="#DejaVuSans-2e"/>
      <use x="95.410156" xlink:href="#DejaVuSans-38"/>
     </g>
    </g>
   </g>
   <g id="xtick_6">
    <g id="line2d_9">
     <path d="M 665.613956 231.429189 
L 672.11717 232.777611 
" style="fill:none;stroke:#000000;stroke-linecap:square;stroke-width:0.8;"/>
    </g>
    <g id="text_7">
     <!-- 1.0 -->
     <g transform="translate(679.244703 238.392895)scale(0.1 -0.1)">
      <use xlink:href="#DejaVuSans-31"/>
      <use x="63.623047" xlink:href="#DejaVuSans-2e"/>
      <use x="95.410156" xlink:href="#DejaVuSans-30"/>
     </g>
    </g>
   </g>
   <g id="xtick_7">
    <g id="line2d_10">
     <path d="M 666.670754 195.501635 
L 673.207435 196.801224 
" style="fill:none;stroke:#000000;stroke-linecap:square;stroke-width:0.8;"/>
    </g>
    <g id="text_8">
     <!-- 1.2 -->
     <g transform="translate(680.406151 202.488335)scale(0.1 -0.1)">
      <use xlink:href="#DejaVuSans-31"/>
      <use x="63.623047" xlink:href="#DejaVuSans-2e"/>
      <use x="95.410156" xlink:href="#DejaVuSans-32"/>
     </g>
    </g>
   </g>
  </g>
  <g id="axes_1">
   <g id="line2d_11">
    <path clip-path="url(#p59e67ee280)" d="M 258.848117 425.496435 
L 259.443842 425.405551 
L 260.030272 425.011191 
L 260.597695 423.82887 
L 261.109887 420.53038 
L 261.53987 414.066157 
L 261.903427 405.00984 
L 262.217965 394.004778 
L 262.47893 380.856585 
L 262.71359 366.598228 
L 262.871645 349.268611 
L 263.035094 332.027201 
L 263.15354 312.90801 
L 263.272655 293.680716 
L 263.420076 275.429768 
L 263.628241 259.44328 
L 263.786607 241.372521 
L 263.945814 223.205736 
L 264.475927 219.673362 
L 264.868449 210.6127 
L 265.446292 208.908873 
L 265.840905 199.816411 
L 266.694873 209.187444 
L 267.319468 209.326797 
L 268.035044 213.154014 
L 268.975713 226.174197 
L 269.958146 240.983369 
L 270.803669 250.266078 
L 271.850517 267.896582 
L 273.006415 290.148304 
L 273.978039 304.903245 
L 274.963314 320.320818 
L 275.927685 334.964783 
L 276.977564 353.28759 
L 277.871111 365.154793 
L 278.724409 375.398119 
L 279.633783 388.081469 
L 280.478379 398.092139 
L 281.242931 404.749749 
L 281.981827 410.347343 
L 282.740984 416.847105 
L 283.445644 421.033668 
L 284.104615 423.262898 
L 284.774252 425.962489 
L 285.433638 428.225227 
L 286.090857 430.400233 
L 286.722944 431.477193 
L 287.338681 431.831156 
L 287.965207 432.655697 
L 288.591817 433.480348 
L 289.200937 433.521012 
L 289.815137 433.77955 
L 290.433394 434.212461 
L 291.049871 434.558325 
L 291.660741 434.642787 
L 292.274696 434.858048 
L 292.888838 435.073375 
L 293.502217 435.245168 
L 294.11579 435.417015 
L 294.729558 435.588917 
L 295.343522 435.760874 
L 295.95768 435.932885 
L 296.572034 436.104951 
L 297.186583 436.277071 
L 297.801327 436.449246 
L 298.416267 436.621476 
L 299.031402 436.793761 
L 299.646733 436.966101 
L 300.26226 437.138495 
L 300.877983 437.310944 
L 301.493901 437.483449 
L 302.110016 437.656008 
L 302.726327 437.828622 
L 303.342834 438.00129 
L 303.959537 438.174014 
L 304.576437 438.346793 
L 305.193533 438.519627 
L 305.810826 438.692516 
L 306.428316 438.86546 
L 307.046002 439.03846 
L 307.663885 439.211514 
L 308.281966 439.384624 
L 308.900243 439.557788 
L 309.518718 439.731008 
L 310.13739 439.904284 
L 310.756259 440.077614 
L 311.375325 440.251 
L 311.99459 440.424441 
L 312.614051 440.597938 
L 313.233711 440.77149 
L 313.853569 440.945097 
L 314.473624 441.11876 
L 315.093877 441.292478 
L 315.714329 441.466251 
L 316.334979 441.640081 
L 316.955827 441.813965 
L 317.576873 441.987906 
L 318.198118 442.161902 
L 318.819562 442.335953 
L 319.441204 442.51006 
" style="fill:none;stroke:#ff0000;stroke-linecap:square;"/>
   </g>
   <g id="line2d_12">
    <path clip-path="url(#p59e67ee280)" d="M 296.445876 407.344859 
L 297.640975 407.670699 
L 298.835176 407.847819 
L 300.025722 407.811652 
L 301.215803 407.711412 
L 302.394859 407.030131 
L 303.569765 406.091757 
L 304.717527 403.749194 
L 305.887405 402.431309 
L 307.028295 399.586107 
L 308.154365 395.895278 
L 309.273345 391.733695 
L 310.398083 387.753781 
L 311.528174 383.939099 
L 312.650432 379.599436 
L 313.771589 375.078412 
L 314.862619 368.814992 
L 315.959541 362.709941 
L 317.106929 359.200767 
L 318.196149 352.374195 
L 319.297637 346.054057 
L 320.401844 339.718327 
L 321.518066 333.893332 
L 322.698305 331.568964 
L 323.843622 327.131229 
L 325.030409 324.974502 
L 326.158902 319.288482 
L 327.405691 320.476145 
L 328.597183 318.310745 
L 329.921054 324.087626 
L 331.140345 323.51258 
L 332.426148 326.995359 
L 333.736943 332.063148 
L 335.013499 335.015063 
L 336.331147 340.605835 
L 337.685685 348.650548 
L 338.968545 352.124459 
L 340.333145 361.028988 
L 341.682317 369.044342 
L 343.019161 376.349898 
L 344.341548 382.77496 
L 345.670056 389.715043 
L 346.967245 394.562147 
L 348.266064 399.579799 
L 349.561593 404.420649 
L 350.854167 409.102539 
L 352.132361 412.777645 
L 353.39788 415.534505 
L 354.645487 416.941617 
L 355.907962 419.456572 
L 357.157983 421.00297 
L 358.403969 422.203848 
L 359.645665 423.024574 
L 360.89294 424.247134 
L 362.12883 424.497639 
L 363.372812 425.354178 
L 364.611509 425.714265 
L 365.851474 426.117005 
L 367.092696 426.563298 
L 368.333682 426.923226 
L 369.574958 427.24005 
L 370.817501 427.600417 
L 372.060821 427.961009 
L 373.304456 428.278463 
L 374.549338 428.639494 
L 375.794776 428.979058 
L 377.04078 429.297138 
L 378.288011 429.65883 
L 379.535811 429.999038 
L 380.7844 430.339462 
L 382.033778 430.6801 
L 383.283947 431.020955 
L 384.534908 431.362025 
L 385.78666 431.70331 
L 387.039205 432.044812 
L 388.292544 432.386531 
L 389.546676 432.728466 
L 390.801604 433.070617 
L 392.057328 433.412986 
L 393.313848 433.755572 
L 394.571165 434.098375 
L 395.82928 434.441396 
L 397.088195 434.784634 
L 398.347908 435.128091 
L 399.608422 435.471765 
L 400.869738 435.815658 
L 402.131855 436.15977 
L 403.394774 436.504101 
L 404.658497 436.848651 
L 405.923024 437.193419 
L 407.188356 437.538408 
L 408.454494 437.883616 
L 409.721438 438.229044 
L 410.98919 438.574692 
L 412.257749 438.92056 
L 413.527117 439.266649 
L 414.797295 439.612958 
L 416.068283 439.959489 
L 417.340082 440.30624 
L 418.612693 440.653213 
" style="fill:none;stroke:#ff0000;stroke-linecap:square;"/>
   </g>
   <g id="line2d_13">
    <path clip-path="url(#p59e67ee280)" d="M 332.489329 389.661134 
L 333.974093 390.072228 
L 335.459715 390.46681 
L 336.945151 390.777548 
L 338.430974 391.038025 
L 339.916189 391.180818 
L 341.398592 391.054144 
L 342.887335 391.264494 
L 344.368669 390.884777 
L 345.84951 390.36969 
L 347.333055 389.938502 
L 348.81335 389.168992 
L 350.292694 388.212666 
L 351.772579 387.170652 
L 353.255546 386.229013 
L 354.732845 384.727128 
L 356.209421 383.019766 
L 357.687343 381.259165 
L 359.152805 378.340449 
L 360.638565 376.863186 
L 362.126238 375.38402 
L 363.593511 372.02786 
L 365.071427 369.348517 
L 366.543891 365.981118 
L 368.030605 363.63453 
L 369.512012 360.599019 
L 370.990384 357.043536 
L 372.491632 355.371138 
L 373.953621 349.74055 
L 375.461468 348.232312 
L 376.969547 346.549723 
L 378.466127 343.484189 
L 379.957008 339.549043 
L 381.470312 337.683296 
L 383.020649 339.623614 
L 384.545173 338.622168 
L 386.077527 338.31261 
L 387.608409 337.65606 
L 389.156794 338.906396 
L 390.738326 344.143136 
L 392.265651 342.622722 
L 393.838915 346.82118 
L 395.393644 348.5943 
L 396.982894 355.041662 
L 398.541509 357.334849 
L 400.117041 362.048628 
L 401.691914 366.760437 
L 403.273855 372.677592 
L 404.833288 375.143877 
L 406.418755 381.917138 
L 407.982848 385.243864 
L 409.553557 389.774208 
L 411.119293 393.478175 
L 412.681297 396.494629 
L 414.245735 399.991956 
L 415.808195 403.09433 
L 417.366025 405.1503 
L 418.92479 407.309858 
L 420.481585 408.869648 
L 422.039354 410.498775 
L 423.597684 412.094306 
L 425.153867 412.849834 
L 426.712309 413.983457 
L 428.270134 414.602778 
L 429.828754 415.102346 
L 431.388855 415.722528 
L 432.949847 416.240071 
L 434.511654 416.586129 
L 436.075031 417.104397 
L 437.639528 417.588659 
L 439.205118 418.004475 
L 440.771933 418.420615 
L 442.33999 418.854296 
L 443.909239 419.253873 
L 445.479743 419.688217 
L 447.051463 420.105668 
L 448.624414 420.523445 
L 450.198597 420.941549 
L 451.774014 421.359981 
L 453.350667 421.778741 
L 454.928556 422.19783 
L 456.507684 422.617247 
L 458.088051 423.036994 
L 459.669659 423.457071 
L 461.25251 423.877477 
L 462.836605 424.298214 
L 464.421945 424.719282 
L 466.008532 425.14068 
L 467.596368 425.562411 
L 469.185454 425.984473 
L 470.775791 426.406868 
L 472.367381 426.829596 
L 473.960226 427.252656 
L 475.554326 427.676051 
L 477.149683 428.099779 
L 478.7463 428.523842 
L 480.344177 428.948239 
L 481.943315 429.372971 
L 483.543717 429.798039 
L 485.145383 430.223443 
" style="fill:none;stroke:#ff0000;stroke-linecap:square;"/>
   </g>
   <g id="line2d_14">
    <path clip-path="url(#p59e67ee280)" d="M 367.493785 372.631974 
L 369.409114 373.127872 
L 371.326168 373.611495 
L 373.244691 374.057222 
L 375.165245 374.516356 
L 377.086798 374.887077 
L 379.009653 375.19253 
L 380.932307 375.268846 
L 382.860136 375.677957 
L 384.786463 375.704687 
L 386.712608 375.464986 
L 388.643337 375.498294 
L 390.573075 375.148147 
L 392.508451 375.214685 
L 394.443665 374.980819 
L 396.376376 374.095149 
L 398.317417 374.010778 
L 400.250867 372.487516 
L 402.194542 372.067231 
L 404.135995 370.909077 
L 406.07743 369.279536 
L 408.025681 368.302319 
L 409.970588 366.214467 
L 411.923529 365.031704 
L 413.877651 363.510413 
L 415.830877 361.143776 
L 417.793498 360.123255 
L 419.749869 356.904884 
L 421.712788 354.356955 
L 423.682324 352.651431 
L 425.652785 350.264824 
L 427.627798 348.21355 
L 429.605701 345.9888 
L 431.589573 344.781201 
L 433.573745 342.379521 
L 435.563439 340.996788 
L 437.555311 339.099879 
L 439.554902 340.44532 
L 441.553793 339.741938 
L 443.555479 339.208616 
L 445.560733 340.556369 
L 447.567823 343.102358 
L 449.575811 344.281363 
L 451.584656 348.026678 
L 453.594595 350.234098 
L 455.604276 353.980893 
L 457.615907 356.190577 
L 459.62425 361.475623 
L 461.634543 365.223559 
L 463.644367 369.312972 
L 465.650366 375.106449 
L 467.662763 378.002889 
L 469.673445 381.751628 
L 471.68491 385.313563 
L 473.694732 389.454342 
L 475.711194 391.775895 
L 477.726451 394.659724 
L 479.748716 396.048378 
L 481.767692 398.509467 
L 483.792322 399.985465 
L 485.818615 401.428531 
L 487.848506 402.483076 
L 489.880681 403.441514 
L 491.915194 404.308866 
L 493.951397 405.202551 
L 495.992235 405.666006 
L 498.034375 406.245844 
L 500.07797 406.906741 
L 502.12432 407.462856 
L 504.172915 407.993245 
L 506.223468 408.537331 
L 508.276079 409.081929 
L 510.330862 409.613934 
L 512.387833 410.133328 
L 514.446648 410.679552 
L 516.507656 411.213168 
L 518.411972 411.706214 
L 520.000258 412.117438 
L 523.180536 412.940844 
L 524.772531 413.353027 
L 526.365764 413.765531 
L 529.555954 414.591504 
L 531.152913 415.004972 
L 532.751117 415.418763 
L 535.951264 416.247314 
L 537.553211 416.662074 
L 539.156408 417.077158 
L 540.760857 417.492566 
L 543.973517 418.324356 
L 545.581731 418.740739 
L 547.191203 419.157448 
L 550.413927 419.991843 
L 552.027182 420.409531 
L 553.6417 420.827546 
L 556.874534 421.66456 
L 558.492853 422.083559 
L 560.112442 422.502886 
L 561.733302 422.922543 
L 564.978842 423.762846 
L 566.603524 424.183493 
" style="fill:none;stroke:#ff0000;stroke-linecap:square;"/>
   </g>
   <g id="line2d_15">
    <path clip-path="url(#p59e67ee280)" d="M 401.36513 356.127411 
L 403.704574 356.728431 
L 406.046647 357.309707 
L 408.391547 357.901902 
L 410.738885 358.433297 
L 413.089139 358.985894 
L 415.441378 359.365035 
L 417.797345 359.928704 
L 420.154749 360.154932 
L 422.515797 360.545688 
L 424.879185 360.76274 
L 427.245841 361.050778 
L 429.614225 360.871889 
L 431.987488 361.338198 
L 434.362489 361.24495 
L 436.741203 361.398873 
L 439.122475 361.157059 
L 441.507047 360.832346 
L 443.895007 360.424544 
L 446.286538 360.148436 
L 448.681477 359.623688 
L 451.080084 358.833117 
L 453.482632 357.776006 
L 455.888754 357.165247 
L 458.297869 357.118231 
L 460.713368 355.109644 
L 463.132499 353.629896 
L 465.553508 353.230504 
L 467.982806 350.996132 
L 470.416446 348.924339 
L 472.851021 348.018906 
L 475.292535 346.275273 
L 477.744477 343.02004 
L 480.187724 343.113801 
L 482.64582 340.689023 
L 485.107284 338.595665 
L 487.570896 337.003369 
L 490.037091 335.745288 
L 492.494499 336.677741 
L 494.964205 336.092701 
L 497.423164 337.701863 
L 499.898543 337.28583 
L 502.365265 338.559528 
L 504.829349 340.510686 
L 507.28875 343.308623 
L 509.756695 345.263195 
L 512.217913 348.233624 
L 514.683566 350.867728 
L 517.131836 355.530978 
L 519.580338 360.194669 
L 522.039258 363.846449 
L 524.492079 368.174319 
L 526.959507 371.18785 
L 529.419316 375.012316 
L 531.884757 378.416724 
L 534.356665 381.367687 
L 536.827124 384.556224 
L 539.31715 386.28055 
L 541.804693 388.377261 
L 544.303598 389.767657 
L 546.803382 391.28088 
L 549.310506 392.44301 
L 552.136249 393.611605 
L 553.709014 394.166162 
L 556.859486 395.173431 
L 560.016373 396.066734 
L 561.596356 396.529361 
L 564.761736 397.339418 
L 566.34564 397.781893 
L 569.518454 398.583165 
L 572.695775 399.406851 
L 574.286443 399.808571 
L 577.471825 400.591733 
L 579.065977 401.004979 
L 582.258339 401.811197 
L 585.455417 402.629275 
L 587.055901 403.033474 
L 590.260571 403.842808 
L 591.86476 404.247943 
L 595.076852 405.059151 
L 598.293906 405.871612 
L 599.904297 406.278313 
L 603.128816 407.09266 
L 604.742947 407.500306 
L 607.974957 408.316544 
L 611.211975 409.134047 
L 612.832366 409.543274 
L 616.076919 410.36268 
L 617.701084 410.77286 
L 620.953198 411.594175 
L 624.210367 412.416767 
L 625.840852 412.828543 
L 629.105626 413.653056 
L 630.739919 414.065794 
L 634.012325 414.892234 
L 637.289834 415.719963 
L 638.930506 416.134311 
L 642.215691 416.963979 
L 643.860208 417.379298 
L 647.153096 418.210912 
" style="fill:none;stroke:#ff0000;stroke-linecap:square;"/>
   </g>
   <g id="legend_1">
    <g id="patch_6">
     <path d="M 676.42 90.76 
L 680.42 90.76 
Q 682.42 90.76 682.42 88.76 
L 682.42 84.76 
Q 682.42 82.76 680.42 82.76 
L 676.42 82.76 
Q 674.42 82.76 674.42 84.76 
L 674.42 88.76 
Q 674.42 90.76 676.42 90.76 
z
" style="fill:#ffffff;opacity:0.8;stroke:#cccccc;stroke-linejoin:miter;"/>
    </g>
   </g>
  </g>
 </g>
 <defs>
  <clipPath id="p59e67ee280">
   <rect height="489.24" width="489.24" x="198.18" y="77.76"/>
  </clipPath>
 </defs>
</svg>
