<?xml version="1.0" encoding="utf-8" standalone="no"?>
<!DOCTYPE svg PUBLIC "-//W3C//DTD SVG 1.1//EN"
  "http://www.w3.org/Graphics/SVG/1.1/DTD/svg11.dtd">
<svg height="566.929134pt" version="1.1" viewBox="0 0 566.929134 566.929134" width="566.929134pt" xmlns="http://www.w3.org/2000/svg" xmlns:xlink="http://www.w3.org/1999/xlink">
 <metadata>
  <rdf:RDF xmlns:cc="http://creativecommons.org/ns#" xmlns:dc="http://purl.org/dc/elements/1.1/" xmlns:rdf="http://www.w3.org/1999/02/22-rdf-syntax-ns#">
   <cc:Work>
    <dc:type rdf:resource="http://purl.org/dc/dcmitype/StillImage"/>
    <dc:date>2023-12-14T10:12:44.890911</dc:date>
    <dc:format>image/svg+xml</dc:format>
    <dc:creator>
     <cc:Agent>
      <dc:title>Matplotlib v3.4.3, https://matplotlib.org/</dc:title>
     </cc:Agent>
    </dc:creator>
   </cc:Work>
  </rdf:RDF>
 </metadata>
 <defs>
  <style type="text/css">*{stroke-linecap:butt;stroke-linejoin:round;}</style>
 </defs>
 <g id="figure_1">
  <g id="patch_1">
   <path d="M 0 566.929134 
L 566.929134 566.929134 
L 566.929134 0 
L 0 0 
z
" style="fill:none;"/>
  </g>
  <g id="patch_2">
   <path d="M 76.535433 496.062992 
L 504.566929 496.062992 
L 504.566929 68.031496 
L 76.535433 68.031496 
z
" style="fill:none;"/>
  </g>
  <g id="pane3d_1">
   <g id="patch_3">
    <path d="M 280.820082 304.323797 
L 103.92342 378.274813 
L 97.91446 182.940118 
L 280.374587 122.605154 
" style="fill:#f2f2f2;opacity:0.5;stroke:#f2f2f2;stroke-linejoin:miter;"/>
   </g>
  </g>
  <g id="pane3d_2">
   <g id="patch_4">
    <path d="M 280.820082 304.323797 
L 486.151811 365.53901 
L 491.997285 172.528232 
L 280.374587 122.605154 
" style="fill:#e6e6e6;opacity:0.5;stroke:#e6e6e6;stroke-linejoin:miter;"/>
   </g>
  </g>
  <g id="pane3d_3">
   <g id="patch_5">
    <path d="M 280.820082 304.323797 
L 486.151811 365.53901 
L 314.46186 450.770218 
L 103.92342 378.274813 
" style="fill:#ececec;opacity:0.5;stroke:#ececec;stroke-linejoin:miter;"/>
   </g>
  </g>
  <g id="axis3d_1">
   <g id="line2d_1">
    <path d="M 103.92342 378.274813 
L 314.46186 450.770218 
" style="fill:none;stroke:#000000;stroke-linecap:square;stroke-width:0.8;"/>
   </g>
   <g id="text_1">
    <!-- DEPTH in Diamond (nm) -->
    <g transform="translate(38.489326 402.097442)rotate(-340.999706)scale(0.25 -0.25)">
     <defs>
      <path d="M 1259 4147 
L 1259 519 
L 2022 519 
Q 2988 519 3436 956 
Q 3884 1394 3884 2338 
Q 3884 3275 3436 3711 
Q 2988 4147 2022 4147 
L 1259 4147 
z
M 628 4666 
L 1925 4666 
Q 3281 4666 3915 4102 
Q 4550 3538 4550 2338 
Q 4550 1131 3912 565 
Q 3275 0 1925 0 
L 628 0 
L 628 4666 
z
" id="DejaVuSans-44" transform="scale(0.015625)"/>
      <path d="M 628 4666 
L 3578 4666 
L 3578 4134 
L 1259 4134 
L 1259 2753 
L 3481 2753 
L 3481 2222 
L 1259 2222 
L 1259 531 
L 3634 531 
L 3634 0 
L 628 0 
L 628 4666 
z
" id="DejaVuSans-45" transform="scale(0.015625)"/>
      <path d="M 1259 4147 
L 1259 2394 
L 2053 2394 
Q 2494 2394 2734 2622 
Q 2975 2850 2975 3272 
Q 2975 3691 2734 3919 
Q 2494 4147 2053 4147 
L 1259 4147 
z
M 628 4666 
L 2053 4666 
Q 2838 4666 3239 4311 
Q 3641 3956 3641 3272 
Q 3641 2581 3239 2228 
Q 2838 1875 2053 1875 
L 1259 1875 
L 1259 0 
L 628 0 
L 628 4666 
z
" id="DejaVuSans-50" transform="scale(0.015625)"/>
      <path d="M -19 4666 
L 3928 4666 
L 3928 4134 
L 2272 4134 
L 2272 0 
L 1638 0 
L 1638 4134 
L -19 4134 
L -19 4666 
z
" id="DejaVuSans-54" transform="scale(0.015625)"/>
      <path d="M 628 4666 
L 1259 4666 
L 1259 2753 
L 3553 2753 
L 3553 4666 
L 4184 4666 
L 4184 0 
L 3553 0 
L 3553 2222 
L 1259 2222 
L 1259 0 
L 628 0 
L 628 4666 
z
" id="DejaVuSans-48" transform="scale(0.015625)"/>
      <path id="DejaVuSans-20" transform="scale(0.015625)"/>
      <path d="M 603 3500 
L 1178 3500 
L 1178 0 
L 603 0 
L 603 3500 
z
M 603 4863 
L 1178 4863 
L 1178 4134 
L 603 4134 
L 603 4863 
z
" id="DejaVuSans-69" transform="scale(0.015625)"/>
      <path d="M 3513 2113 
L 3513 0 
L 2938 0 
L 2938 2094 
Q 2938 2591 2744 2837 
Q 2550 3084 2163 3084 
Q 1697 3084 1428 2787 
Q 1159 2491 1159 1978 
L 1159 0 
L 581 0 
L 581 3500 
L 1159 3500 
L 1159 2956 
Q 1366 3272 1645 3428 
Q 1925 3584 2291 3584 
Q 2894 3584 3203 3211 
Q 3513 2838 3513 2113 
z
" id="DejaVuSans-6e" transform="scale(0.015625)"/>
      <path d="M 2194 1759 
Q 1497 1759 1228 1600 
Q 959 1441 959 1056 
Q 959 750 1161 570 
Q 1363 391 1709 391 
Q 2188 391 2477 730 
Q 2766 1069 2766 1631 
L 2766 1759 
L 2194 1759 
z
M 3341 1997 
L 3341 0 
L 2766 0 
L 2766 531 
Q 2569 213 2275 61 
Q 1981 -91 1556 -91 
Q 1019 -91 701 211 
Q 384 513 384 1019 
Q 384 1609 779 1909 
Q 1175 2209 1959 2209 
L 2766 2209 
L 2766 2266 
Q 2766 2663 2505 2880 
Q 2244 3097 1772 3097 
Q 1472 3097 1187 3025 
Q 903 2953 641 2809 
L 641 3341 
Q 956 3463 1253 3523 
Q 1550 3584 1831 3584 
Q 2591 3584 2966 3190 
Q 3341 2797 3341 1997 
z
" id="DejaVuSans-61" transform="scale(0.015625)"/>
      <path d="M 3328 2828 
Q 3544 3216 3844 3400 
Q 4144 3584 4550 3584 
Q 5097 3584 5394 3201 
Q 5691 2819 5691 2113 
L 5691 0 
L 5113 0 
L 5113 2094 
Q 5113 2597 4934 2840 
Q 4756 3084 4391 3084 
Q 3944 3084 3684 2787 
Q 3425 2491 3425 1978 
L 3425 0 
L 2847 0 
L 2847 2094 
Q 2847 2600 2669 2842 
Q 2491 3084 2119 3084 
Q 1678 3084 1418 2786 
Q 1159 2488 1159 1978 
L 1159 0 
L 581 0 
L 581 3500 
L 1159 3500 
L 1159 2956 
Q 1356 3278 1631 3431 
Q 1906 3584 2284 3584 
Q 2666 3584 2933 3390 
Q 3200 3197 3328 2828 
z
" id="DejaVuSans-6d" transform="scale(0.015625)"/>
      <path d="M 1959 3097 
Q 1497 3097 1228 2736 
Q 959 2375 959 1747 
Q 959 1119 1226 758 
Q 1494 397 1959 397 
Q 2419 397 2687 759 
Q 2956 1122 2956 1747 
Q 2956 2369 2687 2733 
Q 2419 3097 1959 3097 
z
M 1959 3584 
Q 2709 3584 3137 3096 
Q 3566 2609 3566 1747 
Q 3566 888 3137 398 
Q 2709 -91 1959 -91 
Q 1206 -91 779 398 
Q 353 888 353 1747 
Q 353 2609 779 3096 
Q 1206 3584 1959 3584 
z
" id="DejaVuSans-6f" transform="scale(0.015625)"/>
      <path d="M 2906 2969 
L 2906 4863 
L 3481 4863 
L 3481 0 
L 2906 0 
L 2906 525 
Q 2725 213 2448 61 
Q 2172 -91 1784 -91 
Q 1150 -91 751 415 
Q 353 922 353 1747 
Q 353 2572 751 3078 
Q 1150 3584 1784 3584 
Q 2172 3584 2448 3432 
Q 2725 3281 2906 2969 
z
M 947 1747 
Q 947 1113 1208 752 
Q 1469 391 1925 391 
Q 2381 391 2643 752 
Q 2906 1113 2906 1747 
Q 2906 2381 2643 2742 
Q 2381 3103 1925 3103 
Q 1469 3103 1208 2742 
Q 947 2381 947 1747 
z
" id="DejaVuSans-64" transform="scale(0.015625)"/>
      <path d="M 1984 4856 
Q 1566 4138 1362 3434 
Q 1159 2731 1159 2009 
Q 1159 1288 1364 580 
Q 1569 -128 1984 -844 
L 1484 -844 
Q 1016 -109 783 600 
Q 550 1309 550 2009 
Q 550 2706 781 3412 
Q 1013 4119 1484 4856 
L 1984 4856 
z
" id="DejaVuSans-28" transform="scale(0.015625)"/>
      <path d="M 513 4856 
L 1013 4856 
Q 1481 4119 1714 3412 
Q 1947 2706 1947 2009 
Q 1947 1309 1714 600 
Q 1481 -109 1013 -844 
L 513 -844 
Q 928 -128 1133 580 
Q 1338 1288 1338 2009 
Q 1338 2731 1133 3434 
Q 928 4138 513 4856 
z
" id="DejaVuSans-29" transform="scale(0.015625)"/>
     </defs>
     <use xlink:href="#DejaVuSans-44"/>
     <use x="77.001953" xlink:href="#DejaVuSans-45"/>
     <use x="140.185547" xlink:href="#DejaVuSans-50"/>
     <use x="200.488281" xlink:href="#DejaVuSans-54"/>
     <use x="261.572266" xlink:href="#DejaVuSans-48"/>
     <use x="336.767578" xlink:href="#DejaVuSans-20"/>
     <use x="368.554688" xlink:href="#DejaVuSans-69"/>
     <use x="396.337891" xlink:href="#DejaVuSans-6e"/>
     <use x="459.716797" xlink:href="#DejaVuSans-20"/>
     <use x="491.503906" xlink:href="#DejaVuSans-44"/>
     <use x="568.505859" xlink:href="#DejaVuSans-69"/>
     <use x="596.289062" xlink:href="#DejaVuSans-61"/>
     <use x="657.568359" xlink:href="#DejaVuSans-6d"/>
     <use x="754.980469" xlink:href="#DejaVuSans-6f"/>
     <use x="816.162109" xlink:href="#DejaVuSans-6e"/>
     <use x="879.541016" xlink:href="#DejaVuSans-64"/>
     <use x="943.017578" xlink:href="#DejaVuSans-20"/>
     <use x="974.804688" xlink:href="#DejaVuSans-28"/>
     <use x="1013.818359" xlink:href="#DejaVuSans-6e"/>
     <use x="1077.197266" xlink:href="#DejaVuSans-6d"/>
     <use x="1174.609375" xlink:href="#DejaVuSans-29"/>
    </g>
   </g>
   <g id="Line3DCollection_1">
    <path d="M 107.839503 379.62325 
L 284.661859 305.46914 
L 284.32622 123.537368 
" style="fill:none;stroke:#b0b0b0;stroke-width:0.8;"/>
    <path d="M 172.053734 401.734351 
L 347.535289 324.213493 
L 349.039996 138.803741 
" style="fill:none;stroke:#b0b0b0;stroke-width:0.8;"/>
    <path d="M 239.343354 424.904412 
L 413.17334 343.782058 
L 416.684837 154.761569 
" style="fill:none;stroke:#b0b0b0;stroke-width:0.8;"/>
    <path d="M 309.934716 449.211371 
L 481.762457 364.230419 
L 487.46449 171.458918 
" style="fill:none;stroke:#b0b0b0;stroke-width:0.8;"/>
   </g>
   <g id="xtick_1">
    <g id="line2d_2">
     <path d="M 109.373426 378.979968 
L 104.765381 380.912447 
" style="fill:none;stroke:#000000;stroke-linecap:square;stroke-width:0.8;"/>
    </g>
    <g id="text_2">
     <!-- 0 -->
     <g transform="translate(90.256393 412.592651)scale(0.25 -0.25)">
      <defs>
       <path d="M 2034 4250 
Q 1547 4250 1301 3770 
Q 1056 3291 1056 2328 
Q 1056 1369 1301 889 
Q 1547 409 2034 409 
Q 2525 409 2770 889 
Q 3016 1369 3016 2328 
Q 3016 3291 2770 3770 
Q 2525 4250 2034 4250 
z
M 2034 4750 
Q 2819 4750 3233 4129 
Q 3647 3509 3647 2328 
Q 3647 1150 3233 529 
Q 2819 -91 2034 -91 
Q 1250 -91 836 529 
Q 422 1150 422 2328 
Q 422 3509 836 4129 
Q 1250 4750 2034 4750 
z
" id="DejaVuSans-30" transform="scale(0.015625)"/>
      </defs>
      <use xlink:href="#DejaVuSans-30"/>
     </g>
    </g>
   </g>
   <g id="xtick_2">
    <g id="line2d_3">
     <path d="M 173.578793 401.06064 
L 168.99723 403.084595 
" style="fill:none;stroke:#000000;stroke-linecap:square;stroke-width:0.8;"/>
    </g>
    <g id="text_3">
     <!-- 10 -->
     <g transform="translate(146.477872 435.095611)scale(0.25 -0.25)">
      <defs>
       <path d="M 794 531 
L 1825 531 
L 1825 4091 
L 703 3866 
L 703 4441 
L 1819 4666 
L 2450 4666 
L 2450 531 
L 3481 531 
L 3481 0 
L 794 0 
L 794 531 
z
" id="DejaVuSans-31" transform="scale(0.015625)"/>
      </defs>
      <use xlink:href="#DejaVuSans-31"/>
      <use x="63.623047" xlink:href="#DejaVuSans-30"/>
     </g>
    </g>
   </g>
   <g id="xtick_3">
    <g id="line2d_4">
     <path d="M 240.856933 424.19806 
L 236.309706 426.320143 
" style="fill:none;stroke:#000000;stroke-linecap:square;stroke-width:0.8;"/>
    </g>
    <g id="text_4">
     <!-- 20 -->
     <g transform="translate(213.735095 458.679498)scale(0.25 -0.25)">
      <defs>
       <path d="M 1228 531 
L 3431 531 
L 3431 0 
L 469 0 
L 469 531 
Q 828 903 1448 1529 
Q 2069 2156 2228 2338 
Q 2531 2678 2651 2914 
Q 2772 3150 2772 3378 
Q 2772 3750 2511 3984 
Q 2250 4219 1831 4219 
Q 1534 4219 1204 4116 
Q 875 4013 500 3803 
L 500 4441 
Q 881 4594 1212 4672 
Q 1544 4750 1819 4750 
Q 2544 4750 2975 4387 
Q 3406 4025 3406 3419 
Q 3406 3131 3298 2873 
Q 3191 2616 2906 2266 
Q 2828 2175 2409 1742 
Q 1991 1309 1228 531 
z
" id="DejaVuSans-32" transform="scale(0.015625)"/>
      </defs>
      <use xlink:href="#DejaVuSans-32"/>
      <use x="63.623047" xlink:href="#DejaVuSans-30"/>
     </g>
    </g>
   </g>
   <g id="xtick_4">
    <g id="line2d_5">
     <path d="M 311.433841 448.469948 
L 306.929882 450.697474 
" style="fill:none;stroke:#000000;stroke-linecap:square;stroke-width:0.8;"/>
    </g>
    <g id="text_5">
     <!-- 30 -->
     <g transform="translate(284.302512 483.424111)scale(0.25 -0.25)">
      <defs>
       <path d="M 2597 2516 
Q 3050 2419 3304 2112 
Q 3559 1806 3559 1356 
Q 3559 666 3084 287 
Q 2609 -91 1734 -91 
Q 1441 -91 1130 -33 
Q 819 25 488 141 
L 488 750 
Q 750 597 1062 519 
Q 1375 441 1716 441 
Q 2309 441 2620 675 
Q 2931 909 2931 1356 
Q 2931 1769 2642 2001 
Q 2353 2234 1838 2234 
L 1294 2234 
L 1294 2753 
L 1863 2753 
Q 2328 2753 2575 2939 
Q 2822 3125 2822 3475 
Q 2822 3834 2567 4026 
Q 2313 4219 1838 4219 
Q 1578 4219 1281 4162 
Q 984 4106 628 3988 
L 628 4550 
Q 988 4650 1302 4700 
Q 1616 4750 1894 4750 
Q 2613 4750 3031 4423 
Q 3450 4097 3450 3541 
Q 3450 3153 3228 2886 
Q 3006 2619 2597 2516 
z
" id="DejaVuSans-33" transform="scale(0.015625)"/>
      </defs>
      <use xlink:href="#DejaVuSans-33"/>
      <use x="63.623047" xlink:href="#DejaVuSans-30"/>
     </g>
    </g>
   </g>
  </g>
  <g id="axis3d_2">
   <g id="line2d_6">
    <path d="M 486.151811 365.53901 
L 314.46186 450.770218 
" style="fill:none;stroke:#000000;stroke-linecap:square;stroke-width:0.8;"/>
   </g>
   <g id="text_6">
    <!-- Sn Thickness (nm) -->
    <g transform="translate(328.526733 493.716216)rotate(-26.400958)scale(0.25 -0.25)">
     <defs>
      <path d="M 3425 4513 
L 3425 3897 
Q 3066 4069 2747 4153 
Q 2428 4238 2131 4238 
Q 1616 4238 1336 4038 
Q 1056 3838 1056 3469 
Q 1056 3159 1242 3001 
Q 1428 2844 1947 2747 
L 2328 2669 
Q 3034 2534 3370 2195 
Q 3706 1856 3706 1288 
Q 3706 609 3251 259 
Q 2797 -91 1919 -91 
Q 1588 -91 1214 -16 
Q 841 59 441 206 
L 441 856 
Q 825 641 1194 531 
Q 1563 422 1919 422 
Q 2459 422 2753 634 
Q 3047 847 3047 1241 
Q 3047 1584 2836 1778 
Q 2625 1972 2144 2069 
L 1759 2144 
Q 1053 2284 737 2584 
Q 422 2884 422 3419 
Q 422 4038 858 4394 
Q 1294 4750 2059 4750 
Q 2388 4750 2728 4690 
Q 3069 4631 3425 4513 
z
" id="DejaVuSans-53" transform="scale(0.015625)"/>
      <path d="M 3513 2113 
L 3513 0 
L 2938 0 
L 2938 2094 
Q 2938 2591 2744 2837 
Q 2550 3084 2163 3084 
Q 1697 3084 1428 2787 
Q 1159 2491 1159 1978 
L 1159 0 
L 581 0 
L 581 4863 
L 1159 4863 
L 1159 2956 
Q 1366 3272 1645 3428 
Q 1925 3584 2291 3584 
Q 2894 3584 3203 3211 
Q 3513 2838 3513 2113 
z
" id="DejaVuSans-68" transform="scale(0.015625)"/>
      <path d="M 3122 3366 
L 3122 2828 
Q 2878 2963 2633 3030 
Q 2388 3097 2138 3097 
Q 1578 3097 1268 2742 
Q 959 2388 959 1747 
Q 959 1106 1268 751 
Q 1578 397 2138 397 
Q 2388 397 2633 464 
Q 2878 531 3122 666 
L 3122 134 
Q 2881 22 2623 -34 
Q 2366 -91 2075 -91 
Q 1284 -91 818 406 
Q 353 903 353 1747 
Q 353 2603 823 3093 
Q 1294 3584 2113 3584 
Q 2378 3584 2631 3529 
Q 2884 3475 3122 3366 
z
" id="DejaVuSans-63" transform="scale(0.015625)"/>
      <path d="M 581 4863 
L 1159 4863 
L 1159 1991 
L 2875 3500 
L 3609 3500 
L 1753 1863 
L 3688 0 
L 2938 0 
L 1159 1709 
L 1159 0 
L 581 0 
L 581 4863 
z
" id="DejaVuSans-6b" transform="scale(0.015625)"/>
      <path d="M 3597 1894 
L 3597 1613 
L 953 1613 
Q 991 1019 1311 708 
Q 1631 397 2203 397 
Q 2534 397 2845 478 
Q 3156 559 3463 722 
L 3463 178 
Q 3153 47 2828 -22 
Q 2503 -91 2169 -91 
Q 1331 -91 842 396 
Q 353 884 353 1716 
Q 353 2575 817 3079 
Q 1281 3584 2069 3584 
Q 2775 3584 3186 3129 
Q 3597 2675 3597 1894 
z
M 3022 2063 
Q 3016 2534 2758 2815 
Q 2500 3097 2075 3097 
Q 1594 3097 1305 2825 
Q 1016 2553 972 2059 
L 3022 2063 
z
" id="DejaVuSans-65" transform="scale(0.015625)"/>
      <path d="M 2834 3397 
L 2834 2853 
Q 2591 2978 2328 3040 
Q 2066 3103 1784 3103 
Q 1356 3103 1142 2972 
Q 928 2841 928 2578 
Q 928 2378 1081 2264 
Q 1234 2150 1697 2047 
L 1894 2003 
Q 2506 1872 2764 1633 
Q 3022 1394 3022 966 
Q 3022 478 2636 193 
Q 2250 -91 1575 -91 
Q 1294 -91 989 -36 
Q 684 19 347 128 
L 347 722 
Q 666 556 975 473 
Q 1284 391 1588 391 
Q 1994 391 2212 530 
Q 2431 669 2431 922 
Q 2431 1156 2273 1281 
Q 2116 1406 1581 1522 
L 1381 1569 
Q 847 1681 609 1914 
Q 372 2147 372 2553 
Q 372 3047 722 3315 
Q 1072 3584 1716 3584 
Q 2034 3584 2315 3537 
Q 2597 3491 2834 3397 
z
" id="DejaVuSans-73" transform="scale(0.015625)"/>
     </defs>
     <use xlink:href="#DejaVuSans-53"/>
     <use x="63.476562" xlink:href="#DejaVuSans-6e"/>
     <use x="126.855469" xlink:href="#DejaVuSans-20"/>
     <use x="158.642578" xlink:href="#DejaVuSans-54"/>
     <use x="219.726562" xlink:href="#DejaVuSans-68"/>
     <use x="283.105469" xlink:href="#DejaVuSans-69"/>
     <use x="310.888672" xlink:href="#DejaVuSans-63"/>
     <use x="365.869141" xlink:href="#DejaVuSans-6b"/>
     <use x="423.779297" xlink:href="#DejaVuSans-6e"/>
     <use x="487.158203" xlink:href="#DejaVuSans-65"/>
     <use x="548.681641" xlink:href="#DejaVuSans-73"/>
     <use x="600.78125" xlink:href="#DejaVuSans-73"/>
     <use x="652.880859" xlink:href="#DejaVuSans-20"/>
     <use x="684.667969" xlink:href="#DejaVuSans-28"/>
     <use x="723.681641" xlink:href="#DejaVuSans-6e"/>
     <use x="787.060547" xlink:href="#DejaVuSans-6d"/>
     <use x="884.472656" xlink:href="#DejaVuSans-29"/>
    </g>
   </g>
   <g id="Line3DCollection_2">
    <path d="M 277.014009 123.716412 
L 277.55415 305.689108 
L 483.000611 367.103345 
" style="fill:none;stroke:#b0b0b0;stroke-width:0.8;"/>
    <path d="M 229.806682 139.326685 
L 231.707434 324.855164 
L 438.690927 389.099786 
" style="fill:none;stroke:#b0b0b0;stroke-width:0.8;"/>
    <path d="M 180.412505 155.660094 
L 183.79894 344.883138 
L 392.241392 412.158503 
" style="fill:none;stroke:#b0b0b0;stroke-width:0.8;"/>
    <path d="M 128.67592 172.768078 
L 133.686389 365.83251 
L 343.493159 436.358352 
" style="fill:none;stroke:#b0b0b0;stroke-width:0.8;"/>
   </g>
   <g id="xtick_5">
    <g id="line2d_7">
     <path d="M 481.242213 366.577706 
L 486.523359 368.156402 
" style="fill:none;stroke:#000000;stroke-linecap:square;stroke-width:0.8;"/>
    </g>
    <g id="text_7">
     <!-- 0 -->
     <g transform="translate(486.127254 399.190925)scale(0.25 -0.25)">
      <use xlink:href="#DejaVuSans-30"/>
     </g>
    </g>
   </g>
   <g id="xtick_6">
    <g id="line2d_8">
     <path d="M 436.916649 388.549076 
L 442.245634 390.203114 
" style="fill:none;stroke:#000000;stroke-linecap:square;stroke-width:0.8;"/>
    </g>
    <g id="text_8">
     <!-- 10 -->
     <g transform="translate(434.031183 421.543876)scale(0.25 -0.25)">
      <use xlink:href="#DejaVuSans-31"/>
      <use x="63.623047" xlink:href="#DejaVuSans-30"/>
     </g>
    </g>
   </g>
   <g id="xtick_7">
    <g id="line2d_9">
     <path d="M 390.451729 411.580885 
L 395.82707 413.31579 
" style="fill:none;stroke:#000000;stroke-linecap:square;stroke-width:0.8;"/>
    </g>
    <g id="text_9">
     <!-- 20 -->
     <g transform="translate(387.751754 444.978692)scale(0.25 -0.25)">
      <use xlink:href="#DejaVuSans-32"/>
      <use x="63.623047" xlink:href="#DejaVuSans-30"/>
     </g>
    </g>
   </g>
   <g id="xtick_8">
    <g id="line2d_10">
     <path d="M 341.688743 435.751803 
L 347.108555 437.573655 
" style="fill:none;stroke:#000000;stroke-linecap:square;stroke-width:0.8;"/>
    </g>
    <g id="text_10">
     <!-- 30 -->
     <g transform="translate(339.176888 469.575863)scale(0.25 -0.25)">
      <use xlink:href="#DejaVuSans-33"/>
      <use x="63.623047" xlink:href="#DejaVuSans-30"/>
     </g>
    </g>
   </g>
  </g>
  <g id="axis3d_3">
   <g id="line2d_11">
    <path d="M 486.151811 365.53901 
L 491.997285 172.528232 
" style="fill:none;stroke:#000000;stroke-linecap:square;stroke-width:0.8;"/>
   </g>
   <g id="text_11">
    <!-- Density per Dose ($cm^{-3}$/$cm^{-2}$) -->
    <g transform="translate(534.835517 460.891778)rotate(-88.265285)scale(0.25 -0.25)">
     <defs>
      <path d="M 1172 4494 
L 1172 3500 
L 2356 3500 
L 2356 3053 
L 1172 3053 
L 1172 1153 
Q 1172 725 1289 603 
Q 1406 481 1766 481 
L 2356 481 
L 2356 0 
L 1766 0 
Q 1100 0 847 248 
Q 594 497 594 1153 
L 594 3053 
L 172 3053 
L 172 3500 
L 594 3500 
L 594 4494 
L 1172 4494 
z
" id="DejaVuSans-74" transform="scale(0.015625)"/>
      <path d="M 2059 -325 
Q 1816 -950 1584 -1140 
Q 1353 -1331 966 -1331 
L 506 -1331 
L 506 -850 
L 844 -850 
Q 1081 -850 1212 -737 
Q 1344 -625 1503 -206 
L 1606 56 
L 191 3500 
L 800 3500 
L 1894 763 
L 2988 3500 
L 3597 3500 
L 2059 -325 
z
" id="DejaVuSans-79" transform="scale(0.015625)"/>
      <path d="M 1159 525 
L 1159 -1331 
L 581 -1331 
L 581 3500 
L 1159 3500 
L 1159 2969 
Q 1341 3281 1617 3432 
Q 1894 3584 2278 3584 
Q 2916 3584 3314 3078 
Q 3713 2572 3713 1747 
Q 3713 922 3314 415 
Q 2916 -91 2278 -91 
Q 1894 -91 1617 61 
Q 1341 213 1159 525 
z
M 3116 1747 
Q 3116 2381 2855 2742 
Q 2594 3103 2138 3103 
Q 1681 3103 1420 2742 
Q 1159 2381 1159 1747 
Q 1159 1113 1420 752 
Q 1681 391 2138 391 
Q 2594 391 2855 752 
Q 3116 1113 3116 1747 
z
" id="DejaVuSans-70" transform="scale(0.015625)"/>
      <path d="M 2631 2963 
Q 2534 3019 2420 3045 
Q 2306 3072 2169 3072 
Q 1681 3072 1420 2755 
Q 1159 2438 1159 1844 
L 1159 0 
L 581 0 
L 581 3500 
L 1159 3500 
L 1159 2956 
Q 1341 3275 1631 3429 
Q 1922 3584 2338 3584 
Q 2397 3584 2469 3576 
Q 2541 3569 2628 3553 
L 2631 2963 
z
" id="DejaVuSans-72" transform="scale(0.015625)"/>
      <path d="M 3431 3366 
L 3316 2797 
Q 3109 2947 2876 3022 
Q 2644 3097 2394 3097 
Q 2119 3097 1870 3000 
Q 1622 2903 1453 2725 
Q 1184 2453 1037 2087 
Q 891 1722 891 1331 
Q 891 859 1127 628 
Q 1363 397 1844 397 
Q 2081 397 2348 469 
Q 2616 541 2906 684 
L 2797 116 
Q 2547 13 2283 -39 
Q 2019 -91 1741 -91 
Q 1044 -91 669 257 
Q 294 606 294 1253 
Q 294 1797 489 2255 
Q 684 2713 1069 3078 
Q 1331 3328 1684 3456 
Q 2038 3584 2456 3584 
Q 2700 3584 2940 3529 
Q 3181 3475 3431 3366 
z
" id="DejaVuSans-Oblique-63" transform="scale(0.015625)"/>
      <path d="M 5747 2113 
L 5338 0 
L 4763 0 
L 5166 2094 
Q 5191 2228 5203 2325 
Q 5216 2422 5216 2491 
Q 5216 2772 5059 2928 
Q 4903 3084 4622 3084 
Q 4203 3084 3875 2770 
Q 3547 2456 3450 1953 
L 3066 0 
L 2491 0 
L 2900 2094 
Q 2925 2209 2937 2307 
Q 2950 2406 2950 2484 
Q 2950 2769 2794 2926 
Q 2638 3084 2363 3084 
Q 1938 3084 1609 2770 
Q 1281 2456 1184 1953 
L 800 0 
L 225 0 
L 909 3500 
L 1484 3500 
L 1375 2956 
Q 1609 3263 1923 3423 
Q 2238 3584 2597 3584 
Q 2978 3584 3223 3384 
Q 3469 3184 3519 2828 
Q 3781 3197 4126 3390 
Q 4472 3584 4856 3584 
Q 5306 3584 5551 3325 
Q 5797 3066 5797 2591 
Q 5797 2488 5784 2364 
Q 5772 2241 5747 2113 
z
" id="DejaVuSans-Oblique-6d" transform="scale(0.015625)"/>
      <path d="M 678 2272 
L 4684 2272 
L 4684 1741 
L 678 1741 
L 678 2272 
z
" id="DejaVuSans-2212" transform="scale(0.015625)"/>
      <path d="M 1625 4666 
L 2156 4666 
L 531 -594 
L 0 -594 
L 1625 4666 
z
" id="DejaVuSans-2f" transform="scale(0.015625)"/>
     </defs>
     <use transform="translate(0 0.765625)" xlink:href="#DejaVuSans-44"/>
     <use transform="translate(77.001953 0.765625)" xlink:href="#DejaVuSans-65"/>
     <use transform="translate(138.525391 0.765625)" xlink:href="#DejaVuSans-6e"/>
     <use transform="translate(201.904297 0.765625)" xlink:href="#DejaVuSans-73"/>
     <use transform="translate(254.003906 0.765625)" xlink:href="#DejaVuSans-69"/>
     <use transform="translate(281.787109 0.765625)" xlink:href="#DejaVuSans-74"/>
     <use transform="translate(320.996094 0.765625)" xlink:href="#DejaVuSans-79"/>
     <use transform="translate(380.175781 0.765625)" xlink:href="#DejaVuSans-20"/>
     <use transform="translate(411.962891 0.765625)" xlink:href="#DejaVuSans-70"/>
     <use transform="translate(475.439453 0.765625)" xlink:href="#DejaVuSans-65"/>
     <use transform="translate(536.962891 0.765625)" xlink:href="#DejaVuSans-72"/>
     <use transform="translate(578.076172 0.765625)" xlink:href="#DejaVuSans-20"/>
     <use transform="translate(609.863281 0.765625)" xlink:href="#DejaVuSans-44"/>
     <use transform="translate(686.865234 0.765625)" xlink:href="#DejaVuSans-6f"/>
     <use transform="translate(748.046875 0.765625)" xlink:href="#DejaVuSans-73"/>
     <use transform="translate(800.146484 0.765625)" xlink:href="#DejaVuSans-65"/>
     <use transform="translate(861.669922 0.765625)" xlink:href="#DejaVuSans-20"/>
     <use transform="translate(893.457031 0.765625)" xlink:href="#DejaVuSans-28"/>
     <use transform="translate(932.470703 0.765625)" xlink:href="#DejaVuSans-Oblique-63"/>
     <use transform="translate(987.451172 0.765625)" xlink:href="#DejaVuSans-Oblique-6d"/>
     <use transform="translate(1089.513177 39.046875)scale(0.7)" xlink:href="#DejaVuSans-2212"/>
     <use transform="translate(1148.165521 39.046875)scale(0.7)" xlink:href="#DejaVuSans-33"/>
     <use transform="translate(1195.436029 0.765625)" xlink:href="#DejaVuSans-2f"/>
     <use transform="translate(1229.127435 0.765625)" xlink:href="#DejaVuSans-Oblique-63"/>
     <use transform="translate(1284.107904 0.765625)" xlink:href="#DejaVuSans-Oblique-6d"/>
     <use transform="translate(1386.169909 39.046875)scale(0.7)" xlink:href="#DejaVuSans-2212"/>
     <use transform="translate(1444.822253 39.046875)scale(0.7)" xlink:href="#DejaVuSans-32"/>
     <use transform="translate(1492.09276 0.765625)" xlink:href="#DejaVuSans-29"/>
    </g>
   </g>
   <g id="text_12">
    <!-- 1e6 -->
    <g transform="translate(540.974476 218.76117)rotate(-88.265285)scale(0.25 -0.25)">
     <defs>
      <path d="M 2113 2584 
Q 1688 2584 1439 2293 
Q 1191 2003 1191 1497 
Q 1191 994 1439 701 
Q 1688 409 2113 409 
Q 2538 409 2786 701 
Q 3034 994 3034 1497 
Q 3034 2003 2786 2293 
Q 2538 2584 2113 2584 
z
M 3366 4563 
L 3366 3988 
Q 3128 4100 2886 4159 
Q 2644 4219 2406 4219 
Q 1781 4219 1451 3797 
Q 1122 3375 1075 2522 
Q 1259 2794 1537 2939 
Q 1816 3084 2150 3084 
Q 2853 3084 3261 2657 
Q 3669 2231 3669 1497 
Q 3669 778 3244 343 
Q 2819 -91 2113 -91 
Q 1303 -91 875 529 
Q 447 1150 447 2328 
Q 447 3434 972 4092 
Q 1497 4750 2381 4750 
Q 2619 4750 2861 4703 
Q 3103 4656 3366 4563 
z
" id="DejaVuSans-36" transform="scale(0.015625)"/>
     </defs>
     <use xlink:href="#DejaVuSans-31"/>
     <use x="63.623047" xlink:href="#DejaVuSans-65"/>
     <use x="125.146484" xlink:href="#DejaVuSans-36"/>
    </g>
   </g>
   <g id="Line3DCollection_3">
    <path d="M 486.265296 361.791881 
L 280.811416 300.788893 
L 103.806809 374.484133 
" style="fill:none;stroke:#b0b0b0;stroke-width:0.8;"/>
    <path d="M 487.637771 316.474323 
L 280.706663 258.059956 
L 102.39638 328.634966 
" style="fill:none;stroke:#b0b0b0;stroke-width:0.8;"/>
    <path d="M 489.030227 270.497049 
L 280.600487 214.750448 
L 100.965133 282.109076 
" style="fill:none;stroke:#b0b0b0;stroke-width:0.8;"/>
    <path d="M 490.443102 223.845547 
L 280.492858 170.848455 
L 99.512604 234.89137 
" style="fill:none;stroke:#b0b0b0;stroke-width:0.8;"/>
    <path d="M 491.87685 176.504876 
L 280.383747 126.341736 
L 98.038315 186.966301 
" style="fill:none;stroke:#b0b0b0;stroke-width:0.8;"/>
   </g>
   <g id="xtick_9">
    <g id="line2d_12">
     <path d="M 484.506959 361.269799 
L 489.787917 362.837811 
" style="fill:none;stroke:#000000;stroke-linecap:square;stroke-width:0.8;"/>
    </g>
    <g id="text_13">
     <!-- 0.0 -->
     <g transform="translate(485.835668 380.142532)scale(0.25 -0.25)">
      <defs>
       <path d="M 684 794 
L 1344 794 
L 1344 0 
L 684 0 
L 684 794 
z
" id="DejaVuSans-2e" transform="scale(0.015625)"/>
      </defs>
      <use xlink:href="#DejaVuSans-30"/>
      <use x="63.623047" xlink:href="#DejaVuSans-2e"/>
      <use x="95.410156" xlink:href="#DejaVuSans-30"/>
     </g>
    </g>
   </g>
   <g id="xtick_10">
    <g id="line2d_13">
     <path d="M 485.865958 315.97416 
L 491.187435 317.476354 
" style="fill:none;stroke:#000000;stroke-linecap:square;stroke-width:0.8;"/>
    </g>
    <g id="text_14">
     <!-- 0.5 -->
     <g transform="translate(487.347628 334.852073)scale(0.25 -0.25)">
      <defs>
       <path d="M 691 4666 
L 3169 4666 
L 3169 4134 
L 1269 4134 
L 1269 2991 
Q 1406 3038 1543 3061 
Q 1681 3084 1819 3084 
Q 2600 3084 3056 2656 
Q 3513 2228 3513 1497 
Q 3513 744 3044 326 
Q 2575 -91 1722 -91 
Q 1428 -91 1123 -41 
Q 819 9 494 109 
L 494 744 
Q 775 591 1075 516 
Q 1375 441 1709 441 
Q 2250 441 2565 725 
Q 2881 1009 2881 1497 
Q 2881 1984 2565 2268 
Q 2250 2553 1709 2553 
Q 1456 2553 1204 2497 
Q 953 2441 691 2322 
L 691 4666 
z
" id="DejaVuSans-35" transform="scale(0.015625)"/>
      </defs>
      <use xlink:href="#DejaVuSans-30"/>
      <use x="63.623047" xlink:href="#DejaVuSans-2e"/>
      <use x="95.410156" xlink:href="#DejaVuSans-35"/>
     </g>
    </g>
   </g>
   <g id="xtick_11">
    <g id="line2d_14">
     <path d="M 487.244729 270.0195 
L 492.607351 271.453786 
" style="fill:none;stroke:#000000;stroke-linecap:square;stroke-width:0.8;"/>
    </g>
    <g id="text_15">
     <!-- 1.0 -->
     <g transform="translate(488.881584 288.902757)scale(0.25 -0.25)">
      <use xlink:href="#DejaVuSans-31"/>
      <use x="63.623047" xlink:href="#DejaVuSans-2e"/>
      <use x="95.410156" xlink:href="#DejaVuSans-30"/>
     </g>
    </g>
   </g>
   <g id="xtick_12">
    <g id="line2d_15">
     <path d="M 488.643708 223.391331 
L 494.048113 224.755548 
" style="fill:none;stroke:#000000;stroke-linecap:square;stroke-width:0.8;"/>
    </g>
    <g id="text_16">
     <!-- 1.5 -->
     <g transform="translate(490.438017 242.280101)scale(0.25 -0.25)">
      <use xlink:href="#DejaVuSans-31"/>
      <use x="63.623047" xlink:href="#DejaVuSans-2e"/>
      <use x="95.410156" xlink:href="#DejaVuSans-35"/>
     </g>
    </g>
   </g>
   <g id="xtick_13">
    <g id="line2d_16">
     <path d="M 490.063341 176.074737 
L 495.510183 177.36665 
" style="fill:none;stroke:#000000;stroke-linecap:square;stroke-width:0.8;"/>
    </g>
    <g id="text_17">
     <!-- 2.0 -->
     <g transform="translate(492.017427 194.969197)scale(0.25 -0.25)">
      <use xlink:href="#DejaVuSans-32"/>
      <use x="63.623047" xlink:href="#DejaVuSans-2e"/>
      <use x="95.410156" xlink:href="#DejaVuSans-30"/>
     </g>
    </g>
   </g>
  </g>
  <g id="axes_1">
   <g id="line2d_17">
    <path clip-path="url(#pb0c1bc28f4)" d="M 285.59716 -1 
L 286.425084 65.756351 
L 287.813764 141.695797 
L 289.14435 191.206881 
L 290.439106 221.590824 
L 291.719347 246.743909 
L 292.985419 261.477236 
L 294.245628 272.343237 
L 295.50232 279.808477 
L 296.757532 283.459379 
L 298.011925 289.356529 
L 299.266521 292.400247 
L 300.521017 295.616607 
L 301.776125 298.056423 
L 303.031029 300.927966 
L 304.289266 301.21249 
L 305.546103 303.222989 
L 306.802865 305.536027 
L 308.062249 306.599182 
L 309.321109 308.309956 
L 310.583917 308.511818 
L 311.846816 309.14545 
L 313.109321 310.297548 
L 314.371121 311.968304 
L 315.641528 311.006105 
L 316.907095 312.030522 
L 318.17319 313.142024 
L 319.440869 314.038152 
L 320.711096 314.502631 
L 321.980625 315.399916 
L 323.254354 315.519266 
L 324.526001 316.374373 
L 325.797945 317.359916 
L 327.071793 318.129694 
L 328.35141 317.947357 
L 329.624364 319.281158 
L 330.902063 319.879244 
L 332.181022 320.434466 
L 333.463309 320.599928 
L 334.740984 321.719719 
L 336.026011 321.79914 
L 337.309453 322.312663 
L 338.592498 323.043671 
L 339.877409 323.64496 
L 341.167047 323.725439 
L 342.454112 324.327529 
L 343.742203 324.930097 
L 345.03367 325.228745 
L 346.325947 325.571165 
L 347.617238 326.175005 
L 348.9121 326.474593 
L 350.206633 326.948657 
L 351.503015 327.335986 
L 352.799742 327.810816 
L 354.098358 328.198851 
L 355.397694 328.630837 
L 356.698559 329.019562 
L 358.000982 329.36498 
L 359.303684 329.798028 
L 360.607947 330.18777 
L 361.9138 330.534155 
L 363.220345 330.924559 
L 364.527555 331.359031 
L 365.836369 331.750132 
L 367.146324 332.141574 
L 368.457423 332.533358 
L 369.769666 332.925484 
L 371.083056 333.317952 
L 372.397593 333.710763 
L 373.713278 334.103918 
L 375.030115 334.497416 
L 376.348103 334.891259 
L 377.667245 335.285446 
L 378.987542 335.679979 
L 380.308996 336.074857 
L 381.631608 336.470081 
L 382.95538 336.865652 
L 384.280312 337.26157 
L 385.606408 337.657835 
L 386.933667 338.054448 
L 388.262093 338.451409 
L 389.591685 338.84872 
L 390.922447 339.246379 
L 392.254379 339.644388 
L 393.587483 340.042748 
L 394.92176 340.441458 
L 396.257212 340.840519 
L 397.593841 341.239932 
L 398.931648 341.639697 
" style="fill:none;stroke:#00ffff;stroke-linecap:square;stroke-width:2;"/>
   </g>
   <g id="line2d_18">
    <path clip-path="url(#pb0c1bc28f4)" d="M 273.850362 -1 
L 275.314089 65.738247 
L 276.762728 115.159271 
L 278.175839 158.443098 
L 279.524777 183.208115 
L 280.853954 203.327525 
L 282.178126 224.232901 
L 283.478238 236.68309 
L 284.774096 248.831529 
L 286.064174 259.621705 
L 287.348673 268.62483 
L 288.626542 274.094285 
L 289.903027 279.120345 
L 291.179533 285.108884 
L 292.455049 291.354922 
L 293.728843 296.457128 
L 295.001198 298.494528 
L 296.273983 300.007559 
L 297.547231 302.483931 
L 298.820155 306.447415 
L 300.093157 309.710885 
L 301.367007 311.838682 
L 302.642129 313.093542 
L 303.917273 314.960754 
L 305.193291 316.566632 
L 306.470064 318.085919 
L 307.749225 318.644813 
L 309.025824 320.995762 
L 310.305833 321.949404 
L 311.587464 322.597775 
L 312.867354 324.295737 
L 314.146592 326.431468 
L 315.431659 326.776128 
L 316.713765 328.389021 
L 318.001749 328.472394 
L 319.290185 328.77461 
L 320.575571 330.171123 
L 321.865391 330.649402 
L 323.155556 331.303215 
L 324.446543 332.001338 
L 325.740985 332.174292 
L 327.033659 332.961002 
L 328.327523 333.704466 
L 329.625154 333.92229 
L 330.923271 334.271934 
L 332.221291 334.841323 
L 333.520375 335.411178 
L 334.82133 335.849758 
L 336.123683 336.244785 
L 337.428039 336.508312 
L 338.732114 336.991914 
L 340.037906 337.387964 
L 341.34453 337.82836 
L 342.652931 338.181109 
L 343.962166 338.578203 
L 345.27221 339.019695 
L 346.58409 339.37344 
L 347.896421 339.815664 
L 349.210259 340.214175 
L 350.525253 340.613036 
L 351.841406 341.012248 
L 353.158719 341.411812 
L 354.477192 341.811729 
" style="fill:none;stroke:#24dbff;stroke-linecap:square;stroke-width:2;"/>
   </g>
   <g id="line2d_19">
    <path clip-path="url(#pb0c1bc28f4)" d="M 251.293377 -1 
L 252.394624 49.628137 
L 254.787909 116.902078 
L 256.339426 157.97917 
L 258.494483 195.109619 
L 259.90557 217.245111 
L 261.953573 240.327959 
L 263.313508 255.852387 
L 265.302529 270.60935 
L 266.612176 277.662618 
L 268.57501 288.537194 
L 269.878749 295.125154 
L 271.827953 304.02065 
L 273.112481 306.260818 
L 275.049648 312.495033 
L 276.342354 317.208597 
L 278.26419 318.673181 
L 279.556692 323.474709 
L 281.483186 326.001442 
L 282.769695 328.351226 
L 284.697003 330.210727 
L 285.984304 332.33319 
L 287.914567 334.407313 
L 289.20152 335.085467 
L 291.134672 337.091885 
L 292.424142 338.054026 
L 294.35991 339.074823 
L 295.65171 339.861983 
L 297.591333 340.60217 
L 298.885616 341.532089 
L 300.829239 342.274081 
L 302.126424 342.710312 
L 304.0743 343.383068 
L 305.374413 343.749442 
L 307.326425 344.494471 
L 308.629342 344.897182 
L 310.58588 345.501917 
L 311.891507 345.976466 
L 313.85226 346.618074 
L 315.160936 347.022613 
L 317.126009 347.665619 
L 318.437583 348.071069 
L 320.407128 348.679919 
L 321.721616 349.08627 
L 323.695541 349.696474 
L 325.012954 350.103729 
L 326.991272 350.715292 
L 328.31162 351.123454 
L 330.294347 351.736379 
L 331.617639 352.145452 
" style="fill:none;stroke:#49b6ff;stroke-linecap:square;stroke-width:2;"/>
   </g>
   <g id="line2d_20">
    <path clip-path="url(#pb0c1bc28f4)" d="M 225.105868 -1 
L 228.097387 96.944442 
L 230.707149 161.344311 
L 233.089448 206.254259 
L 235.31235 236.976919 
L 237.511569 266.82088 
L 239.556442 281.083412 
L 241.573558 292.792667 
L 243.592254 305.191982 
L 245.578167 314.0829 
L 247.536713 319.754404 
L 249.499339 326.047686 
L 251.449625 330.73676 
L 253.392089 334.26989 
L 255.334168 337.626593 
L 257.270342 339.891263 
L 259.210117 342.504545 
L 261.149147 344.74619 
L 263.084858 346.064697 
L 265.021648 347.171098 
L 266.96188 348.528059 
L 268.902257 349.432335 
L 270.844937 350.311004 
L 272.790047 351.190772 
L 274.736467 351.744298 
L 276.685997 352.447622 
L 278.638669 353.360546 
L 280.593101 354.00624 
L 282.549938 354.563402 
L 284.509607 355.210857 
L 286.47189 355.859085 
L 288.436752 356.478359 
L 290.404229 357.068631 
L 292.374409 357.719408 
L 294.347205 358.311316 
L 296.322677 358.963802 
L 298.300804 359.587257 
L 300.281599 360.211553 
L 302.265069 360.836692 
L 304.251218 361.462676 
L 306.240053 362.089505 
L 308.231578 362.717183 
" style="fill:none;stroke:#6d92ff;stroke-linecap:square;stroke-width:2;"/>
   </g>
   <g id="line2d_21">
    <path clip-path="url(#pb0c1bc28f4)" d="M 197.887421 -1 
L 201.937861 124.514239 
L 205.745632 209.858924 
L 208.962886 256.715352 
L 211.915705 286.126253 
L 214.732082 306.389221 
L 217.473268 321.524836 
L 220.142881 331.320858 
L 222.788695 339.312244 
L 225.393772 343.803292 
L 227.993643 347.669412 
L 230.589739 350.97377 
L 233.183297 353.77023 
L 235.774685 356.031671 
L 238.362079 357.488297 
L 240.951664 358.727176 
L 243.544966 359.896213 
L 246.14176 360.954794 
L 248.743048 362.015207 
L 251.347389 362.87478 
L 253.956719 363.780973 
L 256.570137 364.598567 
L 259.188569 365.46279 
L 261.811474 366.283393 
L 264.439267 367.128096 
L 267.071933 367.996956 
L 269.709264 368.844746 
L 272.351388 369.694076 
L 274.998318 370.544952 
L 277.650067 371.397376 
L 280.306648 372.251354 
L 282.968074 373.106889 
L 285.63436 373.963987 
L 288.305518 374.82265 
L 290.981561 375.682884 
L 293.662503 376.544693 
L 296.348357 377.408081 
L 299.039138 378.273052 
L 301.734857 379.139611 
L 304.43553 380.007763 
L 307.14117 380.877511 
L 309.85179 381.74886 
L 312.567404 382.621814 
L 315.288026 383.496378 
L 318.01367 384.372557 
" style="fill:none;stroke:#926dff;stroke-linecap:square;stroke-width:2;"/>
   </g>
   <g id="line2d_22">
    <path clip-path="url(#pb0c1bc28f4)" d="M 169.752318 -1 
L 174.65789 150.460369 
L 179.71311 249.409527 
L 183.73985 295.593291 
L 187.421285 323.989047 
L 190.845719 338.267358 
L 194.197338 348.447063 
L 197.506939 356.089453 
L 200.75455 359.630011 
L 204.003734 362.958682 
L 207.250971 365.803858 
L 210.487342 367.458674 
L 213.727815 368.917537 
L 216.975704 370.415816 
L 220.225456 371.499645 
L 223.483231 372.64047 
L 226.747352 373.692898 
L 230.019333 374.784161 
L 233.299145 375.914373 
L 236.585886 376.992411 
L 239.88016 378.07292 
L 243.181993 379.155908 
L 246.491411 380.241384 
L 249.808441 381.329357 
L 253.133108 382.419834 
L 256.46544 383.512826 
L 259.805462 384.60834 
L 263.153202 385.706385 
L 266.508685 386.80697 
L 269.87194 387.910104 
L 273.242993 389.015796 
L 276.621871 390.124055 
L 280.008601 391.234889 
L 283.403212 392.348307 
L 286.805729 393.46432 
L 290.216182 394.582935 
L 293.634598 395.704161 
L 297.061004 396.828009 
L 300.49543 397.954487 
L 303.937902 399.083604 
L 307.388449 400.21537 
L 310.847101 401.349793 
L 314.313884 402.486885 
L 317.788829 403.626653 
L 321.271964 404.769107 
L 324.763318 405.914257 
L 328.262919 407.062112 
" style="fill:none;stroke:#b649ff;stroke-linecap:square;stroke-width:2;"/>
   </g>
   <g id="line2d_23">
    <path clip-path="url(#pb0c1bc28f4)" d="M 140.154277 -1 
L 144.602387 132.973856 
L 150.759657 259.958747 
L 155.125801 312.097618 
L 158.883957 338.415212 
L 162.385305 353.549039 
L 165.729041 361.45023 
L 169.029036 367.182665 
L 172.300955 371.369853 
L 175.547879 374.048407 
L 178.789597 376.14753 
L 182.023663 377.483368 
L 185.26911 379.059927 
L 188.516767 380.36529 
L 191.767989 381.453693 
L 195.027888 382.617967 
L 198.294075 383.711465 
L 201.56836 384.844239 
L 204.849635 385.94283 
L 208.138501 387.043963 
L 211.434987 388.147646 
L 214.739117 389.253889 
L 218.05092 390.362701 
L 221.370421 391.47409 
L 224.697647 392.588065 
L 228.032625 393.704636 
L 231.375383 394.823812 
L 234.725948 395.945602 
L 238.084347 397.070014 
L 241.450608 398.197058 
L 244.824758 399.326744 
L 248.206825 400.459081 
L 251.596837 401.594078 
L 254.994822 402.731744 
L 258.400808 403.872088 
L 261.814823 405.015122 
L 265.236897 406.160853 
L 268.667056 407.309291 
" style="fill:none;stroke:#db24ff;stroke-linecap:square;stroke-width:2;"/>
   </g>
   <g id="line2d_24">
    <path clip-path="url(#pb0c1bc28f4)" d="M 276.893265 305.12265 
L 287.297559 308.034402 
L 293.463723 309.54252 
L 297.965025 310.429754 
L 301.727369 310.952018 
L 304.933814 311.177538 
L 307.769853 311.159415 
L 310.422962 310.915415 
L 312.892233 310.454898 
L 315.176747 309.798379 
L 317.275562 308.976496 
L 319.379158 307.922057 
L 321.487855 306.614922 
L 323.601995 305.037101 
L 325.721927 303.173758 
L 327.848001 301.014276 
L 330.174754 298.314666 
L 332.509616 295.258277 
L 335.048585 291.559267 
L 337.794274 287.160598 
L 340.94687 281.686436 
L 345.306674 273.62488 
L 352.496058 260.298513 
L 355.507189 255.221916 
L 357.920322 251.569957 
L 359.933021 248.886028 
L 361.745045 246.799605 
L 363.35566 245.238288 
L 364.965733 243.977489 
L 366.373754 243.136848 
L 367.780734 242.55327 
L 369.186403 242.235892 
L 370.390027 242.180906 
L 371.592359 242.329279 
L 372.793268 242.682416 
L 373.99264 243.24032 
L 375.389834 244.148075 
L 376.784679 245.327997 
L 378.375802 247.000555 
L 379.963671 249.00492 
L 381.746128 251.633764 
L 383.721904 254.982521 
L 385.889812 259.129297 
L 388.248927 264.122807 
L 391.190642 270.901554 
L 395.104372 280.53067 
L 404.29839 303.341754 
L 407.635209 310.939022 
L 410.588925 317.147813 
L 413.355393 322.468448 
L 415.9336 326.976513 
L 418.521436 331.063691 
L 421.11927 334.738632 
L 423.727251 338.020159 
L 426.34534 340.934759 
L 428.973344 343.514181 
L 431.610953 345.793241 
L 434.461743 347.952984 
L 437.527377 349.977129 
L 440.80938 351.862514 
L 444.309129 353.61824 
L 448.441848 355.435302 
L 453.421232 357.364884 
L 459.673682 359.534976 
L 468.685709 362.407713 
L 474.373019 364.149723 
L 474.373019 364.149723 
" style="fill:none;stroke:#000000;stroke-linecap:square;"/>
   </g>
   <g id="line2d_25">
    <path clip-path="url(#pb0c1bc28f4)" d="M 258.703323 310.977738 
L 262.602812 311.392329 
L 266.139734 311.544012 
L 269.311618 311.461331 
L 272.303387 311.163205 
L 275.114077 310.663634 
L 277.930729 309.927925 
L 280.565236 309.010104 
L 283.205457 307.854767 
L 285.851692 306.451631 
L 288.504267 304.795132 
L 291.353732 302.73952 
L 294.211288 300.402259 
L 297.268724 297.62029 
L 300.720448 294.179796 
L 305.150381 289.423048 
L 316.615054 276.924382 
L 319.747835 273.928527 
L 322.496337 271.606555 
L 324.857117 269.893901 
L 327.024734 268.585827 
L 328.99792 267.638676 
L 330.973287 266.941436 
L 332.752721 266.540837 
L 334.533434 266.365095 
L 336.315196 266.421469 
L 338.097786 266.714878 
L 339.880991 267.247813 
L 341.664614 268.020298 
L 343.448475 269.029883 
L 345.43063 270.423717 
L 347.412699 272.094122 
L 349.592707 274.234898 
L 351.970429 276.907258 
L 354.545655 280.160483 
L 357.318259 284.025247 
L 360.68427 289.126499 
L 364.842139 295.866265 
L 380.716229 322.059551 
L 384.504408 327.656721 
L 388.102892 332.572583 
L 391.511173 336.840684 
L 394.728292 340.516193 
L 397.954943 343.863868 
L 401.19145 346.896115 
L 404.437991 349.632247 
L 407.694624 352.096477 
L 411.165797 354.447303 
L 414.853336 356.673573 
L 418.759027 358.774311 
L 423.091257 360.852038 
L 428.061489 362.981202 
L 433.884818 365.223652 
L 441.199792 367.786315 
L 451.293687 371.063867 
L 456.790272 372.783493 
L 456.790272 372.783493 
" style="fill:none;stroke:#000000;stroke-linecap:square;"/>
   </g>
   <g id="line2d_26">
    <path clip-path="url(#pb0c1bc28f4)" d="M 235.444018 312.583143 
L 238.599581 311.700327 
L 241.948344 310.524506 
L 245.305351 309.10349 
L 248.858378 307.35045 
L 252.609695 305.252384 
L 257.127684 302.457255 
L 264.130961 297.810424 
L 270.610133 293.598035 
L 274.441761 291.355945 
L 277.710558 289.688716 
L 280.603766 288.455132 
L 283.311507 287.543634 
L 285.832046 286.932511 
L 288.163803 286.58892 
L 290.500248 286.471928 
L 292.841148 286.593051 
L 294.990674 286.920426 
L 297.143531 287.458827 
L 299.495657 288.288472 
L 301.85123 289.369394 
L 304.209986 290.696563 
L 306.768605 292.402373 
L 309.330368 294.372344 
L 312.092402 296.767534 
L 315.252748 299.816971 
L 318.812527 303.587854 
L 322.971132 308.345545 
L 328.326511 314.836234 
L 342.461253 332.139202 
L 347.26007 337.577245 
L 351.670259 342.237535 
L 355.689815 346.170096 
L 359.719933 349.798757 
L 363.558906 352.96395 
L 367.408425 355.862995 
L 371.472322 358.644122 
L 375.548572 361.171258 
L 380.046926 363.690572 
L 384.76608 366.073384 
L 389.914529 368.42283 
L 395.704072 370.819767 
L 402.558705 373.41089 
L 411.121494 376.397613 
L 422.898887 380.25131 
L 434.344291 383.865063 
L 434.344291 383.865063 
" style="fill:none;stroke:#000000;stroke-linecap:square;"/>
   </g>
   <g id="line2d_27">
    <path clip-path="url(#pb0c1bc28f4)" d="M 211.655306 317.986164 
L 215.554776 316.530239 
L 220.025667 314.618276 
L 226.388777 311.627167 
L 234.113845 308.032913 
L 238.094752 306.419316 
L 241.520685 305.265302 
L 244.576791 304.472212 
L 247.259277 303.9923 
L 249.949541 303.738257 
L 252.454502 303.723077 
L 254.965913 303.934317 
L 257.483581 304.381776 
L 260.00727 305.071305 
L 262.536714 306.004639 
L 265.071622 307.179349 
L 267.807281 308.706787 
L 270.548529 310.493329 
L 273.491342 312.674445 
L 276.833175 315.445925 
L 280.57581 318.864015 
L 284.918574 323.150739 
L 290.855047 329.355417 
L 303.57239 342.726654 
L 308.760176 347.801052 
L 313.360712 351.992125 
L 317.771951 355.704261 
L 321.99313 358.965376 
L 326.225118 361.953516 
L 330.468447 364.681879 
L 334.926495 367.284202 
L 339.601474 369.756378 
L 344.699956 372.197974 
L 350.431633 374.686024 
L 357.010099 377.28699 
L 364.861025 380.143023 
L 375.255831 383.673358 
L 391.407661 388.8976 
L 411.363284 395.217841 
L 411.363284 395.217841 
" style="fill:none;stroke:#000000;stroke-linecap:square;"/>
   </g>
   <g id="line2d_28">
    <path clip-path="url(#pb0c1bc28f4)" d="M 187.387474 328.842341 
L 192.782462 327.277817 
L 204.592895 323.759181 
L 208.372599 322.906301 
L 211.598088 322.390235 
L 214.644878 322.125248 
L 217.511106 322.103173 
L 220.194876 322.301986 
L 222.886895 322.728038 
L 225.587002 323.391315 
L 228.294959 324.296449 
L 231.010465 325.442545 
L 233.927903 326.930531 
L 236.853105 328.673192 
L 239.98129 330.7892 
L 243.509547 333.447701 
L 247.636824 336.85178 
L 252.958774 341.561302 
L 270.007522 356.900315 
L 274.989524 360.955504 
L 279.583789 364.410669 
L 283.988585 367.451967 
L 288.404046 370.23719 
L 293.032273 372.890885 
L 297.875565 375.407007 
L 303.139147 377.883542 
L 309.031326 380.399334 
L 315.764337 383.026171 
L 324.172285 386.057445 
L 335.94139 390.042156 
L 357.02752 396.904923 
L 387.828518 406.814907 
L 387.828518 406.814907 
" style="fill:none;stroke:#000000;stroke-linecap:square;"/>
   </g>
   <g id="line2d_29">
    <path clip-path="url(#pb0c1bc28f4)" d="M 162.628862 342.601618 
L 178.751425 340.843592 
L 182.539188 340.777225 
L 185.771821 340.933351 
L 188.825552 341.291795 
L 191.890299 341.878226 
L 194.773446 342.648306 
L 197.859198 343.710977 
L 200.955317 345.020661 
L 204.255748 346.670837 
L 207.76168 348.683533 
L 211.669747 351.194796 
L 216.375135 354.503116 
L 223.066576 359.512762 
L 233.745784 367.496379 
L 239.305609 371.356559 
L 244.282599 374.549609 
L 249.272241 377.481836 
L 254.275277 380.158142 
L 259.493546 382.69466 
L 265.1315 385.187836 
L 271.599365 387.800885 
L 279.519061 390.748829 
L 290.1443 394.449271 
L 308.301684 400.501706 
L 363.719085 418.69159 
L 363.719085 418.69159 
" style="fill:none;stroke:#000000;stroke-linecap:square;"/>
   </g>
   <g id="line2d_30">
    <path clip-path="url(#pb0c1bc28f4)" d="M 137.336147 357.01742 
L 151.056686 357.739035 
L 155.417766 358.248598 
L 159.226981 358.910331 
L 162.860861 359.765299 
L 166.317183 360.79868 
L 169.979772 362.132689 
L 173.656477 363.709803 
L 177.735688 365.710474 
L 182.415935 368.271255 
L 188.486874 371.874705 
L 204.856748 381.732944 
L 210.809618 384.974927 
L 216.582102 387.859468 
L 222.57329 390.594186 
L 228.987367 393.27311 
L 236.637641 396.21604 
L 246.559451 399.775959 
L 262.492326 405.222652 
L 317.320126 423.598632 
L 339.013609 430.861745 
L 339.013609 430.861745 
" style="fill:none;stroke:#000000;stroke-linecap:square;"/>
   </g>
   <g id="legend_1">
    <g id="patch_6">
     <path d="M 477.066929 100.531496 
L 487.066929 100.531496 
Q 492.066929 100.531496 492.066929 95.531496 
L 492.066929 85.531496 
Q 492.066929 80.531496 487.066929 80.531496 
L 477.066929 80.531496 
Q 472.066929 80.531496 472.066929 85.531496 
L 472.066929 95.531496 
Q 472.066929 100.531496 477.066929 100.531496 
z
" style="fill:#ffffff;opacity:0.8;stroke:#cccccc;stroke-linejoin:miter;"/>
    </g>
   </g>
  </g>
 </g>
 <defs>
  <clipPath id="pb0c1bc28f4">
   <rect height="428.031496" width="428.031496" x="76.535433" y="68.031496"/>
  </clipPath>
 </defs>
</svg>
