<?xml version="1.0" encoding="utf-8" standalone="no"?>
<!DOCTYPE svg PUBLIC "-//W3C//DTD SVG 1.1//EN"
  "http://www.w3.org/Graphics/SVG/1.1/DTD/svg11.dtd">
<svg height="566.929134pt" version="1.1" viewBox="0 0 566.929134 566.929134" width="566.929134pt" xmlns="http://www.w3.org/2000/svg" xmlns:xlink="http://www.w3.org/1999/xlink">
 <metadata>
  <rdf:RDF xmlns:cc="http://creativecommons.org/ns#" xmlns:dc="http://purl.org/dc/elements/1.1/" xmlns:rdf="http://www.w3.org/1999/02/22-rdf-syntax-ns#">
   <cc:Work>
    <dc:type rdf:resource="http://purl.org/dc/dcmitype/StillImage"/>
    <dc:date>2023-12-14T10:12:44.574707</dc:date>
    <dc:format>image/svg+xml</dc:format>
    <dc:creator>
     <cc:Agent>
      <dc:title>Matplotlib v3.4.3, https://matplotlib.org/</dc:title>
     </cc:Agent>
    </dc:creator>
   </cc:Work>
  </rdf:RDF>
 </metadata>
 <defs>
  <style type="text/css">*{stroke-linecap:butt;stroke-linejoin:round;}</style>
 </defs>
 <g id="figure_1">
  <g id="patch_1">
   <path d="M 0 566.929134 
L 566.929134 566.929134 
L 566.929134 0 
L 0 0 
z
" style="fill:none;"/>
  </g>
  <g id="patch_2">
   <path d="M 76.535433 496.062992 
L 504.566929 496.062992 
L 504.566929 68.031496 
L 76.535433 68.031496 
z
" style="fill:none;"/>
  </g>
  <g id="pane3d_1">
   <g id="patch_3">
    <path d="M 280.820082 304.323797 
L 103.92342 378.274813 
L 97.91446 182.940118 
L 280.374587 122.605154 
" style="fill:#f2f2f2;opacity:0.5;stroke:#f2f2f2;stroke-linejoin:miter;"/>
   </g>
  </g>
  <g id="pane3d_2">
   <g id="patch_4">
    <path d="M 280.820082 304.323797 
L 486.151811 365.53901 
L 491.997285 172.528232 
L 280.374587 122.605154 
" style="fill:#e6e6e6;opacity:0.5;stroke:#e6e6e6;stroke-linejoin:miter;"/>
   </g>
  </g>
  <g id="pane3d_3">
   <g id="patch_5">
    <path d="M 280.820082 304.323797 
L 486.151811 365.53901 
L 314.46186 450.770218 
L 103.92342 378.274813 
" style="fill:#ececec;opacity:0.5;stroke:#ececec;stroke-linejoin:miter;"/>
   </g>
  </g>
  <g id="axis3d_1">
   <g id="line2d_1">
    <path d="M 103.92342 378.274813 
L 314.46186 450.770218 
" style="fill:none;stroke:#000000;stroke-linecap:square;stroke-width:0.8;"/>
   </g>
   <g id="text_1">
    <!-- Depth in Diamond (nm) -->
    <g transform="translate(70.667255 411.718187)rotate(-340.999706)scale(0.2 -0.2)">
     <defs>
      <path d="M 1259 4147 
L 1259 519 
L 2022 519 
Q 2988 519 3436 956 
Q 3884 1394 3884 2338 
Q 3884 3275 3436 3711 
Q 2988 4147 2022 4147 
L 1259 4147 
z
M 628 4666 
L 1925 4666 
Q 3281 4666 3915 4102 
Q 4550 3538 4550 2338 
Q 4550 1131 3912 565 
Q 3275 0 1925 0 
L 628 0 
L 628 4666 
z
" id="DejaVuSans-44" transform="scale(0.015625)"/>
      <path d="M 3597 1894 
L 3597 1613 
L 953 1613 
Q 991 1019 1311 708 
Q 1631 397 2203 397 
Q 2534 397 2845 478 
Q 3156 559 3463 722 
L 3463 178 
Q 3153 47 2828 -22 
Q 2503 -91 2169 -91 
Q 1331 -91 842 396 
Q 353 884 353 1716 
Q 353 2575 817 3079 
Q 1281 3584 2069 3584 
Q 2775 3584 3186 3129 
Q 3597 2675 3597 1894 
z
M 3022 2063 
Q 3016 2534 2758 2815 
Q 2500 3097 2075 3097 
Q 1594 3097 1305 2825 
Q 1016 2553 972 2059 
L 3022 2063 
z
" id="DejaVuSans-65" transform="scale(0.015625)"/>
      <path d="M 1159 525 
L 1159 -1331 
L 581 -1331 
L 581 3500 
L 1159 3500 
L 1159 2969 
Q 1341 3281 1617 3432 
Q 1894 3584 2278 3584 
Q 2916 3584 3314 3078 
Q 3713 2572 3713 1747 
Q 3713 922 3314 415 
Q 2916 -91 2278 -91 
Q 1894 -91 1617 61 
Q 1341 213 1159 525 
z
M 3116 1747 
Q 3116 2381 2855 2742 
Q 2594 3103 2138 3103 
Q 1681 3103 1420 2742 
Q 1159 2381 1159 1747 
Q 1159 1113 1420 752 
Q 1681 391 2138 391 
Q 2594 391 2855 752 
Q 3116 1113 3116 1747 
z
" id="DejaVuSans-70" transform="scale(0.015625)"/>
      <path d="M 1172 4494 
L 1172 3500 
L 2356 3500 
L 2356 3053 
L 1172 3053 
L 1172 1153 
Q 1172 725 1289 603 
Q 1406 481 1766 481 
L 2356 481 
L 2356 0 
L 1766 0 
Q 1100 0 847 248 
Q 594 497 594 1153 
L 594 3053 
L 172 3053 
L 172 3500 
L 594 3500 
L 594 4494 
L 1172 4494 
z
" id="DejaVuSans-74" transform="scale(0.015625)"/>
      <path d="M 3513 2113 
L 3513 0 
L 2938 0 
L 2938 2094 
Q 2938 2591 2744 2837 
Q 2550 3084 2163 3084 
Q 1697 3084 1428 2787 
Q 1159 2491 1159 1978 
L 1159 0 
L 581 0 
L 581 4863 
L 1159 4863 
L 1159 2956 
Q 1366 3272 1645 3428 
Q 1925 3584 2291 3584 
Q 2894 3584 3203 3211 
Q 3513 2838 3513 2113 
z
" id="DejaVuSans-68" transform="scale(0.015625)"/>
      <path id="DejaVuSans-20" transform="scale(0.015625)"/>
      <path d="M 603 3500 
L 1178 3500 
L 1178 0 
L 603 0 
L 603 3500 
z
M 603 4863 
L 1178 4863 
L 1178 4134 
L 603 4134 
L 603 4863 
z
" id="DejaVuSans-69" transform="scale(0.015625)"/>
      <path d="M 3513 2113 
L 3513 0 
L 2938 0 
L 2938 2094 
Q 2938 2591 2744 2837 
Q 2550 3084 2163 3084 
Q 1697 3084 1428 2787 
Q 1159 2491 1159 1978 
L 1159 0 
L 581 0 
L 581 3500 
L 1159 3500 
L 1159 2956 
Q 1366 3272 1645 3428 
Q 1925 3584 2291 3584 
Q 2894 3584 3203 3211 
Q 3513 2838 3513 2113 
z
" id="DejaVuSans-6e" transform="scale(0.015625)"/>
      <path d="M 2194 1759 
Q 1497 1759 1228 1600 
Q 959 1441 959 1056 
Q 959 750 1161 570 
Q 1363 391 1709 391 
Q 2188 391 2477 730 
Q 2766 1069 2766 1631 
L 2766 1759 
L 2194 1759 
z
M 3341 1997 
L 3341 0 
L 2766 0 
L 2766 531 
Q 2569 213 2275 61 
Q 1981 -91 1556 -91 
Q 1019 -91 701 211 
Q 384 513 384 1019 
Q 384 1609 779 1909 
Q 1175 2209 1959 2209 
L 2766 2209 
L 2766 2266 
Q 2766 2663 2505 2880 
Q 2244 3097 1772 3097 
Q 1472 3097 1187 3025 
Q 903 2953 641 2809 
L 641 3341 
Q 956 3463 1253 3523 
Q 1550 3584 1831 3584 
Q 2591 3584 2966 3190 
Q 3341 2797 3341 1997 
z
" id="DejaVuSans-61" transform="scale(0.015625)"/>
      <path d="M 3328 2828 
Q 3544 3216 3844 3400 
Q 4144 3584 4550 3584 
Q 5097 3584 5394 3201 
Q 5691 2819 5691 2113 
L 5691 0 
L 5113 0 
L 5113 2094 
Q 5113 2597 4934 2840 
Q 4756 3084 4391 3084 
Q 3944 3084 3684 2787 
Q 3425 2491 3425 1978 
L 3425 0 
L 2847 0 
L 2847 2094 
Q 2847 2600 2669 2842 
Q 2491 3084 2119 3084 
Q 1678 3084 1418 2786 
Q 1159 2488 1159 1978 
L 1159 0 
L 581 0 
L 581 3500 
L 1159 3500 
L 1159 2956 
Q 1356 3278 1631 3431 
Q 1906 3584 2284 3584 
Q 2666 3584 2933 3390 
Q 3200 3197 3328 2828 
z
" id="DejaVuSans-6d" transform="scale(0.015625)"/>
      <path d="M 1959 3097 
Q 1497 3097 1228 2736 
Q 959 2375 959 1747 
Q 959 1119 1226 758 
Q 1494 397 1959 397 
Q 2419 397 2687 759 
Q 2956 1122 2956 1747 
Q 2956 2369 2687 2733 
Q 2419 3097 1959 3097 
z
M 1959 3584 
Q 2709 3584 3137 3096 
Q 3566 2609 3566 1747 
Q 3566 888 3137 398 
Q 2709 -91 1959 -91 
Q 1206 -91 779 398 
Q 353 888 353 1747 
Q 353 2609 779 3096 
Q 1206 3584 1959 3584 
z
" id="DejaVuSans-6f" transform="scale(0.015625)"/>
      <path d="M 2906 2969 
L 2906 4863 
L 3481 4863 
L 3481 0 
L 2906 0 
L 2906 525 
Q 2725 213 2448 61 
Q 2172 -91 1784 -91 
Q 1150 -91 751 415 
Q 353 922 353 1747 
Q 353 2572 751 3078 
Q 1150 3584 1784 3584 
Q 2172 3584 2448 3432 
Q 2725 3281 2906 2969 
z
M 947 1747 
Q 947 1113 1208 752 
Q 1469 391 1925 391 
Q 2381 391 2643 752 
Q 2906 1113 2906 1747 
Q 2906 2381 2643 2742 
Q 2381 3103 1925 3103 
Q 1469 3103 1208 2742 
Q 947 2381 947 1747 
z
" id="DejaVuSans-64" transform="scale(0.015625)"/>
      <path d="M 1984 4856 
Q 1566 4138 1362 3434 
Q 1159 2731 1159 2009 
Q 1159 1288 1364 580 
Q 1569 -128 1984 -844 
L 1484 -844 
Q 1016 -109 783 600 
Q 550 1309 550 2009 
Q 550 2706 781 3412 
Q 1013 4119 1484 4856 
L 1984 4856 
z
" id="DejaVuSans-28" transform="scale(0.015625)"/>
      <path d="M 513 4856 
L 1013 4856 
Q 1481 4119 1714 3412 
Q 1947 2706 1947 2009 
Q 1947 1309 1714 600 
Q 1481 -109 1013 -844 
L 513 -844 
Q 928 -128 1133 580 
Q 1338 1288 1338 2009 
Q 1338 2731 1133 3434 
Q 928 4138 513 4856 
z
" id="DejaVuSans-29" transform="scale(0.015625)"/>
     </defs>
     <use xlink:href="#DejaVuSans-44"/>
     <use x="77.001953" xlink:href="#DejaVuSans-65"/>
     <use x="138.525391" xlink:href="#DejaVuSans-70"/>
     <use x="202.001953" xlink:href="#DejaVuSans-74"/>
     <use x="241.210938" xlink:href="#DejaVuSans-68"/>
     <use x="304.589844" xlink:href="#DejaVuSans-20"/>
     <use x="336.376953" xlink:href="#DejaVuSans-69"/>
     <use x="364.160156" xlink:href="#DejaVuSans-6e"/>
     <use x="427.539062" xlink:href="#DejaVuSans-20"/>
     <use x="459.326172" xlink:href="#DejaVuSans-44"/>
     <use x="536.328125" xlink:href="#DejaVuSans-69"/>
     <use x="564.111328" xlink:href="#DejaVuSans-61"/>
     <use x="625.390625" xlink:href="#DejaVuSans-6d"/>
     <use x="722.802734" xlink:href="#DejaVuSans-6f"/>
     <use x="783.984375" xlink:href="#DejaVuSans-6e"/>
     <use x="847.363281" xlink:href="#DejaVuSans-64"/>
     <use x="910.839844" xlink:href="#DejaVuSans-20"/>
     <use x="942.626953" xlink:href="#DejaVuSans-28"/>
     <use x="981.640625" xlink:href="#DejaVuSans-6e"/>
     <use x="1045.019531" xlink:href="#DejaVuSans-6d"/>
     <use x="1142.431641" xlink:href="#DejaVuSans-29"/>
    </g>
   </g>
   <g id="Line3DCollection_1">
    <path d="M 107.839503 379.62325 
L 284.661859 305.46914 
L 284.32622 123.537368 
" style="fill:none;stroke:#b0b0b0;stroke-width:0.8;"/>
    <path d="M 134.996966 388.974471 
L 311.280395 313.404881 
L 311.714123 129.998341 
" style="fill:none;stroke:#b0b0b0;stroke-width:0.8;"/>
    <path d="M 162.696999 398.512516 
L 338.388257 321.486503 
L 339.620245 136.581564 
" style="fill:none;stroke:#b0b0b0;stroke-width:0.8;"/>
    <path d="M 190.956025 408.243041 
L 365.999063 329.718068 
L 368.059435 143.290542 
" style="fill:none;stroke:#b0b0b0;stroke-width:0.8;"/>
    <path d="M 219.791138 418.171932 
L 394.126941 338.103786 
L 397.047114 150.128911 
" style="fill:none;stroke:#b0b0b0;stroke-width:0.8;"/>
    <path d="M 249.220136 428.305317 
L 422.786554 346.648029 
L 426.599305 157.100452 
" style="fill:none;stroke:#b0b0b0;stroke-width:0.8;"/>
    <path d="M 279.261556 438.649579 
L 451.993123 355.355336 
L 456.732659 164.209093 
" style="fill:none;stroke:#b0b0b0;stroke-width:0.8;"/>
    <path d="M 309.934716 449.211371 
L 481.762457 364.230419 
L 487.46449 171.458918 
" style="fill:none;stroke:#b0b0b0;stroke-width:0.8;"/>
   </g>
   <g id="xtick_1">
    <g id="line2d_2">
     <path d="M 109.373426 378.979968 
L 104.765381 380.912447 
" style="fill:none;stroke:#000000;stroke-linecap:square;stroke-width:0.8;"/>
    </g>
    <g id="text_2">
     <!-- 0 -->
     <g transform="translate(91.847018 408.793432)scale(0.2 -0.2)">
      <defs>
       <path d="M 2034 4250 
Q 1547 4250 1301 3770 
Q 1056 3291 1056 2328 
Q 1056 1369 1301 889 
Q 1547 409 2034 409 
Q 2525 409 2770 889 
Q 3016 1369 3016 2328 
Q 3016 3291 2770 3770 
Q 2525 4250 2034 4250 
z
M 2034 4750 
Q 2819 4750 3233 4129 
Q 3647 3509 3647 2328 
Q 3647 1150 3233 529 
Q 2819 -91 2034 -91 
Q 1250 -91 836 529 
Q 422 1150 422 2328 
Q 422 3509 836 4129 
Q 1250 4750 2034 4750 
z
" id="DejaVuSans-30" transform="scale(0.015625)"/>
      </defs>
      <use xlink:href="#DejaVuSans-30"/>
     </g>
    </g>
   </g>
   <g id="xtick_2">
    <g id="line2d_3">
     <path d="M 136.52739 388.318405 
L 131.929795 390.289312 
" style="fill:none;stroke:#000000;stroke-linecap:square;stroke-width:0.8;"/>
    </g>
    <g id="text_3">
     <!-- 5 -->
     <g transform="translate(118.986684 418.310013)scale(0.2 -0.2)">
      <defs>
       <path d="M 691 4666 
L 3169 4666 
L 3169 4134 
L 1269 4134 
L 1269 2991 
Q 1406 3038 1543 3061 
Q 1681 3084 1819 3084 
Q 2600 3084 3056 2656 
Q 3513 2228 3513 1497 
Q 3513 744 3044 326 
Q 2575 -91 1722 -91 
Q 1428 -91 1123 -41 
Q 819 9 494 109 
L 494 744 
Q 775 591 1075 516 
Q 1375 441 1709 441 
Q 2250 441 2565 725 
Q 2881 1009 2881 1497 
Q 2881 1984 2565 2268 
Q 2250 2553 1709 2553 
Q 1456 2553 1204 2497 
Q 953 2441 691 2322 
L 691 4666 
z
" id="DejaVuSans-35" transform="scale(0.015625)"/>
      </defs>
      <use xlink:href="#DejaVuSans-35"/>
     </g>
    </g>
   </g>
   <g id="xtick_3">
    <g id="line2d_4">
     <path d="M 164.223477 397.843282 
L 159.637673 399.853776 
" style="fill:none;stroke:#000000;stroke-linecap:square;stroke-width:0.8;"/>
    </g>
    <g id="text_4">
     <!-- 10 -->
     <g transform="translate(140.307631 428.017272)scale(0.2 -0.2)">
      <defs>
       <path d="M 794 531 
L 1825 531 
L 1825 4091 
L 703 3866 
L 703 4441 
L 1819 4666 
L 2450 4666 
L 2450 531 
L 3481 531 
L 3481 0 
L 794 0 
L 794 531 
z
" id="DejaVuSans-31" transform="scale(0.015625)"/>
      </defs>
      <use xlink:href="#DejaVuSans-31"/>
      <use x="63.623047" xlink:href="#DejaVuSans-30"/>
     </g>
    </g>
   </g>
   <g id="xtick_4">
    <g id="line2d_5">
     <path d="M 192.478086 407.560238 
L 187.905487 409.611524 
" style="fill:none;stroke:#000000;stroke-linecap:square;stroke-width:0.8;"/>
    </g>
    <g id="text_5">
     <!-- 15 -->
     <g transform="translate(168.551369 437.920998)scale(0.2 -0.2)">
      <use xlink:href="#DejaVuSans-31"/>
      <use x="63.623047" xlink:href="#DejaVuSans-35"/>
     </g>
    </g>
   </g>
   <g id="xtick_5">
    <g id="line2d_6">
     <path d="M 221.308285 417.475144 
L 216.750386 419.568474 
" style="fill:none;stroke:#000000;stroke-linecap:square;stroke-width:0.8;"/>
    </g>
    <g id="text_6">
     <!-- 20 -->
     <g transform="translate(197.372579 448.027217)scale(0.2 -0.2)">
      <defs>
       <path d="M 1228 531 
L 3431 531 
L 3431 0 
L 469 0 
L 469 531 
Q 828 903 1448 1529 
Q 2069 2156 2228 2338 
Q 2531 2678 2651 2914 
Q 2772 3150 2772 3378 
Q 2772 3750 2511 3984 
Q 2250 4219 1831 4219 
Q 1534 4219 1204 4116 
Q 875 4013 500 3803 
L 500 4441 
Q 881 4594 1212 4672 
Q 1544 4750 1819 4750 
Q 2544 4750 2975 4387 
Q 3406 4025 3406 3419 
Q 3406 3131 3298 2873 
Q 3191 2616 2906 2266 
Q 2828 2175 2409 1742 
Q 1991 1309 1228 531 
z
" id="DejaVuSans-32" transform="scale(0.015625)"/>
      </defs>
      <use xlink:href="#DejaVuSans-32"/>
      <use x="63.623047" xlink:href="#DejaVuSans-30"/>
     </g>
    </g>
   </g>
   <g id="xtick_6">
    <g id="line2d_7">
     <path d="M 250.731841 427.594109 
L 246.190222 429.730792 
" style="fill:none;stroke:#000000;stroke-linecap:square;stroke-width:0.8;"/>
    </g>
    <g id="text_7">
     <!-- 25 -->
     <g transform="translate(226.789157 458.342201)scale(0.2 -0.2)">
      <use xlink:href="#DejaVuSans-32"/>
      <use x="63.623047" xlink:href="#DejaVuSans-35"/>
     </g>
    </g>
   </g>
   <g id="xtick_7">
    <g id="line2d_8">
     <path d="M 280.767265 437.9235 
L 276.243593 440.104895 
" style="fill:none;stroke:#000000;stroke-linecap:square;stroke-width:0.8;"/>
    </g>
    <g id="text_8">
     <!-- 30 -->
     <g transform="translate(256.819742 468.872489)scale(0.2 -0.2)">
      <defs>
       <path d="M 2597 2516 
Q 3050 2419 3304 2112 
Q 3559 1806 3559 1356 
Q 3559 666 3084 287 
Q 2609 -91 1734 -91 
Q 1441 -91 1130 -33 
Q 819 25 488 141 
L 488 750 
Q 750 597 1062 519 
Q 1375 441 1716 441 
Q 2309 441 2620 675 
Q 2931 909 2931 1356 
Q 2931 1769 2642 2001 
Q 2353 2234 1838 2234 
L 1294 2234 
L 1294 2753 
L 1863 2753 
Q 2328 2753 2575 2939 
Q 2822 3125 2822 3475 
Q 2822 3834 2567 4026 
Q 2313 4219 1838 4219 
Q 1578 4219 1281 4162 
Q 984 4106 628 3988 
L 628 4550 
Q 988 4650 1302 4700 
Q 1616 4750 1894 4750 
Q 2613 4750 3031 4423 
Q 3450 4097 3450 3541 
Q 3450 3153 3228 2886 
Q 3006 2619 2597 2516 
z
" id="DejaVuSans-33" transform="scale(0.015625)"/>
      </defs>
      <use xlink:href="#DejaVuSans-33"/>
      <use x="63.623047" xlink:href="#DejaVuSans-30"/>
     </g>
    </g>
   </g>
   <g id="xtick_8">
    <g id="line2d_9">
     <path d="M 311.433841 448.469948 
L 306.929882 450.697474 
" style="fill:none;stroke:#000000;stroke-linecap:square;stroke-width:0.8;"/>
    </g>
    <g id="text_9">
     <!-- 35 -->
     <g transform="translate(287.483762 479.624892)scale(0.2 -0.2)">
      <use xlink:href="#DejaVuSans-33"/>
      <use x="63.623047" xlink:href="#DejaVuSans-35"/>
     </g>
    </g>
   </g>
  </g>
  <g id="axis3d_2">
   <g id="line2d_10">
    <path d="M 486.151811 365.53901 
L 314.46186 450.770218 
" style="fill:none;stroke:#000000;stroke-linecap:square;stroke-width:0.8;"/>
   </g>
   <g id="text_10">
    <!-- Sn Thickness (nm) -->
    <g transform="translate(348.591779 482.215085)rotate(-26.400958)scale(0.2 -0.2)">
     <defs>
      <path d="M 3425 4513 
L 3425 3897 
Q 3066 4069 2747 4153 
Q 2428 4238 2131 4238 
Q 1616 4238 1336 4038 
Q 1056 3838 1056 3469 
Q 1056 3159 1242 3001 
Q 1428 2844 1947 2747 
L 2328 2669 
Q 3034 2534 3370 2195 
Q 3706 1856 3706 1288 
Q 3706 609 3251 259 
Q 2797 -91 1919 -91 
Q 1588 -91 1214 -16 
Q 841 59 441 206 
L 441 856 
Q 825 641 1194 531 
Q 1563 422 1919 422 
Q 2459 422 2753 634 
Q 3047 847 3047 1241 
Q 3047 1584 2836 1778 
Q 2625 1972 2144 2069 
L 1759 2144 
Q 1053 2284 737 2584 
Q 422 2884 422 3419 
Q 422 4038 858 4394 
Q 1294 4750 2059 4750 
Q 2388 4750 2728 4690 
Q 3069 4631 3425 4513 
z
" id="DejaVuSans-53" transform="scale(0.015625)"/>
      <path d="M -19 4666 
L 3928 4666 
L 3928 4134 
L 2272 4134 
L 2272 0 
L 1638 0 
L 1638 4134 
L -19 4134 
L -19 4666 
z
" id="DejaVuSans-54" transform="scale(0.015625)"/>
      <path d="M 3122 3366 
L 3122 2828 
Q 2878 2963 2633 3030 
Q 2388 3097 2138 3097 
Q 1578 3097 1268 2742 
Q 959 2388 959 1747 
Q 959 1106 1268 751 
Q 1578 397 2138 397 
Q 2388 397 2633 464 
Q 2878 531 3122 666 
L 3122 134 
Q 2881 22 2623 -34 
Q 2366 -91 2075 -91 
Q 1284 -91 818 406 
Q 353 903 353 1747 
Q 353 2603 823 3093 
Q 1294 3584 2113 3584 
Q 2378 3584 2631 3529 
Q 2884 3475 3122 3366 
z
" id="DejaVuSans-63" transform="scale(0.015625)"/>
      <path d="M 581 4863 
L 1159 4863 
L 1159 1991 
L 2875 3500 
L 3609 3500 
L 1753 1863 
L 3688 0 
L 2938 0 
L 1159 1709 
L 1159 0 
L 581 0 
L 581 4863 
z
" id="DejaVuSans-6b" transform="scale(0.015625)"/>
      <path d="M 2834 3397 
L 2834 2853 
Q 2591 2978 2328 3040 
Q 2066 3103 1784 3103 
Q 1356 3103 1142 2972 
Q 928 2841 928 2578 
Q 928 2378 1081 2264 
Q 1234 2150 1697 2047 
L 1894 2003 
Q 2506 1872 2764 1633 
Q 3022 1394 3022 966 
Q 3022 478 2636 193 
Q 2250 -91 1575 -91 
Q 1294 -91 989 -36 
Q 684 19 347 128 
L 347 722 
Q 666 556 975 473 
Q 1284 391 1588 391 
Q 1994 391 2212 530 
Q 2431 669 2431 922 
Q 2431 1156 2273 1281 
Q 2116 1406 1581 1522 
L 1381 1569 
Q 847 1681 609 1914 
Q 372 2147 372 2553 
Q 372 3047 722 3315 
Q 1072 3584 1716 3584 
Q 2034 3584 2315 3537 
Q 2597 3491 2834 3397 
z
" id="DejaVuSans-73" transform="scale(0.015625)"/>
     </defs>
     <use xlink:href="#DejaVuSans-53"/>
     <use x="63.476562" xlink:href="#DejaVuSans-6e"/>
     <use x="126.855469" xlink:href="#DejaVuSans-20"/>
     <use x="158.642578" xlink:href="#DejaVuSans-54"/>
     <use x="219.726562" xlink:href="#DejaVuSans-68"/>
     <use x="283.105469" xlink:href="#DejaVuSans-69"/>
     <use x="310.888672" xlink:href="#DejaVuSans-63"/>
     <use x="365.869141" xlink:href="#DejaVuSans-6b"/>
     <use x="423.779297" xlink:href="#DejaVuSans-6e"/>
     <use x="487.158203" xlink:href="#DejaVuSans-65"/>
     <use x="548.681641" xlink:href="#DejaVuSans-73"/>
     <use x="600.78125" xlink:href="#DejaVuSans-73"/>
     <use x="652.880859" xlink:href="#DejaVuSans-20"/>
     <use x="684.667969" xlink:href="#DejaVuSans-28"/>
     <use x="723.681641" xlink:href="#DejaVuSans-6e"/>
     <use x="787.060547" xlink:href="#DejaVuSans-6d"/>
     <use x="884.472656" xlink:href="#DejaVuSans-29"/>
    </g>
   </g>
   <g id="Line3DCollection_2">
    <path d="M 274.732342 124.470902 
L 275.336911 306.616017 
L 480.860865 368.165568 
" style="fill:none;stroke:#b0b0b0;stroke-width:0.8;"/>
    <path d="M 249.040399 132.96658 
L 250.379794 317.049251 
L 456.753878 380.132883 
" style="fill:none;stroke:#b0b0b0;stroke-width:0.8;"/>
    <path d="M 222.708201 141.673974 
L 224.818561 327.735032 
L 432.021118 392.410847 
" style="fill:none;stroke:#b0b0b0;stroke-width:0.8;"/>
    <path d="M 195.711514 150.601097 
L 198.631009 338.682645 
L 406.637899 405.011715 
" style="fill:none;stroke:#b0b0b0;stroke-width:0.8;"/>
    <path d="M 168.024864 159.756375 
L 171.793832 349.90183 
L 380.57822 417.948395 
" style="fill:none;stroke:#b0b0b0;stroke-width:0.8;"/>
    <path d="M 139.621458 169.148665 
L 144.282555 361.402821 
L 353.814673 431.234492 
" style="fill:none;stroke:#b0b0b0;stroke-width:0.8;"/>
    <path d="M 110.473097 178.787293 
L 116.071456 373.19637 
L 326.318352 444.884358 
" style="fill:none;stroke:#b0b0b0;stroke-width:0.8;"/>
   </g>
   <g id="xtick_9">
    <g id="line2d_11">
     <path d="M 479.101674 367.638732 
L 484.385211 369.221026 
" style="fill:none;stroke:#000000;stroke-linecap:square;stroke-width:0.8;"/>
    </g>
    <g id="text_11">
     <!-- 0 -->
     <g transform="translate(485.586286 396.471095)scale(0.2 -0.2)">
      <use xlink:href="#DejaVuSans-30"/>
     </g>
    </g>
   </g>
   <g id="xtick_10">
    <g id="line2d_12">
     <path d="M 454.985931 379.592464 
L 460.295841 381.215577 
" style="fill:none;stroke:#000000;stroke-linecap:square;stroke-width:0.8;"/>
    </g>
    <g id="text_12">
     <!-- 5 -->
     <g transform="translate(461.570439 408.632156)scale(0.2 -0.2)">
      <use xlink:href="#DejaVuSans-35"/>
     </g>
    </g>
   </g>
   <g id="xtick_11">
    <g id="line2d_13">
     <path d="M 430.244551 391.856313 
L 435.580431 393.521844 
" style="fill:none;stroke:#000000;stroke-linecap:square;stroke-width:0.8;"/>
    </g>
    <g id="text_13">
     <!-- 10 -->
     <g transform="translate(430.567344 421.109574)scale(0.2 -0.2)">
      <use xlink:href="#DejaVuSans-31"/>
      <use x="63.623047" xlink:href="#DejaVuSans-30"/>
     </g>
    </g>
   </g>
   <g id="xtick_12">
    <g id="line2d_14">
     <path d="M 404.852867 404.442505 
L 410.214255 406.15214 
" style="fill:none;stroke:#000000;stroke-linecap:square;stroke-width:0.8;"/>
    </g>
    <g id="text_14">
     <!-- 15 -->
     <g transform="translate(405.277301 433.915858)scale(0.2 -0.2)">
      <use xlink:href="#DejaVuSans-31"/>
      <use x="63.623047" xlink:href="#DejaVuSans-35"/>
     </g>
    </g>
   </g>
   <g id="xtick_13">
    <g id="line2d_15">
     <path d="M 378.784898 417.363919 
L 384.171268 419.119433 
" style="fill:none;stroke:#000000;stroke-linecap:square;stroke-width:0.8;"/>
    </g>
    <g id="text_15">
     <!-- 20 -->
     <g transform="translate(379.311791 447.064183)scale(0.2 -0.2)">
      <use xlink:href="#DejaVuSans-32"/>
      <use x="63.623047" xlink:href="#DejaVuSans-30"/>
     </g>
    </g>
   </g>
   <g id="xtick_14">
    <g id="line2d_16">
     <path d="M 352.013262 430.634128 
L 357.424015 432.437393 
" style="fill:none;stroke:#000000;stroke-linecap:square;stroke-width:0.8;"/>
    </g>
    <g id="text_16">
     <!-- 25 -->
     <g transform="translate(352.643386 460.568437)scale(0.2 -0.2)">
      <use xlink:href="#DejaVuSans-32"/>
      <use x="63.623047" xlink:href="#DejaVuSans-35"/>
     </g>
    </g>
   </g>
   <g id="xtick_15">
    <g id="line2d_17">
     <path d="M 324.509077 444.267449 
L 329.943539 446.120439 
" style="fill:none;stroke:#000000;stroke-linecap:square;stroke-width:0.8;"/>
    </g>
    <g id="text_17">
     <!-- 30 -->
     <g transform="translate(325.243153 474.443271)scale(0.2 -0.2)">
      <use xlink:href="#DejaVuSans-33"/>
      <use x="63.623047" xlink:href="#DejaVuSans-30"/>
     </g>
    </g>
   </g>
  </g>
  <g id="axis3d_3">
   <g id="line2d_18">
    <path d="M 486.151811 365.53901 
L 491.997285 172.528232 
" style="fill:none;stroke:#000000;stroke-linecap:square;stroke-width:0.8;"/>
   </g>
   <g id="text_18">
    <!-- 1e8 -->
    <g transform="translate(539.881158 209.284668)rotate(-88.265285)scale(0.2 -0.2)">
     <defs>
      <path d="M 2034 2216 
Q 1584 2216 1326 1975 
Q 1069 1734 1069 1313 
Q 1069 891 1326 650 
Q 1584 409 2034 409 
Q 2484 409 2743 651 
Q 3003 894 3003 1313 
Q 3003 1734 2745 1975 
Q 2488 2216 2034 2216 
z
M 1403 2484 
Q 997 2584 770 2862 
Q 544 3141 544 3541 
Q 544 4100 942 4425 
Q 1341 4750 2034 4750 
Q 2731 4750 3128 4425 
Q 3525 4100 3525 3541 
Q 3525 3141 3298 2862 
Q 3072 2584 2669 2484 
Q 3125 2378 3379 2068 
Q 3634 1759 3634 1313 
Q 3634 634 3220 271 
Q 2806 -91 2034 -91 
Q 1263 -91 848 271 
Q 434 634 434 1313 
Q 434 1759 690 2068 
Q 947 2378 1403 2484 
z
M 1172 3481 
Q 1172 3119 1398 2916 
Q 1625 2713 2034 2713 
Q 2441 2713 2670 2916 
Q 2900 3119 2900 3481 
Q 2900 3844 2670 4047 
Q 2441 4250 2034 4250 
Q 1625 4250 1398 4047 
Q 1172 3844 1172 3481 
z
" id="DejaVuSans-38" transform="scale(0.015625)"/>
     </defs>
     <use xlink:href="#DejaVuSans-31"/>
     <use x="63.623047" xlink:href="#DejaVuSans-65"/>
     <use x="125.146484" xlink:href="#DejaVuSans-38"/>
    </g>
   </g>
   <g id="Line3DCollection_3">
    <path d="M 486.265296 361.791881 
L 280.811416 300.788893 
L 103.806809 374.484133 
" style="fill:none;stroke:#b0b0b0;stroke-width:0.8;"/>
    <path d="M 487.219634 330.280728 
L 280.738566 271.073413 
L 102.82611 342.60429 
" style="fill:none;stroke:#b0b0b0;stroke-width:0.8;"/>
    <path d="M 488.183612 298.451308 
L 280.66503 241.077727 
L 101.835368 310.398006 
" style="fill:none;stroke:#b0b0b0;stroke-width:0.8;"/>
    <path d="M 489.157375 266.298775 
L 280.590797 210.797851 
L 100.834429 277.860242 
" style="fill:none;stroke:#b0b0b0;stroke-width:0.8;"/>
    <path d="M 490.141074 233.818184 
L 280.515857 180.229728 
L 99.823134 244.985852 
" style="fill:none;stroke:#b0b0b0;stroke-width:0.8;"/>
    <path d="M 491.134861 201.004488 
L 280.4402 149.369222 
L 98.801323 211.769586 
" style="fill:none;stroke:#b0b0b0;stroke-width:0.8;"/>
   </g>
   <g id="xtick_16">
    <g id="line2d_19">
     <path d="M 484.506959 361.269799 
L 489.787917 362.837811 
" style="fill:none;stroke:#000000;stroke-linecap:square;stroke-width:0.8;"/>
    </g>
    <g id="text_19">
     <!-- 0.0 -->
     <g transform="translate(489.811449 376.343313)scale(0.2 -0.2)">
      <defs>
       <path d="M 684 794 
L 1344 794 
L 1344 0 
L 684 0 
L 684 794 
z
" id="DejaVuSans-2e" transform="scale(0.015625)"/>
      </defs>
      <use xlink:href="#DejaVuSans-30"/>
      <use x="63.623047" xlink:href="#DejaVuSans-2e"/>
      <use x="95.410156" xlink:href="#DejaVuSans-30"/>
     </g>
    </g>
   </g>
   <g id="xtick_17">
    <g id="line2d_20">
     <path d="M 485.451928 329.773847 
L 490.761057 331.296211 
" style="fill:none;stroke:#000000;stroke-linecap:square;stroke-width:0.8;"/>
    </g>
    <g id="text_20">
     <!-- 0.5 -->
     <g transform="translate(490.862779 344.850954)scale(0.2 -0.2)">
      <use xlink:href="#DejaVuSans-30"/>
      <use x="63.623047" xlink:href="#DejaVuSans-2e"/>
      <use x="95.410156" xlink:href="#DejaVuSans-35"/>
     </g>
    </g>
   </g>
   <g id="xtick_18">
    <g id="line2d_21">
     <path d="M 486.406435 297.959964 
L 491.744037 299.435674 
" style="fill:none;stroke:#000000;stroke-linecap:square;stroke-width:0.8;"/>
    </g>
    <g id="text_21">
     <!-- 1.0 -->
     <g transform="translate(491.924719 313.040742)scale(0.2 -0.2)">
      <use xlink:href="#DejaVuSans-31"/>
      <use x="63.623047" xlink:href="#DejaVuSans-2e"/>
      <use x="95.410156" xlink:href="#DejaVuSans-30"/>
     </g>
    </g>
   </g>
   <g id="xtick_19">
    <g id="line2d_22">
     <path d="M 487.370627 265.823309 
L 492.737007 267.251338 
" style="fill:none;stroke:#000000;stroke-linecap:square;stroke-width:0.8;"/>
    </g>
    <g id="text_22">
     <!-- 1.5 -->
     <g transform="translate(492.997433 280.907839)scale(0.2 -0.2)">
      <use xlink:href="#DejaVuSans-31"/>
      <use x="63.623047" xlink:href="#DejaVuSans-2e"/>
      <use x="95.410156" xlink:href="#DejaVuSans-35"/>
     </g>
    </g>
   </g>
   <g id="xtick_20">
    <g id="line2d_23">
     <path d="M 488.344651 233.358947 
L 493.740121 234.738242 
" style="fill:none;stroke:#000000;stroke-linecap:square;stroke-width:0.8;"/>
    </g>
    <g id="text_23">
     <!-- 2.0 -->
     <g transform="translate(494.081083 248.447312)scale(0.2 -0.2)">
      <use xlink:href="#DejaVuSans-32"/>
      <use x="63.623047" xlink:href="#DejaVuSans-2e"/>
      <use x="95.410156" xlink:href="#DejaVuSans-30"/>
     </g>
    </g>
   </g>
   <g id="xtick_21">
    <g id="line2d_24">
     <path d="M 489.328658 200.561839 
L 494.753533 201.891322 
" style="fill:none;stroke:#000000;stroke-linecap:square;stroke-width:0.8;"/>
    </g>
    <g id="text_24">
     <!-- 2.5 -->
     <g transform="translate(495.175839 215.654124)scale(0.2 -0.2)">
      <use xlink:href="#DejaVuSans-32"/>
      <use x="63.623047" xlink:href="#DejaVuSans-2e"/>
      <use x="95.410156" xlink:href="#DejaVuSans-35"/>
     </g>
    </g>
   </g>
  </g>
  <g id="axes_1">
   <g id="line2d_25">
    <path clip-path="url(#p11a081b08f)" d="M 275.267445 301.255042 
L 276.323477 300.544786 
L 277.383513 300.800326 
L 278.446195 301.7124 
L 279.511099 303.245463 
L 280.576443 304.808879 
L 281.641548 306.116321 
L 282.706606 307.197619 
L 283.77165 308.010956 
L 284.837 308.657663 
L 285.902809 309.179419 
L 286.969276 309.667488 
L 288.036371 310.085412 
L 289.104183 310.47734 
L 290.172726 310.846238 
L 291.242012 311.189097 
L 292.312082 311.547752 
L 293.382912 311.886925 
L 294.454518 312.227541 
L 295.526901 312.563017 
L 296.600064 312.90173 
L 297.674009 313.222722 
L 298.748737 313.555932 
L 299.824247 313.891481 
L 300.900547 314.218583 
L 301.97763 314.550422 
L 303.055511 314.872005 
L 304.134179 315.196825 
L 305.213633 315.525485 
L 306.293872 315.857987 
L 307.374933 316.172414 
L 308.456765 316.500892 
L 309.539389 316.830211 
L 310.622811 317.158269 
L 311.707036 317.483561 
L 312.79205 317.812101 
L 313.877876 318.135465 
L 314.964488 318.464185 
L 316.051896 318.79405 
L 317.140108 319.122651 
L 318.229145 319.444867 
L 319.318947 319.777867 
L 320.409571 320.105989 
L 321.501 320.43405 
L 322.593245 320.759639 
L 323.686269 321.092107 
L 324.780131 321.417576 
L 325.874788 321.746305 
L 326.970246 322.076786 
L 328.066519 322.406606 
L 329.16362 322.733043 
L 330.261515 323.063349 
L 331.360222 323.3939 
L 332.459754 323.722578 
L 333.5601 324.051802 
L 334.66125 324.383086 
L 335.763229 324.712496 
L 336.866017 325.043362 
L 337.969628 325.373868 
L 339.074054 325.705225 
L 340.179304 326.036222 
L 341.285373 326.367767 
L 342.392266 326.699256 
L 343.499983 327.030688 
L 344.60852 327.362973 
L 345.717884 327.695202 
L 346.828076 328.027374 
L 347.939092 328.360098 
L 349.050933 328.693373 
L 350.163604 329.026593 
L 351.277105 329.36006 
L 352.391436 329.693777 
L 353.506599 330.027742 
L 354.622593 330.361956 
L 355.73942 330.69642 
L 356.857081 331.031134 
L 357.975577 331.366098 
L 359.094909 331.701312 
L 360.215077 332.036776 
L 361.336084 332.372492 
L 362.457928 332.708458 
L 363.580612 333.044676 
L 364.704137 333.381146 
L 365.828503 333.717868 
L 366.953712 334.054841 
L 368.079764 334.392068 
L 369.20666 334.729547 
L 370.334401 335.06728 
L 371.462988 335.405265 
L 372.592423 335.743505 
L 373.722705 336.081999 
L 374.853837 336.420746 
L 375.985819 336.759749 
L 377.118651 337.099006 
L 378.252336 337.438518 
" style="fill:none;stroke:#00ffff;stroke-linecap:square;stroke-width:2;"/>
   </g>
   <g id="line2d_26">
    <path clip-path="url(#p11a081b08f)" d="M 255.120702 291.425531 
L 256.167034 288.777525 
L 257.227063 288.063253 
L 258.304557 290.073515 
L 259.393906 294.080814 
L 260.488944 299.174023 
L 261.584134 304.444329 
L 262.671359 308.38422 
L 263.753484 311.418805 
L 264.829832 313.32063 
L 265.904172 314.753051 
L 266.977498 315.878784 
L 268.050075 316.721873 
L 269.122954 317.493127 
L 270.195949 318.138258 
L 271.269483 318.747623 
L 272.343254 319.236769 
L 273.417653 319.696088 
L 274.492821 320.161761 
L 275.568548 320.57102 
L 276.645037 320.978759 
L 277.722267 321.37773 
L 278.800236 321.764905 
L 279.878918 322.128186 
L 280.95838 322.48871 
L 282.038644 322.856148 
L 283.119699 323.225668 
L 284.201525 323.587592 
L 285.284105 323.928596 
L 286.367477 324.266219 
L 287.45166 324.610754 
L 288.536654 324.965842 
L 289.62244 325.316342 
L 290.709017 325.65922 
L 291.796393 325.996287 
L 292.884577 326.33785 
L 293.973566 326.677845 
L 295.063361 327.017485 
L 296.153963 327.350698 
L 297.245375 327.69661 
L 298.337597 328.033057 
L 299.430632 328.367627 
L 300.524476 328.709741 
L 301.619128 329.055149 
L 302.714606 329.388343 
L 303.810889 329.730609 
L 304.908002 330.062477 
L 306.005932 330.396116 
L 307.104668 330.737617 
L 308.204235 331.072974 
L 309.30462 331.409802 
L 310.405826 331.747185 
L 311.507864 332.081161 
L 312.610715 332.419658 
L 313.714391 332.758102 
L 314.818903 333.093137 
L 315.924239 333.429339 
L 317.030399 333.767319 
L 318.137386 334.105553 
L 319.245207 334.443123 
L 320.353859 334.780641 
L 321.463346 335.117494 
L 322.57366 335.45613 
L 323.684809 335.794408 
L 324.796792 336.133246 
L 325.909613 336.471726 
L 327.023268 336.810767 
L 328.13776 337.150369 
L 329.253092 337.489613 
L 330.36926 337.829726 
L 331.48627 338.169788 
L 332.604122 338.510106 
L 333.722815 338.850681 
L 334.84235 339.191512 
L 335.96273 339.5326 
" style="fill:none;stroke:#24dbff;stroke-linecap:square;stroke-width:2;"/>
   </g>
   <g id="line2d_27">
    <path clip-path="url(#p11a081b08f)" d="M 229.916513 294.442979 
L 230.955715 291.761545 
L 232.558877 291.812709 
L 233.679501 296.97707 
L 235.364985 305.358139 
L 236.508736 313.197642 
L 238.164495 318.813476 
L 239.265117 322.251264 
L 240.89116 324.630494 
L 241.97587 326.241697 
L 243.594408 327.557244 
L 244.67429 328.445058 
L 246.292099 329.378596 
L 247.371365 329.981147 
L 248.990412 330.72718 
L 250.070597 331.208703 
L 251.691818 331.864496 
L 252.77361 332.303507 
L 254.397365 332.904905 
L 255.480731 333.287266 
L 257.107287 333.863472 
L 258.192625 334.24348 
L 259.822093 334.807288 
L 260.909264 335.158015 
L 262.541648 335.70449 
L 263.630935 336.073022 
L 265.266189 336.587435 
L 266.357507 336.957252 
L 267.995857 337.48 
L 269.089134 337.833445 
L 270.730536 338.352513 
L 271.825855 338.70502 
L 273.470346 339.22654 
L 274.567687 339.569633 
L 276.21527 340.09164 
L 277.314683 340.437349 
L 278.96535 340.953448 
L 280.066834 341.298578 
L 281.720612 341.813682 
L 282.824178 342.160447 
L 284.481082 342.676528 
L 285.586729 343.020495 
L 287.246768 343.537059 
L 288.354507 343.881185 
L 290.017692 344.39922 
L 291.127532 344.744246 
L 292.79387 345.262275 
L 293.905816 345.60845 
L 295.575318 346.12771 
L 296.689375 346.474048 
L 298.362049 346.994295 
L 299.478225 347.34129 
L 301.15408 347.862279 
L 302.27238 348.209935 
L 303.951426 348.731916 
L 305.071856 349.080234 
L 306.754101 349.603209 
L 307.876668 349.952192 
L 309.562122 350.476165 
L 310.686831 350.825813 
" style="fill:none;stroke:#49b6ff;stroke-linecap:square;stroke-width:2;"/>
   </g>
   <g id="line2d_28">
    <path clip-path="url(#p11a081b08f)" d="M 203.659064 309.514502 
L 205.228331 307.2271 
L 206.867337 309.640554 
L 208.575058 316.938496 
L 210.2987 325.523655 
L 211.983639 331.388983 
L 213.636769 334.901279 
L 215.272847 337.06696 
L 216.901997 338.606303 
L 218.527514 339.746783 
L 220.152014 340.678964 
L 221.776681 341.488872 
L 223.401968 342.20718 
L 225.028946 342.921941 
L 226.656501 343.531991 
L 228.285671 344.125436 
L 229.916706 344.724482 
L 231.549307 345.300103 
L 233.183514 345.854122 
L 234.819607 346.413094 
L 236.457439 346.961561 
L 238.097049 347.502604 
L 239.738509 348.043022 
L 241.381767 348.576435 
L 243.026917 349.112872 
L 244.673919 349.647316 
L 246.322748 350.175917 
L 247.97345 350.703633 
L 249.626053 351.233692 
L 251.280525 351.761188 
L 252.936891 352.289103 
L 254.595157 352.817622 
L 256.255311 353.344465 
L 257.917377 353.872952 
L 259.581363 354.403502 
L 261.247249 354.93279 
L 262.91505 355.462064 
L 264.584773 355.992571 
L 266.25642 356.523689 
L 267.929992 357.05521 
L 269.605493 357.587137 
L 271.282929 358.120094 
L 272.9623 358.653249 
L 274.643613 359.187437 
L 276.326868 359.722035 
L 278.01207 360.25725 
L 279.699222 360.793085 
L 281.388327 361.32954 
L 283.07939 361.866616 
L 284.772412 362.404315 
" style="fill:none;stroke:#6d92ff;stroke-linecap:square;stroke-width:2;"/>
   </g>
   <g id="line2d_29">
    <path clip-path="url(#p11a081b08f)" d="M 177.388056 328.664258 
L 179.514399 328.038021 
L 181.759468 333.710604 
L 184.044401 341.623313 
L 186.274929 346.522386 
L 188.467689 349.197454 
L 190.64516 350.848913 
L 192.818843 352.110422 
L 194.991448 353.12462 
L 197.165336 354.024407 
L 199.34147 354.86381 
L 201.520323 355.669538 
L 203.70191 356.439656 
L 205.886628 357.198452 
L 208.074328 357.934033 
L 210.265318 358.666362 
L 212.459617 359.395873 
L 214.65724 360.122936 
L 216.858196 360.847358 
L 219.062475 361.567254 
L 221.270139 362.286724 
L 223.481209 363.006804 
L 225.695691 363.727213 
L 227.913602 364.448738 
L 230.134936 365.169965 
L 232.359718 365.892626 
L 234.587948 366.615779 
L 236.819644 367.340371 
L 239.054807 368.065774 
L 241.293449 368.792464 
L 243.53558 369.520443 
L 245.781204 370.249399 
L 248.030331 370.979493 
L 250.282969 371.710726 
L 252.539126 372.443101 
L 254.798811 373.176622 
L 257.062031 373.91129 
L 259.328796 374.647108 
L 261.599113 375.38408 
L 263.872991 376.122208 
L 266.150439 376.861495 
L 268.431463 377.601942 
L 270.716074 378.343554 
L 273.00428 379.086333 
L 275.296088 379.830281 
L 277.591508 380.575401 
L 279.890548 381.321697 
L 282.193217 382.069171 
L 284.499523 382.817825 
L 286.809475 383.567663 
" style="fill:none;stroke:#926dff;stroke-linecap:square;stroke-width:2;"/>
   </g>
   <g id="line2d_30">
    <path clip-path="url(#p11a081b08f)" d="M 150.504314 347.941189 
L 153.198262 348.824004 
L 156.011272 354.802338 
L 158.798723 359.576819 
L 161.538163 362.030767 
L 164.262475 363.583064 
L 166.984358 364.792034 
L 169.708835 365.883603 
L 172.43652 366.880187 
L 175.168877 367.850301 
L 177.90616 368.80461 
L 180.648203 369.732085 
L 183.395548 370.659846 
L 186.14818 371.585996 
L 188.906033 372.505592 
L 191.669251 373.42559 
L 194.437877 374.347641 
L 197.211878 375.268578 
L 199.991323 376.191701 
L 202.776213 377.116 
L 205.566578 378.04237 
L 208.362434 378.970815 
L 211.163787 379.900706 
L 213.97066 380.832429 
L 216.783069 381.76599 
L 219.601031 382.701394 
L 222.424561 383.638646 
L 225.253676 384.577752 
L 228.088393 385.518718 
L 230.928729 386.461549 
L 233.774701 387.40625 
L 236.626324 388.352827 
L 239.483616 389.301287 
L 242.346594 390.251633 
L 245.215275 391.203873 
L 248.089676 392.158011 
L 250.969813 393.114054 
L 253.855705 394.072007 
L 256.747369 395.031876 
L 259.644821 395.993666 
L 262.54808 396.957383 
L 265.457162 397.923034 
L 268.372085 398.890624 
L 271.292867 399.860158 
L 274.219526 400.831643 
L 277.152079 401.805085 
L 280.090544 402.780489 
L 283.034939 403.757861 
L 285.985282 404.737208 
L 288.941591 405.718535 
" style="fill:none;stroke:#b649ff;stroke-linecap:square;stroke-width:2;"/>
   </g>
   <g id="line2d_31">
    <path clip-path="url(#p11a081b08f)" d="M 122.386823 365.142101 
L 125.087081 366.115698 
L 127.864628 369.770153 
L 130.629389 372.832046 
L 133.363613 374.589995 
L 136.089936 375.861649 
L 138.816901 376.960773 
L 141.547166 377.984983 
L 144.281491 378.960853 
L 147.020795 379.923456 
L 149.765213 380.8771 
L 152.514782 381.822017 
L 155.269677 382.764706 
L 158.029891 383.703883 
L 160.7956 384.646582 
L 163.566743 385.589224 
L 166.343344 386.532196 
L 169.125466 387.477552 
L 171.913102 388.424271 
L 174.706286 389.37313 
L 177.505023 390.32362 
L 180.309336 391.276003 
L 183.11924 392.230285 
L 185.934753 393.186472 
L 188.755892 394.14457 
L 191.582673 395.104584 
L 194.415113 396.066519 
L 197.25323 397.030383 
L 200.09704 397.99618 
L 202.946561 398.963917 
L 205.80181 399.933598 
L 208.662803 400.905231 
L 211.52956 401.878821 
L 214.402096 402.854374 
L 217.280429 403.831896 
L 220.164577 404.811392 
L 223.054558 405.792869 
L 225.950389 406.776334 
L 228.852089 407.761791 
L 231.759674 408.749247 
" style="fill:none;stroke:#db24ff;stroke-linecap:square;stroke-width:2;"/>
   </g>
   <g id="line2d_32">
    <path clip-path="url(#p11a081b08f)" d="M 278.392 225.557182 
L 281.660464 221.54989 
L 284.940214 216.91319 
L 288.235371 214.105363 
L 291.53948 208.201808 
L 294.858799 205.368106 
L 298.190037 200.66358 
L 301.533151 197.806368 
L 304.889427 193.692604 
L 308.257426 190.188069 
L 311.636231 187.29712 
L 315.024909 185.023787 
L 318.42252 183.371764 
L 321.825622 182.974038 
L 325.399981 183.878345 
L 328.752449 185.98962 
L 332.100704 189.997334 
L 335.445617 195.271279 
L 338.785219 201.810063 
L 342.117541 209.610802 
L 345.440624 218.66913 
L 348.762787 227.724948 
L 352.638399 238.182544 
L 355.952786 247.858191 
L 359.253291 258.776913 
L 362.557422 269.063779 
L 365.867506 278.598159 
L 369.186129 287.259796 
L 372.51167 295.300366 
L 375.845108 302.722192 
L 379.188232 309.465382 
L 382.545504 315.284374 
L 386.485765 320.657308 
L 389.871186 325.003436 
L 393.265465 329.045814 
L 396.673056 332.537174 
L 400.092854 335.600891 
L 403.525595 338.236553 
L 406.97137 340.480712 
L 410.427047 342.543298 
L 413.892614 344.442555 
L 417.369811 346.103702 
L 421.440265 347.818416 
L 424.93554 349.381275 
L 428.441267 350.804403 
L 431.956779 352.13102 
L 435.48131 353.40449 
L 439.014417 354.649617 
L 442.555019 355.916267 
L 446.1046 357.142016 
L 449.663265 358.326751 
L 453.230587 359.491642 
L 457.403997 360.805994 
L 460.989516 361.958422 
L 464.584327 363.073934 
" style="fill:none;stroke:#1f77b4;stroke-dasharray:4.81,2.08;stroke-dashoffset:0;stroke-width:1.3;"/>
   </g>
   <g id="line2d_33">
    <path clip-path="url(#p11a081b08f)" d="M 258.593716 156.772215 
L 261.955967 173.978884 
L 265.266511 182.358219 
L 268.565976 188.227529 
L 271.862978 192.846237 
L 275.155311 194.95954 
L 278.452059 196.448501 
L 281.755628 197.940543 
L 285.066039 199.435675 
L 288.383313 200.933907 
L 291.707924 203.065564 
L 295.038789 205.20123 
L 298.375523 208.602712 
L 301.716174 213.270834 
L 305.058778 219.204929 
L 308.403738 225.143207 
L 311.748025 232.344577 
L 315.091511 240.176849 
L 318.433208 248.637822 
L 321.772132 257.724922 
L 325.115786 265.557696 
L 328.453508 274.641702 
L 331.795879 282.724524 
L 335.13799 290.869988 
L 338.482229 298.704239 
L 341.833114 305.668478 
L 345.185309 312.635437 
L 348.546516 318.673423 
L 351.917141 323.908355 
L 355.296748 328.527384 
L 358.685738 332.592913 
L 362.083736 336.229133 
L 365.492147 339.37374 
L 368.909654 342.212726 
L 372.338891 344.571627 
L 375.776441 346.785631 
L 379.223475 348.785992 
L 382.680209 350.584741 
L 386.145765 352.268729 
L 389.621109 353.787764 
L 393.106071 355.172665 
L 396.598515 356.573122 
L 400.100514 357.864035 
L 403.609505 359.207945 
L 407.128638 360.423206 
L 410.65611 361.622404 
L 414.192195 362.794189 
L 417.736109 363.983122 
L 421.288819 365.140797 
" style="fill:none;stroke:#ff7f0e;stroke-dasharray:4.81,2.08;stroke-dashoffset:0;stroke-width:1.3;"/>
   </g>
   <g id="line2d_34">
    <path clip-path="url(#p11a081b08f)" d="M 231.108276 147.580724 
L 234.651029 174.62689 
L 238.104549 193.916142 
L 241.492327 206.821732 
L 244.844786 215.92234 
L 248.17736 222.497754 
L 251.502804 227.815416 
L 254.827163 232.507383 
L 258.155183 237.204517 
L 261.483431 241.276437 
L 264.822227 246.614318 
L 268.164045 251.957032 
L 271.511343 257.934247 
L 274.861011 263.915697 
L 278.213053 269.901385 
L 281.568931 276.51975 
L 284.927541 283.706536 
L 288.286712 290.456676 
L 291.647376 297.084654 
L 295.009786 303.841272 
L 298.373924 310.163053 
L 301.74001 316.613766 
L 305.108802 322.505728 
L 308.481323 327.777412 
L 311.858276 332.554431 
L 315.240658 336.774639 
L 318.628944 340.563033 
L 322.023599 343.981961 
L 325.425534 346.968671 
L 328.834508 349.7103 
L 332.251556 352.100159 
L 335.676145 354.319229 
L 339.109567 356.223099 
L 342.551357 357.949039 
L 346.000799 359.628416 
L 349.458957 361.148077 
L 352.925392 362.589335 
L 356.40075 363.901655 
L 359.884069 365.204338 
L 363.375799 366.459538 
L 366.875921 367.679113 
" style="fill:none;stroke:#2ca02c;stroke-dasharray:4.81,2.08;stroke-dashoffset:0;stroke-width:1.3;"/>
   </g>
   <g id="line2d_35">
    <path clip-path="url(#p11a081b08f)" d="M 203.593662 193.727253 
L 207.150865 214.43924 
L 210.685874 234.436811 
L 214.118444 247.406484 
L 217.499121 256.567582 
L 220.85641 263.832648 
L 224.200453 269.838305 
L 227.540049 275.217572 
L 230.882686 280.601736 
L 234.224048 285.54961 
L 237.567169 290.313629 
L 240.918409 295.586954 
L 244.272839 300.865297 
L 247.630463 306.148667 
L 250.991286 311.43707 
L 254.356566 316.919227 
L 257.72447 322.343408 
L 261.094047 327.521129 
L 264.46475 332.264113 
L 267.839846 337.138143 
L 271.21563 341.263621 
L 274.594404 344.954753 
L 277.977801 348.525634 
L 281.365287 351.661849 
L 284.757932 354.551682 
L 288.156158 357.194836 
L 291.560342 359.527988 
L 294.971033 361.638809 
L 298.38862 363.533164 
L 301.813456 365.242136 
L 305.245697 366.891602 
L 308.68562 368.405565 
L 312.13332 369.846948 
" style="fill:none;stroke:#d62728;stroke-dasharray:4.81,2.08;stroke-dashoffset:0;stroke-width:1.3;"/>
   </g>
   <g id="line2d_36">
    <path clip-path="url(#p11a081b08f)" d="M 179.381665 262.498081 
L 182.921802 278.726364 
L 186.364318 289.789314 
L 189.746434 297.428802 
L 193.09939 303.237032 
L 196.445035 308.417931 
L 199.784362 312.972115 
L 203.125823 317.405378 
L 206.469623 321.717761 
L 209.818568 326.098844 
L 213.169231 330.295908 
L 216.524321 334.498517 
L 219.884615 338.769862 
L 223.244881 342.667682 
L 226.609933 346.571054 
L 229.976445 350.163989 
L 233.344927 353.44632 
L 236.718297 356.670758 
L 240.0944 359.584198 
L 243.472688 362.059662 
L 246.857983 364.615824 
L 250.247944 366.94864 
L 253.642912 369.051369 
L 257.043125 370.898164 
" style="fill:none;stroke:#9467bd;stroke-dasharray:4.81,2.08;stroke-dashoffset:0;stroke-width:1.3;"/>
   </g>
   <g id="line2d_37">
    <path clip-path="url(#p11a081b08f)" d="M 151.161622 306.704118 
L 154.657679 318.354458 
L 158.066686 326.186307 
L 161.432847 331.989879 
L 164.777924 336.656546 
L 168.10758 340.377175 
L 171.438418 343.912969 
L 174.770743 347.263821 
L 178.102472 350.302585 
L 181.444569 353.60066 
L 184.785362 356.522874 
L 188.134228 359.577375 
L 191.487795 362.573539 
L 194.843087 365.32043 
L 198.201513 367.881362 
L 201.563391 370.256043 
" style="fill:none;stroke:#8c564b;stroke-dasharray:4.81,2.08;stroke-dashoffset:0;stroke-width:1.3;"/>
   </g>
   <g id="line2d_38">
    <path clip-path="url(#p11a081b08f)" d="M 122.325727 343.62378 
L 125.706463 349.485288 
L 129.076409 354.841291 
L 132.41137 358.735362 
L 135.733228 361.933079 
L 139.049478 364.689205 
L 142.363955 367.130912 
L 145.681774 369.449478 
" style="fill:none;stroke:#e377c2;stroke-dasharray:4.81,2.08;stroke-dashoffset:0;stroke-width:1.3;"/>
   </g>
   <g id="Poly3DCollection_1">
    <path clip-path="url(#p11a081b08f)" d="M 278.392 225.557182 
L 278.621755 307.601463 
L 280.2398 308.08603 
L 280.2398 308.08603 
L 283.481283 309.056779 
L 283.481283 309.056779 
L 286.729975 310.029687 
L 286.729975 310.029687 
L 289.9859 311.004762 
L 289.9859 311.004762 
L 293.249083 311.982009 
L 293.249083 311.982009 
L 296.519547 312.961438 
L 296.519547 312.961438 
L 299.797317 313.943054 
L 299.797317 313.943054 
L 303.082418 314.926866 
L 303.082418 314.926866 
L 306.374874 315.912881 
L 306.374874 315.912881 
L 309.674711 316.901105 
L 309.674711 316.901105 
L 312.981952 317.891547 
L 312.981952 317.891547 
L 316.296622 318.884215 
L 316.296622 318.884215 
L 319.618748 319.879114 
L 319.618748 319.879114 
L 323.030323 320.900802 
L 323.030323 320.900802 
L 326.422392 321.916648 
L 326.422392 321.916648 
L 329.712446 322.901944 
L 329.712446 322.901944 
L 333.009812 323.889428 
L 333.009812 323.889428 
L 336.314513 324.87911 
L 336.314513 324.87911 
L 339.626574 325.870996 
L 339.626574 325.870996 
L 342.94602 326.865093 
L 342.94602 326.865093 
L 346.272876 327.861409 
L 346.272876 327.861409 
L 349.885359 328.943264 
L 349.885359 328.943264 
L 353.506599 330.027742 
L 353.506599 330.027742 
L 356.857081 331.031134 
L 356.857081 331.031134 
L 360.215077 332.036776 
L 360.215077 332.036776 
L 363.580612 333.044676 
L 363.580612 333.044676 
L 366.953712 334.054841 
L 366.953712 334.054841 
L 370.334401 335.06728 
L 370.334401 335.06728 
L 373.722705 336.081999 
L 373.722705 336.081999 
L 377.118651 337.099006 
L 377.118651 337.099006 
L 380.522264 338.118309 
L 380.522264 338.118309 
L 384.218194 339.225155 
L 384.218194 339.225155 
L 387.923185 340.334714 
L 387.923185 340.334714 
L 391.35125 341.36134 
L 391.35125 341.36134 
L 394.78709 342.390295 
L 394.78709 342.390295 
L 398.230733 343.421586 
L 398.230733 343.421586 
L 401.682205 344.455222 
L 401.682205 344.455222 
L 405.141534 345.491211 
L 405.141534 345.491211 
L 408.608745 346.529561 
L 408.608745 346.529561 
L 412.083866 347.570279 
L 412.083866 347.570279 
L 415.566924 348.613374 
L 415.566924 348.613374 
L 419.349225 349.746086 
L 419.349225 349.746086 
L 423.140908 350.881607 
L 423.140908 350.881607 
L 426.64928 351.932284 
L 426.64928 351.932284 
L 430.165703 352.985371 
L 430.165703 352.985371 
L 433.690205 354.040878 
L 433.690205 354.040878 
L 437.222814 355.098813 
L 437.222814 355.098813 
L 440.763558 356.159183 
L 440.763558 356.159183 
L 444.312464 357.221999 
L 444.312464 357.221999 
L 447.869562 358.287267 
L 447.869562 358.287267 
L 451.43488 359.354998 
L 451.43488 359.354998 
L 455.306616 360.514493 
L 455.306616 360.514493 
L 459.188068 361.676898 
L 459.188068 361.676898 
L 462.779603 362.75248 
L 462.779603 362.75248 
L 464.578496 363.291207 
L 464.584327 363.073934 
L 464.584327 363.073934 
L 462.785368 362.535314 
L 462.786401 362.496398 
L 459.194712 361.421069 
L 459.196747 361.342686 
L 455.315077 360.180638 
L 455.316712 360.116118 
L 451.444718 358.957048 
L 451.4471 358.860681 
L 447.881488 357.793437 
L 447.884357 357.674656 
L 444.326895 356.60999 
L 444.330724 356.447601 
L 440.781359 355.385546 
L 440.786097 355.179626 
L 437.244775 354.120217 
L 437.248972 353.933189 
L 433.715678 352.876398 
L 433.720447 352.658399 
L 430.195135 351.604246 
L 430.20097 351.330438 
L 426.683581 350.278971 
L 426.691321 349.905923 
L 423.18177 348.857228 
L 423.192178 348.34161 
L 419.3989 347.208778 
L 419.408621 346.712244 
L 415.624423 345.582741 
L 415.636188 344.962619 
L 412.15103 343.923085 
L 412.166891 343.061755 
L 408.689186 342.025431 
L 408.707544 340.997487 
L 405.237173 339.964526 
L 405.258163 338.751561 
L 401.794998 337.722132 
L 401.821939 336.113944 
L 398.365735 335.088422 
L 398.398789 333.048067 
L 394.949282 332.026861 
L 394.987978 329.554342 
L 391.544907 328.537862 
L 391.590643 325.509336 
L 388.15368 324.49811 
L 388.202259 321.160435 
L 384.485649 320.071048 
L 384.544345 315.867469 
L 380.834315 314.785192 
L 380.898824 309.961646 
L 377.479578 308.96968 
L 377.553422 303.214523 
L 374.138728 302.230419 
L 374.217897 295.788433 
L 370.807375 294.812851 
L 370.89044 287.743298 
L 367.483747 286.776842 
L 367.570073 279.07679 
L 364.166868 278.12007 
L 364.258481 269.537109 
L 360.85829 268.590986 
L 360.953044 259.244567 
L 357.555463 258.309789 
L 357.651401 248.319853 
L 354.256095 247.397053 
L 354.335536 238.638824 
L 350.660837 237.650872 
L 350.740689 228.250477 
L 347.069525 227.275048 
L 347.134157 219.114462 
L 343.749011 218.224303 
L 343.809422 210.051053 
L 340.427578 209.17105 
L 340.475111 202.24586 
L 337.097243 201.374759 
L 337.133187 195.703255 
L 333.759962 194.839793 
L 333.785618 190.426124 
L 330.4177 189.569029 
L 330.434378 186.415861 
L 327.072424 185.56386 
L 327.078435 184.302992 
L 323.611723 183.425919 
L 323.611723 183.425919 
L 320.125248 182.543846 
L 320.120608 183.802101 
L 316.726382 182.941921 
L 316.718439 185.45441 
L 313.33332 184.593657 
L 313.325057 187.728342 
L 309.949336 186.866391 
L 309.941408 190.620199 
L 306.575368 189.756432 
L 306.568424 194.125947 
L 303.212344 193.259754 
L 303.207025 198.241225 
L 299.861181 197.372005 
L 299.859139 201.099316 
L 296.522832 200.22834 
L 296.522669 205.805638 
L 293.196814 204.931069 
L 293.198625 208.640197 
L 289.882211 207.763915 
L 289.889023 214.54613 
L 286.583586 213.665093 
L 286.589191 217.354791 
L 283.293096 216.472087 
L 283.304318 221.993224 
L 280.018459 221.107055 
L 280.030915 226.001931 
L 278.392 225.557182 
z
" style="fill:#1f77b4;fill-opacity:0.1;"/>
   </g>
   <g id="Poly3DCollection_2">
    <path clip-path="url(#p11a081b08f)" d="M 278.392 225.557182 
L 278.621755 307.601463 
L 280.2398 308.08603 
L 280.2398 308.08603 
L 283.481283 309.056779 
L 283.481283 309.056779 
L 286.729975 310.029687 
L 286.729975 310.029687 
L 289.9859 311.004762 
L 289.9859 311.004762 
L 293.249083 311.982009 
L 293.249083 311.982009 
L 296.519547 312.961438 
L 296.519547 312.961438 
L 299.797317 313.943054 
L 299.797317 313.943054 
L 303.082418 314.926866 
L 303.082418 314.926866 
L 306.374874 315.912881 
L 306.374874 315.912881 
L 309.674711 316.901105 
L 309.674711 316.901105 
L 312.981952 317.891547 
L 312.981952 317.891547 
L 316.296622 318.884215 
L 316.296622 318.884215 
L 319.618748 319.879114 
L 319.618748 319.879114 
L 323.030323 320.900802 
L 323.030323 320.900802 
L 326.422392 321.916648 
L 326.422392 321.916648 
L 329.712446 322.901944 
L 329.712446 322.901944 
L 333.009812 323.889428 
L 333.009812 323.889428 
L 336.314513 324.87911 
L 336.314513 324.87911 
L 339.626574 325.870996 
L 339.626574 325.870996 
L 342.94602 326.865093 
L 342.94602 326.865093 
L 346.272876 327.861409 
L 346.272876 327.861409 
L 349.885359 328.943264 
L 349.885359 328.943264 
L 353.506599 330.027742 
L 353.506599 330.027742 
L 356.857081 331.031134 
L 356.857081 331.031134 
L 360.215077 332.036776 
L 360.215077 332.036776 
L 363.580612 333.044676 
L 363.580612 333.044676 
L 366.953712 334.054841 
L 366.953712 334.054841 
L 370.334401 335.06728 
L 370.334401 335.06728 
L 373.722705 336.081999 
L 373.722705 336.081999 
L 377.118651 337.099006 
L 377.118651 337.099006 
L 380.522264 338.118309 
L 380.522264 338.118309 
L 384.218194 339.225155 
L 384.218194 339.225155 
L 387.923185 340.334714 
L 387.923185 340.334714 
L 391.35125 341.36134 
L 391.35125 341.36134 
L 394.78709 342.390295 
L 394.78709 342.390295 
L 398.230733 343.421586 
L 398.230733 343.421586 
L 401.682205 344.455222 
L 401.682205 344.455222 
L 405.141534 345.491211 
L 405.141534 345.491211 
L 408.608745 346.529561 
L 408.608745 346.529561 
L 412.083866 347.570279 
L 412.083866 347.570279 
L 415.566924 348.613374 
L 415.566924 348.613374 
L 419.349225 349.746086 
L 419.349225 349.746086 
L 423.140908 350.881607 
L 423.140908 350.881607 
L 426.64928 351.932284 
L 426.64928 351.932284 
L 430.165703 352.985371 
L 430.165703 352.985371 
L 433.690205 354.040878 
L 433.690205 354.040878 
L 437.222814 355.098813 
L 437.222814 355.098813 
L 440.763558 356.159183 
L 440.763558 356.159183 
L 444.312464 357.221999 
L 444.312464 357.221999 
L 447.869562 358.287267 
L 447.869562 358.287267 
L 451.43488 359.354998 
L 451.43488 359.354998 
L 455.306616 360.514493 
L 455.306616 360.514493 
L 459.188068 361.676898 
L 459.188068 361.676898 
L 462.779603 362.75248 
L 462.779603 362.75248 
L 464.578496 363.291207 
L 464.584327 363.073934 
L 464.584327 363.073934 
L 462.785368 362.535314 
L 462.786401 362.496398 
L 459.194712 361.421069 
L 459.196747 361.342686 
L 455.315077 360.180638 
L 455.316712 360.116118 
L 451.444718 358.957048 
L 451.4471 358.860681 
L 447.881488 357.793437 
L 447.884357 357.674656 
L 444.326895 356.60999 
L 444.330724 356.447601 
L 440.781359 355.385546 
L 440.786097 355.179626 
L 437.244775 354.120217 
L 437.248972 353.933189 
L 433.715678 352.876398 
L 433.720447 352.658399 
L 430.195135 351.604246 
L 430.20097 351.330438 
L 426.683581 350.278971 
L 426.691321 349.905923 
L 423.18177 348.857228 
L 423.192178 348.34161 
L 419.3989 347.208778 
L 419.408621 346.712244 
L 415.624423 345.582741 
L 415.636188 344.962619 
L 412.15103 343.923085 
L 412.166891 343.061755 
L 408.689186 342.025431 
L 408.707544 340.997487 
L 405.237173 339.964526 
L 405.258163 338.751561 
L 401.794998 337.722132 
L 401.821939 336.113944 
L 398.365735 335.088422 
L 398.398789 333.048067 
L 394.949282 332.026861 
L 394.987978 329.554342 
L 391.544907 328.537862 
L 391.590643 325.509336 
L 388.15368 324.49811 
L 388.202259 321.160435 
L 384.485649 320.071048 
L 384.544345 315.867469 
L 380.834315 314.785192 
L 380.898824 309.961646 
L 377.479578 308.96968 
L 377.553422 303.214523 
L 374.138728 302.230419 
L 374.217897 295.788433 
L 370.807375 294.812851 
L 370.89044 287.743298 
L 367.483747 286.776842 
L 367.570073 279.07679 
L 364.166868 278.12007 
L 364.258481 269.537109 
L 360.85829 268.590986 
L 360.953044 259.244567 
L 357.555463 258.309789 
L 357.651401 248.319853 
L 354.256095 247.397053 
L 354.335536 238.638824 
L 350.660837 237.650872 
L 350.740689 228.250477 
L 347.069525 227.275048 
L 347.134157 219.114462 
L 343.749011 218.224303 
L 343.809422 210.051053 
L 340.427578 209.17105 
L 340.475111 202.24586 
L 337.097243 201.374759 
L 337.133187 195.703255 
L 333.759962 194.839793 
L 333.785618 190.426124 
L 330.4177 189.569029 
L 330.434378 186.415861 
L 327.072424 185.56386 
L 327.078435 184.302992 
L 323.611723 183.425919 
L 323.611723 183.425919 
L 320.125248 182.543846 
L 320.120608 183.802101 
L 316.726382 182.941921 
L 316.718439 185.45441 
L 313.33332 184.593657 
L 313.325057 187.728342 
L 309.949336 186.866391 
L 309.941408 190.620199 
L 306.575368 189.756432 
L 306.568424 194.125947 
L 303.212344 193.259754 
L 303.207025 198.241225 
L 299.861181 197.372005 
L 299.859139 201.099316 
L 296.522832 200.22834 
L 296.522669 205.805638 
L 293.196814 204.931069 
L 293.198625 208.640197 
L 289.882211 207.763915 
L 289.889023 214.54613 
L 286.583586 213.665093 
L 286.589191 217.354791 
L 283.293096 216.472087 
L 283.304318 221.993224 
L 280.018459 221.107055 
L 280.030915 226.001931 
L 278.392 225.557182 
z
" style="fill:#1f77b4;fill-opacity:0.1;"/>
   </g>
   <g id="Poly3DCollection_3">
    <path clip-path="url(#p11a081b08f)" d="M 258.593716 156.772215 
L 259.523167 316.261368 
L 261.119935 316.747488 
L 261.119935 316.747488 
L 264.318758 317.721336 
L 264.318758 317.721336 
L 267.524647 318.697336 
L 267.524647 318.697336 
L 270.737627 319.675494 
L 270.737627 319.675494 
L 273.95772 320.655818 
L 273.95772 320.655818 
L 277.184952 321.638315 
L 277.184952 321.638315 
L 280.419344 322.622993 
L 280.419344 322.622993 
L 283.660922 323.609857 
L 283.660922 323.609857 
L 286.909709 324.598917 
L 286.909709 324.598917 
L 290.165729 325.590178 
L 290.165729 325.590178 
L 293.429006 326.583649 
L 293.429006 326.583649 
L 296.699565 327.579337 
L 296.699565 327.579337 
L 299.97743 328.577249 
L 299.97743 328.577249 
L 303.262626 329.577393 
L 303.262626 329.577393 
L 306.555177 330.579775 
L 306.555177 330.579775 
L 309.855108 331.584405 
L 309.855108 331.584405 
L 313.162443 332.591289 
L 313.162443 332.591289 
L 316.477209 333.600435 
L 316.477209 333.600435 
L 319.799429 334.61185 
L 319.799429 334.61185 
L 323.129129 335.625543 
L 323.129129 335.625543 
L 326.466334 336.641521 
L 326.466334 336.641521 
L 329.81107 337.659791 
L 329.81107 337.659791 
L 333.163363 338.680361 
L 333.163363 338.680361 
L 336.523237 339.70324 
L 336.523237 339.70324 
L 339.890718 340.728435 
L 339.890718 340.728435 
L 343.265834 341.755954 
L 343.265834 341.755954 
L 346.648608 342.785804 
L 346.648608 342.785804 
L 350.039068 343.817995 
L 350.039068 343.817995 
L 353.43724 344.852533 
L 353.43724 344.852533 
L 356.84315 345.889427 
L 356.84315 345.889427 
L 360.256824 346.928684 
L 360.256824 346.928684 
L 363.67829 347.970314 
L 363.67829 347.970314 
L 367.107573 349.014324 
L 367.107573 349.014324 
L 370.544701 350.060722 
L 370.544701 350.060722 
L 373.989701 351.109516 
L 373.989701 351.109516 
L 377.442599 352.160715 
L 377.442599 352.160715 
L 380.903423 353.214327 
L 380.903423 353.214327 
L 384.372201 354.27036 
L 384.372201 354.27036 
L 387.848959 355.328823 
L 387.848959 355.328823 
L 391.333725 356.389724 
L 391.333725 356.389724 
L 394.826527 357.453072 
L 394.826527 357.453072 
L 398.327393 358.518874 
L 398.327393 358.518874 
L 401.83635 359.58714 
L 401.83635 359.58714 
L 405.353428 360.657877 
L 405.353428 360.657877 
L 408.878653 361.731096 
L 408.878653 361.731096 
L 412.412055 362.806803 
L 412.412055 362.806803 
L 415.953662 363.885008 
L 415.953662 363.885008 
L 419.503502 364.96572 
L 419.503502 364.96572 
L 421.281518 365.507019 
L 421.288819 365.140797 
L 421.288819 365.140797 
L 419.510694 364.59968 
L 419.51219 364.523573 
L 415.96209 363.443298 
L 415.964188 363.333332 
L 412.422258 362.255672 
L 412.424024 362.16025 
L 408.890245 361.085181 
L 408.892496 360.959745 
L 405.366821 359.887287 
L 405.369326 359.743172 
L 401.851718 358.673336 
L 401.85635 358.397891 
L 398.346705 357.330796 
L 398.350365 357.105636 
L 394.848685 356.041223 
L 394.853981 355.703785 
L 391.360174 354.642157 
L 391.365088 354.317501 
L 387.879137 353.258635 
L 387.885866 352.797022 
L 384.407665 351.741043 
L 384.416492 351.111512 
L 380.94592 350.058575 
L 380.955985 349.311187 
L 377.492952 348.261399 
L 377.505249 347.309156 
L 374.049615 346.262705 
L 374.064069 345.093381 
L 370.615689 344.050471 
L 370.631254 342.732641 
L 367.190023 341.693406 
L 367.210315 339.891585 
L 363.775942 338.856487 
L 363.798568 336.744763 
L 360.370861 335.714093 
L 360.397381 333.10609 
L 356.976049 332.080322 
L 357.005329 329.037902 
L 353.590116 328.017448 
L 353.62282 324.415947 
L 350.213405 323.401341 
L 350.24947 319.17779 
L 346.845502 318.169629 
L 346.885763 313.13619 
L 343.486791 312.135254 
L 343.531326 306.165163 
L 340.136837 305.172359 
L 340.178199 299.196858 
L 336.788189 298.21218 
L 336.831957 291.358116 
L 333.445951 290.382416 
L 333.487928 283.208007 
L 330.105756 282.241592 
L 330.143622 275.120571 
L 326.765318 274.163379 
L 326.804233 266.031455 
L 323.429261 265.084476 
L 323.458577 258.19419 
L 320.087607 257.256187 
L 320.117985 249.101977 
L 316.75035 248.174195 
L 316.774452 240.636202 
L 313.410486 239.71802 
L 313.428964 232.79944 
L 310.069 231.890233 
L 310.082509 225.593896 
L 306.726877 224.693032 
L 306.735052 219.652076 
L 303.384411 218.758291 
L 303.389954 213.714445 
L 300.044298 212.827727 
L 300.046484 209.043423 
L 296.706462 208.162502 
L 296.706608 205.639679 
L 293.372864 204.76328 
L 293.372283 203.502387 
L 290.045454 202.629236 
L 290.044221 201.36911 
L 286.724287 200.499197 
L 286.723346 199.869578 
L 283.410609 199.002264 
L 283.409345 198.37315 
L 280.103783 197.508426 
L 280.102197 196.879817 
L 276.803787 196.017673 
L 276.801881 195.389568 
L 273.5106 194.529997 
L 273.50615 193.274671 
L 270.221659 192.418288 
L 270.206393 188.653123 
L 266.927408 187.802416 
L 266.904494 182.780353 
L 263.630374 181.936562 
L 263.592148 174.396306 
L 260.32163 173.561932 
L 260.230298 157.180502 
L 258.593716 156.772215 
z
" style="fill:#ff7f0e;fill-opacity:0.1;"/>
   </g>
   <g id="Poly3DCollection_4">
    <path clip-path="url(#p11a081b08f)" d="M 258.593716 156.772215 
L 259.523167 316.261368 
L 261.119935 316.747488 
L 261.119935 316.747488 
L 264.318758 317.721336 
L 264.318758 317.721336 
L 267.524647 318.697336 
L 267.524647 318.697336 
L 270.737627 319.675494 
L 270.737627 319.675494 
L 273.95772 320.655818 
L 273.95772 320.655818 
L 277.184952 321.638315 
L 277.184952 321.638315 
L 280.419344 322.622993 
L 280.419344 322.622993 
L 283.660922 323.609857 
L 283.660922 323.609857 
L 286.909709 324.598917 
L 286.909709 324.598917 
L 290.165729 325.590178 
L 290.165729 325.590178 
L 293.429006 326.583649 
L 293.429006 326.583649 
L 296.699565 327.579337 
L 296.699565 327.579337 
L 299.97743 328.577249 
L 299.97743 328.577249 
L 303.262626 329.577393 
L 303.262626 329.577393 
L 306.555177 330.579775 
L 306.555177 330.579775 
L 309.855108 331.584405 
L 309.855108 331.584405 
L 313.162443 332.591289 
L 313.162443 332.591289 
L 316.477209 333.600435 
L 316.477209 333.600435 
L 319.799429 334.61185 
L 319.799429 334.61185 
L 323.129129 335.625543 
L 323.129129 335.625543 
L 326.466334 336.641521 
L 326.466334 336.641521 
L 329.81107 337.659791 
L 329.81107 337.659791 
L 333.163363 338.680361 
L 333.163363 338.680361 
L 336.523237 339.70324 
L 336.523237 339.70324 
L 339.890718 340.728435 
L 339.890718 340.728435 
L 343.265834 341.755954 
L 343.265834 341.755954 
L 346.648608 342.785804 
L 346.648608 342.785804 
L 350.039068 343.817995 
L 350.039068 343.817995 
L 353.43724 344.852533 
L 353.43724 344.852533 
L 356.84315 345.889427 
L 356.84315 345.889427 
L 360.256824 346.928684 
L 360.256824 346.928684 
L 363.67829 347.970314 
L 363.67829 347.970314 
L 367.107573 349.014324 
L 367.107573 349.014324 
L 370.544701 350.060722 
L 370.544701 350.060722 
L 373.989701 351.109516 
L 373.989701 351.109516 
L 377.442599 352.160715 
L 377.442599 352.160715 
L 380.903423 353.214327 
L 380.903423 353.214327 
L 384.372201 354.27036 
L 384.372201 354.27036 
L 387.848959 355.328823 
L 387.848959 355.328823 
L 391.333725 356.389724 
L 391.333725 356.389724 
L 394.826527 357.453072 
L 394.826527 357.453072 
L 398.327393 358.518874 
L 398.327393 358.518874 
L 401.83635 359.58714 
L 401.83635 359.58714 
L 405.353428 360.657877 
L 405.353428 360.657877 
L 408.878653 361.731096 
L 408.878653 361.731096 
L 412.412055 362.806803 
L 412.412055 362.806803 
L 415.953662 363.885008 
L 415.953662 363.885008 
L 419.503502 364.96572 
L 419.503502 364.96572 
L 421.281518 365.507019 
L 421.288819 365.140797 
L 421.288819 365.140797 
L 419.510694 364.59968 
L 419.51219 364.523573 
L 415.96209 363.443298 
L 415.964188 363.333332 
L 412.422258 362.255672 
L 412.424024 362.16025 
L 408.890245 361.085181 
L 408.892496 360.959745 
L 405.366821 359.887287 
L 405.369326 359.743172 
L 401.851718 358.673336 
L 401.85635 358.397891 
L 398.346705 357.330796 
L 398.350365 357.105636 
L 394.848685 356.041223 
L 394.853981 355.703785 
L 391.360174 354.642157 
L 391.365088 354.317501 
L 387.879137 353.258635 
L 387.885866 352.797022 
L 384.407665 351.741043 
L 384.416492 351.111512 
L 380.94592 350.058575 
L 380.955985 349.311187 
L 377.492952 348.261399 
L 377.505249 347.309156 
L 374.049615 346.262705 
L 374.064069 345.093381 
L 370.615689 344.050471 
L 370.631254 342.732641 
L 367.190023 341.693406 
L 367.210315 339.891585 
L 363.775942 338.856487 
L 363.798568 336.744763 
L 360.370861 335.714093 
L 360.397381 333.10609 
L 356.976049 332.080322 
L 357.005329 329.037902 
L 353.590116 328.017448 
L 353.62282 324.415947 
L 350.213405 323.401341 
L 350.24947 319.17779 
L 346.845502 318.169629 
L 346.885763 313.13619 
L 343.486791 312.135254 
L 343.531326 306.165163 
L 340.136837 305.172359 
L 340.178199 299.196858 
L 336.788189 298.21218 
L 336.831957 291.358116 
L 333.445951 290.382416 
L 333.487928 283.208007 
L 330.105756 282.241592 
L 330.143622 275.120571 
L 326.765318 274.163379 
L 326.804233 266.031455 
L 323.429261 265.084476 
L 323.458577 258.19419 
L 320.087607 257.256187 
L 320.117985 249.101977 
L 316.75035 248.174195 
L 316.774452 240.636202 
L 313.410486 239.71802 
L 313.428964 232.79944 
L 310.069 231.890233 
L 310.082509 225.593896 
L 306.726877 224.693032 
L 306.735052 219.652076 
L 303.384411 218.758291 
L 303.389954 213.714445 
L 300.044298 212.827727 
L 300.046484 209.043423 
L 296.706462 208.162502 
L 296.706608 205.639679 
L 293.372864 204.76328 
L 293.372283 203.502387 
L 290.045454 202.629236 
L 290.044221 201.36911 
L 286.724287 200.499197 
L 286.723346 199.869578 
L 283.410609 199.002264 
L 283.409345 198.37315 
L 280.103783 197.508426 
L 280.102197 196.879817 
L 276.803787 196.017673 
L 276.801881 195.389568 
L 273.5106 194.529997 
L 273.50615 193.274671 
L 270.221659 192.418288 
L 270.206393 188.653123 
L 266.927408 187.802416 
L 266.904494 182.780353 
L 263.630374 181.936562 
L 263.592148 174.396306 
L 260.32163 173.561932 
L 260.230298 157.180502 
L 258.593716 156.772215 
z
" style="fill:#ff7f0e;fill-opacity:0.1;"/>
   </g>
   <g id="Poly3DCollection_5">
    <path clip-path="url(#p11a081b08f)" d="M 231.108276 147.580724 
L 232.909213 326.646367 
L 234.509951 327.144003 
L 234.509951 327.144003 
L 237.716789 328.140942 
L 237.716789 328.140942 
L 240.930795 329.14011 
L 240.930795 329.14011 
L 244.151993 330.141514 
L 244.151993 330.141514 
L 247.380407 331.145161 
L 247.380407 331.145161 
L 250.616063 332.151059 
L 250.616063 332.151059 
L 253.858983 333.159215 
L 253.858983 333.159215 
L 257.109193 334.169638 
L 257.109193 334.169638 
L 260.366718 335.182335 
L 260.366718 335.182335 
L 263.631581 336.197313 
L 263.631581 336.197313 
L 266.903808 337.214581 
L 266.903808 337.214581 
L 270.183424 338.234145 
L 270.183424 338.234145 
L 273.470453 339.256014 
L 273.470453 339.256014 
L 276.764922 340.280196 
L 276.764922 340.280196 
L 280.066855 341.306699 
L 280.066855 341.306699 
L 283.376277 342.335529 
L 283.376277 342.335529 
L 286.693215 343.366696 
L 286.693215 343.366696 
L 290.017693 344.400208 
L 290.017693 344.400208 
L 293.349738 345.436071 
L 293.349738 345.436071 
L 296.689375 346.474295 
L 296.689375 346.474295 
L 300.036631 347.514887 
L 300.036631 347.514887 
L 303.391531 348.557856 
L 303.391531 348.557856 
L 306.754101 349.603209 
L 306.754101 349.603209 
L 310.124369 350.650956 
L 310.124369 350.650956 
L 313.50236 351.701103 
L 313.50236 351.701103 
L 316.888102 352.75366 
L 316.888102 352.75366 
L 320.28162 353.808634 
L 320.28162 353.808634 
L 323.682941 354.866034 
L 323.682941 354.866034 
L 327.092093 355.925869 
L 327.092093 355.925869 
L 330.509103 356.988146 
L 330.509103 356.988146 
L 333.933997 358.052875 
L 333.933997 358.052875 
L 337.366804 359.120063 
L 337.366804 359.120063 
L 340.80755 360.189719 
L 340.80755 360.189719 
L 344.256263 361.261853 
L 344.256263 361.261853 
L 347.712971 362.336472 
L 347.712971 362.336472 
L 351.177702 363.413584 
L 351.177702 363.413584 
L 354.650483 364.4932 
L 354.650483 364.4932 
L 358.131343 365.575327 
L 358.131343 365.575327 
L 361.62031 366.659975 
L 361.62031 366.659975 
L 365.117413 367.747151 
L 365.117413 367.747151 
L 366.869024 368.291691 
L 366.875921 367.679113 
L 366.875921 367.679113 
L 365.124135 367.134877 
L 365.125582 367.003074 
L 361.628055 365.916636 
L 361.629827 365.746525 
L 358.140341 364.662782 
L 358.142513 364.442473 
L 354.661012 363.361466 
L 354.663176 363.128782 
L 351.189625 362.050515 
L 351.192813 361.686092 
L 347.727111 360.610686 
L 347.730763 360.164965 
L 344.272839 359.092489 
L 344.277487 358.484046 
L 340.827224 357.414652 
L 340.83189 356.756544 
L 337.389234 355.690271 
L 337.394723 354.851028 
L 333.959551 353.788044 
L 333.966489 352.630162 
L 330.538601 351.570769 
L 330.545856 350.238424 
L 327.125133 349.182784 
L 327.133404 347.494748 
L 323.719631 346.443199 
L 323.72807 344.505875 
L 320.32109 343.458649 
L 320.330143 341.084575 
L 316.929701 340.042091 
L 316.938696 337.293631 
L 313.544571 336.256244 
L 313.553277 333.070663 
L 310.16522 332.038791 
L 310.173447 328.290615 
L 306.791141 327.264797 
L 306.798187 323.015662 
L 303.421354 321.996379 
L 303.426829 317.120128 
L 300.055125 316.107984 
L 300.058329 310.66557 
L 296.691448 309.661112 
L 296.691748 304.34001 
L 293.32975 303.343105 
L 293.327013 297.579401 
L 289.969663 296.590475 
L 289.963994 290.947497 
L 286.611351 289.966417 
L 286.602501 284.193373 
L 283.254498 283.220256 
L 283.241689 277.002388 
L 279.898089 276.037664 
L 279.88346 270.380109 
L 276.544557 269.42321 
L 276.528907 264.390823 
L 273.195023 263.441114 
L 273.17673 258.405781 
L 269.847859 257.463252 
L 269.826928 252.424979 
L 266.503064 251.489619 
L 266.482445 247.078998 
L 263.163906 246.150169 
L 263.14099 241.737855 
L 259.827766 240.815546 
L 259.809763 237.663309 
L 256.502491 236.746249 
L 256.478932 232.96324 
L 253.177278 232.052046 
L 253.151767 228.268344 
L 249.855721 227.363003 
L 249.823682 222.947445 
L 246.532915 222.048576 
L 246.488788 216.368166 
L 243.202657 215.477021 
L 243.134646 207.26243 
L 239.85188 206.381536 
L 239.746134 194.349796 
L 236.464835 193.482983 
L 236.293461 175.05026 
L 233.010472 174.204003 
L 232.753459 147.989819 
L 231.108276 147.580724 
z
" style="fill:#2ca02c;fill-opacity:0.1;"/>
   </g>
   <g id="Poly3DCollection_6">
    <path clip-path="url(#p11a081b08f)" d="M 231.108276 147.580724 
L 232.909213 326.646367 
L 234.509951 327.144003 
L 234.509951 327.144003 
L 237.716789 328.140942 
L 237.716789 328.140942 
L 240.930795 329.14011 
L 240.930795 329.14011 
L 244.151993 330.141514 
L 244.151993 330.141514 
L 247.380407 331.145161 
L 247.380407 331.145161 
L 250.616063 332.151059 
L 250.616063 332.151059 
L 253.858983 333.159215 
L 253.858983 333.159215 
L 257.109193 334.169638 
L 257.109193 334.169638 
L 260.366718 335.182335 
L 260.366718 335.182335 
L 263.631581 336.197313 
L 263.631581 336.197313 
L 266.903808 337.214581 
L 266.903808 337.214581 
L 270.183424 338.234145 
L 270.183424 338.234145 
L 273.470453 339.256014 
L 273.470453 339.256014 
L 276.764922 340.280196 
L 276.764922 340.280196 
L 280.066855 341.306699 
L 280.066855 341.306699 
L 283.376277 342.335529 
L 283.376277 342.335529 
L 286.693215 343.366696 
L 286.693215 343.366696 
L 290.017693 344.400208 
L 290.017693 344.400208 
L 293.349738 345.436071 
L 293.349738 345.436071 
L 296.689375 346.474295 
L 296.689375 346.474295 
L 300.036631 347.514887 
L 300.036631 347.514887 
L 303.391531 348.557856 
L 303.391531 348.557856 
L 306.754101 349.603209 
L 306.754101 349.603209 
L 310.124369 350.650956 
L 310.124369 350.650956 
L 313.50236 351.701103 
L 313.50236 351.701103 
L 316.888102 352.75366 
L 316.888102 352.75366 
L 320.28162 353.808634 
L 320.28162 353.808634 
L 323.682941 354.866034 
L 323.682941 354.866034 
L 327.092093 355.925869 
L 327.092093 355.925869 
L 330.509103 356.988146 
L 330.509103 356.988146 
L 333.933997 358.052875 
L 333.933997 358.052875 
L 337.366804 359.120063 
L 337.366804 359.120063 
L 340.80755 360.189719 
L 340.80755 360.189719 
L 344.256263 361.261853 
L 344.256263 361.261853 
L 347.712971 362.336472 
L 347.712971 362.336472 
L 351.177702 363.413584 
L 351.177702 363.413584 
L 354.650483 364.4932 
L 354.650483 364.4932 
L 358.131343 365.575327 
L 358.131343 365.575327 
L 361.62031 366.659975 
L 361.62031 366.659975 
L 365.117413 367.747151 
L 365.117413 367.747151 
L 366.869024 368.291691 
L 366.875921 367.679113 
L 366.875921 367.679113 
L 365.124135 367.134877 
L 365.125582 367.003074 
L 361.628055 365.916636 
L 361.629827 365.746525 
L 358.140341 364.662782 
L 358.142513 364.442473 
L 354.661012 363.361466 
L 354.663176 363.128782 
L 351.189625 362.050515 
L 351.192813 361.686092 
L 347.727111 360.610686 
L 347.730763 360.164965 
L 344.272839 359.092489 
L 344.277487 358.484046 
L 340.827224 357.414652 
L 340.83189 356.756544 
L 337.389234 355.690271 
L 337.394723 354.851028 
L 333.959551 353.788044 
L 333.966489 352.630162 
L 330.538601 351.570769 
L 330.545856 350.238424 
L 327.125133 349.182784 
L 327.133404 347.494748 
L 323.719631 346.443199 
L 323.72807 344.505875 
L 320.32109 343.458649 
L 320.330143 341.084575 
L 316.929701 340.042091 
L 316.938696 337.293631 
L 313.544571 336.256244 
L 313.553277 333.070663 
L 310.16522 332.038791 
L 310.173447 328.290615 
L 306.791141 327.264797 
L 306.798187 323.015662 
L 303.421354 321.996379 
L 303.426829 317.120128 
L 300.055125 316.107984 
L 300.058329 310.66557 
L 296.691448 309.661112 
L 296.691748 304.34001 
L 293.32975 303.343105 
L 293.327013 297.579401 
L 289.969663 296.590475 
L 289.963994 290.947497 
L 286.611351 289.966417 
L 286.602501 284.193373 
L 283.254498 283.220256 
L 283.241689 277.002388 
L 279.898089 276.037664 
L 279.88346 270.380109 
L 276.544557 269.42321 
L 276.528907 264.390823 
L 273.195023 263.441114 
L 273.17673 258.405781 
L 269.847859 257.463252 
L 269.826928 252.424979 
L 266.503064 251.489619 
L 266.482445 247.078998 
L 263.163906 246.150169 
L 263.14099 241.737855 
L 259.827766 240.815546 
L 259.809763 237.663309 
L 256.502491 236.746249 
L 256.478932 232.96324 
L 253.177278 232.052046 
L 253.151767 228.268344 
L 249.855721 227.363003 
L 249.823682 222.947445 
L 246.532915 222.048576 
L 246.488788 216.368166 
L 243.202657 215.477021 
L 243.134646 207.26243 
L 239.85188 206.381536 
L 239.746134 194.349796 
L 236.464835 193.482983 
L 236.293461 175.05026 
L 233.010472 174.204003 
L 232.753459 147.989819 
L 231.108276 147.580724 
z
" style="fill:#2ca02c;fill-opacity:0.1;"/>
   </g>
   <g id="Poly3DCollection_7">
    <path clip-path="url(#p11a081b08f)" d="M 203.593662 193.727253 
L 205.661147 337.278802 
L 207.265592 337.788369 
L 207.265592 337.788369 
L 210.479919 338.80923 
L 210.479919 338.80923 
L 213.701517 339.8324 
L 213.701517 339.8324 
L 216.930411 340.857888 
L 216.930411 340.857888 
L 220.166625 341.8857 
L 220.166625 341.8857 
L 223.410184 342.915845 
L 223.410184 342.915845 
L 226.661113 343.948331 
L 226.661113 343.948331 
L 229.919438 344.983166 
L 229.919438 344.983166 
L 233.185184 346.020358 
L 233.185184 346.020358 
L 236.458375 347.059914 
L 236.458375 347.059914 
L 239.739039 348.101843 
L 239.739039 348.101843 
L 243.027199 349.146154 
L 243.027199 349.146154 
L 246.322882 350.192854 
L 246.322882 350.192854 
L 249.626115 351.241951 
L 249.626115 351.241951 
L 252.936921 352.293454 
L 252.936921 352.293454 
L 256.255329 353.347371 
L 256.255329 353.347371 
L 259.581364 354.40371 
L 259.581364 354.40371 
L 262.915052 355.46248 
L 262.915052 355.46248 
L 266.25642 356.523689 
L 266.25642 356.523689 
L 269.605494 357.587345 
L 269.605494 357.587345 
L 272.962301 358.653458 
L 272.962301 358.653458 
L 276.326868 359.722035 
L 276.326868 359.722035 
L 279.699222 360.793085 
L 279.699222 360.793085 
L 283.07939 361.866616 
L 283.07939 361.866616 
L 286.467399 362.942638 
L 286.467399 362.942638 
L 289.863276 364.021159 
L 289.863276 364.021159 
L 293.267049 365.102188 
L 293.267049 365.102188 
L 296.678745 366.185733 
L 296.678745 366.185733 
L 300.098393 367.271803 
L 300.098393 367.271803 
L 303.526019 368.360408 
L 303.526019 368.360408 
L 306.961652 369.451555 
L 306.961652 369.451555 
L 310.40532 370.545255 
L 310.40532 370.545255 
L 312.130176 371.093064 
L 312.13332 369.846948 
L 312.13332 369.846948 
L 310.408119 369.299758 
L 310.4089 368.951942 
L 306.964353 367.859827 
L 306.965071 367.436493 
L 303.52833 366.347346 
L 303.528974 365.785478 
L 300.099937 364.699428 
L 300.100312 364.07493 
L 296.67892 362.992029 
L 296.678965 362.178911 
L 293.265089 361.099335 
L 293.264584 360.066323 
L 289.858082 358.990279 
L 289.856782 357.731297 
L 286.457509 356.658998 
L 286.455034 355.08612 
L 283.062799 354.017865 
L 283.058944 352.194146 
L 279.673593 351.13017 
L 279.66809 349.055671 
L 276.289469 347.996211 
L 276.281451 345.48232 
L 272.909308 344.427797 
L 272.899477 341.788662 
L 269.53373 340.739187 
L 269.520617 337.660447 
L 266.161018 336.616442 
L 266.142649 332.783313 
L 262.788789 331.745512 
L 262.769047 328.037295 
L 259.42098 327.005559 
L 259.396691 322.856327 
L 256.054177 321.831081 
L 256.02608 317.428781 
L 252.688978 316.410261 
L 252.658112 311.943233 
L 249.326381 310.93149 
L 249.294557 306.651539 
L 245.968286 305.646374 
L 245.934205 301.364884 
L 242.613386 300.366285 
L 242.577052 296.083262 
L 239.261675 295.091216 
L 239.223093 290.806665 
L 235.91315 289.821161 
L 235.877129 286.03963 
L 232.572868 285.060154 
L 232.532977 281.088652 
L 229.234291 280.115378 
L 229.187667 275.701172 
L 225.894324 274.734529 
L 225.845402 270.318593 
L 222.557392 269.358569 
L 222.498853 264.309314 
L 219.215853 263.356528 
L 219.139377 257.04 
L 215.860747 256.095706 
L 215.756988 247.873706 
L 212.481781 246.939799 
L 212.32365 234.89692 
L 209.049978 233.977231 
L 208.789605 214.888673 
L 205.514012 213.990325 
L 205.233518 194.165602 
L 203.593662 193.727253 
z
" style="fill:#d62728;fill-opacity:0.1;"/>
   </g>
   <g id="Poly3DCollection_8">
    <path clip-path="url(#p11a081b08f)" d="M 203.593662 193.727253 
L 205.661147 337.278802 
L 207.265592 337.788369 
L 207.265592 337.788369 
L 210.479919 338.80923 
L 210.479919 338.80923 
L 213.701517 339.8324 
L 213.701517 339.8324 
L 216.930411 340.857888 
L 216.930411 340.857888 
L 220.166625 341.8857 
L 220.166625 341.8857 
L 223.410184 342.915845 
L 223.410184 342.915845 
L 226.661113 343.948331 
L 226.661113 343.948331 
L 229.919438 344.983166 
L 229.919438 344.983166 
L 233.185184 346.020358 
L 233.185184 346.020358 
L 236.458375 347.059914 
L 236.458375 347.059914 
L 239.739039 348.101843 
L 239.739039 348.101843 
L 243.027199 349.146154 
L 243.027199 349.146154 
L 246.322882 350.192854 
L 246.322882 350.192854 
L 249.626115 351.241951 
L 249.626115 351.241951 
L 252.936921 352.293454 
L 252.936921 352.293454 
L 256.255329 353.347371 
L 256.255329 353.347371 
L 259.581364 354.40371 
L 259.581364 354.40371 
L 262.915052 355.46248 
L 262.915052 355.46248 
L 266.25642 356.523689 
L 266.25642 356.523689 
L 269.605494 357.587345 
L 269.605494 357.587345 
L 272.962301 358.653458 
L 272.962301 358.653458 
L 276.326868 359.722035 
L 276.326868 359.722035 
L 279.699222 360.793085 
L 279.699222 360.793085 
L 283.07939 361.866616 
L 283.07939 361.866616 
L 286.467399 362.942638 
L 286.467399 362.942638 
L 289.863276 364.021159 
L 289.863276 364.021159 
L 293.267049 365.102188 
L 293.267049 365.102188 
L 296.678745 366.185733 
L 296.678745 366.185733 
L 300.098393 367.271803 
L 300.098393 367.271803 
L 303.526019 368.360408 
L 303.526019 368.360408 
L 306.961652 369.451555 
L 306.961652 369.451555 
L 310.40532 370.545255 
L 310.40532 370.545255 
L 312.130176 371.093064 
L 312.13332 369.846948 
L 312.13332 369.846948 
L 310.408119 369.299758 
L 310.4089 368.951942 
L 306.964353 367.859827 
L 306.965071 367.436493 
L 303.52833 366.347346 
L 303.528974 365.785478 
L 300.099937 364.699428 
L 300.100312 364.07493 
L 296.67892 362.992029 
L 296.678965 362.178911 
L 293.265089 361.099335 
L 293.264584 360.066323 
L 289.858082 358.990279 
L 289.856782 357.731297 
L 286.457509 356.658998 
L 286.455034 355.08612 
L 283.062799 354.017865 
L 283.058944 352.194146 
L 279.673593 351.13017 
L 279.66809 349.055671 
L 276.289469 347.996211 
L 276.281451 345.48232 
L 272.909308 344.427797 
L 272.899477 341.788662 
L 269.53373 340.739187 
L 269.520617 337.660447 
L 266.161018 336.616442 
L 266.142649 332.783313 
L 262.788789 331.745512 
L 262.769047 328.037295 
L 259.42098 327.005559 
L 259.396691 322.856327 
L 256.054177 321.831081 
L 256.02608 317.428781 
L 252.688978 316.410261 
L 252.658112 311.943233 
L 249.326381 310.93149 
L 249.294557 306.651539 
L 245.968286 305.646374 
L 245.934205 301.364884 
L 242.613386 300.366285 
L 242.577052 296.083262 
L 239.261675 295.091216 
L 239.223093 290.806665 
L 235.91315 289.821161 
L 235.877129 286.03963 
L 232.572868 285.060154 
L 232.532977 281.088652 
L 229.234291 280.115378 
L 229.187667 275.701172 
L 225.894324 274.734529 
L 225.845402 270.318593 
L 222.557392 269.358569 
L 222.498853 264.309314 
L 219.215853 263.356528 
L 219.139377 257.04 
L 215.860747 256.095706 
L 215.756988 247.873706 
L 212.481781 246.939799 
L 212.32365 234.89692 
L 209.049978 233.977231 
L 208.789605 214.888673 
L 205.514012 213.990325 
L 205.233518 194.165602 
L 203.593662 193.727253 
z
" style="fill:#d62728;fill-opacity:0.1;"/>
   </g>
   <g id="Poly3DCollection_9">
    <path clip-path="url(#p11a081b08f)" d="M 179.381665 262.498081 
L 180.973601 349.212083 
L 182.585145 349.735209 
L 182.585145 349.735209 
L 185.813766 350.783258 
L 185.813766 350.783258 
L 189.049786 351.833709 
L 189.049786 351.833709 
L 192.293232 352.88657 
L 192.293232 352.88657 
L 195.54413 353.941849 
L 195.54413 353.941849 
L 198.802503 354.999556 
L 198.802503 354.999556 
L 202.06838 356.059698 
L 202.06838 356.059698 
L 205.341785 357.122284 
L 205.341785 357.122284 
L 208.622744 358.187323 
L 208.622744 358.187323 
L 211.911284 359.254822 
L 211.911284 359.254822 
L 215.207431 360.32479 
L 215.207431 360.32479 
L 218.511211 361.397236 
L 218.511211 361.397236 
L 221.822652 362.472169 
L 221.822652 362.472169 
L 225.141779 363.549597 
L 225.141779 363.549597 
L 228.468619 364.629529 
L 228.468619 364.629529 
L 231.8032 365.711974 
L 231.8032 365.711974 
L 235.145548 366.79694 
L 235.145548 366.79694 
L 238.495691 367.884436 
L 238.495691 367.884436 
L 241.853656 368.974471 
L 241.853656 368.974471 
L 245.21947 370.067054 
L 245.21947 370.067054 
L 248.593161 371.162194 
L 248.593161 371.162194 
L 251.974756 372.2599 
L 251.974756 372.2599 
L 255.364284 373.360181 
L 255.364284 373.360181 
L 257.062031 373.91129 
L 257.043125 370.898164 
L 257.043125 370.898164 
L 255.344572 370.348558 
L 255.339673 369.599957 
L 251.94814 368.503424 
L 251.940998 367.495441 
L 248.556872 366.40248 
L 248.547404 365.160727 
L 245.170537 364.071559 
L 245.158548 362.602559 
L 241.788798 361.517399 
L 241.776689 360.125134 
L 238.414076 359.043894 
L 238.397141 357.209518 
L 235.041412 356.132625 
L 235.020418 353.982755 
L 231.671389 352.91051 
L 231.648608 350.698074 
L 228.306229 349.630527 
L 228.27886 347.102638 
L 224.942949 346.040089 
L 224.91066 343.196615 
L 221.581039 342.139364 
L 221.547253 339.296151 
L 218.223908 338.244185 
L 218.183924 335.02198 
L 214.866646 333.975662 
L 214.825788 330.816583 
L 211.514597 329.775837 
L 211.472086 326.616739 
L 208.166967 325.58155 
L 208.120157 322.232788 
L 204.821002 321.203332 
L 204.773363 317.917574 
L 201.480192 316.893775 
L 201.428946 313.481425 
L 198.141682 312.463395 
L 198.0867 308.924299 
L 194.805269 307.912149 
L 194.738301 303.740148 
L 191.462374 302.734498 
L 191.382752 297.928357 
L 188.112008 296.929825 
L 187.998501 290.284394 
L 184.732023 289.294806 
L 184.554697 279.215254 
L 181.290794 278.238039 
L 181.014537 262.978172 
L 179.381665 262.498081 
z
" style="fill:#9467bd;fill-opacity:0.1;"/>
   </g>
   <g id="Poly3DCollection_10">
    <path clip-path="url(#p11a081b08f)" d="M 179.381665 262.498081 
L 180.973601 349.212083 
L 182.585145 349.735209 
L 182.585145 349.735209 
L 185.813766 350.783258 
L 185.813766 350.783258 
L 189.049786 351.833709 
L 189.049786 351.833709 
L 192.293232 352.88657 
L 192.293232 352.88657 
L 195.54413 353.941849 
L 195.54413 353.941849 
L 198.802503 354.999556 
L 198.802503 354.999556 
L 202.06838 356.059698 
L 202.06838 356.059698 
L 205.341785 357.122284 
L 205.341785 357.122284 
L 208.622744 358.187323 
L 208.622744 358.187323 
L 211.911284 359.254822 
L 211.911284 359.254822 
L 215.207431 360.32479 
L 215.207431 360.32479 
L 218.511211 361.397236 
L 218.511211 361.397236 
L 221.822652 362.472169 
L 221.822652 362.472169 
L 225.141779 363.549597 
L 225.141779 363.549597 
L 228.468619 364.629529 
L 228.468619 364.629529 
L 231.8032 365.711974 
L 231.8032 365.711974 
L 235.145548 366.79694 
L 235.145548 366.79694 
L 238.495691 367.884436 
L 238.495691 367.884436 
L 241.853656 368.974471 
L 241.853656 368.974471 
L 245.21947 370.067054 
L 245.21947 370.067054 
L 248.593161 371.162194 
L 248.593161 371.162194 
L 251.974756 372.2599 
L 251.974756 372.2599 
L 255.364284 373.360181 
L 255.364284 373.360181 
L 257.062031 373.91129 
L 257.043125 370.898164 
L 257.043125 370.898164 
L 255.344572 370.348558 
L 255.339673 369.599957 
L 251.94814 368.503424 
L 251.940998 367.495441 
L 248.556872 366.40248 
L 248.547404 365.160727 
L 245.170537 364.071559 
L 245.158548 362.602559 
L 241.788798 361.517399 
L 241.776689 360.125134 
L 238.414076 359.043894 
L 238.397141 357.209518 
L 235.041412 356.132625 
L 235.020418 353.982755 
L 231.671389 352.91051 
L 231.648608 350.698074 
L 228.306229 349.630527 
L 228.27886 347.102638 
L 224.942949 346.040089 
L 224.91066 343.196615 
L 221.581039 342.139364 
L 221.547253 339.296151 
L 218.223908 338.244185 
L 218.183924 335.02198 
L 214.866646 333.975662 
L 214.825788 330.816583 
L 211.514597 329.775837 
L 211.472086 326.616739 
L 208.166967 325.58155 
L 208.120157 322.232788 
L 204.821002 321.203332 
L 204.773363 317.917574 
L 201.480192 316.893775 
L 201.428946 313.481425 
L 198.141682 312.463395 
L 198.0867 308.924299 
L 194.805269 307.912149 
L 194.738301 303.740148 
L 191.462374 302.734498 
L 191.382752 297.928357 
L 188.112008 296.929825 
L 187.998501 290.284394 
L 184.732023 289.294806 
L 184.554697 279.215254 
L 181.290794 278.238039 
L 181.014537 262.978172 
L 179.381665 262.498081 
z
" style="fill:#9467bd;fill-opacity:0.1;"/>
   </g>
   <g id="Poly3DCollection_11">
    <path clip-path="url(#p11a081b08f)" d="M 151.161622 306.704118 
L 152.39363 360.39234 
L 154.008337 360.928331 
L 154.008337 360.928331 
L 157.243362 362.002177 
L 157.243362 362.002177 
L 160.485893 363.078513 
L 160.485893 363.078513 
L 163.735955 364.15735 
L 163.735955 364.15735 
L 166.993575 365.238696 
L 166.993575 365.238696 
L 170.258779 366.322559 
L 170.258779 366.322559 
L 173.531595 367.408948 
L 173.531595 367.408948 
L 176.812047 368.497873 
L 176.812047 368.497873 
L 180.100164 369.589342 
L 180.100164 369.589342 
L 183.395972 370.683363 
L 183.395972 370.683363 
L 186.699498 371.779947 
L 186.699498 371.779947 
L 190.01077 372.879102 
L 190.01077 372.879102 
L 193.329814 373.980836 
L 193.329814 373.980836 
L 196.656657 375.08516 
L 196.656657 375.08516 
L 199.991329 376.192082 
L 199.991329 376.192082 
L 201.661608 376.746521 
L 201.563391 370.256043 
L 201.563391 370.256043 
L 199.891437 369.704851 
L 199.871827 368.431267 
L 196.533165 367.332104 
L 196.509849 365.86831 
L 193.178284 364.773195 
L 193.151065 363.119304 
L 189.826479 362.028415 
L 189.794081 360.120906 
L 186.476323 359.034483 
L 186.441823 357.064144 
L 183.130843 355.982237 
L 183.097615 354.139742 
L 179.79346 353.06221 
L 179.752208 350.839294 
L 176.454666 349.766504 
L 176.417114 347.798291 
L 173.126296 346.729976 
L 173.081513 344.445048 
L 169.797243 343.381512 
L 169.747455 340.906775 
L 166.46962 339.848193 
L 166.414634 337.18358 
L 163.143125 336.130128 
L 163.066634 332.513876 
L 159.800966 331.466493 
L 159.697837 326.706703 
L 156.437437 325.666517 
L 156.286695 318.870239 
L 153.03056 317.839278 
L 152.789437 307.213365 
L 151.161622 306.704118 
z
" style="fill:#8c564b;fill-opacity:0.1;"/>
   </g>
   <g id="Poly3DCollection_12">
    <path clip-path="url(#p11a081b08f)" d="M 151.161622 306.704118 
L 152.39363 360.39234 
L 154.008337 360.928331 
L 154.008337 360.928331 
L 157.243362 362.002177 
L 157.243362 362.002177 
L 160.485893 363.078513 
L 160.485893 363.078513 
L 163.735955 364.15735 
L 163.735955 364.15735 
L 166.993575 365.238696 
L 166.993575 365.238696 
L 170.258779 366.322559 
L 170.258779 366.322559 
L 173.531595 367.408948 
L 173.531595 367.408948 
L 176.812047 368.497873 
L 176.812047 368.497873 
L 180.100164 369.589342 
L 180.100164 369.589342 
L 183.395972 370.683363 
L 183.395972 370.683363 
L 186.699498 371.779947 
L 186.699498 371.779947 
L 190.01077 372.879102 
L 190.01077 372.879102 
L 193.329814 373.980836 
L 193.329814 373.980836 
L 196.656657 375.08516 
L 196.656657 375.08516 
L 199.991329 376.192082 
L 199.991329 376.192082 
L 201.661608 376.746521 
L 201.563391 370.256043 
L 201.563391 370.256043 
L 199.891437 369.704851 
L 199.871827 368.431267 
L 196.533165 367.332104 
L 196.509849 365.86831 
L 193.178284 364.773195 
L 193.151065 363.119304 
L 189.826479 362.028415 
L 189.794081 360.120906 
L 186.476323 359.034483 
L 186.441823 357.064144 
L 183.130843 355.982237 
L 183.097615 354.139742 
L 179.79346 353.06221 
L 179.752208 350.839294 
L 176.454666 349.766504 
L 176.417114 347.798291 
L 173.126296 346.729976 
L 173.081513 344.445048 
L 169.797243 343.381512 
L 169.747455 340.906775 
L 166.46962 339.848193 
L 166.414634 337.18358 
L 163.143125 336.130128 
L 163.066634 332.513876 
L 159.800966 331.466493 
L 159.697837 326.706703 
L 156.437437 325.666517 
L 156.286695 318.870239 
L 153.03056 317.839278 
L 152.789437 307.213365 
L 151.161622 306.704118 
z
" style="fill:#8c564b;fill-opacity:0.1;"/>
   </g>
   <g id="Poly3DCollection_13">
    <path clip-path="url(#p11a081b08f)" d="M 122.325727 343.62378 
L 123.106638 371.849178 
L 124.724172 372.398515 
L 124.724172 372.398515 
L 127.96493 373.499121 
L 127.96493 373.499121 
L 131.213301 374.602313 
L 131.213301 374.602313 
L 134.46931 375.708098 
L 134.46931 375.708098 
L 137.732986 376.816488 
L 137.732986 376.816488 
L 141.004354 377.927489 
L 141.004354 377.927489 
L 144.283443 379.041113 
L 144.283443 379.041113 
L 145.92589 379.598911 
L 145.681774 369.449478 
L 145.681774 369.449478 
L 144.036806 368.896773 
L 144.007281 367.682354 
L 140.722569 366.580122 
L 140.689258 365.238672 
L 137.411633 364.140386 
L 137.369551 362.480417 
L 134.098834 361.386386 
L 134.044355 359.280354 
L 130.780308 358.191012 
L 130.706237 355.383591 
L 127.448499 354.299629 
L 127.333497 350.024165 
L 124.081342 348.947044 
L 123.950096 344.158985 
L 122.325727 343.62378 
z
" style="fill:#e377c2;fill-opacity:0.1;"/>
   </g>
   <g id="Poly3DCollection_14">
    <path clip-path="url(#p11a081b08f)" d="M 122.325727 343.62378 
L 123.106638 371.849178 
L 124.724172 372.398515 
L 124.724172 372.398515 
L 127.96493 373.499121 
L 127.96493 373.499121 
L 131.213301 374.602313 
L 131.213301 374.602313 
L 134.46931 375.708098 
L 134.46931 375.708098 
L 137.732986 376.816488 
L 137.732986 376.816488 
L 141.004354 377.927489 
L 141.004354 377.927489 
L 144.283443 379.041113 
L 144.283443 379.041113 
L 145.92589 379.598911 
L 145.681774 369.449478 
L 145.681774 369.449478 
L 144.036806 368.896773 
L 144.007281 367.682354 
L 140.722569 366.580122 
L 140.689258 365.238672 
L 137.411633 364.140386 
L 137.369551 362.480417 
L 134.098834 361.386386 
L 134.044355 359.280354 
L 130.780308 358.191012 
L 130.706237 355.383591 
L 127.448499 354.299629 
L 127.333497 350.024165 
L 124.081342 348.947044 
L 123.950096 344.158985 
L 122.325727 343.62378 
z
" style="fill:#e377c2;fill-opacity:0.1;"/>
   </g>
  </g>
 </g>
 <defs>
  <clipPath id="p11a081b08f">
   <rect height="428.031496" width="428.031496" x="76.535433" y="68.031496"/>
  </clipPath>
 </defs>
</svg>
