<?xml version="1.0" encoding="utf-8" standalone="no"?>
<!DOCTYPE svg PUBLIC "-//W3C//DTD SVG 1.1//EN"
  "http://www.w3.org/Graphics/SVG/1.1/DTD/svg11.dtd">
<svg height="425.19685pt" version="1.1" viewBox="0 0 566.929134 425.19685" width="566.929134pt" xmlns="http://www.w3.org/2000/svg" xmlns:xlink="http://www.w3.org/1999/xlink">
 <metadata>
  <rdf:RDF xmlns:cc="http://creativecommons.org/ns#" xmlns:dc="http://purl.org/dc/elements/1.1/" xmlns:rdf="http://www.w3.org/1999/02/22-rdf-syntax-ns#">
   <cc:Work>
    <dc:type rdf:resource="http://purl.org/dc/dcmitype/StillImage"/>
    <dc:date>2023-07-07T10:34:36.015801</dc:date>
    <dc:format>image/svg+xml</dc:format>
    <dc:creator>
     <cc:Agent>
      <dc:title>Matplotlib v3.4.3, https://matplotlib.org/</dc:title>
     </cc:Agent>
    </dc:creator>
   </cc:Work>
  </rdf:RDF>
 </metadata>
 <defs>
  <style type="text/css">*{stroke-linecap:butt;stroke-linejoin:round;}</style>
 </defs>
 <g id="figure_1">
  <g id="patch_1">
   <path d="M 0 425.19685 
L 566.929134 425.19685 
L 566.929134 0 
L 0 0 
z
" style="fill:none;"/>
  </g>
  <g id="axes_1">
   <g id="patch_2">
    <path d="M 70.866142 372.047244 
L 510.23622 372.047244 
L 510.23622 51.023622 
L 70.866142 51.023622 
z
" style="fill:none;"/>
   </g>
   <g id="matplotlib.axis_1">
    <g id="xtick_1">
     <g id="line2d_1">
      <defs>
       <path d="M 0 0 
L 0 3.5 
" id="mc131f3cb63" style="stroke:#000000;stroke-width:0.8;"/>
      </defs>
      <g>
       <use style="stroke:#000000;stroke-width:0.8;" x="135.218325" xlink:href="#mc131f3cb63" y="372.047244"/>
      </g>
     </g>
     <g id="text_1">
      <!-- $P_4$ -->
      <g transform="translate(123.338325 395.763807)scale(0.22 -0.22)">
       <defs>
        <path d="M 1081 4666 
L 2541 4666 
Q 3178 4666 3512 4369 
Q 3847 4072 3847 3500 
Q 3847 2731 3353 2303 
Q 2859 1875 1966 1875 
L 1172 1875 
L 806 0 
L 172 0 
L 1081 4666 
z
M 1613 4147 
L 1275 2394 
L 2069 2394 
Q 2606 2394 2893 2669 
Q 3181 2944 3181 3456 
Q 3181 3784 2986 3965 
Q 2791 4147 2438 4147 
L 1613 4147 
z
" id="DejaVuSans-Oblique-50" transform="scale(0.015625)"/>
        <path d="M 2419 4116 
L 825 1625 
L 2419 1625 
L 2419 4116 
z
M 2253 4666 
L 3047 4666 
L 3047 1625 
L 3713 1625 
L 3713 1100 
L 3047 1100 
L 3047 0 
L 2419 0 
L 2419 1100 
L 313 1100 
L 313 1709 
L 2253 4666 
z
" id="DejaVuSans-34" transform="scale(0.015625)"/>
       </defs>
       <use transform="translate(0 0.09375)" xlink:href="#DejaVuSans-Oblique-50"/>
       <use transform="translate(60.302734 -16.3125)scale(0.7)" xlink:href="#DejaVuSans-34"/>
      </g>
     </g>
    </g>
    <g id="xtick_2">
     <g id="line2d_2">
      <g>
       <use style="stroke:#000000;stroke-width:0.8;" x="223.979957" xlink:href="#mc131f3cb63" y="372.047244"/>
      </g>
     </g>
     <g id="text_2">
      <!-- $P_6$ -->
      <g transform="translate(212.099957 395.763807)scale(0.22 -0.22)">
       <defs>
        <path d="M 2113 2584 
Q 1688 2584 1439 2293 
Q 1191 2003 1191 1497 
Q 1191 994 1439 701 
Q 1688 409 2113 409 
Q 2538 409 2786 701 
Q 3034 994 3034 1497 
Q 3034 2003 2786 2293 
Q 2538 2584 2113 2584 
z
M 3366 4563 
L 3366 3988 
Q 3128 4100 2886 4159 
Q 2644 4219 2406 4219 
Q 1781 4219 1451 3797 
Q 1122 3375 1075 2522 
Q 1259 2794 1537 2939 
Q 1816 3084 2150 3084 
Q 2853 3084 3261 2657 
Q 3669 2231 3669 1497 
Q 3669 778 3244 343 
Q 2819 -91 2113 -91 
Q 1303 -91 875 529 
Q 447 1150 447 2328 
Q 447 3434 972 4092 
Q 1497 4750 2381 4750 
Q 2619 4750 2861 4703 
Q 3103 4656 3366 4563 
z
" id="DejaVuSans-36" transform="scale(0.015625)"/>
       </defs>
       <use transform="translate(0 0.09375)" xlink:href="#DejaVuSans-Oblique-50"/>
       <use transform="translate(60.302734 -16.3125)scale(0.7)" xlink:href="#DejaVuSans-36"/>
      </g>
     </g>
    </g>
    <g id="xtick_3">
     <g id="line2d_3">
      <g>
       <use style="stroke:#000000;stroke-width:0.8;" x="312.741589" xlink:href="#mc131f3cb63" y="372.047244"/>
      </g>
     </g>
     <g id="text_3">
      <!-- $P_8$ -->
      <g transform="translate(300.861589 395.763807)scale(0.22 -0.22)">
       <defs>
        <path d="M 2034 2216 
Q 1584 2216 1326 1975 
Q 1069 1734 1069 1313 
Q 1069 891 1326 650 
Q 1584 409 2034 409 
Q 2484 409 2743 651 
Q 3003 894 3003 1313 
Q 3003 1734 2745 1975 
Q 2488 2216 2034 2216 
z
M 1403 2484 
Q 997 2584 770 2862 
Q 544 3141 544 3541 
Q 544 4100 942 4425 
Q 1341 4750 2034 4750 
Q 2731 4750 3128 4425 
Q 3525 4100 3525 3541 
Q 3525 3141 3298 2862 
Q 3072 2584 2669 2484 
Q 3125 2378 3379 2068 
Q 3634 1759 3634 1313 
Q 3634 634 3220 271 
Q 2806 -91 2034 -91 
Q 1263 -91 848 271 
Q 434 634 434 1313 
Q 434 1759 690 2068 
Q 947 2378 1403 2484 
z
M 1172 3481 
Q 1172 3119 1398 2916 
Q 1625 2713 2034 2713 
Q 2441 2713 2670 2916 
Q 2900 3119 2900 3481 
Q 2900 3844 2670 4047 
Q 2441 4250 2034 4250 
Q 1625 4250 1398 4047 
Q 1172 3844 1172 3481 
z
" id="DejaVuSans-38" transform="scale(0.015625)"/>
       </defs>
       <use transform="translate(0 0.09375)" xlink:href="#DejaVuSans-Oblique-50"/>
       <use transform="translate(60.302734 -16.3125)scale(0.7)" xlink:href="#DejaVuSans-38"/>
      </g>
     </g>
    </g>
    <g id="xtick_4">
     <g id="line2d_4">
      <g>
       <use style="stroke:#000000;stroke-width:0.8;" x="401.503221" xlink:href="#mc131f3cb63" y="372.047244"/>
      </g>
     </g>
     <g id="text_4">
      <!-- $P_{10}$ -->
      <g transform="translate(384.673221 395.763807)scale(0.22 -0.22)">
       <defs>
        <path d="M 794 531 
L 1825 531 
L 1825 4091 
L 703 3866 
L 703 4441 
L 1819 4666 
L 2450 4666 
L 2450 531 
L 3481 531 
L 3481 0 
L 794 0 
L 794 531 
z
" id="DejaVuSans-31" transform="scale(0.015625)"/>
        <path d="M 2034 4250 
Q 1547 4250 1301 3770 
Q 1056 3291 1056 2328 
Q 1056 1369 1301 889 
Q 1547 409 2034 409 
Q 2525 409 2770 889 
Q 3016 1369 3016 2328 
Q 3016 3291 2770 3770 
Q 2525 4250 2034 4250 
z
M 2034 4750 
Q 2819 4750 3233 4129 
Q 3647 3509 3647 2328 
Q 3647 1150 3233 529 
Q 2819 -91 2034 -91 
Q 1250 -91 836 529 
Q 422 1150 422 2328 
Q 422 3509 836 4129 
Q 1250 4750 2034 4750 
z
" id="DejaVuSans-30" transform="scale(0.015625)"/>
       </defs>
       <use transform="translate(0 0.09375)" xlink:href="#DejaVuSans-Oblique-50"/>
       <use transform="translate(60.302734 -16.3125)scale(0.7)" xlink:href="#DejaVuSans-31"/>
       <use transform="translate(104.838867 -16.3125)scale(0.7)" xlink:href="#DejaVuSans-30"/>
      </g>
     </g>
    </g>
    <g id="xtick_5">
     <g id="line2d_5">
      <g>
       <use style="stroke:#000000;stroke-width:0.8;" x="490.264853" xlink:href="#mc131f3cb63" y="372.047244"/>
      </g>
     </g>
     <g id="text_5">
      <!-- $P_{12}$ -->
      <g transform="translate(473.434853 395.763807)scale(0.22 -0.22)">
       <defs>
        <path d="M 1228 531 
L 3431 531 
L 3431 0 
L 469 0 
L 469 531 
Q 828 903 1448 1529 
Q 2069 2156 2228 2338 
Q 2531 2678 2651 2914 
Q 2772 3150 2772 3378 
Q 2772 3750 2511 3984 
Q 2250 4219 1831 4219 
Q 1534 4219 1204 4116 
Q 875 4013 500 3803 
L 500 4441 
Q 881 4594 1212 4672 
Q 1544 4750 1819 4750 
Q 2544 4750 2975 4387 
Q 3406 4025 3406 3419 
Q 3406 3131 3298 2873 
Q 3191 2616 2906 2266 
Q 2828 2175 2409 1742 
Q 1991 1309 1228 531 
z
" id="DejaVuSans-32" transform="scale(0.015625)"/>
       </defs>
       <use transform="translate(0 0.09375)" xlink:href="#DejaVuSans-Oblique-50"/>
       <use transform="translate(60.302734 -16.3125)scale(0.7)" xlink:href="#DejaVuSans-31"/>
       <use transform="translate(104.838867 -16.3125)scale(0.7)" xlink:href="#DejaVuSans-32"/>
      </g>
     </g>
    </g>
    <g id="text_6">
     <!-- FIB Parameter -->
     <g transform="translate(212.708994 421.055682)scale(0.22 -0.22)">
      <defs>
       <path d="M 628 4666 
L 3309 4666 
L 3309 4134 
L 1259 4134 
L 1259 2759 
L 3109 2759 
L 3109 2228 
L 1259 2228 
L 1259 0 
L 628 0 
L 628 4666 
z
" id="DejaVuSans-46" transform="scale(0.015625)"/>
       <path d="M 628 4666 
L 1259 4666 
L 1259 0 
L 628 0 
L 628 4666 
z
" id="DejaVuSans-49" transform="scale(0.015625)"/>
       <path d="M 1259 2228 
L 1259 519 
L 2272 519 
Q 2781 519 3026 730 
Q 3272 941 3272 1375 
Q 3272 1813 3026 2020 
Q 2781 2228 2272 2228 
L 1259 2228 
z
M 1259 4147 
L 1259 2741 
L 2194 2741 
Q 2656 2741 2882 2914 
Q 3109 3088 3109 3444 
Q 3109 3797 2882 3972 
Q 2656 4147 2194 4147 
L 1259 4147 
z
M 628 4666 
L 2241 4666 
Q 2963 4666 3353 4366 
Q 3744 4066 3744 3513 
Q 3744 3084 3544 2831 
Q 3344 2578 2956 2516 
Q 3422 2416 3680 2098 
Q 3938 1781 3938 1306 
Q 3938 681 3513 340 
Q 3088 0 2303 0 
L 628 0 
L 628 4666 
z
" id="DejaVuSans-42" transform="scale(0.015625)"/>
       <path id="DejaVuSans-20" transform="scale(0.015625)"/>
       <path d="M 1259 4147 
L 1259 2394 
L 2053 2394 
Q 2494 2394 2734 2622 
Q 2975 2850 2975 3272 
Q 2975 3691 2734 3919 
Q 2494 4147 2053 4147 
L 1259 4147 
z
M 628 4666 
L 2053 4666 
Q 2838 4666 3239 4311 
Q 3641 3956 3641 3272 
Q 3641 2581 3239 2228 
Q 2838 1875 2053 1875 
L 1259 1875 
L 1259 0 
L 628 0 
L 628 4666 
z
" id="DejaVuSans-50" transform="scale(0.015625)"/>
       <path d="M 2194 1759 
Q 1497 1759 1228 1600 
Q 959 1441 959 1056 
Q 959 750 1161 570 
Q 1363 391 1709 391 
Q 2188 391 2477 730 
Q 2766 1069 2766 1631 
L 2766 1759 
L 2194 1759 
z
M 3341 1997 
L 3341 0 
L 2766 0 
L 2766 531 
Q 2569 213 2275 61 
Q 1981 -91 1556 -91 
Q 1019 -91 701 211 
Q 384 513 384 1019 
Q 384 1609 779 1909 
Q 1175 2209 1959 2209 
L 2766 2209 
L 2766 2266 
Q 2766 2663 2505 2880 
Q 2244 3097 1772 3097 
Q 1472 3097 1187 3025 
Q 903 2953 641 2809 
L 641 3341 
Q 956 3463 1253 3523 
Q 1550 3584 1831 3584 
Q 2591 3584 2966 3190 
Q 3341 2797 3341 1997 
z
" id="DejaVuSans-61" transform="scale(0.015625)"/>
       <path d="M 2631 2963 
Q 2534 3019 2420 3045 
Q 2306 3072 2169 3072 
Q 1681 3072 1420 2755 
Q 1159 2438 1159 1844 
L 1159 0 
L 581 0 
L 581 3500 
L 1159 3500 
L 1159 2956 
Q 1341 3275 1631 3429 
Q 1922 3584 2338 3584 
Q 2397 3584 2469 3576 
Q 2541 3569 2628 3553 
L 2631 2963 
z
" id="DejaVuSans-72" transform="scale(0.015625)"/>
       <path d="M 3328 2828 
Q 3544 3216 3844 3400 
Q 4144 3584 4550 3584 
Q 5097 3584 5394 3201 
Q 5691 2819 5691 2113 
L 5691 0 
L 5113 0 
L 5113 2094 
Q 5113 2597 4934 2840 
Q 4756 3084 4391 3084 
Q 3944 3084 3684 2787 
Q 3425 2491 3425 1978 
L 3425 0 
L 2847 0 
L 2847 2094 
Q 2847 2600 2669 2842 
Q 2491 3084 2119 3084 
Q 1678 3084 1418 2786 
Q 1159 2488 1159 1978 
L 1159 0 
L 581 0 
L 581 3500 
L 1159 3500 
L 1159 2956 
Q 1356 3278 1631 3431 
Q 1906 3584 2284 3584 
Q 2666 3584 2933 3390 
Q 3200 3197 3328 2828 
z
" id="DejaVuSans-6d" transform="scale(0.015625)"/>
       <path d="M 3597 1894 
L 3597 1613 
L 953 1613 
Q 991 1019 1311 708 
Q 1631 397 2203 397 
Q 2534 397 2845 478 
Q 3156 559 3463 722 
L 3463 178 
Q 3153 47 2828 -22 
Q 2503 -91 2169 -91 
Q 1331 -91 842 396 
Q 353 884 353 1716 
Q 353 2575 817 3079 
Q 1281 3584 2069 3584 
Q 2775 3584 3186 3129 
Q 3597 2675 3597 1894 
z
M 3022 2063 
Q 3016 2534 2758 2815 
Q 2500 3097 2075 3097 
Q 1594 3097 1305 2825 
Q 1016 2553 972 2059 
L 3022 2063 
z
" id="DejaVuSans-65" transform="scale(0.015625)"/>
       <path d="M 1172 4494 
L 1172 3500 
L 2356 3500 
L 2356 3053 
L 1172 3053 
L 1172 1153 
Q 1172 725 1289 603 
Q 1406 481 1766 481 
L 2356 481 
L 2356 0 
L 1766 0 
Q 1100 0 847 248 
Q 594 497 594 1153 
L 594 3053 
L 172 3053 
L 172 3500 
L 594 3500 
L 594 4494 
L 1172 4494 
z
" id="DejaVuSans-74" transform="scale(0.015625)"/>
      </defs>
      <use xlink:href="#DejaVuSans-46"/>
      <use x="57.519531" xlink:href="#DejaVuSans-49"/>
      <use x="87.011719" xlink:href="#DejaVuSans-42"/>
      <use x="155.615234" xlink:href="#DejaVuSans-20"/>
      <use x="187.402344" xlink:href="#DejaVuSans-50"/>
      <use x="243.205078" xlink:href="#DejaVuSans-61"/>
      <use x="304.484375" xlink:href="#DejaVuSans-72"/>
      <use x="345.597656" xlink:href="#DejaVuSans-61"/>
      <use x="406.876953" xlink:href="#DejaVuSans-6d"/>
      <use x="504.289062" xlink:href="#DejaVuSans-65"/>
      <use x="565.8125" xlink:href="#DejaVuSans-74"/>
      <use x="605.021484" xlink:href="#DejaVuSans-65"/>
      <use x="666.544922" xlink:href="#DejaVuSans-72"/>
     </g>
    </g>
   </g>
   <g id="matplotlib.axis_2">
    <g id="text_7">
     <!-- Formation Yield -->
     <g transform="translate(62.290829 296.728714)rotate(-90)scale(0.22 -0.22)">
      <defs>
       <path d="M 1959 3097 
Q 1497 3097 1228 2736 
Q 959 2375 959 1747 
Q 959 1119 1226 758 
Q 1494 397 1959 397 
Q 2419 397 2687 759 
Q 2956 1122 2956 1747 
Q 2956 2369 2687 2733 
Q 2419 3097 1959 3097 
z
M 1959 3584 
Q 2709 3584 3137 3096 
Q 3566 2609 3566 1747 
Q 3566 888 3137 398 
Q 2709 -91 1959 -91 
Q 1206 -91 779 398 
Q 353 888 353 1747 
Q 353 2609 779 3096 
Q 1206 3584 1959 3584 
z
" id="DejaVuSans-6f" transform="scale(0.015625)"/>
       <path d="M 603 3500 
L 1178 3500 
L 1178 0 
L 603 0 
L 603 3500 
z
M 603 4863 
L 1178 4863 
L 1178 4134 
L 603 4134 
L 603 4863 
z
" id="DejaVuSans-69" transform="scale(0.015625)"/>
       <path d="M 3513 2113 
L 3513 0 
L 2938 0 
L 2938 2094 
Q 2938 2591 2744 2837 
Q 2550 3084 2163 3084 
Q 1697 3084 1428 2787 
Q 1159 2491 1159 1978 
L 1159 0 
L 581 0 
L 581 3500 
L 1159 3500 
L 1159 2956 
Q 1366 3272 1645 3428 
Q 1925 3584 2291 3584 
Q 2894 3584 3203 3211 
Q 3513 2838 3513 2113 
z
" id="DejaVuSans-6e" transform="scale(0.015625)"/>
       <path d="M -13 4666 
L 666 4666 
L 1959 2747 
L 3244 4666 
L 3922 4666 
L 2272 2222 
L 2272 0 
L 1638 0 
L 1638 2222 
L -13 4666 
z
" id="DejaVuSans-59" transform="scale(0.015625)"/>
       <path d="M 603 4863 
L 1178 4863 
L 1178 0 
L 603 0 
L 603 4863 
z
" id="DejaVuSans-6c" transform="scale(0.015625)"/>
       <path d="M 2906 2969 
L 2906 4863 
L 3481 4863 
L 3481 0 
L 2906 0 
L 2906 525 
Q 2725 213 2448 61 
Q 2172 -91 1784 -91 
Q 1150 -91 751 415 
Q 353 922 353 1747 
Q 353 2572 751 3078 
Q 1150 3584 1784 3584 
Q 2172 3584 2448 3432 
Q 2725 3281 2906 2969 
z
M 947 1747 
Q 947 1113 1208 752 
Q 1469 391 1925 391 
Q 2381 391 2643 752 
Q 2906 1113 2906 1747 
Q 2906 2381 2643 2742 
Q 2381 3103 1925 3103 
Q 1469 3103 1208 2742 
Q 947 2381 947 1747 
z
" id="DejaVuSans-64" transform="scale(0.015625)"/>
      </defs>
      <use xlink:href="#DejaVuSans-46"/>
      <use x="53.894531" xlink:href="#DejaVuSans-6f"/>
      <use x="115.076172" xlink:href="#DejaVuSans-72"/>
      <use x="154.439453" xlink:href="#DejaVuSans-6d"/>
      <use x="251.851562" xlink:href="#DejaVuSans-61"/>
      <use x="313.130859" xlink:href="#DejaVuSans-74"/>
      <use x="352.339844" xlink:href="#DejaVuSans-69"/>
      <use x="380.123047" xlink:href="#DejaVuSans-6f"/>
      <use x="441.304688" xlink:href="#DejaVuSans-6e"/>
      <use x="504.683594" xlink:href="#DejaVuSans-20"/>
      <use x="536.470703" xlink:href="#DejaVuSans-59"/>
      <use x="593.929688" xlink:href="#DejaVuSans-69"/>
      <use x="621.712891" xlink:href="#DejaVuSans-65"/>
      <use x="683.236328" xlink:href="#DejaVuSans-6c"/>
      <use x="711.019531" xlink:href="#DejaVuSans-64"/>
     </g>
    </g>
   </g>
   <g id="LineCollection_1">
    <path clip-path="url(#p5c1d063b1c)" d="M 90.837509 334.526422 
L 90.837509 299.315382 
" style="fill:none;stroke:#ff0000;stroke-width:1.5;"/>
    <path clip-path="url(#p5c1d063b1c)" d="M 135.218325 324.974595 
L 135.218325 279.635885 
" style="fill:none;stroke:#ff0000;stroke-width:1.5;"/>
    <path clip-path="url(#p5c1d063b1c)" d="M 179.599141 333.957035 
L 179.599141 304.064706 
" style="fill:none;stroke:#ff0000;stroke-width:1.5;"/>
    <path clip-path="url(#p5c1d063b1c)" d="M 223.979957 328.681712 
L 223.979957 309.492397 
" style="fill:none;stroke:#ff0000;stroke-width:1.5;"/>
    <path clip-path="url(#p5c1d063b1c)" d="M 268.360773 323.694772 
L 268.360773 309.881224 
" style="fill:none;stroke:#ff0000;stroke-width:1.5;"/>
    <path clip-path="url(#p5c1d063b1c)" d="M 312.741589 331.020656 
L 312.741589 323.333953 
" style="fill:none;stroke:#ff0000;stroke-width:1.5;"/>
    <path clip-path="url(#p5c1d063b1c)" d="M 357.122405 347.139193 
L 357.122405 337.388068 
" style="fill:none;stroke:#ff0000;stroke-width:1.5;"/>
    <path clip-path="url(#p5c1d063b1c)" d="M 401.503221 348.999941 
L 401.503221 344.974818 
" style="fill:none;stroke:#ff0000;stroke-width:1.5;"/>
    <path clip-path="url(#p5c1d063b1c)" d="M 445.884037 354.236456 
L 445.884037 352.464392 
" style="fill:none;stroke:#ff0000;stroke-width:1.5;"/>
    <path clip-path="url(#p5c1d063b1c)" d="M 490.264853 357.455261 
L 490.264853 356.998296 
" style="fill:none;stroke:#ff0000;stroke-width:1.5;"/>
   </g>
   <g id="LineCollection_2">
    <path clip-path="url(#p5c1d063b1c)" d="M 268.360773 143.84388 
L 268.360773 65.615605 
" style="fill:none;stroke:#0000ff;stroke-width:1.5;"/>
    <path clip-path="url(#p5c1d063b1c)" d="M 312.741589 226.17551 
L 312.741589 187.62697 
" style="fill:none;stroke:#0000ff;stroke-width:1.5;"/>
    <path clip-path="url(#p5c1d063b1c)" d="M 357.122405 301.61331 
L 357.122405 253.809431 
" style="fill:none;stroke:#0000ff;stroke-width:1.5;"/>
    <path clip-path="url(#p5c1d063b1c)" d="M 401.503221 302.877384 
L 401.503221 282.453969 
" style="fill:none;stroke:#0000ff;stroke-width:1.5;"/>
    <path clip-path="url(#p5c1d063b1c)" d="M 445.884037 331.799248 
L 445.884037 323.915798 
" style="fill:none;stroke:#0000ff;stroke-width:1.5;"/>
    <path clip-path="url(#p5c1d063b1c)" d="M 490.264853 351.913148 
L 490.264853 349.932003 
" style="fill:none;stroke:#0000ff;stroke-width:1.5;"/>
   </g>
   <g id="line2d_6">
    <path clip-path="url(#p5c1d063b1c)" d="M 90.837509 316.920902 
L 135.218325 302.30524 
L 179.599141 319.01087 
L 223.979957 319.087054 
L 268.360773 316.787998 
L 312.741589 327.177304 
L 357.122405 342.263631 
L 401.503221 346.98738 
L 445.884037 353.350424 
L 490.264853 357.226779 
" style="fill:none;stroke:#ff0000;stroke-linecap:square;stroke-width:1.5;"/>
   </g>
   <g id="line2d_7">
    <path clip-path="url(#p5c1d063b1c)" d="M 268.360773 104.729743 
L 312.741589 206.90124 
L 357.122405 277.71137 
L 401.503221 292.665676 
L 445.884037 327.857523 
L 490.264853 350.922575 
" style="fill:none;stroke:#0000ff;stroke-linecap:square;stroke-width:1.5;"/>
   </g>
   <g id="line2d_8">
    <defs>
     <path d="M 5 0 
L -5 -0 
" id="m117d71ef66" style="stroke:#ff0000;"/>
    </defs>
    <g clip-path="url(#p5c1d063b1c)">
     <use style="fill:#ff0000;stroke:#ff0000;" x="90.837509" xlink:href="#m117d71ef66" y="334.526422"/>
     <use style="fill:#ff0000;stroke:#ff0000;" x="135.218325" xlink:href="#m117d71ef66" y="324.974595"/>
     <use style="fill:#ff0000;stroke:#ff0000;" x="179.599141" xlink:href="#m117d71ef66" y="333.957035"/>
     <use style="fill:#ff0000;stroke:#ff0000;" x="223.979957" xlink:href="#m117d71ef66" y="328.681712"/>
     <use style="fill:#ff0000;stroke:#ff0000;" x="268.360773" xlink:href="#m117d71ef66" y="323.694772"/>
     <use style="fill:#ff0000;stroke:#ff0000;" x="312.741589" xlink:href="#m117d71ef66" y="331.020656"/>
     <use style="fill:#ff0000;stroke:#ff0000;" x="357.122405" xlink:href="#m117d71ef66" y="347.139193"/>
     <use style="fill:#ff0000;stroke:#ff0000;" x="401.503221" xlink:href="#m117d71ef66" y="348.999941"/>
     <use style="fill:#ff0000;stroke:#ff0000;" x="445.884037" xlink:href="#m117d71ef66" y="354.236456"/>
     <use style="fill:#ff0000;stroke:#ff0000;" x="490.264853" xlink:href="#m117d71ef66" y="357.455261"/>
    </g>
   </g>
   <g id="line2d_9">
    <g clip-path="url(#p5c1d063b1c)">
     <use style="fill:#ff0000;stroke:#ff0000;" x="90.837509" xlink:href="#m117d71ef66" y="299.315382"/>
     <use style="fill:#ff0000;stroke:#ff0000;" x="135.218325" xlink:href="#m117d71ef66" y="279.635885"/>
     <use style="fill:#ff0000;stroke:#ff0000;" x="179.599141" xlink:href="#m117d71ef66" y="304.064706"/>
     <use style="fill:#ff0000;stroke:#ff0000;" x="223.979957" xlink:href="#m117d71ef66" y="309.492397"/>
     <use style="fill:#ff0000;stroke:#ff0000;" x="268.360773" xlink:href="#m117d71ef66" y="309.881224"/>
     <use style="fill:#ff0000;stroke:#ff0000;" x="312.741589" xlink:href="#m117d71ef66" y="323.333953"/>
     <use style="fill:#ff0000;stroke:#ff0000;" x="357.122405" xlink:href="#m117d71ef66" y="337.388068"/>
     <use style="fill:#ff0000;stroke:#ff0000;" x="401.503221" xlink:href="#m117d71ef66" y="344.974818"/>
     <use style="fill:#ff0000;stroke:#ff0000;" x="445.884037" xlink:href="#m117d71ef66" y="352.464392"/>
     <use style="fill:#ff0000;stroke:#ff0000;" x="490.264853" xlink:href="#m117d71ef66" y="356.998296"/>
    </g>
   </g>
   <g id="line2d_10">
    <defs>
     <path d="M 5 0 
L -5 -0 
" id="mc1af01c61e" style="stroke:#0000ff;"/>
    </defs>
    <g clip-path="url(#p5c1d063b1c)">
     <use style="fill:#0000ff;stroke:#0000ff;" x="268.360773" xlink:href="#mc1af01c61e" y="143.84388"/>
     <use style="fill:#0000ff;stroke:#0000ff;" x="312.741589" xlink:href="#mc1af01c61e" y="226.17551"/>
     <use style="fill:#0000ff;stroke:#0000ff;" x="357.122405" xlink:href="#mc1af01c61e" y="301.61331"/>
     <use style="fill:#0000ff;stroke:#0000ff;" x="401.503221" xlink:href="#mc1af01c61e" y="302.877384"/>
     <use style="fill:#0000ff;stroke:#0000ff;" x="445.884037" xlink:href="#mc1af01c61e" y="331.799248"/>
     <use style="fill:#0000ff;stroke:#0000ff;" x="490.264853" xlink:href="#mc1af01c61e" y="351.913148"/>
    </g>
   </g>
   <g id="line2d_11">
    <g clip-path="url(#p5c1d063b1c)">
     <use style="fill:#0000ff;stroke:#0000ff;" x="268.360773" xlink:href="#mc1af01c61e" y="65.615605"/>
     <use style="fill:#0000ff;stroke:#0000ff;" x="312.741589" xlink:href="#mc1af01c61e" y="187.62697"/>
     <use style="fill:#0000ff;stroke:#0000ff;" x="357.122405" xlink:href="#mc1af01c61e" y="253.809431"/>
     <use style="fill:#0000ff;stroke:#0000ff;" x="401.503221" xlink:href="#mc1af01c61e" y="282.453969"/>
     <use style="fill:#0000ff;stroke:#0000ff;" x="445.884037" xlink:href="#mc1af01c61e" y="323.915798"/>
     <use style="fill:#0000ff;stroke:#0000ff;" x="490.264853" xlink:href="#mc1af01c61e" y="349.932003"/>
    </g>
   </g>
   <g id="line2d_12">
    <defs>
     <path d="M -4 4 
L 4 4 
L 4 -4 
L -4 -4 
z
" id="m78be09d737" style="stroke:#ff0000;stroke-linejoin:miter;"/>
    </defs>
    <g clip-path="url(#p5c1d063b1c)">
     <use style="fill:#ff0000;stroke:#ff0000;stroke-linejoin:miter;" x="90.837509" xlink:href="#m78be09d737" y="316.920902"/>
     <use style="fill:#ff0000;stroke:#ff0000;stroke-linejoin:miter;" x="135.218325" xlink:href="#m78be09d737" y="302.30524"/>
     <use style="fill:#ff0000;stroke:#ff0000;stroke-linejoin:miter;" x="179.599141" xlink:href="#m78be09d737" y="319.01087"/>
     <use style="fill:#ff0000;stroke:#ff0000;stroke-linejoin:miter;" x="223.979957" xlink:href="#m78be09d737" y="319.087054"/>
     <use style="fill:#ff0000;stroke:#ff0000;stroke-linejoin:miter;" x="268.360773" xlink:href="#m78be09d737" y="316.787998"/>
     <use style="fill:#ff0000;stroke:#ff0000;stroke-linejoin:miter;" x="312.741589" xlink:href="#m78be09d737" y="327.177304"/>
     <use style="fill:#ff0000;stroke:#ff0000;stroke-linejoin:miter;" x="357.122405" xlink:href="#m78be09d737" y="342.263631"/>
     <use style="fill:#ff0000;stroke:#ff0000;stroke-linejoin:miter;" x="401.503221" xlink:href="#m78be09d737" y="346.98738"/>
     <use style="fill:#ff0000;stroke:#ff0000;stroke-linejoin:miter;" x="445.884037" xlink:href="#m78be09d737" y="353.350424"/>
     <use style="fill:#ff0000;stroke:#ff0000;stroke-linejoin:miter;" x="490.264853" xlink:href="#m78be09d737" y="357.226779"/>
    </g>
   </g>
   <g id="line2d_13">
    <defs>
     <path d="M -4 4 
L 4 4 
L 4 -4 
L -4 -4 
z
" id="mb879af4202" style="stroke:#0000ff;stroke-linejoin:miter;"/>
    </defs>
    <g clip-path="url(#p5c1d063b1c)">
     <use style="fill:#0000ff;stroke:#0000ff;stroke-linejoin:miter;" x="268.360773" xlink:href="#mb879af4202" y="104.729743"/>
     <use style="fill:#0000ff;stroke:#0000ff;stroke-linejoin:miter;" x="312.741589" xlink:href="#mb879af4202" y="206.90124"/>
     <use style="fill:#0000ff;stroke:#0000ff;stroke-linejoin:miter;" x="357.122405" xlink:href="#mb879af4202" y="277.71137"/>
     <use style="fill:#0000ff;stroke:#0000ff;stroke-linejoin:miter;" x="401.503221" xlink:href="#mb879af4202" y="292.665676"/>
     <use style="fill:#0000ff;stroke:#0000ff;stroke-linejoin:miter;" x="445.884037" xlink:href="#mb879af4202" y="327.857523"/>
     <use style="fill:#0000ff;stroke:#0000ff;stroke-linejoin:miter;" x="490.264853" xlink:href="#mb879af4202" y="350.922575"/>
    </g>
   </g>
   <g id="patch_3">
    <path d="M 70.866142 372.047244 
L 70.866142 51.023622 
" style="fill:none;stroke:#000000;stroke-linecap:square;stroke-linejoin:miter;stroke-width:0.8;"/>
   </g>
   <g id="patch_4">
    <path d="M 510.23622 372.047244 
L 510.23622 51.023622 
" style="fill:none;stroke:#000000;stroke-linecap:square;stroke-linejoin:miter;stroke-width:0.8;"/>
   </g>
   <g id="patch_5">
    <path d="M 70.866142 372.047244 
L 510.23622 372.047244 
" style="fill:none;stroke:#000000;stroke-linecap:square;stroke-linejoin:miter;stroke-width:0.8;"/>
   </g>
   <g id="patch_6">
    <path d="M 70.866142 51.023622 
L 510.23622 51.023622 
" style="fill:none;stroke:#000000;stroke-linecap:square;stroke-linejoin:miter;stroke-width:0.8;"/>
   </g>
   <g id="legend_1">
    <g id="patch_7">
     <path d="M 322.363095 133.207372 
L 494.83622 133.207372 
Q 499.23622 133.207372 499.23622 128.807372 
L 499.23622 66.423622 
Q 499.23622 62.023622 494.83622 62.023622 
L 322.363095 62.023622 
Q 317.963095 62.023622 317.963095 66.423622 
L 317.963095 128.807372 
Q 317.963095 133.207372 322.363095 133.207372 
z
" style="fill:#ffffff;opacity:0.8;stroke:#cccccc;stroke-linejoin:miter;"/>
    </g>
    <g id="line2d_14">
     <path d="M 326.763095 79.840185 
L 370.763095 79.840185 
" style="fill:none;stroke:#ff0000;stroke-linecap:square;stroke-width:1.5;"/>
    </g>
    <g id="line2d_15"/>
    <g id="text_8">
     <!-- sample A -->
     <g transform="translate(388.363095 87.540185)scale(0.22 -0.22)">
      <defs>
       <path d="M 2834 3397 
L 2834 2853 
Q 2591 2978 2328 3040 
Q 2066 3103 1784 3103 
Q 1356 3103 1142 2972 
Q 928 2841 928 2578 
Q 928 2378 1081 2264 
Q 1234 2150 1697 2047 
L 1894 2003 
Q 2506 1872 2764 1633 
Q 3022 1394 3022 966 
Q 3022 478 2636 193 
Q 2250 -91 1575 -91 
Q 1294 -91 989 -36 
Q 684 19 347 128 
L 347 722 
Q 666 556 975 473 
Q 1284 391 1588 391 
Q 1994 391 2212 530 
Q 2431 669 2431 922 
Q 2431 1156 2273 1281 
Q 2116 1406 1581 1522 
L 1381 1569 
Q 847 1681 609 1914 
Q 372 2147 372 2553 
Q 372 3047 722 3315 
Q 1072 3584 1716 3584 
Q 2034 3584 2315 3537 
Q 2597 3491 2834 3397 
z
" id="DejaVuSans-73" transform="scale(0.015625)"/>
       <path d="M 1159 525 
L 1159 -1331 
L 581 -1331 
L 581 3500 
L 1159 3500 
L 1159 2969 
Q 1341 3281 1617 3432 
Q 1894 3584 2278 3584 
Q 2916 3584 3314 3078 
Q 3713 2572 3713 1747 
Q 3713 922 3314 415 
Q 2916 -91 2278 -91 
Q 1894 -91 1617 61 
Q 1341 213 1159 525 
z
M 3116 1747 
Q 3116 2381 2855 2742 
Q 2594 3103 2138 3103 
Q 1681 3103 1420 2742 
Q 1159 2381 1159 1747 
Q 1159 1113 1420 752 
Q 1681 391 2138 391 
Q 2594 391 2855 752 
Q 3116 1113 3116 1747 
z
" id="DejaVuSans-70" transform="scale(0.015625)"/>
       <path d="M 2188 4044 
L 1331 1722 
L 3047 1722 
L 2188 4044 
z
M 1831 4666 
L 2547 4666 
L 4325 0 
L 3669 0 
L 3244 1197 
L 1141 1197 
L 716 0 
L 50 0 
L 1831 4666 
z
" id="DejaVuSans-41" transform="scale(0.015625)"/>
      </defs>
      <use xlink:href="#DejaVuSans-73"/>
      <use x="52.099609" xlink:href="#DejaVuSans-61"/>
      <use x="113.378906" xlink:href="#DejaVuSans-6d"/>
      <use x="210.791016" xlink:href="#DejaVuSans-70"/>
      <use x="274.267578" xlink:href="#DejaVuSans-6c"/>
      <use x="302.050781" xlink:href="#DejaVuSans-65"/>
      <use x="363.574219" xlink:href="#DejaVuSans-20"/>
      <use x="395.361328" xlink:href="#DejaVuSans-41"/>
     </g>
    </g>
    <g id="line2d_16">
     <path d="M 326.763095 112.13206 
L 370.763095 112.13206 
" style="fill:none;stroke:#0000ff;stroke-linecap:square;stroke-width:1.5;"/>
    </g>
    <g id="line2d_17"/>
    <g id="text_9">
     <!-- sample B -->
     <g transform="translate(388.363095 119.83206)scale(0.22 -0.22)">
      <use xlink:href="#DejaVuSans-73"/>
      <use x="52.099609" xlink:href="#DejaVuSans-61"/>
      <use x="113.378906" xlink:href="#DejaVuSans-6d"/>
      <use x="210.791016" xlink:href="#DejaVuSans-70"/>
      <use x="274.267578" xlink:href="#DejaVuSans-6c"/>
      <use x="302.050781" xlink:href="#DejaVuSans-65"/>
      <use x="363.574219" xlink:href="#DejaVuSans-20"/>
      <use x="395.361328" xlink:href="#DejaVuSans-42"/>
     </g>
    </g>
   </g>
  </g>
 </g>
 <defs>
  <clipPath id="p5c1d063b1c">
   <rect height="321.023622" width="439.370079" x="70.866142" y="51.023622"/>
  </clipPath>
 </defs>
</svg>
